<?xml version="1.0"?>
<VTKFile type="UnstructuredGrid" version="0.1" byte_order="LittleEndian">
  <UnstructuredGrid>
    <Piece NumberOfCells="270" NumberOfPoints="157">
      <CellData Scalars="ReservoirCell">
        <DataArray type="Float32" Name="ReservoirCell" NumberOfComponents="1" format="ascii">
          1875 1875 1875 1875 1875 1875 1875 1875 1875 1875 1875 1875
          1875 1875 1875 1875 1875 1875 1875 1875 1875 1875 1875 1875
          1875 1875 1875 1875 1875 1875 1875 1875 1875 1875 1875 1875
          1875 1875 1875 1875 1875 1875 1875 1875 1875 1875 1875 1875
          1875 1875 1875 1875 1875 1875 1875 1875 1875 1875 1875 1875
          1875 1875 1875 1875 1875 1875 1875 1875 1875 1875 1875 1875
          1875 1875 1875 1875 1875 1875 1875 1875 1875 1875 1875 1875
          1875 1875 1875 1875 1875 1875 1875 1875 1875 1875 1875 1875
          1875 1875 1875 1875 1875 1875 1875 1875 1875 1875 1875 1875
          1875 1875 1875 1875 1875 1875 1875 1875 1875 1875 1875 1875
          1875 1875 1875 1875 1875 1875 1875 1875 1875 1875 1875 1875
          1875 1875 1875 1875 1875 1875 1875 1875 1875 1875 1875 1875
          1875 1875 1875 1875 1875 1875 1875 1875 1875 1875 1875 1875
          1875 1875 1875 1875 1875 1875 1875 1875 1875 1875 1875 1875
          1875 1875 1875 1875 1875 1875 1875 1875 1875 1875 1875 1875
          1875 1875 1875 1875 1875 1875 1875 1875 1875 1875 1875 1875
          1875 1875 1875 1875 1875 1875 1875 1875 1875 1875 1875 1875
          1875 1875 1875 1875 1875 1875 1875 1875 1875 1875 1875 1875
          1875 1875 1875 1875 1875 1875 1875 1875 1875 1875 1875 1875
          1875 1875 1875 1875 1875 1875 1875 1875 1875 1875 1875 1875
          1875 1875 1875 1875 1875 1875 1875 1875 1875 1875 1875 1875
          1875 1875 1875 1875 1875 1875 1875 1875 1875 1875 1875 1875
          1875 1875 1875 1875 1875 1875
        </DataArray>
        <DataArray type="Float32" Name="ReservoirPerm" NumberOfComponents="1" format="ascii">
          9.86923e-13 9.86923e-13 9.86923e-13 9.86923e-13 9.86923e-13 9.86923e-13 9.86923e-13 9.86923e-13 9.86923e-13 9.86923e-13 9.86923e-13 9.86923e-13
          9.86923e-13 9.86923e-13 9.86923e-13 9.86923e-13 9.86923e-13 9.86923e-13 9.86923e-13 9.86923e-13 9.86923e-13 9.86923e-13 9.86923e-13 9.86923e-13
          9.86923e-13 9.86923e-13 9.86923e-13 9.86923e-13 9.86923e-13 9.86923e-13 9.86923e-13 9.86923e-13 9.86923e-13 9.86923e-13 9.86923e-13 9.86923e-13
          9.86923e-13 9.86923e-13 9.86923e-13 9.86923e-13 9.86923e-13 9.86923e-13 9.86923e-13 9.86923e-13 9.86923e-13 9.86923e-13 9.86923e-13 9.86923e-13
          9.86923e-13 9.86923e-13 9.86923e-13 9.86923e-13 9.86923e-13 9.86923e-13 9.86923e-13 9.86923e-13 9.86923e-13 9.86923e-13 9.86923e-13 9.86923e-13
          9.86923e-13 9.86923e-13 9.86923e-13 9.86923e-13 9.86923e-13 9.86923e-13 9.86923e-13 9.86923e-13 9.86923e-13 9.86923e-13 9.86923e-13 9.86923e-13
          9.86923e-13 9.86923e-13 9.86923e-13 9.86923e-13 9.86923e-13 9.86923e-13 9.86923e-13 9.86923e-13 9.86923e-13 9.86923e-13 9.86923e-13 9.86923e-13
          9.86923e-13 9.86923e-13 9.86923e-13 9.86923e-13 9.86923e-13 9.86923e-13 9.86923e-13 9.86923e-13 9.86923e-13 9.86923e-13 9.86923e-13 9.86923e-13
          9.86923e-13 9.86923e-13 9.86923e-13 9.86923e-13 9.86923e-13 9.86923e-13 9.86923e-13 9.86923e-13 9.86923e-13 9.86923e-13 9.86923e-13 9.86923e-13
          9.86923e-13 9.86923e-13 9.86923e-13 9.86923e-13 9.86923e-13 9.86923e-13 9.86923e-13 9.86923e-13 9.86923e-13 9.86923e-13 9.86923e-13 9.86923e-13
          9.86923e-13 9.86923e-13 9.86923e-13 9.86923e-13 9.86923e-13 9.86923e-13 9.86923e-13 9.86923e-13 9.86923e-13 9.86923e-13 9.86923e-13 9.86923e-13
          9.86923e-13 9.86923e-13 9.86923e-13 9.86923e-13 9.86923e-13 9.86923e-13 9.86923e-13 9.86923e-13 9.86923e-13 9.86923e-13 9.86923e-13 9.86923e-13
          9.86923e-13 9.86923e-13 9.86923e-13 9.86923e-13 9.86923e-13 9.86923e-13 9.86923e-13 9.86923e-13 9.86923e-13 9.86923e-13 9.86923e-13 9.86923e-13
          9.86923e-13 9.86923e-13 9.86923e-13 9.86923e-13 9.86923e-13 9.86923e-13 9.86923e-13 9.86923e-13 9.86923e-13 9.86923e-13 9.86923e-13 9.86923e-13
          9.86923e-13 9.86923e-13 9.86923e-13 9.86923e-13 9.86923e-13 9.86923e-13 9.86923e-13 9.86923e-13 9.86923e-13 9.86923e-13 9.86923e-13 9.86923e-13
          9.86923e-13 9.86923e-13 9.86923e-13 9.86923e-13 9.86923e-13 9.86923e-13 9.86923e-13 9.86923e-13 9.86923e-13 9.86923e-13 9.86923e-13 9.86923e-13
          9.86923e-13 9.86923e-13 9.86923e-13 9.86923e-13 9.86923e-13 9.86923e-13 9.86923e-13 9.86923e-13 9.86923e-13 9.86923e-13 9.86923e-13 9.86923e-13
          9.86923e-13 9.86923e-13 9.86923e-13 9.86923e-13 9.86923e-13 9.86923e-13 9.86923e-13 9.86923e-13 9.86923e-13 9.86923e-13 9.86923e-13 9.86923e-13
          9.86923e-13 9.86923e-13 9.86923e-13 9.86923e-13 9.86923e-13 9.86923e-13 9.86923e-13 9.86923e-13 9.86923e-13 9.86923e-13 9.86923e-13 9.86923e-13
          9.86923e-13 9.86923e-13 9.86923e-13 9.86923e-13 9.86923e-13 9.86923e-13 9.86923e-13 9.86923e-13 9.86923e-13 9.86923e-13 9.86923e-13 9.86923e-13
          9.86923e-13 9.86923e-13 9.86923e-13 9.86923e-13 9.86923e-13 9.86923e-13 9.86923e-13 9.86923e-13 9.86923e-13 9.86923e-13 9.86923e-13 9.86923e-13
          9.86923e-13 9.86923e-13 9.86923e-13 9.86923e-13 9.86923e-13 9.86923e-13 9.86923e-13 9.86923e-13 9.86923e-13 9.86923e-13 9.86923e-13 9.86923e-13
          9.86923e-13 9.86923e-13 9.86923e-13 9.86923e-13 9.86923e-13 9.86923e-13
        </DataArray>
        <DataArray type="Float32" Name="ReservoirDist" NumberOfComponents="1" format="ascii">
          45.25 45.25 45.25 45.25 45.25 45.25 45.25 45.25 45.25 45.25 45.25 45.25
          45.25 45.25 45.25 45.25 45.25 45.25 45.25 45.25 45.25 45.25 45.25 45.25
          45.25 45.25 45.25 45.25 45.25 45.25 45.25 45.25 45.25 45.25 45.25 45.25
          45.25 45.25 45.25 45.25 45.25 45.25 45.25 45.25 45.25 45.25 45.25 45.25
          45.25 45.25 45.25 45.25 45.25 45.25 45.25 45.25 45.25 45.25 45.25 45.25
          45.25 45.25 45.25 45.25 45.25 45.25 45.25 45.25 45.25 45.25 45.25 45.25
          45.25 45.25 45.25 45.25 45.25 45.25 45.25 45.25 45.25 45.25 45.25 45.25
          45.25 45.25 45.25 45.25 45.25 45.25 45.25 45.25 45.25 45.25 45.25 45.25
          45.25 45.25 45.25 45.25 45.25 45.25 45.25 45.25 45.25 45.25 45.25 45.25
          45.25 45.25 45.25 45.25 45.25 45.25 45.25 45.25 45.25 45.25 45.25 45.25
          45.25 45.25 45.25 45.25 45.25 45.25 45.25 45.25 45.25 45.25 45.25 45.25
          45.25 45.25 45.25 45.25 45.25 45.25 45.25 45.25 45.25 45.25 45.25 45.25
          45.25 45.25 45.25 45.25 45.25 45.25 45.25 45.25 45.25 45.25 45.25 45.25
          45.25 45.25 45.25 45.25 45.25 45.25 45.25 45.25 45.25 45.25 45.25 45.25
          45.25 45.25 45.25 45.25 45.25 45.25 45.25 45.25 45.25 45.25 45.25 45.25
          45.25 45.25 45.25 45.25 45.25 45.25 45.25 45.25 45.25 45.25 45.25 45.25
          45.25 45.25 45.25 45.25 45.25 45.25 45.25 45.25 45.25 45.25 45.25 45.25
          45.25 45.25 45.25 45.25 45.25 45.25 45.25 45.25 45.25 45.25 45.25 45.25
          45.25 45.25 45.25 45.25 45.25 45.25 45.25 45.25 45.25 45.25 45.25 45.25
          45.25 45.25 45.25 45.25 45.25 45.25 45.25 45.25 45.25 45.25 45.25 45.25
          45.25 45.25 45.25 45.25 45.25 45.25 45.25 45.25 45.25 45.25 45.25 45.25
          45.25 45.25 45.25 45.25 45.25 45.25 45.25 45.25 45.25 45.25 45.25 45.25
          45.25 45.25 45.25 45.25 45.25 45.25
        </DataArray>
        <DataArray type="Float32" Name="ReservoirCStres" NumberOfComponents="1" format="ascii">
          5.55e+06 5.55e+06 5.55e+06 5.55e+06 5.55e+06 5.55e+06 5.55e+06 5.55e+06 5.55e+06 5.55e+06 5.55e+06 5.55e+06
          5.55e+06 5.55e+06 5.55e+06 5.55e+06 5.55e+06 5.55e+06 5.55e+06 5.55e+06 5.55e+06 5.55e+06 5.55e+06 5.55e+06
          5.55e+06 5.55e+06 5.55e+06 5.55e+06 5.55e+06 5.55e+06 5.55e+06 5.55e+06 5.55e+06 5.55e+06 5.55e+06 5.55e+06
          5.55e+06 5.55e+06 5.55e+06 5.55e+06 5.55e+06 5.55e+06 5.55e+06 5.55e+06 5.55e+06 5.55e+06 5.55e+06 5.55e+06
          5.55e+06 5.55e+06 5.55e+06 5.55e+06 5.55e+06 5.55e+06 5.55e+06 5.55e+06 5.55e+06 5.55e+06 5.55e+06 5.55e+06
          5.55e+06 5.55e+06 5.55e+06 5.55e+06 5.55e+06 5.55e+06 5.55e+06 5.55e+06 5.55e+06 5.55e+06 5.55e+06 5.55e+06
          5.55e+06 5.55e+06 5.55e+06 5.55e+06 5.55e+06 5.55e+06 5.55e+06 5.55e+06 5.55e+06 5.55e+06 5.55e+06 5.55e+06
          5.55e+06 5.55e+06 5.55e+06 5.55e+06 5.55e+06 5.55e+06 5.55e+06 5.55e+06 5.55e+06 5.55e+06 5.55e+06 5.55e+06
          5.55e+06 5.55e+06 5.55e+06 5.55e+06 5.55e+06 5.55e+06 5.55e+06 5.55e+06 5.55e+06 5.55e+06 5.55e+06 5.55e+06
          5.55e+06 5.55e+06 5.55e+06 5.55e+06 5.55e+06 5.55e+06 5.55e+06 5.55e+06 5.55e+06 5.55e+06 5.55e+06 5.55e+06
          5.55e+06 5.55e+06 5.55e+06 5.55e+06 5.55e+06 5.55e+06 5.55e+06 5.55e+06 5.55e+06 5.55e+06 5.55e+06 5.55e+06
          5.55e+06 5.55e+06 5.55e+06 5.55e+06 5.55e+06 5.55e+06 5.55e+06 5.55e+06 5.55e+06 5.55e+06 5.55e+06 5.55e+06
          5.55e+06 5.55e+06 5.55e+06 5.55e+06 5.55e+06 5.55e+06 5.55e+06 5.55e+06 5.55e+06 5.55e+06 5.55e+06 5.55e+06
          5.55e+06 5.55e+06 5.55e+06 5.55e+06 5.55e+06 5.55e+06 5.55e+06 5.55e+06 5.55e+06 5.55e+06 5.55e+06 5.55e+06
          5.55e+06 5.55e+06 5.55e+06 5.55e+06 5.55e+06 5.55e+06 5.55e+06 5.55e+06 5.55e+06 5.55e+06 5.55e+06 5.55e+06
          5.55e+06 5.55e+06 5.55e+06 5.55e+06 5.55e+06 5.55e+06 5.55e+06 5.55e+06 5.55e+06 5.55e+06 5.55e+06 5.55e+06
          5.55e+06 5.55e+06 5.55e+06 5.55e+06 5.55e+06 5.55e+06 5.55e+06 5.55e+06 5.55e+06 5.55e+06 5.55e+06 5.55e+06
          5.55e+06 5.55e+06 5.55e+06 5.55e+06 5.55e+06 5.55e+06 5.55e+06 5.55e+06 5.55e+06 5.55e+06 5.55e+06 5.55e+06
          5.55e+06 5.55e+06 5.55e+06 5.55e+06 5.55e+06 5.55e+06 5.55e+06 5.55e+06 5.55e+06 5.55e+06 5.55e+06 5.55e+06
          5.55e+06 5.55e+06 5.55e+06 5.55e+06 5.55e+06 5.55e+06 5.55e+06 5.55e+06 5.55e+06 5.55e+06 5.55e+06 5.55e+06
          5.55e+06 5.55e+06 5.55e+06 5.55e+06 5.55e+06 5.55e+06 5.55e+06 5.55e+06 5.55e+06 5.55e+06 5.55e+06 5.55e+06
          5.55e+06 5.55e+06 5.55e+06 5.55e+06 5.55e+06 5.55e+06 5.55e+06 5.55e+06 5.55e+06 5.55e+06 5.55e+06 5.55e+06
          5.55e+06 5.55e+06 5.55e+06 5.55e+06 5.55e+06 5.55e+06
        </DataArray>
        <DataArray type="Float32" Name="FracturePressure" NumberOfComponents="1" format="ascii">
          2.63717e+07 2.63716e+07 2.6367e+07 2.6367e+07 2.63622e+07 2.63621e+07 2.63573e+07 2.63571e+07 2.63523e+07 2.6352e+07 2.63471e+07 2.63716e+07
          2.63717e+07 2.63671e+07 2.63671e+07 2.63625e+07 2.63624e+07 2.63577e+07 2.63576e+07 2.63529e+07 2.63527e+07 2.63479e+07 2.63477e+07 2.63428e+07
          2.63426e+07 2.63377e+07 2.63373e+07 2.63323e+07 2.6367e+07 2.6367e+07 2.63624e+07 2.63625e+07 2.63578e+07 2.63578e+07 2.63532e+07 2.63531e+07
          2.63484e+07 2.63483e+07 2.63435e+07 2.63433e+07 2.63384e+07 2.63382e+07 2.63333e+07 2.6333e+07 2.63281e+07 2.63277e+07 2.63228e+07 2.63621e+07
          2.63622e+07 2.63576e+07 2.63577e+07 2.63531e+07 2.63532e+07 2.63485e+07 2.63485e+07 2.63439e+07 2.63438e+07 2.63391e+07 2.63389e+07 2.63341e+07
          2.63338e+07 2.63289e+07 2.63286e+07 2.63237e+07 2.63234e+07 2.63184e+07 2.63181e+07 2.6313e+07 2.63571e+07 2.63573e+07 2.63527e+07 2.63529e+07
          2.63483e+07 2.63484e+07 2.63438e+07 2.63439e+07 2.63394e+07 2.63394e+07 2.63348e+07 2.63346e+07 2.63299e+07 2.63296e+07 2.63247e+07 2.63243e+07
          2.63193e+07 2.6319e+07 2.6314e+07 2.63136e+07 2.63086e+07 2.63082e+07 2.63031e+07 2.6352e+07 2.63523e+07 2.63477e+07 2.63479e+07 2.63433e+07
          2.63435e+07 2.63389e+07 2.63391e+07 2.63346e+07 2.63348e+07 2.63304e+07 2.63304e+07 2.63261e+07 2.63255e+07 2.63206e+07 2.63201e+07 2.6315e+07
          2.63146e+07 2.63095e+07 2.63092e+07 2.63041e+07 2.63038e+07 2.62987e+07 2.62983e+07 2.63471e+07 2.63426e+07 2.63428e+07 2.63382e+07 2.63384e+07
          2.63338e+07 2.63341e+07 2.63296e+07 2.63299e+07 2.63255e+07 2.63261e+07 2.63222e+07 2.63222e+07 2.63173e+07 2.63163e+07 2.63109e+07 2.63103e+07
          2.63051e+07 2.63047e+07 2.62996e+07 2.62993e+07 2.62941e+07 2.62939e+07 2.62887e+07 2.63373e+07 2.63377e+07 2.6333e+07 2.63333e+07 2.63286e+07
          2.63289e+07 2.63243e+07 2.63247e+07 2.63201e+07 2.63206e+07 2.63163e+07 2.63173e+07 2.63124e+07 2.63124e+07 2.63065e+07 2.6306e+07 2.63006e+07
          2.63002e+07 2.62949e+07 2.62947e+07 2.62895e+07 2.62892e+07 2.6284e+07 2.62838e+07 2.63323e+07 2.63277e+07 2.63281e+07 2.63234e+07 2.63237e+07
          2.6319e+07 2.63193e+07 2.63146e+07 2.6315e+07 2.63103e+07 2.63109e+07 2.6306e+07 2.63065e+07 2.63011e+07 2.63011e+07 2.62957e+07 2.62955e+07
          2.62901e+07 2.62899e+07 2.62847e+07 2.62845e+07 2.62793e+07 2.62791e+07 2.62737e+07 2.63228e+07 2.63181e+07 2.63184e+07 2.63136e+07 2.6314e+07
          2.63092e+07 2.63095e+07 2.63047e+07 2.63051e+07 2.63002e+07 2.63006e+07 2.62955e+07 2.62957e+07 2.62904e+07 2.62904e+07 2.62851e+07 2.6285e+07
          2.62798e+07 2.62796e+07 2.62744e+07 2.62742e+07 2.6269e+07 2.62687e+07 2.6313e+07 2.63082e+07 2.63086e+07 2.63038e+07 2.63041e+07 2.62993e+07
          2.62996e+07 2.62947e+07 2.62949e+07 2.62899e+07 2.62901e+07 2.6285e+07 2.62851e+07 2.628e+07 2.628e+07 2.62748e+07 2.62747e+07 2.62695e+07
          2.62693e+07 2.6264e+07 2.62639e+07 2.63031e+07 2.62983e+07 2.62987e+07 2.62939e+07 2.62941e+07 2.62892e+07 2.62895e+07 2.62845e+07 2.62847e+07
          2.62796e+07 2.62798e+07 2.62747e+07 2.62748e+07 2.62696e+07 2.62696e+07 2.62644e+07 2.62643e+07 2.6259e+07 2.62589e+07 2.62887e+07 2.62838e+07
          2.6284e+07 2.62791e+07 2.62793e+07 2.62742e+07 2.62744e+07 2.62693e+07 2.62695e+07 2.62643e+07 2.62644e+07 2.62592e+07 2.62592e+07 2.62737e+07
          2.62687e+07 2.6269e+07 2.62639e+07 2.6264e+07 2.62589e+07 2.6259e+07
        </DataArray>
        <DataArray type="Float32" Name="FractureHead" NumberOfComponents="1" format="ascii">
          -8980.02 -9047.71 -8752.97 -8815.14 -8616.79 -8742.97 -8623.13 -8830.06 -8773.61 -9080.96 -9018.26 -9047.71
          -8980.02 -8649.95 -8649.95 -8398.77 -8445.62 -8235.29 -8328.2 -8176.47 -8332.85 -8243.29 -8461.19 -8417.94
          -8681.09 -8687.48 -9039.66 -9119.22 -8815.14 -8752.97 -8445.62 -8398.77 -8135.21 -8135.21 -7895.44 -7956.19
          -7757.4 -7891.26 -7758.41 -7960.71 -7900.43 -8147.84 -8149.82 -8427 -8479.77 -8810.5 -8885.19 -8742.97
          -8616.79 -8328.2 -8235.29 -7956.19 -7895.44 -7612.64 -7612.64 -7343.18 -7441.43 -7234.33 -7440.21 -7338.76
          -7611.23 -7608.61 -7900.1 -7960.75 -8256.4 -8354.58 -8673.76 -8821.73 -8830.06 -8623.13 -8332.85 -8176.47
          -7891.26 -7757.4 -7441.43 -7343.18 -6988.14 -6988.14 -6641.32 -6834.77 -6634.04 -6978.02 -6970.59 -7328.85
          -7421.64 -7747.23 -7878.03 -8182.97 -8342.89 -8682.73 -8939.52 -9080.96 -8773.61 -8461.19 -8243.29 -7960.71
          -7758.41 -7440.21 -7234.33 -6834.77 -6641.32 -6111.52 -6111.52 -5584.28 -6100.24 -6087.25 -6614.33 -6798.94
          -7201.27 -7399.93 -7725.56 -7919.82 -8218.16 -8427.14 -8801.88 -9018.26 -8681.09 -8417.94 -8147.84 -7900.43
          -7611.23 -7338.76 -6978.02 -6634.04 -6100.24 -5584.28 -4549.96 -4549.96 -4527.61 -5552.05 -6058.69 -6589.61
          -6927.53 -7287.54 -7553.55 -7842.53 -8080.46 -8355.23 -8622.34 -9039.66 -8687.48 -8427 -8149.82 -7900.1
          -7608.61 -7328.85 -6970.59 -6614.33 -6087.25 -5552.05 -4527.61 -4505.12 -4505.12 -5519.38 -6045.43 -6569.35
          -6919.83 -7277.25 -7550.84 -7842.56 -8082.83 -8366.63 -8628.68 -9119.22 -8810.5 -8479.77 -8256.4 -7960.75
          -7747.23 -7421.64 -7201.27 -6798.94 -6589.61 -6058.69 -6045.43 -5519.38 -6033.75 -6033.75 -6561.7 -6762.2
          -7167.34 -7380.86 -7714.69 -7920.94 -8235.26 -8451.06 -8855.99 -8885.19 -8673.76 -8354.58 -8182.97 -7878.03
          -7725.56 -7399.93 -7287.54 -6927.53 -6919.83 -6569.35 -6762.2 -6561.7 -6909.11 -6909.11 -7272.39 -7379.45
          -7715.59 -7866.02 -8194.04 -8371.71 -8749.73 -9018.83 -8821.73 -8682.73 -8342.89 -8218.16 -7919.82 -7842.53
          -7553.55 -7550.84 -7277.25 -7380.86 -7167.34 -7379.45 -7272.39 -7548.98 -7548.98 -7847.25 -7925.28 -8242.98
          -8376.25 -8755.83 -8921.17 -8939.52 -8801.88 -8427.14 -8355.23 -8080.46 -8082.83 -7842.56 -7920.94 -7714.69
          -7866.02 -7715.59 -7925.28 -7847.25 -8095.39 -8095.39 -8385.6 -8466.19 -8874.92 -9033.28 -8622.34 -8628.68
          -8366.63 -8451.06 -8235.26 -8371.71 -8194.04 -8376.25 -8242.98 -8466.19 -8385.6 -8661.59 -8661.59 -8855.99
          -9018.83 -8749.73 -8921.17 -8755.83 -9033.28 -8874.92
        </DataArray>
        <DataArray type="Float32" Name="ReservoirPressure" NumberOfComponents="1" format="ascii">
          2.20925e+07 2.20925e+07 2.20925e+07 2.20925e+07 2.20925e+07 2.20925e+07 2.20925e+07 2.20925e+07 2.20925e+07 2.20925e+07 2.20925e+07 2.20925e+07
          2.20925e+07 2.20925e+07 2.20925e+07 2.20925e+07 2.20925e+07 2.20925e+07 2.20925e+07 2.20925e+07 2.20925e+07 2.20925e+07 2.20925e+07 2.20925e+07
          2.20925e+07 2.20925e+07 2.20925e+07 2.20925e+07 2.20925e+07 2.20925e+07 2.20925e+07 2.20925e+07 2.20925e+07 2.20925e+07 2.20925e+07 2.20925e+07
          2.20925e+07 2.20925e+07 2.20925e+07 2.20925e+07 2.20925e+07 2.20925e+07 2.20925e+07 2.20925e+07 2.20925e+07 2.20925e+07 2.20925e+07 2.20925e+07
          2.20925e+07 2.20925e+07 2.20925e+07 2.20925e+07 2.20925e+07 2.20925e+07 2.20925e+07 2.20925e+07 2.20925e+07 2.20925e+07 2.20925e+07 2.20925e+07
          2.20925e+07 2.20925e+07 2.20925e+07 2.20925e+07 2.20925e+07 2.20925e+07 2.20925e+07 2.20925e+07 2.20925e+07 2.20925e+07 2.20925e+07 2.20925e+07
          2.20925e+07 2.20925e+07 2.20925e+07 2.20925e+07 2.20925e+07 2.20925e+07 2.20925e+07 2.20925e+07 2.20925e+07 2.20925e+07 2.20925e+07 2.20925e+07
          2.20925e+07 2.20925e+07 2.20925e+07 2.20925e+07 2.20925e+07 2.20925e+07 2.20925e+07 2.20925e+07 2.20925e+07 2.20925e+07 2.20925e+07 2.20925e+07
          2.20925e+07 2.20925e+07 2.20925e+07 2.20925e+07 2.20925e+07 2.20925e+07 2.20925e+07 2.20925e+07 2.20925e+07 2.20925e+07 2.20925e+07 2.20925e+07
          2.20925e+07 2.20925e+07 2.20925e+07 2.20925e+07 2.20925e+07 2.20925e+07 2.20925e+07 2.20925e+07 2.20925e+07 2.20925e+07 2.20925e+07 2.20925e+07
          2.20925e+07 2.20925e+07 2.20925e+07 2.20925e+07 2.20925e+07 2.20925e+07 2.20925e+07 2.20925e+07 2.20925e+07 2.20925e+07 2.20925e+07 2.20925e+07
          2.20925e+07 2.20925e+07 2.20925e+07 2.20925e+07 2.20925e+07 2.20925e+07 2.20925e+07 2.20925e+07 2.20925e+07 2.20925e+07 2.20925e+07 2.20925e+07
          2.20925e+07 2.20925e+07 2.20925e+07 2.20925e+07 2.20925e+07 2.20925e+07 2.20925e+07 2.20925e+07 2.20925e+07 2.20925e+07 2.20925e+07 2.20925e+07
          2.20925e+07 2.20925e+07 2.20925e+07 2.20925e+07 2.20925e+07 2.20925e+07 2.20925e+07 2.20925e+07 2.20925e+07 2.20925e+07 2.20925e+07 2.20925e+07
          2.20925e+07 2.20925e+07 2.20925e+07 2.20925e+07 2.20925e+07 2.20925e+07 2.20925e+07 2.20925e+07 2.20925e+07 2.20925e+07 2.20925e+07 2.20925e+07
          2.20925e+07 2.20925e+07 2.20925e+07 2.20925e+07 2.20925e+07 2.20925e+07 2.20925e+07 2.20925e+07 2.20925e+07 2.20925e+07 2.20925e+07 2.20925e+07
          2.20925e+07 2.20925e+07 2.20925e+07 2.20925e+07 2.20925e+07 2.20925e+07 2.20925e+07 2.20925e+07 2.20925e+07 2.20925e+07 2.20925e+07 2.20925e+07
          2.20925e+07 2.20925e+07 2.20925e+07 2.20925e+07 2.20925e+07 2.20925e+07 2.20925e+07 2.20925e+07 2.20925e+07 2.20925e+07 2.20925e+07 2.20925e+07
          2.20925e+07 2.20925e+07 2.20925e+07 2.20925e+07 2.20925e+07 2.20925e+07 2.20925e+07 2.20925e+07 2.20925e+07 2.20925e+07 2.20925e+07 2.20925e+07
          2.20925e+07 2.20925e+07 2.20925e+07 2.20925e+07 2.20925e+07 2.20925e+07 2.20925e+07 2.20925e+07 2.20925e+07 2.20925e+07 2.20925e+07 2.20925e+07
          2.20925e+07 2.20925e+07 2.20925e+07 2.20925e+07 2.20925e+07 2.20925e+07 2.20925e+07 2.20925e+07 2.20925e+07 2.20925e+07 2.20925e+07 2.20925e+07
          2.20925e+07 2.20925e+07 2.20925e+07 2.20925e+07 2.20925e+07 2.20925e+07 2.20925e+07 2.20925e+07 2.20925e+07 2.20925e+07 2.20925e+07 2.20925e+07
          2.20925e+07 2.20925e+07 2.20925e+07 2.20925e+07 2.20925e+07 2.20925e+07
        </DataArray>
        <DataArray type="Float32" Name="LeakofDP" NumberOfComponents="1" format="ascii">
          4.22032e+06 4.22026e+06 4.22055e+06 4.22049e+06 4.22069e+06 4.22056e+06 4.22068e+06 4.22047e+06 4.22053e+06 4.22022e+06 4.22028e+06 4.22026e+06
          4.22032e+06 4.22065e+06 4.22065e+06 4.2209e+06 4.22086e+06 4.22107e+06 4.22097e+06 4.22113e+06 4.22097e+06 4.22106e+06 4.22084e+06 4.22088e+06
          4.22062e+06 4.22062e+06 4.22026e+06 4.22018e+06 4.22049e+06 4.22055e+06 4.22086e+06 4.2209e+06 4.22117e+06 4.22117e+06 4.22141e+06 4.22135e+06
          4.22155e+06 4.22141e+06 4.22154e+06 4.22134e+06 4.2214e+06 4.22116e+06 4.22115e+06 4.22088e+06 4.22082e+06 4.22049e+06 4.22042e+06 4.22056e+06
          4.22069e+06 4.22097e+06 4.22107e+06 4.22135e+06 4.22141e+06 4.22169e+06 4.22169e+06 4.22196e+06 4.22186e+06 4.22207e+06 4.22186e+06 4.22196e+06
          4.22169e+06 4.22169e+06 4.2214e+06 4.22134e+06 4.22105e+06 4.22095e+06 4.22063e+06 4.22048e+06 4.22047e+06 4.22068e+06 4.22097e+06 4.22113e+06
          4.22141e+06 4.22155e+06 4.22186e+06 4.22196e+06 4.22231e+06 4.22231e+06 4.22266e+06 4.22247e+06 4.22267e+06 4.22232e+06 4.22233e+06 4.22197e+06
          4.22188e+06 4.22156e+06 4.22142e+06 4.22112e+06 4.22096e+06 4.22062e+06 4.22036e+06 4.22022e+06 4.22053e+06 4.22084e+06 4.22106e+06 4.22134e+06
          4.22154e+06 4.22186e+06 4.22207e+06 4.22247e+06 4.22266e+06 4.22319e+06 4.22319e+06 4.22372e+06 4.2232e+06 4.22322e+06 4.22269e+06 4.2225e+06
          4.2221e+06 4.2219e+06 4.22158e+06 4.22138e+06 4.22108e+06 4.22088e+06 4.2205e+06 4.22028e+06 4.22062e+06 4.22088e+06 4.22116e+06 4.2214e+06
          4.22169e+06 4.22196e+06 4.22232e+06 4.22267e+06 4.2232e+06 4.22372e+06 4.22475e+06 4.22475e+06 4.22478e+06 4.22375e+06 4.22324e+06 4.22271e+06
          4.22238e+06 4.22202e+06 4.22175e+06 4.22146e+06 4.22122e+06 4.22095e+06 4.22068e+06 4.22026e+06 4.22062e+06 4.22088e+06 4.22115e+06 4.2214e+06
          4.22169e+06 4.22197e+06 4.22233e+06 4.22269e+06 4.22322e+06 4.22375e+06 4.22478e+06 4.2248e+06 4.2248e+06 4.22378e+06 4.22326e+06 4.22273e+06
          4.22238e+06 4.22203e+06 4.22175e+06 4.22146e+06 4.22122e+06 4.22094e+06 4.22067e+06 4.22018e+06 4.22049e+06 4.22082e+06 4.22105e+06 4.22134e+06
          4.22156e+06 4.22188e+06 4.2221e+06 4.2225e+06 4.22271e+06 4.22324e+06 4.22326e+06 4.22378e+06 4.22327e+06 4.22327e+06 4.22274e+06 4.22254e+06
          4.22214e+06 4.22192e+06 4.22159e+06 4.22138e+06 4.22107e+06 4.22085e+06 4.22045e+06 4.22042e+06 4.22063e+06 4.22095e+06 4.22112e+06 4.22142e+06
          4.22158e+06 4.2219e+06 4.22202e+06 4.22238e+06 4.22238e+06 4.22273e+06 4.22254e+06 4.22274e+06 4.22239e+06 4.22239e+06 4.22203e+06 4.22192e+06
          4.22159e+06 4.22144e+06 4.22111e+06 4.22093e+06 4.22055e+06 4.22028e+06 4.22048e+06 4.22062e+06 4.22096e+06 4.22108e+06 4.22138e+06 4.22146e+06
          4.22175e+06 4.22175e+06 4.22203e+06 4.22192e+06 4.22214e+06 4.22192e+06 4.22203e+06 4.22175e+06 4.22175e+06 4.22146e+06 4.22138e+06 4.22106e+06
          4.22093e+06 4.22055e+06 4.22038e+06 4.22036e+06 4.2205e+06 4.22088e+06 4.22095e+06 4.22122e+06 4.22122e+06 4.22146e+06 4.22138e+06 4.22159e+06
          4.22144e+06 4.22159e+06 4.22138e+06 4.22146e+06 4.22121e+06 4.22121e+06 4.22092e+06 4.22084e+06 4.22043e+06 4.22027e+06 4.22068e+06 4.22067e+06
          4.22094e+06 4.22085e+06 4.22107e+06 4.22093e+06 4.22111e+06 4.22093e+06 4.22106e+06 4.22084e+06 4.22092e+06 4.22064e+06 4.22064e+06 4.22045e+06
          4.22028e+06 4.22055e+06 4.22038e+06 4.22055e+06 4.22027e+06 4.22043e+06
        </DataArray>
        <DataArray type="Float32" Name="FilterCakeThickness" NumberOfComponents="1" format="ascii">
          0 0 0 0 0 0 0 0 0 0 0 0
          0 0 0 0 0 0 0 0 0 0 0 0
          0 0 0 0 0 0 0 0 0 0 0 0
          0 0 0 0 0 0 0 0 0 0 0 0
          0 0 0 0 0 0 0 0 0 0 0 0
          0 0 0 0 0 0 0 0 0 0 0 0
          0 0 0 0 0 0 0 0 0 0 0 0
          0 0 0 0 0 0 0 0 0 0 0 0
          0 0 0 0 0 0 0 0 0 0 0 0
          0 0 0 0 0 0 0 0 0 0 0 0
          0 0 0 0 0 0 0 0 0 0 0 0
          0 0 0 0 0 0 0 0 0 0 0 0
          0 0 0 0 0 0 0 0 0 0 0 0
          0 0 0 0 0 0 0 0 0 0 0 0
          0 0 0 0 0 0 0 0 0 0 0 0
          0 0 0 0 0 0 0 0 0 0 0 0
          0 0 0 0 0 0 0 0 0 0 0 0
          0 0 0 0 0 0 0 0 0 0 0 0
          0 0 0 0 0 0 0 0 0 0 0 0
          0 0 0 0 0 0 0 0 0 0 0 0
          0 0 0 0 0 0 0 0 0 0 0 0
          0 0 0 0 0 0 0 0 0 0 0 0
          0 0 0 0 0 0
        </DataArray>
        <DataArray type="Float32" Name="ReservoirTraction" NumberOfComponents="1" format="ascii">
          2.4003e+07 2.4003e+07 2.4003e+07 2.4003e+07 2.4003e+07 2.4003e+07 2.4003e+07 2.4003e+07 2.4003e+07 2.4003e+07 2.4003e+07 2.4003e+07
          2.4003e+07 2.4003e+07 2.4003e+07 2.4003e+07 2.4003e+07 2.4003e+07 2.4003e+07 2.4003e+07 2.4003e+07 2.4003e+07 2.4003e+07 2.4003e+07
          2.4003e+07 2.4003e+07 2.4003e+07 2.4003e+07 2.4003e+07 2.4003e+07 2.4003e+07 2.4003e+07 2.4003e+07 2.4003e+07 2.4003e+07 2.4003e+07
          2.4003e+07 2.4003e+07 2.4003e+07 2.4003e+07 2.4003e+07 2.4003e+07 2.4003e+07 2.4003e+07 2.4003e+07 2.4003e+07 2.4003e+07 2.4003e+07
          2.4003e+07 2.4003e+07 2.4003e+07 2.4003e+07 2.4003e+07 2.4003e+07 2.4003e+07 2.4003e+07 2.4003e+07 2.4003e+07 2.4003e+07 2.4003e+07
          2.4003e+07 2.4003e+07 2.4003e+07 2.4003e+07 2.4003e+07 2.4003e+07 2.4003e+07 2.4003e+07 2.4003e+07 2.4003e+07 2.4003e+07 2.4003e+07
          2.4003e+07 2.4003e+07 2.4003e+07 2.4003e+07 2.4003e+07 2.4003e+07 2.4003e+07 2.4003e+07 2.4003e+07 2.4003e+07 2.4003e+07 2.4003e+07
          2.4003e+07 2.4003e+07 2.4003e+07 2.4003e+07 2.4003e+07 2.4003e+07 2.4003e+07 2.4003e+07 2.4003e+07 2.4003e+07 2.4003e+07 2.4003e+07
          2.4003e+07 2.4003e+07 2.4003e+07 2.4003e+07 2.4003e+07 2.4003e+07 2.4003e+07 2.4003e+07 2.4003e+07 2.4003e+07 2.4003e+07 2.4003e+07
          2.4003e+07 2.4003e+07 2.4003e+07 2.4003e+07 2.4003e+07 2.4003e+07 2.4003e+07 2.4003e+07 2.4003e+07 2.4003e+07 2.4003e+07 2.4003e+07
          2.4003e+07 2.4003e+07 2.4003e+07 2.4003e+07 2.4003e+07 2.4003e+07 2.4003e+07 2.4003e+07 2.4003e+07 2.4003e+07 2.4003e+07 2.4003e+07
          2.4003e+07 2.4003e+07 2.4003e+07 2.4003e+07 2.4003e+07 2.4003e+07 2.4003e+07 2.4003e+07 2.4003e+07 2.4003e+07 2.4003e+07 2.4003e+07
          2.4003e+07 2.4003e+07 2.4003e+07 2.4003e+07 2.4003e+07 2.4003e+07 2.4003e+07 2.4003e+07 2.4003e+07 2.4003e+07 2.4003e+07 2.4003e+07
          2.4003e+07 2.4003e+07 2.4003e+07 2.4003e+07 2.4003e+07 2.4003e+07 2.4003e+07 2.4003e+07 2.4003e+07 2.4003e+07 2.4003e+07 2.4003e+07
          2.4003e+07 2.4003e+07 2.4003e+07 2.4003e+07 2.4003e+07 2.4003e+07 2.4003e+07 2.4003e+07 2.4003e+07 2.4003e+07 2.4003e+07 2.4003e+07
          2.4003e+07 2.4003e+07 2.4003e+07 2.4003e+07 2.4003e+07 2.4003e+07 2.4003e+07 2.4003e+07 2.4003e+07 2.4003e+07 2.4003e+07 2.4003e+07
          2.4003e+07 2.4003e+07 2.4003e+07 2.4003e+07 2.4003e+07 2.4003e+07 2.4003e+07 2.4003e+07 2.4003e+07 2.4003e+07 2.4003e+07 2.4003e+07
          2.4003e+07 2.4003e+07 2.4003e+07 2.4003e+07 2.4003e+07 2.4003e+07 2.4003e+07 2.4003e+07 2.4003e+07 2.4003e+07 2.4003e+07 2.4003e+07
          2.4003e+07 2.4003e+07 2.4003e+07 2.4003e+07 2.4003e+07 2.4003e+07 2.4003e+07 2.4003e+07 2.4003e+07 2.4003e+07 2.4003e+07 2.4003e+07
          2.4003e+07 2.4003e+07 2.4003e+07 2.4003e+07 2.4003e+07 2.4003e+07 2.4003e+07 2.4003e+07 2.4003e+07 2.4003e+07 2.4003e+07 2.4003e+07
          2.4003e+07 2.4003e+07 2.4003e+07 2.4003e+07 2.4003e+07 2.4003e+07 2.4003e+07 2.4003e+07 2.4003e+07 2.4003e+07 2.4003e+07 2.4003e+07
          2.4003e+07 2.4003e+07 2.4003e+07 2.4003e+07 2.4003e+07 2.4003e+07 2.4003e+07 2.4003e+07 2.4003e+07 2.4003e+07 2.4003e+07 2.4003e+07
          2.4003e+07 2.4003e+07 2.4003e+07 2.4003e+07 2.4003e+07 2.4003e+07
        </DataArray>
        <DataArray type="Float32" Name="FractureForce" NumberOfComponents="1" format="ascii">
          -2.36866e+06 -2.36859e+06 -2.36398e+06 -2.36392e+06 -2.35922e+06 -2.35909e+06 -2.35431e+06 -2.3541e+06 -2.34925e+06 -2.34894e+06 -2.3441e+06 -2.36859e+06
          -2.36866e+06 -2.36409e+06 -2.36409e+06 -2.35943e+06 -2.35939e+06 -2.35469e+06 -2.3546e+06 -2.34985e+06 -2.34969e+06 -2.34488e+06 -2.34466e+06 -2.3398e+06
          -2.33954e+06 -2.33463e+06 -2.33428e+06 -2.32929e+06 -2.36392e+06 -2.36398e+06 -2.35939e+06 -2.35943e+06 -2.35479e+06 -2.35479e+06 -2.35013e+06 -2.35007e+06
          -2.34536e+06 -2.34523e+06 -2.34046e+06 -2.34026e+06 -2.33542e+06 -2.33517e+06 -2.33026e+06 -2.32998e+06 -2.32503e+06 -2.3247e+06 -2.31972e+06 -2.35909e+06
          -2.35922e+06 -2.3546e+06 -2.35469e+06 -2.35007e+06 -2.35013e+06 -2.34551e+06 -2.34551e+06 -2.34088e+06 -2.34078e+06 -2.33608e+06 -2.33588e+06 -2.33107e+06
          -2.3308e+06 -2.3259e+06 -2.32561e+06 -2.32064e+06 -2.32035e+06 -2.31535e+06 -2.31503e+06 -2.30998e+06 -2.3541e+06 -2.35431e+06 -2.34969e+06 -2.34985e+06
          -2.34523e+06 -2.34536e+06 -2.34078e+06 -2.34088e+06 -2.33633e+06 -2.33633e+06 -2.33177e+06 -2.33158e+06 -2.32687e+06 -2.32653e+06 -2.32163e+06 -2.32128e+06
          -2.31628e+06 -2.31595e+06 -2.31092e+06 -2.31062e+06 -2.30555e+06 -2.30521e+06 -2.30005e+06 -2.34894e+06 -2.34925e+06 -2.34466e+06 -2.34488e+06 -2.34026e+06
          -2.34046e+06 -2.33588e+06 -2.33608e+06 -2.33158e+06 -2.33177e+06 -2.3274e+06 -2.3274e+06 -2.32302e+06 -2.32251e+06 -2.31761e+06 -2.31709e+06 -2.312e+06
          -2.3116e+06 -2.3065e+06 -2.30617e+06 -2.30107e+06 -2.30077e+06 -2.29566e+06 -2.29529e+06 -2.3441e+06 -2.33954e+06 -2.3398e+06 -2.33517e+06 -2.33542e+06
          -2.3308e+06 -2.33107e+06 -2.32653e+06 -2.32687e+06 -2.32251e+06 -2.32302e+06 -2.31915e+06 -2.31915e+06 -2.31427e+06 -2.31325e+06 -2.30784e+06 -2.30731e+06
          -2.30206e+06 -2.3017e+06 -2.29654e+06 -2.29625e+06 -2.29110e+06 -2.29083e+06 -2.28566e+06 -2.33428e+06 -2.33463e+06 -2.32998e+06 -2.33026e+06 -2.32561e+06
          -2.3259e+06 -2.32128e+06 -2.32163e+06 -2.31709e+06 -2.31761e+06 -2.31325e+06 -2.31427e+06 -2.30939e+06 -2.30939e+06 -2.30347e+06 -2.30295e+06 -2.29752e+06
          -2.29717e+06 -2.29191e+06 -2.29163e+06 -2.28644e+06 -2.2862e+06 -2.28101e+06 -2.28075e+06 -2.32929e+06 -2.3247e+06 -2.32503e+06 -2.32035e+06 -2.32064e+06
          -2.31595e+06 -2.31628e+06 -2.3116e+06 -2.312e+06 -2.30731e+06 -2.30784e+06 -2.30295e+06 -2.30347e+06 -2.29806e+06 -2.29806e+06 -2.29262e+06 -2.29242e+06
          -2.28711e+06 -2.2869e+06 -2.28166e+06 -2.28146e+06 -2.27624e+06 -2.27602e+06 -2.27072e+06 -2.31972e+06 -2.31503e+06 -2.31535e+06 -2.31062e+06 -2.31092e+06
          -2.30617e+06 -2.3065e+06 -2.3017e+06 -2.30206e+06 -2.29717e+06 -2.29752e+06 -2.29242e+06 -2.29262e+06 -2.28737e+06 -2.28737e+06 -2.28211e+06 -2.282e+06
          -2.27676e+06 -2.27661e+06 -2.27138e+06 -2.2712e+06 -2.26592e+06 -2.26565e+06 -2.30998e+06 -2.30521e+06 -2.30555e+06 -2.30077e+06 -2.30107e+06 -2.29625e+06
          -2.29654e+06 -2.29163e+06 -2.29191e+06 -2.2869e+06 -2.28711e+06 -2.282e+06 -2.28211e+06 -2.27693e+06 -2.27693e+06 -2.27172e+06 -2.27165e+06 -2.26643e+06
          -2.26629e+06 -2.26101e+06 -2.26084e+06 -2.30005e+06 -2.29529e+06 -2.29566e+06 -2.29083e+06 -2.29110e+06 -2.2862e+06 -2.28644e+06 -2.28146e+06 -2.28166e+06
          -2.27661e+06 -2.27676e+06 -2.27165e+06 -2.27172e+06 -2.26657e+06 -2.26657e+06 -2.26138e+06 -2.2613e+06 -2.25599e+06 -2.25583e+06 -2.28566e+06 -2.28075e+06
          -2.28101e+06 -2.27602e+06 -2.27624e+06 -2.2712e+06 -2.27138e+06 -2.26629e+06 -2.26643e+06 -2.2613e+06 -2.26138e+06 -2.2562e+06 -2.2562e+06 -2.27072e+06
          -2.26565e+06 -2.26592e+06 -2.26084e+06 -2.26101e+06 -2.25583e+06 -2.25599e+06
        </DataArray>
        <DataArray type="Float32" Name="ReservoirMobility" NumberOfComponents="1" format="ascii">
          2523.6 2523.6 2523.6 2523.6 2523.6 2523.6 2523.6 2523.6 2523.6 2523.6 2523.6 2523.6
          2523.6 2523.6 2523.6 2523.6 2523.6 2523.6 2523.6 2523.6 2523.6 2523.6 2523.6 2523.6
          2523.6 2523.6 2523.6 2523.6 2523.6 2523.6 2523.6 2523.6 2523.6 2523.6 2523.6 2523.6
          2523.6 2523.6 2523.6 2523.6 2523.6 2523.6 2523.6 2523.6 2523.6 2523.6 2523.6 2523.6
          2523.6 2523.6 2523.6 2523.6 2523.6 2523.6 2523.6 2523.6 2523.6 2523.6 2523.6 2523.6
          2523.6 2523.6 2523.6 2523.6 2523.6 2523.6 2523.6 2523.6 2523.6 2523.6 2523.6 2523.6
          2523.6 2523.6 2523.6 2523.6 2523.6 2523.6 2523.6 2523.6 2523.6 2523.6 2523.6 2523.6
          2523.6 2523.6 2523.6 2523.6 2523.6 2523.6 2523.6 2523.6 2523.6 2523.6 2523.6 2523.6
          2523.6 2523.6 2523.6 2523.6 2523.6 2523.6 2523.6 2523.6 2523.6 2523.6 2523.6 2523.6
          2523.6 2523.6 2523.6 2523.6 2523.6 2523.6 2523.6 2523.6 2523.6 2523.6 2523.6 2523.6
          2523.6 2523.6 2523.6 2523.6 2523.6 2523.6 2523.6 2523.6 2523.6 2523.6 2523.6 2523.6
          2523.6 2523.6 2523.6 2523.6 2523.6 2523.6 2523.6 2523.6 2523.6 2523.6 2523.6 2523.6
          2523.6 2523.6 2523.6 2523.6 2523.6 2523.6 2523.6 2523.6 2523.6 2523.6 2523.6 2523.6
          2523.6 2523.6 2523.6 2523.6 2523.6 2523.6 2523.6 2523.6 2523.6 2523.6 2523.6 2523.6
          2523.6 2523.6 2523.6 2523.6 2523.6 2523.6 2523.6 2523.6 2523.6 2523.6 2523.6 2523.6
          2523.6 2523.6 2523.6 2523.6 2523.6 2523.6 2523.6 2523.6 2523.6 2523.6 2523.6 2523.6
          2523.6 2523.6 2523.6 2523.6 2523.6 2523.6 2523.6 2523.6 2523.6 2523.6 2523.6 2523.6
          2523.6 2523.6 2523.6 2523.6 2523.6 2523.6 2523.6 2523.6 2523.6 2523.6 2523.6 2523.6
          2523.6 2523.6 2523.6 2523.6 2523.6 2523.6 2523.6 2523.6 2523.6 2523.6 2523.6 2523.6
          2523.6 2523.6 2523.6 2523.6 2523.6 2523.6 2523.6 2523.6 2523.6 2523.6 2523.6 2523.6
          2523.6 2523.6 2523.6 2523.6 2523.6 2523.6 2523.6 2523.6 2523.6 2523.6 2523.6 2523.6
          2523.6 2523.6 2523.6 2523.6 2523.6 2523.6 2523.6 2523.6 2523.6 2523.6 2523.6 2523.6
          2523.6 2523.6 2523.6 2523.6 2523.6 2523.6
        </DataArray>
        <DataArray type="Float32" Name="LeakOfRate" NumberOfComponents="1" format="ascii">
          0.00023229 0.000232286 0.000232303 0.000232299 0.00023231 0.000232303 0.00023231 0.000232298 0.000232301 0.000232284 0.000232288 0.000232286
          0.00023229 0.000232308 0.000232308 0.000232322 0.000232319 0.000232331 0.000232326 0.000232334 0.000232326 0.000232331 0.000232319 0.000232321
          0.000232306 0.000232306 0.000232287 0.000232282 0.000232299 0.000232303 0.000232319 0.000232322 0.000232337 0.000232337 0.00023235 0.000232346
          0.000232357 0.00023235 0.000232357 0.000232346 0.000232349 0.000232336 0.000232336 0.00023232 0.000232318 0.000232299 0.000232295 0.000232303
          0.00023231 0.000232326 0.000232331 0.000232346 0.00023235 0.000232365 0.000232365 0.00023238 0.000232375 0.000232386 0.000232375 0.00023238
          0.000232365 0.000232366 0.000232349 0.000232346 0.00023233 0.000232324 0.000232307 0.000232299 0.000232298 0.00023231 0.000232326 0.000232334
          0.00023235 0.000232357 0.000232375 0.00023238 0.0002324 0.0002324 0.000232419 0.000232408 0.000232419 0.0002324 0.000232401 0.000232381
          0.000232376 0.000232358 0.000232351 0.000232334 0.000232325 0.000232306 0.000232292 0.000232284 0.000232301 0.000232319 0.000232331 0.000232346
          0.000232357 0.000232375 0.000232386 0.000232408 0.000232419 0.000232448 0.000232448 0.000232477 0.000232449 0.000232449 0.00023242 0.00023241
          0.000232388 0.000232377 0.000232359 0.000232348 0.000232332 0.00023232 0.0002323 0.000232288 0.000232306 0.000232321 0.000232336 0.000232349
          0.000232365 0.00023238 0.0002324 0.000232419 0.000232449 0.000232477 0.000232534 0.000232534 0.000232535 0.000232479 0.000232451 0.000232422
          0.000232403 0.000232383 0.000232369 0.000232353 0.00023234 0.000232324 0.00023231 0.000232287 0.000232306 0.00023232 0.000232336 0.000232349
          0.000232366 0.000232381 0.000232401 0.00023242 0.000232449 0.000232479 0.000232535 0.000232536 0.000232536 0.000232481 0.000232452 0.000232423
          0.000232403 0.000232384 0.000232369 0.000232353 0.000232339 0.000232324 0.000232309 0.000232282 0.000232299 0.000232318 0.00023233 0.000232346
          0.000232358 0.000232376 0.000232388 0.00023241 0.000232422 0.000232451 0.000232452 0.000232481 0.000232452 0.000232452 0.000232423 0.000232412
          0.00023239 0.000232378 0.00023236 0.000232348 0.000232331 0.000232319 0.000232297 0.000232295 0.000232307 0.000232324 0.000232334 0.000232351
          0.000232359 0.000232377 0.000232383 0.000232403 0.000232403 0.000232423 0.000232412 0.000232423 0.000232404 0.000232404 0.000232384 0.000232378
          0.00023236 0.000232351 0.000232333 0.000232324 0.000232303 0.000232288 0.000232299 0.000232306 0.000232325 0.000232332 0.000232348 0.000232353
          0.000232369 0.000232369 0.000232384 0.000232378 0.00023239 0.000232378 0.000232384 0.000232369 0.000232369 0.000232352 0.000232348 0.000232331
          0.000232323 0.000232302 0.000232293 0.000232292 0.0002323 0.00023232 0.000232324 0.00023234 0.000232339 0.000232353 0.000232348 0.00023236
          0.000232351 0.00023236 0.000232348 0.000232352 0.000232339 0.000232339 0.000232323 0.000232318 0.000232296 0.000232287 0.00023231 0.000232309
          0.000232324 0.000232319 0.000232331 0.000232324 0.000232333 0.000232323 0.000232331 0.000232318 0.000232323 0.000232308 0.000232308 0.000232297
          0.000232288 0.000232303 0.000232293 0.000232302 0.000232287 0.000232296
        </DataArray>
        <DataArray type="Float32" Name="WellIndex" NumberOfComponents="1" format="ascii">
          2.51606e-12 2.51606e-12 2.51606e-12 2.51606e-12 2.51606e-12 2.51606e-12 2.51606e-12 2.51606e-12 2.51606e-12 2.51606e-12 2.51606e-12 2.51606e-12
          2.51606e-12 2.51606e-12 2.51606e-12 2.51606e-12 2.51606e-12 2.51606e-12 2.51606e-12 2.51606e-12 2.51606e-12 2.51606e-12 2.51606e-12 2.51606e-12
          2.51606e-12 2.51606e-12 2.51606e-12 2.51606e-12 2.51606e-12 2.51606e-12 2.51606e-12 2.51606e-12 2.51606e-12 2.51606e-12 2.51606e-12 2.51606e-12
          2.51606e-12 2.51606e-12 2.51606e-12 2.51606e-12 2.51606e-12 2.51606e-12 2.51606e-12 2.51606e-12 2.51606e-12 2.51606e-12 2.51606e-12 2.51606e-12
          2.51606e-12 2.51606e-12 2.51606e-12 2.51606e-12 2.51606e-12 2.51606e-12 2.51606e-12 2.51606e-12 2.51606e-12 2.51606e-12 2.51606e-12 2.51606e-12
          2.51606e-12 2.51606e-12 2.51606e-12 2.51606e-12 2.51606e-12 2.51606e-12 2.51606e-12 2.51606e-12 2.51606e-12 2.51606e-12 2.51606e-12 2.51606e-12
          2.51606e-12 2.51606e-12 2.51606e-12 2.51606e-12 2.51606e-12 2.51606e-12 2.51606e-12 2.51606e-12 2.51606e-12 2.51606e-12 2.51606e-12 2.51606e-12
          2.51606e-12 2.51606e-12 2.51606e-12 2.51606e-12 2.51606e-12 2.51606e-12 2.51606e-12 2.51606e-12 2.51606e-12 2.51606e-12 2.51606e-12 2.51606e-12
          2.51606e-12 2.51606e-12 2.51606e-12 2.51606e-12 2.51606e-12 2.51606e-12 2.51606e-12 2.51606e-12 2.51606e-12 2.51606e-12 2.51606e-12 2.51606e-12
          2.51606e-12 2.51606e-12 2.51606e-12 2.51606e-12 2.51606e-12 2.51606e-12 2.51606e-12 2.51606e-12 2.51606e-12 2.51606e-12 2.51606e-12 2.51606e-12
          2.51606e-12 2.51606e-12 2.51606e-12 2.51606e-12 2.51606e-12 2.51606e-12 2.51606e-12 2.51606e-12 2.51606e-12 2.51606e-12 2.51606e-12 2.51606e-12
          2.51606e-12 2.51606e-12 2.51606e-12 2.51606e-12 2.51606e-12 2.51606e-12 2.51606e-12 2.51606e-12 2.51606e-12 2.51606e-12 2.51606e-12 2.51606e-12
          2.51606e-12 2.51606e-12 2.51606e-12 2.51606e-12 2.51606e-12 2.51606e-12 2.51606e-12 2.51606e-12 2.51606e-12 2.51606e-12 2.51606e-12 2.51606e-12
          2.51606e-12 2.51606e-12 2.51606e-12 2.51606e-12 2.51606e-12 2.51606e-12 2.51606e-12 2.51606e-12 2.51606e-12 2.51606e-12 2.51606e-12 2.51606e-12
          2.51606e-12 2.51606e-12 2.51606e-12 2.51606e-12 2.51606e-12 2.51606e-12 2.51606e-12 2.51606e-12 2.51606e-12 2.51606e-12 2.51606e-12 2.51606e-12
          2.51606e-12 2.51606e-12 2.51606e-12 2.51606e-12 2.51606e-12 2.51606e-12 2.51606e-12 2.51606e-12 2.51606e-12 2.51606e-12 2.51606e-12 2.51606e-12
          2.51606e-12 2.51606e-12 2.51606e-12 2.51606e-12 2.51606e-12 2.51606e-12 2.51606e-12 2.51606e-12 2.51606e-12 2.51606e-12 2.51606e-12 2.51606e-12
          2.51606e-12 2.51606e-12 2.51606e-12 2.51606e-12 2.51606e-12 2.51606e-12 2.51606e-12 2.51606e-12 2.51606e-12 2.51606e-12 2.51606e-12 2.51606e-12
          2.51606e-12 2.51606e-12 2.51606e-12 2.51606e-12 2.51606e-12 2.51606e-12 2.51606e-12 2.51606e-12 2.51606e-12 2.51606e-12 2.51606e-12 2.51606e-12
          2.51606e-12 2.51606e-12 2.51606e-12 2.51606e-12 2.51606e-12 2.51606e-12 2.51606e-12 2.51606e-12 2.51606e-12 2.51606e-12 2.51606e-12 2.51606e-12
          2.51606e-12 2.51606e-12 2.51606e-12 2.51606e-12 2.51606e-12 2.51606e-12 2.51606e-12 2.51606e-12 2.51606e-12 2.51606e-12 2.51606e-12 2.51606e-12
          2.51606e-12 2.51606e-12 2.51606e-12 2.51606e-12 2.51606e-12 2.51606e-12 2.51606e-12 2.51606e-12 2.51606e-12 2.51606e-12 2.51606e-12 2.51606e-12
          2.51606e-12 2.51606e-12 2.51606e-12 2.51606e-12 2.51606e-12 2.51606e-12
        </DataArray>
        <DataArray type="Float32" Name="FractureWidth" NumberOfComponents="1" format="ascii">
          0.000864523 0.000825224 0.00111403 0.000929027 0.00117644 0.00095035 0.00117374 0.000924879 0.00110646 0.000818037 0.000854971 0.000825224
          0.000864523 0.00123147 0.00123147 0.00147522 0.00142434 0.00159257 0.00149344 0.00162317 0.00148983 0.00158462 0.00141404 0.00146041
          0.00121658 0.00121259 0.00084958 0.000808139 0.000929027 0.00111403 0.00142434 0.00147522 0.00168379 0.00168379 0.00183142 0.00179122
          0.0018959 0.00182069 0.00189064 0.0017816 0.00181593 0.00166535 0.00165919 0.00145015 0.00139366 0.0010879 0.000901884 0.00095035
          0.00117644 0.00149344 0.00159257 0.00179122 0.00183142 0.00196892 0.00196892 0.00206357 0.0020297 0.00208942 0.00202362 0.00205064
          0.0019508 0.00194304 0.00180172 0.00175269 0.00155307 0.00144447 0.00113436 0.00090375 0.000924879 0.00117374 0.00148983 0.00162317
          0.00182069 0.0018959 0.0020297 0.00206357 0.00215372 0.00215372 0.00220883 0.00217787 0.00220126 0.0021392 0.0021306 0.00203394
          0.00198956 0.00184985 0.00176039 0.00155878 0.00140345 0.0010935 0.00081366 0.000818037 0.00110646 0.00141404 0.00158462 0.0017816
          0.00189064 0.00202362 0.00208942 0.00217787 0.00220883 0.00226192 0.00226192 0.00228367 0.00225374 0.0022449 0.00218361 0.00214208
          0.0020446 0.0019642 0.00181976 0.00168561 0.00146931 0.00123489 0.000860218 0.000854971 0.00121658 0.00146041 0.00166535 0.00181593
          0.0019508 0.00205064 0.0021392 0.00220126 0.00225374 0.00228367 0.00230481 0.00230481 0.00229598 0.00226594 0.00222622 0.00216364
          0.00208908 0.00198704 0.00186766 0.00170984 0.00151903 0.00125629 0.000894235 0.00084958 0.00121259 0.00145015 0.00165919 0.00180172
          0.00194304 0.00203394 0.0021306 0.00218361 0.0022449 0.00226594 0.00229598 0.00228717 0.00228717 0.00224827 0.00221742 0.00214611
          0.00208055 0.00197052 0.00186001 0.0016959 0.00151311 0.00124679 0.000891224 0.000808139 0.0010879 0.00139366 0.00155307 0.00175269
          0.00184985 0.00198956 0.0020446 0.00214208 0.00216364 0.00222622 0.00221742 0.00224827 0.00220933 0.00220933 0.00213866 0.00210653
          0.00200016 0.00193049 0.00177948 0.00165721 0.00143854 0.00121567 0.000843953 0.000901884 0.00113436 0.00144447 0.00155878 0.00176039
          0.00181976 0.0019642 0.00198704 0.00208908 0.00208055 0.00214611 0.00210653 0.00213866 0.00206632 0.00206632 0.00195799 0.00192465
          0.00177452 0.00170083 0.00149529 0.00135892 0.00105495 0.000791682 0.00090375 0.0010935 0.00140345 0.00146931 0.00168561 0.00170984
          0.00186766 0.00186001 0.00197052 0.00193049 0.00200016 0.00192465 0.00195799 0.0018426 0.0018426 0.00168138 0.00164828 0.00143146
          0.00135573 0.00105266 0.000857892 0.00081366 0.000860218 0.00123489 0.00125629 0.00151903 0.00151311 0.0016959 0.00165721 0.00177948
          0.00170083 0.00177452 0.00164828 0.00168138 0.00149627 0.00149627 0.0012342 0.00120703 0.000838581 0.00078839 0.000894235 0.000891224
          0.00124679 0.00121567 0.00143854 0.00135892 0.00149529 0.00135573 0.00143146 0.00120703 0.0012342 0.000880237 0.000880237 0.000843953
          0.000791682 0.00105495 0.000857892 0.00105266 0.00078839 0.000838581
        </DataArray>
        <DataArray type="Float32" Name="FlowWidth" NumberOfComponents="1" format="ascii">
          0.000864523 0.000825224 0.00111403 0.000929027 0.00117644 0.00095035 0.00117374 0.000924879 0.00110646 0.000818037 0.000854971 0.000825224
          0.000864523 0.00123147 0.00123147 0.00147522 0.00142434 0.00159257 0.00149344 0.00162317 0.00148983 0.00158462 0.00141404 0.00146041
          0.00121658 0.00121259 0.00084958 0.000808139 0.000929027 0.00111403 0.00142434 0.00147522 0.00168379 0.00168379 0.00183142 0.00179122
          0.0018959 0.00182069 0.00189064 0.0017816 0.00181593 0.00166535 0.00165919 0.00145015 0.00139366 0.0010879 0.000901884 0.00095035
          0.00117644 0.00149344 0.00159257 0.00179122 0.00183142 0.00196892 0.00196892 0.00206357 0.0020297 0.00208942 0.00202362 0.00205064
          0.0019508 0.00194304 0.00180172 0.00175269 0.00155307 0.00144447 0.00113436 0.00090375 0.000924879 0.00117374 0.00148983 0.00162317
          0.00182069 0.0018959 0.0020297 0.00206357 0.00215372 0.00215372 0.00220883 0.00217787 0.00220126 0.0021392 0.0021306 0.00203394
          0.00198956 0.00184985 0.00176039 0.00155878 0.00140345 0.0010935 0.00081366 0.000818037 0.00110646 0.00141404 0.00158462 0.0017816
          0.00189064 0.00202362 0.00208942 0.00217787 0.00220883 0.00226192 0.00226192 0.00228367 0.00225374 0.0022449 0.00218361 0.00214208
          0.0020446 0.0019642 0.00181976 0.00168561 0.00146931 0.00123489 0.000860218 0.000854971 0.00121658 0.00146041 0.00166535 0.00181593
          0.0019508 0.00205064 0.0021392 0.00220126 0.00225374 0.00228367 0.00230481 0.00230481 0.00229598 0.00226594 0.00222622 0.00216364
          0.00208908 0.00198704 0.00186766 0.00170984 0.00151903 0.00125629 0.000894235 0.00084958 0.00121259 0.00145015 0.00165919 0.00180172
          0.00194304 0.00203394 0.0021306 0.00218361 0.0022449 0.00226594 0.00229598 0.00228717 0.00228717 0.00224827 0.00221742 0.00214611
          0.00208055 0.00197052 0.00186001 0.0016959 0.00151311 0.00124679 0.000891224 0.000808139 0.0010879 0.00139366 0.00155307 0.00175269
          0.00184985 0.00198956 0.0020446 0.00214208 0.00216364 0.00222622 0.00221742 0.00224827 0.00220933 0.00220933 0.00213866 0.00210653
          0.00200016 0.00193049 0.00177948 0.00165721 0.00143854 0.00121567 0.000843953 0.000901884 0.00113436 0.00144447 0.00155878 0.00176039
          0.00181976 0.0019642 0.00198704 0.00208908 0.00208055 0.00214611 0.00210653 0.00213866 0.00206632 0.00206632 0.00195799 0.00192465
          0.00177452 0.00170083 0.00149529 0.00135892 0.00105495 0.000791682 0.00090375 0.0010935 0.00140345 0.00146931 0.00168561 0.00170984
          0.00186766 0.00186001 0.00197052 0.00193049 0.00200016 0.00192465 0.00195799 0.0018426 0.0018426 0.00168138 0.00164828 0.00143146
          0.00135573 0.00105266 0.000857892 0.00081366 0.000860218 0.00123489 0.00125629 0.00151903 0.00151311 0.0016959 0.00165721 0.00177948
          0.00170083 0.00177452 0.00164828 0.00168138 0.00149627 0.00149627 0.0012342 0.00120703 0.000838581 0.00078839 0.000894235 0.000891224
          0.00124679 0.00121567 0.00143854 0.00135892 0.00149529 0.00135573 0.00143146 0.00120703 0.0012342 0.000880237 0.000880237 0.000843953
          0.000791682 0.00105495 0.000857892 0.00105266 0.00078839 0.000838581
        </DataArray>
        <DataArray type="Float32" Name="stressIntensityK1" NumberOfComponents="1" format="ascii">
          6.20252e+06 5.92057e+06 nan 6.66530e+06 nan 6.81829e+06 nan 6.63555e+06 nan 5.86901e+06 6.13399e+06 5.92057e+06
          6.20252e+06 nan nan nan nan nan nan nan nan nan nan nan
          nan nan 6.09532e+06 5.798e+06 6.66530e+06 nan nan nan nan nan nan nan
          nan nan nan nan nan nan nan nan nan nan 6.47057e+06 6.81829e+06
          nan nan nan nan nan nan nan nan nan nan nan nan
          nan nan nan nan nan nan nan 6.48395e+06 6.63555e+06 nan nan nan
          nan nan nan nan nan nan nan nan nan nan nan nan
          nan nan nan nan nan nan 5.83761e+06 5.86901e+06 nan nan nan nan
          nan nan nan nan nan nan nan nan nan nan nan nan
          nan nan nan nan nan nan 6.17164e+06 6.13399e+06 nan nan nan nan
          nan nan nan nan nan nan nan nan nan nan nan nan
          nan nan nan nan nan nan 6.4157e+06 6.09532e+06 nan nan nan nan
          nan nan nan nan nan nan nan nan nan nan nan nan
          nan nan nan nan nan nan 6.39409e+06 5.798e+06 nan nan nan nan
          nan nan nan nan nan nan nan nan nan nan nan nan
          nan nan nan nan nan nan 6.05494e+06 6.47057e+06 nan nan nan nan
          nan nan nan nan nan nan nan nan nan nan nan nan
          nan nan nan nan nan 5.67992e+06 6.48395e+06 nan nan nan nan nan
          nan nan nan nan nan nan nan nan nan nan nan nan
          nan nan 6.15495e+06 5.83761e+06 6.17164e+06 nan nan nan nan nan nan nan
          nan nan nan nan nan nan nan nan 6.0164e+06 5.65631e+06 6.4157e+06 6.39409e+06
          nan nan nan nan nan nan nan nan nan 6.31527e+06 6.31527e+06 6.05494e+06
          5.67992e+06 nan 6.15495e+06 nan 5.65631e+06 6.0164e+06
        </DataArray>
      </CellData>
      <Points>
        <DataArray type="Float32" Name="Coordinates" NumberOfComponents="3" format="ascii">
          995.5 995.5 2216 994.634 995.5 2216.5 994.634 995.5 2215.5 993.768 995.5 2216
          993.768 995.5 2215 992.902 995.5 2215.5 992.902 995.5 2214.5 992.036 995.5 2215
          992.036 995.5 2214 991.17 995.5 2214.5 991.17 995.5 2213.5 990.304 995.5 2214
          990.304 995.5 2213 997.232 995.5 2216 996.366 995.5 2216.5 996.366 995.5 2215.5
          995.5 995.5 2215 994.634 995.5 2214.5 993.768 995.5 2214 992.902 995.5 2213.5
          992.036 995.5 2213 991.17 995.5 2212.5 990.304 995.5 2212 989.438 995.5 2212.5
          989.438 995.5 2211.5 998.098 995.5 2215.5 997.232 995.5 2215 996.366 995.5 2214.5
          995.5 995.5 2214 994.634 995.5 2213.5 993.768 995.5 2213 992.902 995.5 2212.5
          992.036 995.5 2212 991.17 995.5 2211.5 990.304 995.5 2211 989.438 995.5 2210.5
          998.964 995.5 2215 998.098 995.5 2214.5 997.232 995.5 2214 996.366 995.5 2213.5
          995.5 995.5 2213 994.634 995.5 2212.5 993.768 995.5 2212 992.902 995.5 2211.5
          992.036 995.5 2211 991.17 995.5 2210.5 990.304 995.5 2210 989.438 995.5 2209.5
          999.83 995.5 2214.5 998.964 995.5 2214 998.098 995.5 2213.5 997.232 995.5 2213
          996.366 995.5 2212.5 995.5 995.5 2212 994.634 995.5 2211.5 993.768 995.5 2211
          992.902 995.5 2210.5 992.036 995.5 2210 991.17 995.5 2209.5 990.304 995.5 2209
          989.438 995.5 2208.5 1000.7 995.5 2214 999.83 995.5 2213.5 998.964 995.5 2213
          998.098 995.5 2212.5 997.232 995.5 2212 996.366 995.5 2211.5 995.5 995.5 2211
          994.634 995.5 2210.5 993.768 995.5 2210 992.902 995.5 2209.5 992.036 995.5 2209
          991.17 995.5 2208.5 990.304 995.5 2208 1000.7 995.5 2213 999.83 995.5 2212.5
          998.964 995.5 2212 998.098 995.5 2211.5 997.232 995.5 2211 996.366 995.5 2210.5
          995.5 995.5 2210 994.634 995.5 2209.5 993.768 995.5 2209 992.902 995.5 2208.5
          992.036 995.5 2208 991.17 995.5 2207.5 990.304 995.5 2207 1001.56 995.5 2212.5
          1000.7 995.5 2212 999.83 995.5 2211.5 998.964 995.5 2211 998.098 995.5 2210.5
          997.232 995.5 2210 996.366 995.5 2209.5 995.5 995.5 2209 994.634 995.5 2208.5
          993.768 995.5 2208 992.902 995.5 2207.5 992.036 995.5 2207 991.17 995.5 2206.5
          1001.56 995.5 2211.5 1000.7 995.5 2211 999.83 995.5 2210.5 998.964 995.5 2210
          998.098 995.5 2209.5 997.232 995.5 2209 996.366 995.5 2208.5 995.5 995.5 2208
          994.634 995.5 2207.5 993.768 995.5 2207 992.902 995.5 2206.5 992.036 995.5 2206
          991.17 995.5 2205.5 1001.56 995.5 2210.5 1000.7 995.5 2210 999.83 995.5 2209.5
          998.964 995.5 2209 998.098 995.5 2208.5 997.232 995.5 2208 996.366 995.5 2207.5
          995.5 995.5 2207 994.634 995.5 2206.5 993.768 995.5 2206 992.902 995.5 2205.5
          992.036 995.5 2205 1001.56 995.5 2209.5 1000.7 995.5 2209 999.83 995.5 2208.5
          998.964 995.5 2208 998.098 995.5 2207.5 997.232 995.5 2207 996.366 995.5 2206.5
          995.5 995.5 2206 994.634 995.5 2205.5 993.768 995.5 2205 992.902 995.5 2204.5
          1001.56 995.5 2208.5 1000.7 995.5 2208 999.83 995.5 2207.5 998.964 995.5 2207
          998.098 995.5 2206.5 997.232 995.5 2206 996.366 995.5 2205.5 995.5 995.5 2205
          994.634 995.5 2204.5 993.768 995.5 2204 1000.7 995.5 2207 999.83 995.5 2206.5
          998.964 995.5 2206 998.098 995.5 2205.5 997.232 995.5 2205 996.366 995.5 2204.5
          995.5 995.5 2204 999.83 995.5 2205.5 998.964 995.5 2205 998.098 995.5 2204.5
          997.232 995.5 2204
        </DataArray>
      </Points>
      <Cells>
        <DataArray type="Int32" Name="connectivity" NumberOfComponents="1" format="ascii">
          0 1 2 1 2 3 2 3 4 3 4 5
          4 5 6 5 6 7 6 7 8 7 8 9
          8 9 10 9 10 11 10 11 12 13 14 15
          14 15 0 15 0 16 0 16 2 16 2 17
          2 17 4 17 4 18 4 18 6 18 6 19
          6 19 8 19 8 20 8 20 10 20 10 21
          10 21 12 21 12 22 12 22 23 22 23 24
          25 13 26 13 26 15 26 15 27 15 27 16
          27 16 28 16 28 17 28 17 29 17 29 18
          29 18 30 18 30 19 30 19 31 19 31 20
          31 20 32 20 32 21 32 21 33 21 33 22
          33 22 34 22 34 24 34 24 35 36 25 37
          25 37 26 37 26 38 26 38 27 38 27 39
          27 39 28 39 28 40 28 40 29 40 29 41
          29 41 30 41 30 42 30 42 31 42 31 43
          31 43 32 43 32 44 32 44 33 44 33 45
          33 45 34 45 34 46 34 46 35 46 35 47
          48 36 49 36 49 37 49 37 50 37 50 38
          50 38 51 38 51 39 51 39 52 39 52 40
          52 40 53 40 53 41 53 41 54 41 54 42
          54 42 55 42 55 43 55 43 56 43 56 44
          56 44 57 44 57 45 57 45 58 45 58 46
          58 46 59 46 59 47 59 47 60 61 48 62
          48 62 49 62 49 63 49 63 50 63 50 64
          50 64 51 64 51 65 51 65 52 65 52 66
          52 66 53 66 53 67 53 67 54 67 54 68
          54 68 55 68 55 69 55 69 56 69 56 70
          56 70 57 70 57 71 57 71 58 71 58 72
          58 72 59 72 59 73 59 73 60 61 74 62
          74 62 75 62 75 63 75 63 76 63 76 64
          76 64 77 64 77 65 77 65 78 65 78 66
          78 66 79 66 79 67 79 67 80 67 80 68
          80 68 81 68 81 69 81 69 82 69 82 70
          82 70 83 70 83 71 83 71 84 71 84 72
          84 72 85 72 85 73 85 73 86 87 74 88
          74 88 75 88 75 89 75 89 76 89 76 90
          76 90 77 90 77 91 77 91 78 91 78 92
          78 92 79 92 79 93 79 93 80 93 80 94
          80 94 81 94 81 95 81 95 82 95 82 96
          82 96 83 96 83 97 83 97 84 97 84 98
          84 98 85 98 85 99 85 99 86 87 100 88
          100 88 101 88 101 89 101 89 102 89 102 90
          102 90 103 90 103 91 103 91 104 91 104 92
          104 92 105 92 105 93 105 93 106 93 106 94
          106 94 107 94 107 95 107 95 108 95 108 96
          108 96 109 96 109 97 109 97 110 97 110 98
          110 98 111 98 111 99 111 99 112 100 113 101
          113 101 114 101 114 102 114 102 115 102 115 103
          115 103 116 103 116 104 116 104 117 104 117 105
          117 105 118 105 118 106 118 106 119 106 119 107
          119 107 120 107 120 108 120 108 121 108 121 109
          121 109 122 109 122 110 122 110 123 110 123 111
          123 111 124 111 124 112 113 125 114 125 114 126
          114 126 115 126 115 127 115 127 116 127 116 128
          116 128 117 128 117 129 117 129 118 129 118 130
          118 130 119 130 119 131 119 131 120 131 120 132
          120 132 121 132 121 133 121 133 122 133 122 134
          122 134 123 134 123 135 123 135 124 125 136 126
          136 126 137 126 137 127 137 127 138 127 138 128
          138 128 139 128 139 129 139 129 140 129 140 130
          140 130 141 130 141 131 141 131 142 131 142 132
          142 132 143 132 143 133 143 133 144 133 144 134
          144 134 145 134 145 135 137 146 138 146 138 147
          138 147 139 147 139 148 139 148 140 148 140 149
          140 149 141 149 141 150 141 150 142 150 142 151
          142 151 143 151 143 152 143 152 144 147 153 148
          153 148 154 148 154 149 154 149 155 149 155 150
          155 150 156 150 156 151
        </DataArray>
        <DataArray type="Int32" Name="offsets" NumberOfComponents="1" format="ascii">
          3 6 9 12 15 18 21 24 27 30 33 36
          39 42 45 48 51 54 57 60 63 66 69 72
          75 78 81 84 87 90 93 96 99 102 105 108
          111 114 117 120 123 126 129 132 135 138 141 144
          147 150 153 156 159 162 165 168 171 174 177 180
          183 186 189 192 195 198 201 204 207 210 213 216
          219 222 225 228 231 234 237 240 243 246 249 252
          255 258 261 264 267 270 273 276 279 282 285 288
          291 294 297 300 303 306 309 312 315 318 321 324
          327 330 333 336 339 342 345 348 351 354 357 360
          363 366 369 372 375 378 381 384 387 390 393 396
          399 402 405 408 411 414 417 420 423 426 429 432
          435 438 441 444 447 450 453 456 459 462 465 468
          471 474 477 480 483 486 489 492 495 498 501 504
          507 510 513 516 519 522 525 528 531 534 537 540
          543 546 549 552 555 558 561 564 567 570 573 576
          579 582 585 588 591 594 597 600 603 606 609 612
          615 618 621 624 627 630 633 636 639 642 645 648
          651 654 657 660 663 666 669 672 675 678 681 684
          687 690 693 696 699 702 705 708 711 714 717 720
          723 726 729 732 735 738 741 744 747 750 753 756
          759 762 765 768 771 774 777 780 783 786 789 792
          795 798 801 804 807 810
        </DataArray>
        <DataArray type="UInt8" Name="types" NumberOfComponents="1" format="ascii">
          5 5 5 5 5 5 5 5 5 5 5 5
          5 5 5 5 5 5 5 5 5 5 5 5
          5 5 5 5 5 5 5 5 5 5 5 5
          5 5 5 5 5 5 5 5 5 5 5 5
          5 5 5 5 5 5 5 5 5 5 5 5
          5 5 5 5 5 5 5 5 5 5 5 5
          5 5 5 5 5 5 5 5 5 5 5 5
          5 5 5 5 5 5 5 5 5 5 5 5
          5 5 5 5 5 5 5 5 5 5 5 5
          5 5 5 5 5 5 5 5 5 5 5 5
          5 5 5 5 5 5 5 5 5 5 5 5
          5 5 5 5 5 5 5 5 5 5 5 5
          5 5 5 5 5 5 5 5 5 5 5 5
          5 5 5 5 5 5 5 5 5 5 5 5
          5 5 5 5 5 5 5 5 5 5 5 5
          5 5 5 5 5 5 5 5 5 5 5 5
          5 5 5 5 5 5 5 5 5 5 5 5
          5 5 5 5 5 5 5 5 5 5 5 5
          5 5 5 5 5 5 5 5 5 5 5 5
          5 5 5 5 5 5 5 5 5 5 5 5
          5 5 5 5 5 5 5 5 5 5 5 5
          5 5 5 5 5 5 5 5 5 5 5 5
          5 5 5 5 5 5
        </DataArray>
      </Cells>
    </Piece>
  </UnstructuredGrid>
</VTKFile>
