<?xml version="1.0"?>
<VTKFile type="UnstructuredGrid" version="0.1" byte_order="LittleEndian">
  <UnstructuredGrid>
    <Piece NumberOfCells="342" NumberOfPoints="199">
      <CellData Scalars="ReservoirCell">
        <DataArray type="Float32" Name="ReservoirCell" NumberOfComponents="1" format="ascii">
          1875 1875 1875 1875 1875 1875 1875 1875 1875 1875 1875 1875
          1875 1875 1875 1875 1875 1875 1875 1875 1875 1875 1875 1875
          1875 1875 1875 1875 1875 1875 1875 1875 1875 1875 1875 1875
          1875 1875 1875 1875 1875 1875 1875 1875 1875 1875 1875 1875
          1875 1875 1875 1875 1875 1875 1875 1875 1875 1875 1875 1875
          1875 1875 1875 1875 1875 1875 1875 1875 1875 1875 1875 1875
          1875 1875 1875 1875 1875 1875 1875 1875 1875 1875 1875 1875
          1875 1875 1875 1875 1875 1875 1875 1875 1875 1875 1875 1875
          1875 1875 1875 1875 1875 1875 1875 1875 1875 1875 1875 1875
          1875 1875 1875 1875 1875 1875 1875 1875 1875 1875 1875 1875
          1875 1875 1875 1875 1875 1875 1875 1875 1875 1875 1875 1875
          1875 1875 1875 1875 1875 1875 1875 1875 1875 1875 1875 1875
          1875 1875 1875 1875 1875 1875 1875 1875 1875 1875 1875 1875
          1875 1875 1875 1875 1875 1875 1875 1875 1875 1875 1875 1875
          1875 1875 1875 1875 1875 1875 1875 1875 1875 1875 1875 1875
          1875 1875 1875 1875 1875 1875 1875 1875 1875 1875 1875 1875
          1875 1875 1875 1875 1875 1875 1875 1875 1875 1875 1875 1875
          1875 1875 1875 1875 1875 1875 1875 1875 1875 1875 1875 1875
          1875 1875 1875 1875 1875 1875 1875 1875 1875 1875 1875 1875
          1875 1875 1875 1875 1875 1875 1875 1875 1875 1875 1875 1875
          1875 1875 1875 1875 1875 1875 1875 1875 1875 1875 1875 1875
          1875 1875 1875 1875 1875 1875 1875 1875 1875 1875 1875 1875
          1875 1875 1875 1875 1875 1875 1875 1875 1875 1875 1875 1875
          1875 1875 1875 1875 1875 1875 1875 1875 1875 1875 1875 1875
          1875 1875 1875 1875 1875 1875 1875 1875 1875 1875 1875 1875
          1875 1875 1875 1875 1875 1875 1875 1875 1875 1875 1875 1875
          1875 1875 1875 1875 1875 1875 1875 1875 1875 1875 1875 1875
          1875 1875 1875 1875 1875 1875 1875 1875 1875 1875 1875 1875
          1875 1875 1875 1875 1875 1875
        </DataArray>
        <DataArray type="Float32" Name="ReservoirPerm" NumberOfComponents="1" format="ascii">
          9.86923e-13 9.86923e-13 9.86923e-13 9.86923e-13 9.86923e-13 9.86923e-13 9.86923e-13 9.86923e-13 9.86923e-13 9.86923e-13 9.86923e-13 9.86923e-13
          9.86923e-13 9.86923e-13 9.86923e-13 9.86923e-13 9.86923e-13 9.86923e-13 9.86923e-13 9.86923e-13 9.86923e-13 9.86923e-13 9.86923e-13 9.86923e-13
          9.86923e-13 9.86923e-13 9.86923e-13 9.86923e-13 9.86923e-13 9.86923e-13 9.86923e-13 9.86923e-13 9.86923e-13 9.86923e-13 9.86923e-13 9.86923e-13
          9.86923e-13 9.86923e-13 9.86923e-13 9.86923e-13 9.86923e-13 9.86923e-13 9.86923e-13 9.86923e-13 9.86923e-13 9.86923e-13 9.86923e-13 9.86923e-13
          9.86923e-13 9.86923e-13 9.86923e-13 9.86923e-13 9.86923e-13 9.86923e-13 9.86923e-13 9.86923e-13 9.86923e-13 9.86923e-13 9.86923e-13 9.86923e-13
          9.86923e-13 9.86923e-13 9.86923e-13 9.86923e-13 9.86923e-13 9.86923e-13 9.86923e-13 9.86923e-13 9.86923e-13 9.86923e-13 9.86923e-13 9.86923e-13
          9.86923e-13 9.86923e-13 9.86923e-13 9.86923e-13 9.86923e-13 9.86923e-13 9.86923e-13 9.86923e-13 9.86923e-13 9.86923e-13 9.86923e-13 9.86923e-13
          9.86923e-13 9.86923e-13 9.86923e-13 9.86923e-13 9.86923e-13 9.86923e-13 9.86923e-13 9.86923e-13 9.86923e-13 9.86923e-13 9.86923e-13 9.86923e-13
          9.86923e-13 9.86923e-13 9.86923e-13 9.86923e-13 9.86923e-13 9.86923e-13 9.86923e-13 9.86923e-13 9.86923e-13 9.86923e-13 9.86923e-13 9.86923e-13
          9.86923e-13 9.86923e-13 9.86923e-13 9.86923e-13 9.86923e-13 9.86923e-13 9.86923e-13 9.86923e-13 9.86923e-13 9.86923e-13 9.86923e-13 9.86923e-13
          9.86923e-13 9.86923e-13 9.86923e-13 9.86923e-13 9.86923e-13 9.86923e-13 9.86923e-13 9.86923e-13 9.86923e-13 9.86923e-13 9.86923e-13 9.86923e-13
          9.86923e-13 9.86923e-13 9.86923e-13 9.86923e-13 9.86923e-13 9.86923e-13 9.86923e-13 9.86923e-13 9.86923e-13 9.86923e-13 9.86923e-13 9.86923e-13
          9.86923e-13 9.86923e-13 9.86923e-13 9.86923e-13 9.86923e-13 9.86923e-13 9.86923e-13 9.86923e-13 9.86923e-13 9.86923e-13 9.86923e-13 9.86923e-13
          9.86923e-13 9.86923e-13 9.86923e-13 9.86923e-13 9.86923e-13 9.86923e-13 9.86923e-13 9.86923e-13 9.86923e-13 9.86923e-13 9.86923e-13 9.86923e-13
          9.86923e-13 9.86923e-13 9.86923e-13 9.86923e-13 9.86923e-13 9.86923e-13 9.86923e-13 9.86923e-13 9.86923e-13 9.86923e-13 9.86923e-13 9.86923e-13
          9.86923e-13 9.86923e-13 9.86923e-13 9.86923e-13 9.86923e-13 9.86923e-13 9.86923e-13 9.86923e-13 9.86923e-13 9.86923e-13 9.86923e-13 9.86923e-13
          9.86923e-13 9.86923e-13 9.86923e-13 9.86923e-13 9.86923e-13 9.86923e-13 9.86923e-13 9.86923e-13 9.86923e-13 9.86923e-13 9.86923e-13 9.86923e-13
          9.86923e-13 9.86923e-13 9.86923e-13 9.86923e-13 9.86923e-13 9.86923e-13 9.86923e-13 9.86923e-13 9.86923e-13 9.86923e-13 9.86923e-13 9.86923e-13
          9.86923e-13 9.86923e-13 9.86923e-13 9.86923e-13 9.86923e-13 9.86923e-13 9.86923e-13 9.86923e-13 9.86923e-13 9.86923e-13 9.86923e-13 9.86923e-13
          9.86923e-13 9.86923e-13 9.86923e-13 9.86923e-13 9.86923e-13 9.86923e-13 9.86923e-13 9.86923e-13 9.86923e-13 9.86923e-13 9.86923e-13 9.86923e-13
          9.86923e-13 9.86923e-13 9.86923e-13 9.86923e-13 9.86923e-13 9.86923e-13 9.86923e-13 9.86923e-13 9.86923e-13 9.86923e-13 9.86923e-13 9.86923e-13
          9.86923e-13 9.86923e-13 9.86923e-13 9.86923e-13 9.86923e-13 9.86923e-13 9.86923e-13 9.86923e-13 9.86923e-13 9.86923e-13 9.86923e-13 9.86923e-13
          9.86923e-13 9.86923e-13 9.86923e-13 9.86923e-13 9.86923e-13 9.86923e-13 9.86923e-13 9.86923e-13 9.86923e-13 9.86923e-13 9.86923e-13 9.86923e-13
          9.86923e-13 9.86923e-13 9.86923e-13 9.86923e-13 9.86923e-13 9.86923e-13 9.86923e-13 9.86923e-13 9.86923e-13 9.86923e-13 9.86923e-13 9.86923e-13
          9.86923e-13 9.86923e-13 9.86923e-13 9.86923e-13 9.86923e-13 9.86923e-13 9.86923e-13 9.86923e-13 9.86923e-13 9.86923e-13 9.86923e-13 9.86923e-13
          9.86923e-13 9.86923e-13 9.86923e-13 9.86923e-13 9.86923e-13 9.86923e-13 9.86923e-13 9.86923e-13 9.86923e-13 9.86923e-13 9.86923e-13 9.86923e-13
          9.86923e-13 9.86923e-13 9.86923e-13 9.86923e-13 9.86923e-13 9.86923e-13 9.86923e-13 9.86923e-13 9.86923e-13 9.86923e-13 9.86923e-13 9.86923e-13
          9.86923e-13 9.86923e-13 9.86923e-13 9.86923e-13 9.86923e-13 9.86923e-13 9.86923e-13 9.86923e-13 9.86923e-13 9.86923e-13 9.86923e-13 9.86923e-13
          9.86923e-13 9.86923e-13 9.86923e-13 9.86923e-13 9.86923e-13 9.86923e-13
        </DataArray>
        <DataArray type="Float32" Name="ReservoirDist" NumberOfComponents="1" format="ascii">
          45.25 45.25 45.25 45.25 45.25 45.25 45.25 45.25 45.25 45.25 45.25 45.25
          45.25 45.25 45.25 45.25 45.25 45.25 45.25 45.25 45.25 45.25 45.25 45.25
          45.25 45.25 45.25 45.25 45.25 45.25 45.25 45.25 45.25 45.25 45.25 45.25
          45.25 45.25 45.25 45.25 45.25 45.25 45.25 45.25 45.25 45.25 45.25 45.25
          45.25 45.25 45.25 45.25 45.25 45.25 45.25 45.25 45.25 45.25 45.25 45.25
          45.25 45.25 45.25 45.25 45.25 45.25 45.25 45.25 45.25 45.25 45.25 45.25
          45.25 45.25 45.25 45.25 45.25 45.25 45.25 45.25 45.25 45.25 45.25 45.25
          45.25 45.25 45.25 45.25 45.25 45.25 45.25 45.25 45.25 45.25 45.25 45.25
          45.25 45.25 45.25 45.25 45.25 45.25 45.25 45.25 45.25 45.25 45.25 45.25
          45.25 45.25 45.25 45.25 45.25 45.25 45.25 45.25 45.25 45.25 45.25 45.25
          45.25 45.25 45.25 45.25 45.25 45.25 45.25 45.25 45.25 45.25 45.25 45.25
          45.25 45.25 45.25 45.25 45.25 45.25 45.25 45.25 45.25 45.25 45.25 45.25
          45.25 45.25 45.25 45.25 45.25 45.25 45.25 45.25 45.25 45.25 45.25 45.25
          45.25 45.25 45.25 45.25 45.25 45.25 45.25 45.25 45.25 45.25 45.25 45.25
          45.25 45.25 45.25 45.25 45.25 45.25 45.25 45.25 45.25 45.25 45.25 45.25
          45.25 45.25 45.25 45.25 45.25 45.25 45.25 45.25 45.25 45.25 45.25 45.25
          45.25 45.25 45.25 45.25 45.25 45.25 45.25 45.25 45.25 45.25 45.25 45.25
          45.25 45.25 45.25 45.25 45.25 45.25 45.25 45.25 45.25 45.25 45.25 45.25
          45.25 45.25 45.25 45.25 45.25 45.25 45.25 45.25 45.25 45.25 45.25 45.25
          45.25 45.25 45.25 45.25 45.25 45.25 45.25 45.25 45.25 45.25 45.25 45.25
          45.25 45.25 45.25 45.25 45.25 45.25 45.25 45.25 45.25 45.25 45.25 45.25
          45.25 45.25 45.25 45.25 45.25 45.25 45.25 45.25 45.25 45.25 45.25 45.25
          45.25 45.25 45.25 45.25 45.25 45.25 45.25 45.25 45.25 45.25 45.25 45.25
          45.25 45.25 45.25 45.25 45.25 45.25 45.25 45.25 45.25 45.25 45.25 45.25
          45.25 45.25 45.25 45.25 45.25 45.25 45.25 45.25 45.25 45.25 45.25 45.25
          45.25 45.25 45.25 45.25 45.25 45.25 45.25 45.25 45.25 45.25 45.25 45.25
          45.25 45.25 45.25 45.25 45.25 45.25 45.25 45.25 45.25 45.25 45.25 45.25
          45.25 45.25 45.25 45.25 45.25 45.25 45.25 45.25 45.25 45.25 45.25 45.25
          45.25 45.25 45.25 45.25 45.25 45.25
        </DataArray>
        <DataArray type="Float32" Name="ReservoirCStres" NumberOfComponents="1" format="ascii">
          5.55e+06 5.55e+06 5.55e+06 5.55e+06 5.55e+06 5.55e+06 5.55e+06 5.55e+06 5.55e+06 5.55e+06 5.55e+06 5.55e+06
          5.55e+06 5.55e+06 5.55e+06 5.55e+06 5.55e+06 5.55e+06 5.55e+06 5.55e+06 5.55e+06 5.55e+06 5.55e+06 5.55e+06
          5.55e+06 5.55e+06 5.55e+06 5.55e+06 5.55e+06 5.55e+06 5.55e+06 5.55e+06 5.55e+06 5.55e+06 5.55e+06 5.55e+06
          5.55e+06 5.55e+06 5.55e+06 5.55e+06 5.55e+06 5.55e+06 5.55e+06 5.55e+06 5.55e+06 5.55e+06 5.55e+06 5.55e+06
          5.55e+06 5.55e+06 5.55e+06 5.55e+06 5.55e+06 5.55e+06 5.55e+06 5.55e+06 5.55e+06 5.55e+06 5.55e+06 5.55e+06
          5.55e+06 5.55e+06 5.55e+06 5.55e+06 5.55e+06 5.55e+06 5.55e+06 5.55e+06 5.55e+06 5.55e+06 5.55e+06 5.55e+06
          5.55e+06 5.55e+06 5.55e+06 5.55e+06 5.55e+06 5.55e+06 5.55e+06 5.55e+06 5.55e+06 5.55e+06 5.55e+06 5.55e+06
          5.55e+06 5.55e+06 5.55e+06 5.55e+06 5.55e+06 5.55e+06 5.55e+06 5.55e+06 5.55e+06 5.55e+06 5.55e+06 5.55e+06
          5.55e+06 5.55e+06 5.55e+06 5.55e+06 5.55e+06 5.55e+06 5.55e+06 5.55e+06 5.55e+06 5.55e+06 5.55e+06 5.55e+06
          5.55e+06 5.55e+06 5.55e+06 5.55e+06 5.55e+06 5.55e+06 5.55e+06 5.55e+06 5.55e+06 5.55e+06 5.55e+06 5.55e+06
          5.55e+06 5.55e+06 5.55e+06 5.55e+06 5.55e+06 5.55e+06 5.55e+06 5.55e+06 5.55e+06 5.55e+06 5.55e+06 5.55e+06
          5.55e+06 5.55e+06 5.55e+06 5.55e+06 5.55e+06 5.55e+06 5.55e+06 5.55e+06 5.55e+06 5.55e+06 5.55e+06 5.55e+06
          5.55e+06 5.55e+06 5.55e+06 5.55e+06 5.55e+06 5.55e+06 5.55e+06 5.55e+06 5.55e+06 5.55e+06 5.55e+06 5.55e+06
          5.55e+06 5.55e+06 5.55e+06 5.55e+06 5.55e+06 5.55e+06 5.55e+06 5.55e+06 5.55e+06 5.55e+06 5.55e+06 5.55e+06
          5.55e+06 5.55e+06 5.55e+06 5.55e+06 5.55e+06 5.55e+06 5.55e+06 5.55e+06 5.55e+06 5.55e+06 5.55e+06 5.55e+06
          5.55e+06 5.55e+06 5.55e+06 5.55e+06 5.55e+06 5.55e+06 5.55e+06 5.55e+06 5.55e+06 5.55e+06 5.55e+06 5.55e+06
          5.55e+06 5.55e+06 5.55e+06 5.55e+06 5.55e+06 5.55e+06 5.55e+06 5.55e+06 5.55e+06 5.55e+06 5.55e+06 5.55e+06
          5.55e+06 5.55e+06 5.55e+06 5.55e+06 5.55e+06 5.55e+06 5.55e+06 5.55e+06 5.55e+06 5.55e+06 5.55e+06 5.55e+06
          5.55e+06 5.55e+06 5.55e+06 5.55e+06 5.55e+06 5.55e+06 5.55e+06 5.55e+06 5.55e+06 5.55e+06 5.55e+06 5.55e+06
          5.55e+06 5.55e+06 5.55e+06 5.55e+06 5.55e+06 5.55e+06 5.55e+06 5.55e+06 5.55e+06 5.55e+06 5.55e+06 5.55e+06
          5.55e+06 5.55e+06 5.55e+06 5.55e+06 5.55e+06 5.55e+06 5.55e+06 5.55e+06 5.55e+06 5.55e+06 5.55e+06 5.55e+06
          5.55e+06 5.55e+06 5.55e+06 5.55e+06 5.55e+06 5.55e+06 5.55e+06 5.55e+06 5.55e+06 5.55e+06 5.55e+06 5.55e+06
          5.55e+06 5.55e+06 5.55e+06 5.55e+06 5.55e+06 5.55e+06 5.55e+06 5.55e+06 5.55e+06 5.55e+06 5.55e+06 5.55e+06
          5.55e+06 5.55e+06 5.55e+06 5.55e+06 5.55e+06 5.55e+06 5.55e+06 5.55e+06 5.55e+06 5.55e+06 5.55e+06 5.55e+06
          5.55e+06 5.55e+06 5.55e+06 5.55e+06 5.55e+06 5.55e+06 5.55e+06 5.55e+06 5.55e+06 5.55e+06 5.55e+06 5.55e+06
          5.55e+06 5.55e+06 5.55e+06 5.55e+06 5.55e+06 5.55e+06 5.55e+06 5.55e+06 5.55e+06 5.55e+06 5.55e+06 5.55e+06
          5.55e+06 5.55e+06 5.55e+06 5.55e+06 5.55e+06 5.55e+06 5.55e+06 5.55e+06 5.55e+06 5.55e+06 5.55e+06 5.55e+06
          5.55e+06 5.55e+06 5.55e+06 5.55e+06 5.55e+06 5.55e+06 5.55e+06 5.55e+06 5.55e+06 5.55e+06 5.55e+06 5.55e+06
          5.55e+06 5.55e+06 5.55e+06 5.55e+06 5.55e+06 5.55e+06
        </DataArray>
        <DataArray type="Float32" Name="FracturePressure" NumberOfComponents="1" format="ascii">
          2.20796e+07 2.20796e+07 2.20796e+07 2.20796e+07 2.20796e+07 2.20796e+07 2.20796e+07 2.20796e+07 2.20796e+07 2.20796e+07 2.20796e+07 2.20796e+07
          2.20796e+07 2.20796e+07 2.20796e+07 2.20796e+07 2.20796e+07 2.20796e+07 2.20796e+07 2.20796e+07 2.20796e+07 2.20796e+07 2.20796e+07 2.20796e+07
          2.20796e+07 2.20796e+07 2.20796e+07 2.20796e+07 2.20796e+07 2.20796e+07 2.20796e+07 2.20796e+07 2.20796e+07 2.20796e+07 2.20796e+07 2.20796e+07
          2.20796e+07 2.20796e+07 2.20796e+07 2.20796e+07 2.20796e+07 2.20796e+07 2.20796e+07 2.20796e+07 2.20796e+07 2.20796e+07 2.20796e+07 2.20796e+07
          2.20796e+07 2.20796e+07 2.20796e+07 2.20796e+07 2.20796e+07 2.20796e+07 2.20796e+07 2.20796e+07 2.20796e+07 2.20796e+07 2.20796e+07 2.20796e+07
          2.20796e+07 2.20796e+07 2.20796e+07 2.20796e+07 2.20796e+07 2.20796e+07 2.20796e+07 2.20796e+07 2.20796e+07 2.20796e+07 2.20796e+07 2.20796e+07
          2.20796e+07 2.20796e+07 2.20796e+07 2.20796e+07 2.20796e+07 2.20796e+07 2.20796e+07 2.20796e+07 2.20796e+07 2.20796e+07 2.20796e+07 2.20796e+07
          2.20796e+07 2.20796e+07 2.20796e+07 2.20796e+07 2.20796e+07 2.20796e+07 2.20796e+07 2.20796e+07 2.20796e+07 2.20796e+07 2.20796e+07 2.20796e+07
          2.20796e+07 2.20796e+07 2.20796e+07 2.20796e+07 2.20796e+07 2.20796e+07 2.20796e+07 2.20796e+07 2.20796e+07 2.20796e+07 2.20796e+07 2.20796e+07
          2.20796e+07 2.20796e+07 2.20796e+07 2.20796e+07 2.20796e+07 2.20796e+07 2.20796e+07 2.20796e+07 2.20796e+07 2.20796e+07 2.20796e+07 2.20796e+07
          2.20796e+07 2.20796e+07 2.20796e+07 2.20796e+07 2.20796e+07 2.20796e+07 2.20796e+07 2.20796e+07 2.20796e+07 2.20796e+07 2.20796e+07 2.20796e+07
          2.20796e+07 2.20796e+07 2.20796e+07 2.20796e+07 2.20796e+07 2.20796e+07 2.20796e+07 2.20796e+07 2.20796e+07 2.20796e+07 2.20796e+07 2.20796e+07
          2.20796e+07 2.20796e+07 2.20796e+07 2.20796e+07 2.20796e+07 2.20796e+07 2.20796e+07 2.20796e+07 2.20796e+07 2.20796e+07 2.20796e+07 2.20796e+07
          2.20796e+07 2.20796e+07 2.20796e+07 2.20796e+07 2.20796e+07 2.20796e+07 2.20796e+07 2.20796e+07 2.20796e+07 2.20796e+07 2.20796e+07 2.20796e+07
          2.20796e+07 2.20796e+07 2.20796e+07 2.20796e+07 2.20796e+07 2.20796e+07 2.20796e+07 2.20796e+07 2.20796e+07 2.20796e+07 2.20796e+07 2.20796e+07
          2.20796e+07 2.20796e+07 2.20796e+07 2.20796e+07 2.20796e+07 2.20796e+07 2.20796e+07 2.20796e+07 2.20796e+07 2.20796e+07 2.20796e+07 2.20796e+07
          2.20796e+07 2.20796e+07 2.20796e+07 2.20796e+07 2.20796e+07 2.20796e+07 2.20796e+07 2.20796e+07 2.20796e+07 2.20796e+07 2.20796e+07 2.20796e+07
          2.20796e+07 2.20796e+07 2.20796e+07 2.20796e+07 2.20796e+07 2.20796e+07 2.20796e+07 2.20796e+07 2.20796e+07 2.20796e+07 2.20796e+07 2.20796e+07
          2.20796e+07 2.20796e+07 2.20796e+07 2.20796e+07 2.20796e+07 2.20796e+07 2.20796e+07 2.20796e+07 2.20796e+07 2.20796e+07 2.20796e+07 2.20796e+07
          2.20796e+07 2.20796e+07 2.20796e+07 2.20796e+07 2.20796e+07 2.20796e+07 2.20796e+07 2.20796e+07 2.20796e+07 2.20796e+07 2.20796e+07 2.20796e+07
          2.20796e+07 2.20796e+07 2.20796e+07 2.20796e+07 2.20796e+07 2.20796e+07 2.20796e+07 2.20796e+07 2.20796e+07 2.20796e+07 2.20796e+07 2.20796e+07
          2.20796e+07 2.20796e+07 2.20796e+07 2.20796e+07 2.20796e+07 2.20796e+07 2.20796e+07 2.20796e+07 2.20796e+07 2.20796e+07 2.20796e+07 2.20796e+07
          2.20796e+07 2.20796e+07 2.20796e+07 2.20796e+07 2.20796e+07 2.20796e+07 2.20796e+07 2.20796e+07 2.20796e+07 2.20796e+07 2.20796e+07 2.20796e+07
          2.20796e+07 2.20796e+07 2.20796e+07 2.20796e+07 2.20796e+07 2.20796e+07 2.20796e+07 2.20796e+07 2.20796e+07 2.20796e+07 2.20796e+07 2.20796e+07
          2.20796e+07 2.20796e+07 2.20796e+07 2.20796e+07 2.20796e+07 2.20796e+07 2.20796e+07 2.20796e+07 2.20796e+07 2.20796e+07 2.20796e+07 2.20796e+07
          2.20796e+07 2.20796e+07 2.20796e+07 2.20796e+07 2.20796e+07 2.20796e+07 2.20796e+07 2.20796e+07 2.20796e+07 2.20796e+07 2.20796e+07 2.20796e+07
          2.20796e+07 2.20796e+07 2.20796e+07 2.20796e+07 2.20796e+07 2.20796e+07 2.20796e+07 2.20796e+07 2.20796e+07 2.20796e+07 2.20796e+07 2.20796e+07
          2.20796e+07 2.20796e+07 2.20796e+07 2.20796e+07 2.20796e+07 2.20796e+07 2.20796e+07 2.20796e+07 2.20796e+07 2.20796e+07 2.20796e+07 2.20796e+07
          2.20796e+07 2.20796e+07 2.20796e+07 2.20796e+07 2.20796e+07 2.20796e+07
        </DataArray>
        <DataArray type="Float32" Name="FractureHead" NumberOfComponents="1" format="ascii">
          -4.33995e+06 -4.33995e+06 -4.3375e+06 -4.3375e+06 -4.33505e+06 -4.33505e+06 -4.3326e+06 -4.3326e+06 -4.33015e+06 -4.33015e+06 -4.3277e+06 -4.3277e+06
          -4.32524e+06 -4.32524e+06 -4.32279e+06 -4.33995e+06 -4.33995e+06 -4.3375e+06 -4.3375e+06 -4.32034e+06 -4.31789e+06 -4.31789e+06 -4.31544e+06 -4.33995e+06
          -4.33995e+06 -4.3375e+06 -4.3375e+06 -4.33505e+06 -4.33505e+06 -4.31544e+06 -4.31299e+06 -4.31299e+06 -4.31053e+06 -4.31053e+06 -4.30808e+06 -4.3375e+06
          -4.3375e+06 -4.30563e+06 -4.30318e+06 -4.33505e+06 -4.33505e+06 -4.30073e+06 -4.29828e+06 -4.3326e+06 -4.3326e+06 -4.29582e+06 -4.29337e+06 -4.33015e+06
          -4.33015e+06 -4.29092e+06 -4.28847e+06 -4.3277e+06 -4.3277e+06 -4.28602e+06 -4.28357e+06 -4.32524e+06 -4.32524e+06 -4.28111e+06 -4.27866e+06 -4.32279e+06
          -4.32034e+06 -4.30073e+06 -4.30073e+06 -4.29828e+06 -4.29828e+06 -4.29582e+06 -4.27621e+06 -4.27621e+06 -4.31789e+06 -4.31789e+06 -4.31544e+06 -4.29828e+06
          -4.29828e+06 -4.29582e+06 -4.29582e+06 -4.29337e+06 -4.29337e+06 -4.29092e+06 -4.27376e+06 -4.27376e+06 -4.27131e+06 -4.31544e+06 -4.31299e+06 -4.31299e+06
          -4.29582e+06 -4.29337e+06 -4.29337e+06 -4.29092e+06 -4.29092e+06 -4.28847e+06 -4.28847e+06 -4.27131e+06 -4.26886e+06 -4.26886e+06 -4.31053e+06 -4.31053e+06
          -4.29092e+06 -4.28847e+06 -4.28847e+06 -4.28602e+06 -4.28602e+06 -4.2664e+06 -4.26395e+06 -4.30808e+06 -4.30563e+06 -4.2615e+06 -4.2615e+06 -4.30318e+06
          -4.30073e+06 -4.25905e+06 -4.25905e+06 -4.29828e+06 -4.29582e+06 -4.2566e+06 -4.2566e+06 -4.29337e+06 -4.29092e+06 -4.25415e+06 -4.25415e+06 -4.28847e+06
          -4.28602e+06 -4.25169e+06 -4.25169e+06 -4.28357e+06 -4.28111e+06 -4.24924e+06 -4.24924e+06 -4.27866e+06 -4.27621e+06 -4.27621e+06 -4.27376e+06 -4.27376e+06
          -4.27131e+06 -4.25169e+06 -4.25169e+06 -4.24924e+06 -4.24924e+06 -4.24679e+06 -4.24679e+06 -4.27131e+06 -4.26886e+06 -4.26886e+06 -4.2664e+06 -4.24924e+06
          -4.24924e+06 -4.24679e+06 -4.24679e+06 -4.26395e+06 -4.2615e+06 -4.2615e+06 -4.25905e+06 -4.25905e+06 -4.2566e+06 -4.2566e+06 -4.25415e+06 -4.25415e+06
          -4.25169e+06 -4.25169e+06 -4.24924e+06 -4.24924e+06 -4.24679e+06 -4.24679e+06 -4.33342e+06 -4.33178e+06 -4.33178e+06 -4.33342e+06 -4.3277e+06 -4.32688e+06
          -4.32851e+06 -4.32279e+06 -4.32198e+06 -4.32361e+06 -4.31625e+06 -4.31952e+06 -4.33342e+06 -4.33178e+06 -4.33178e+06 -4.33342e+06 -4.3277e+06 -4.3277e+06
          -4.32279e+06 -4.32279e+06 -4.31789e+06 -4.31789e+06 -4.31299e+06 -4.31299e+06 -4.30808e+06 -4.30726e+06 -4.3089e+06 -4.30154e+06 -4.30481e+06 -4.32851e+06
          -4.32688e+06 -4.3277e+06 -4.32279e+06 -4.32279e+06 -4.31789e+06 -4.31789e+06 -4.31299e+06 -4.31299e+06 -4.30808e+06 -4.30808e+06 -4.30318e+06 -4.30318e+06
          -4.29828e+06 -4.29828e+06 -4.29174e+06 -4.29501e+06 -4.32361e+06 -4.32198e+06 -4.32279e+06 -4.31789e+06 -4.31789e+06 -4.31299e+06 -4.31299e+06 -4.30808e+06
          -4.30808e+06 -4.304e+06 -4.30236e+06 -4.30318e+06 -4.29828e+06 -4.29828e+06 -4.29337e+06 -4.29337e+06 -4.28847e+06 -4.28847e+06 -4.28193e+06 -4.2852e+06
          -4.31952e+06 -4.31625e+06 -4.31299e+06 -4.31299e+06 -4.30808e+06 -4.30808e+06 -4.30318e+06 -4.30236e+06 -4.304e+06 -4.29501e+06 -4.29174e+06 -4.28847e+06
          -4.28847e+06 -4.28357e+06 -4.28357e+06 -4.27866e+06 -4.27784e+06 -4.27948e+06 -4.3089e+06 -4.30726e+06 -4.30808e+06 -4.30318e+06 -4.30318e+06 -4.29828e+06
          -4.29828e+06 -4.29174e+06 -4.29501e+06 -4.28438e+06 -4.28275e+06 -4.28357e+06 -4.27866e+06 -4.27866e+06 -4.27376e+06 -4.27376e+06 -4.26722e+06 -4.27049e+06
          -4.30481e+06 -4.30154e+06 -4.29828e+06 -4.29828e+06 -4.29337e+06 -4.29337e+06 -4.28847e+06 -4.28847e+06 -4.28357e+06 -4.28275e+06 -4.28438e+06 -4.27866e+06
          -4.27866e+06 -4.27376e+06 -4.27376e+06 -4.26886e+06 -4.26886e+06 -4.26395e+06 -4.26314e+06 -4.26477e+06 -4.29501e+06 -4.29174e+06 -4.28847e+06 -4.28847e+06
          -4.28357e+06 -4.28357e+06 -4.27866e+06 -4.27866e+06 -4.27376e+06 -4.27376e+06 -4.26886e+06 -4.26886e+06 -4.26395e+06 -4.26395e+06 -4.25905e+06 -4.25823e+06
          -4.25987e+06 -4.2852e+06 -4.28193e+06 -4.27948e+06 -4.27784e+06 -4.27866e+06 -4.27376e+06 -4.27376e+06 -4.26886e+06 -4.26886e+06 -4.26395e+06 -4.26395e+06
          -4.25905e+06 -4.25905e+06 -4.25496e+06 -4.25333e+06 -4.25333e+06 -4.25496e+06 -4.27049e+06 -4.26722e+06 -4.26477e+06 -4.26314e+06 -4.26395e+06 -4.25987e+06
          -4.25823e+06 -4.25905e+06 -4.25496e+06 -4.25333e+06 -4.25333e+06 -4.25496e+06 -4.34159e+06 -4.34159e+06 -4.24516e+06 -4.24516e+06 -4.32116e+06 -4.27294e+06
          -4.3138e+06 -4.26559e+06 -4.32116e+06 -4.3138e+06 -4.27294e+06 -4.26559e+06
        </DataArray>
        <DataArray type="Float32" Name="ReservoirPressure" NumberOfComponents="1" format="ascii">
          2.20796e+07 2.20796e+07 2.20796e+07 2.20796e+07 2.20796e+07 2.20796e+07 2.20796e+07 2.20796e+07 2.20796e+07 2.20796e+07 2.20796e+07 2.20796e+07
          2.20796e+07 2.20796e+07 2.20796e+07 2.20796e+07 2.20796e+07 2.20796e+07 2.20796e+07 2.20796e+07 2.20796e+07 2.20796e+07 2.20796e+07 2.20796e+07
          2.20796e+07 2.20796e+07 2.20796e+07 2.20796e+07 2.20796e+07 2.20796e+07 2.20796e+07 2.20796e+07 2.20796e+07 2.20796e+07 2.20796e+07 2.20796e+07
          2.20796e+07 2.20796e+07 2.20796e+07 2.20796e+07 2.20796e+07 2.20796e+07 2.20796e+07 2.20796e+07 2.20796e+07 2.20796e+07 2.20796e+07 2.20796e+07
          2.20796e+07 2.20796e+07 2.20796e+07 2.20796e+07 2.20796e+07 2.20796e+07 2.20796e+07 2.20796e+07 2.20796e+07 2.20796e+07 2.20796e+07 2.20796e+07
          2.20796e+07 2.20796e+07 2.20796e+07 2.20796e+07 2.20796e+07 2.20796e+07 2.20796e+07 2.20796e+07 2.20796e+07 2.20796e+07 2.20796e+07 2.20796e+07
          2.20796e+07 2.20796e+07 2.20796e+07 2.20796e+07 2.20796e+07 2.20796e+07 2.20796e+07 2.20796e+07 2.20796e+07 2.20796e+07 2.20796e+07 2.20796e+07
          2.20796e+07 2.20796e+07 2.20796e+07 2.20796e+07 2.20796e+07 2.20796e+07 2.20796e+07 2.20796e+07 2.20796e+07 2.20796e+07 2.20796e+07 2.20796e+07
          2.20796e+07 2.20796e+07 2.20796e+07 2.20796e+07 2.20796e+07 2.20796e+07 2.20796e+07 2.20796e+07 2.20796e+07 2.20796e+07 2.20796e+07 2.20796e+07
          2.20796e+07 2.20796e+07 2.20796e+07 2.20796e+07 2.20796e+07 2.20796e+07 2.20796e+07 2.20796e+07 2.20796e+07 2.20796e+07 2.20796e+07 2.20796e+07
          2.20796e+07 2.20796e+07 2.20796e+07 2.20796e+07 2.20796e+07 2.20796e+07 2.20796e+07 2.20796e+07 2.20796e+07 2.20796e+07 2.20796e+07 2.20796e+07
          2.20796e+07 2.20796e+07 2.20796e+07 2.20796e+07 2.20796e+07 2.20796e+07 2.20796e+07 2.20796e+07 2.20796e+07 2.20796e+07 2.20796e+07 2.20796e+07
          2.20796e+07 2.20796e+07 2.20796e+07 2.20796e+07 2.20796e+07 2.20796e+07 2.20796e+07 2.20796e+07 2.20796e+07 2.20796e+07 2.20796e+07 2.20796e+07
          2.20796e+07 2.20796e+07 2.20796e+07 2.20796e+07 2.20796e+07 2.20796e+07 2.20796e+07 2.20796e+07 2.20796e+07 2.20796e+07 2.20796e+07 2.20796e+07
          2.20796e+07 2.20796e+07 2.20796e+07 2.20796e+07 2.20796e+07 2.20796e+07 2.20796e+07 2.20796e+07 2.20796e+07 2.20796e+07 2.20796e+07 2.20796e+07
          2.20796e+07 2.20796e+07 2.20796e+07 2.20796e+07 2.20796e+07 2.20796e+07 2.20796e+07 2.20796e+07 2.20796e+07 2.20796e+07 2.20796e+07 2.20796e+07
          2.20796e+07 2.20796e+07 2.20796e+07 2.20796e+07 2.20796e+07 2.20796e+07 2.20796e+07 2.20796e+07 2.20796e+07 2.20796e+07 2.20796e+07 2.20796e+07
          2.20796e+07 2.20796e+07 2.20796e+07 2.20796e+07 2.20796e+07 2.20796e+07 2.20796e+07 2.20796e+07 2.20796e+07 2.20796e+07 2.20796e+07 2.20796e+07
          2.20796e+07 2.20796e+07 2.20796e+07 2.20796e+07 2.20796e+07 2.20796e+07 2.20796e+07 2.20796e+07 2.20796e+07 2.20796e+07 2.20796e+07 2.20796e+07
          2.20796e+07 2.20796e+07 2.20796e+07 2.20796e+07 2.20796e+07 2.20796e+07 2.20796e+07 2.20796e+07 2.20796e+07 2.20796e+07 2.20796e+07 2.20796e+07
          2.20796e+07 2.20796e+07 2.20796e+07 2.20796e+07 2.20796e+07 2.20796e+07 2.20796e+07 2.20796e+07 2.20796e+07 2.20796e+07 2.20796e+07 2.20796e+07
          2.20796e+07 2.20796e+07 2.20796e+07 2.20796e+07 2.20796e+07 2.20796e+07 2.20796e+07 2.20796e+07 2.20796e+07 2.20796e+07 2.20796e+07 2.20796e+07
          2.20796e+07 2.20796e+07 2.20796e+07 2.20796e+07 2.20796e+07 2.20796e+07 2.20796e+07 2.20796e+07 2.20796e+07 2.20796e+07 2.20796e+07 2.20796e+07
          2.20796e+07 2.20796e+07 2.20796e+07 2.20796e+07 2.20796e+07 2.20796e+07 2.20796e+07 2.20796e+07 2.20796e+07 2.20796e+07 2.20796e+07 2.20796e+07
          2.20796e+07 2.20796e+07 2.20796e+07 2.20796e+07 2.20796e+07 2.20796e+07 2.20796e+07 2.20796e+07 2.20796e+07 2.20796e+07 2.20796e+07 2.20796e+07
          2.20796e+07 2.20796e+07 2.20796e+07 2.20796e+07 2.20796e+07 2.20796e+07 2.20796e+07 2.20796e+07 2.20796e+07 2.20796e+07 2.20796e+07 2.20796e+07
          2.20796e+07 2.20796e+07 2.20796e+07 2.20796e+07 2.20796e+07 2.20796e+07 2.20796e+07 2.20796e+07 2.20796e+07 2.20796e+07 2.20796e+07 2.20796e+07
          2.20796e+07 2.20796e+07 2.20796e+07 2.20796e+07 2.20796e+07 2.20796e+07 2.20796e+07 2.20796e+07 2.20796e+07 2.20796e+07 2.20796e+07 2.20796e+07
          2.20796e+07 2.20796e+07 2.20796e+07 2.20796e+07 2.20796e+07 2.20796e+07
        </DataArray>
        <DataArray type="Float32" Name="LeakofDP" NumberOfComponents="1" format="ascii">
          -46581.5 -46581.5 -44129.8 -44129.8 -41678.2 -41678.2 -39226.5 -39226.5 -36774.8 -36774.8 -34323.2 -34323.2
          -31871.5 -31871.5 -29419.9 -46581.5 -46581.5 -44129.8 -44129.8 -26968.2 -24516.6 -24516.6 -22064.9 -46581.5
          -46581.5 -44129.8 -44129.8 -41678.2 -41678.2 -22064.9 -19613.2 -19613.2 -17161.6 -17161.6 -14709.9 -44129.8
          -44129.8 -12258.3 -9806.62 -41678.2 -41678.2 -7354.97 -4903.31 -39226.5 -39226.5 -2451.66 1.37269e-09 -36774.8
          -36774.8 2451.66 4903.31 -34323.2 -34323.2 7354.97 9806.62 -31871.5 -31871.5 12258.3 14709.9 -29419.9
          -26968.2 -7354.97 -7354.97 -4903.31 -4903.31 -2451.66 17161.6 17161.6 -24516.6 -24516.6 -22064.9 -4903.31
          -4903.31 -2451.66 -2451.66 1.37269e-09 1.37269e-09 2451.66 19613.2 19613.2 22064.9 -22064.9 -19613.2 -19613.2
          -2451.66 1.37269e-09 1.37269e-09 2451.66 2451.66 4903.31 4903.31 22064.9 24516.6 24516.6 -17161.6 -17161.6
          2451.66 4903.31 4903.31 7354.97 7354.97 26968.2 29419.9 -14709.9 -12258.3 31871.5 31871.5 -9806.62
          -7354.97 34323.2 34323.2 -4903.31 -2451.66 36774.8 36774.8 1.37269e-09 2451.66 39226.5 39226.5 4903.31
          7354.97 41678.2 41678.2 9806.62 12258.3 44129.8 44129.8 14709.9 17161.6 17161.6 19613.2 19613.2
          22064.9 41678.2 41678.2 44129.8 44129.8 46581.5 46581.5 22064.9 24516.6 24516.6 26968.2 44129.8
          44129.8 46581.5 46581.5 29419.9 31871.5 31871.5 34323.2 34323.2 36774.8 36774.8 39226.5 39226.5
          41678.2 41678.2 44129.8 44129.8 46581.5 46581.5 -40043.7 -38409.3 -38409.3 -40043.7 -34323.2 -33506
          -35140.4 -29419.9 -28602.7 -30237.1 -22882.1 -26151 -40043.7 -38409.3 -38409.3 -40043.7 -34323.2 -34323.2
          -29419.9 -29419.9 -24516.6 -24516.6 -19613.2 -19613.2 -14709.9 -13892.7 -15527.2 -8172.19 -11441.1 -35140.4
          -33506 -34323.2 -29419.9 -29419.9 -24516.6 -24516.6 -19613.2 -19613.2 -14709.9 -14709.9 -9806.62 -9806.62
          -4903.31 -4903.31 1634.44 -1634.44 -30237.1 -28602.7 -29419.9 -24516.6 -24516.6 -19613.2 -19613.2 -14709.9
          -14709.9 -10623.8 -8989.41 -9806.62 -4903.31 -4903.31 1.37269e-09 1.37269e-09 4903.31 4903.31 11441.1 8172.19
          -26151 -22882.1 -19613.2 -19613.2 -14709.9 -14709.9 -9806.62 -8989.41 -10623.8 -1634.44 1634.44 4903.31
          4903.31 9806.62 9806.62 14709.9 15527.2 13892.7 -15527.2 -13892.7 -14709.9 -9806.62 -9806.62 -4903.31
          -4903.31 1634.44 -1634.44 8989.41 10623.8 9806.62 14709.9 14709.9 19613.2 19613.2 26151 22882.1
          -11441.1 -8172.19 -4903.31 -4903.31 1.37269e-09 1.37269e-09 4903.31 4903.31 9806.62 10623.8 8989.41 14709.9
          14709.9 19613.2 19613.2 24516.6 24516.6 29419.9 30237.1 28602.7 -1634.44 1634.44 4903.31 4903.31
          9806.62 9806.62 14709.9 14709.9 19613.2 19613.2 24516.6 24516.6 29419.9 29419.9 34323.2 35140.4
          33506 8172.19 11441.1 13892.7 15527.2 14709.9 19613.2 19613.2 24516.6 24516.6 29419.9 29419.9
          34323.2 34323.2 38409.3 40043.7 40043.7 38409.3 22882.1 26151 28602.7 30237.1 29419.9 33506
          35140.4 34323.2 38409.3 40043.7 40043.7 38409.3 -48215.9 -48215.9 48215.9 48215.9 -27785.4 20430.5
          -20430.5 27785.4 -27785.4 -20430.5 20430.5 27785.4
        </DataArray>
        <DataArray type="Float32" Name="FilterCakeThickness" NumberOfComponents="1" format="ascii">
          0 0 0 0 0 0 0 0 0 0 0 0
          0 0 0 0 0 0 0 0 0 0 0 0
          0 0 0 0 0 0 0 0 0 0 0 0
          0 0 0 0 0 0 0 0 0 0 0 0
          0 0 0 0 0 0 0 0 0 0 0 0
          0 0 0 0 0 0 0 0 0 0 0 0
          0 0 0 0 0 0 0 0 0 0 0 0
          0 0 0 0 0 0 0 0 0 0 0 0
          0 0 0 0 0 0 0 0 0 0 0 0
          0 0 0 0 0 0 0 0 0 0 0 0
          0 0 0 0 0 0 0 0 0 0 0 0
          0 0 0 0 0 0 0 0 0 0 0 0
          0 0 0 0 0 0 0 0 0 0 0 0
          0 0 0 0 0 0 0 0 0 0 0 0
          0 0 0 0 0 0 0 0 0 0 0 0
          0 0 0 0 0 0 0 0 0 0 0 0
          0 0 0 0 0 0 0 0 0 0 0 0
          0 0 0 0 0 0 0 0 0 0 0 0
          0 0 0 0 0 0 0 0 0 0 0 0
          0 0 0 0 0 0 0 0 0 0 0 0
          0 0 0 0 0 0 0 0 0 0 0 0
          0 0 0 0 0 0 0 0 0 0 0 0
          0 0 0 0 0 0 0 0 0 0 0 0
          0 0 0 0 0 0 0 0 0 0 0 0
          0 0 0 0 0 0 0 0 0 0 0 0
          0 0 0 0 0 0 0 0 0 0 0 0
          0 0 0 0 0 0 0 0 0 0 0 0
          0 0 0 0 0 0 0 0 0 0 0 0
          0 0 0 0 0 0
        </DataArray>
        <DataArray type="Float32" Name="ReservoirTraction" NumberOfComponents="1" format="ascii">
          3.5874e+07 3.5874e+07 3.5874e+07 3.5874e+07 3.5874e+07 3.5874e+07 3.5874e+07 3.5874e+07 3.5874e+07 3.5874e+07 3.5874e+07 3.5874e+07
          3.5874e+07 3.5874e+07 3.5874e+07 3.5874e+07 3.5874e+07 3.5874e+07 3.5874e+07 3.5874e+07 3.5874e+07 3.5874e+07 3.5874e+07 3.5874e+07
          3.5874e+07 3.5874e+07 3.5874e+07 3.5874e+07 3.5874e+07 3.5874e+07 3.5874e+07 3.5874e+07 3.5874e+07 3.5874e+07 3.5874e+07 3.5874e+07
          3.5874e+07 3.5874e+07 3.5874e+07 3.5874e+07 3.5874e+07 3.5874e+07 3.5874e+07 3.5874e+07 3.5874e+07 3.5874e+07 3.5874e+07 3.5874e+07
          3.5874e+07 3.5874e+07 3.5874e+07 3.5874e+07 3.5874e+07 3.5874e+07 3.5874e+07 3.5874e+07 3.5874e+07 3.5874e+07 3.5874e+07 3.5874e+07
          3.5874e+07 3.5874e+07 3.5874e+07 3.5874e+07 3.5874e+07 3.5874e+07 3.5874e+07 3.5874e+07 3.5874e+07 3.5874e+07 3.5874e+07 3.5874e+07
          3.5874e+07 3.5874e+07 3.5874e+07 3.5874e+07 3.5874e+07 3.5874e+07 3.5874e+07 3.5874e+07 3.5874e+07 3.5874e+07 3.5874e+07 3.5874e+07
          3.5874e+07 3.5874e+07 3.5874e+07 3.5874e+07 3.5874e+07 3.5874e+07 3.5874e+07 3.5874e+07 3.5874e+07 3.5874e+07 3.5874e+07 3.5874e+07
          3.5874e+07 3.5874e+07 3.5874e+07 3.5874e+07 3.5874e+07 3.5874e+07 3.5874e+07 3.5874e+07 3.5874e+07 3.5874e+07 3.5874e+07 3.5874e+07
          3.5874e+07 3.5874e+07 3.5874e+07 3.5874e+07 3.5874e+07 3.5874e+07 3.5874e+07 3.5874e+07 3.5874e+07 3.5874e+07 3.5874e+07 3.5874e+07
          3.5874e+07 3.5874e+07 3.5874e+07 3.5874e+07 3.5874e+07 3.5874e+07 3.5874e+07 3.5874e+07 3.5874e+07 3.5874e+07 3.5874e+07 3.5874e+07
          3.5874e+07 3.5874e+07 3.5874e+07 3.5874e+07 3.5874e+07 3.5874e+07 3.5874e+07 3.5874e+07 3.5874e+07 3.5874e+07 3.5874e+07 3.5874e+07
          3.5874e+07 3.5874e+07 3.5874e+07 3.5874e+07 3.5874e+07 3.5874e+07 3.5874e+07 3.5874e+07 3.5874e+07 3.5874e+07 3.5874e+07 3.5874e+07
          3.5874e+07 3.5874e+07 3.5874e+07 3.5874e+07 3.5874e+07 3.5874e+07 3.5874e+07 3.5874e+07 3.5874e+07 3.5874e+07 3.5874e+07 3.5874e+07
          3.5874e+07 3.5874e+07 3.5874e+07 3.5874e+07 3.5874e+07 3.5874e+07 3.5874e+07 3.5874e+07 3.5874e+07 3.5874e+07 3.5874e+07 3.5874e+07
          3.5874e+07 3.5874e+07 3.5874e+07 3.5874e+07 3.5874e+07 3.5874e+07 3.5874e+07 3.5874e+07 3.5874e+07 3.5874e+07 3.5874e+07 3.5874e+07
          3.5874e+07 3.5874e+07 3.5874e+07 3.5874e+07 3.5874e+07 3.5874e+07 3.5874e+07 3.5874e+07 3.5874e+07 3.5874e+07 3.5874e+07 3.5874e+07
          3.5874e+07 3.5874e+07 3.5874e+07 3.5874e+07 3.5874e+07 3.5874e+07 3.5874e+07 3.5874e+07 3.5874e+07 3.5874e+07 3.5874e+07 3.5874e+07
          3.5874e+07 3.5874e+07 3.5874e+07 3.5874e+07 3.5874e+07 3.5874e+07 3.5874e+07 3.5874e+07 3.5874e+07 3.5874e+07 3.5874e+07 3.5874e+07
          3.5874e+07 3.5874e+07 3.5874e+07 3.5874e+07 3.5874e+07 3.5874e+07 3.5874e+07 3.5874e+07 3.5874e+07 3.5874e+07 3.5874e+07 3.5874e+07
          3.5874e+07 3.5874e+07 3.5874e+07 3.5874e+07 3.5874e+07 3.5874e+07 3.5874e+07 3.5874e+07 3.5874e+07 3.5874e+07 3.5874e+07 3.5874e+07
          3.5874e+07 3.5874e+07 3.5874e+07 3.5874e+07 3.5874e+07 3.5874e+07 3.5874e+07 3.5874e+07 3.5874e+07 3.5874e+07 3.5874e+07 3.5874e+07
          3.5874e+07 3.5874e+07 3.5874e+07 3.5874e+07 3.5874e+07 3.5874e+07 3.5874e+07 3.5874e+07 3.5874e+07 3.5874e+07 3.5874e+07 3.5874e+07
          3.5874e+07 3.5874e+07 3.5874e+07 3.5874e+07 3.5874e+07 3.5874e+07 3.5874e+07 3.5874e+07 3.5874e+07 3.5874e+07 3.5874e+07 3.5874e+07
          3.5874e+07 3.5874e+07 3.5874e+07 3.5874e+07 3.5874e+07 3.5874e+07 3.5874e+07 3.5874e+07 3.5874e+07 3.5874e+07 3.5874e+07 3.5874e+07
          3.5874e+07 3.5874e+07 3.5874e+07 3.5874e+07 3.5874e+07 3.5874e+07 3.5874e+07 3.5874e+07 3.5874e+07 3.5874e+07 3.5874e+07 3.5874e+07
          3.5874e+07 3.5874e+07 3.5874e+07 3.5874e+07 3.5874e+07 3.5874e+07 3.5874e+07 3.5874e+07 3.5874e+07 3.5874e+07 3.5874e+07 3.5874e+07
          3.5874e+07 3.5874e+07 3.5874e+07 3.5874e+07 3.5874e+07 3.5874e+07 3.5874e+07 3.5874e+07 3.5874e+07 3.5874e+07 3.5874e+07 3.5874e+07
          3.5874e+07 3.5874e+07 3.5874e+07 3.5874e+07 3.5874e+07 3.5874e+07
        </DataArray>
        <DataArray type="Float32" Name="FractureForce" NumberOfComponents="1" format="ascii">
          1.37945e+07 1.37945e+07 1.37945e+07 1.37945e+07 1.37945e+07 1.37945e+07 1.37945e+07 1.37945e+07 1.37945e+07 1.37945e+07 1.37945e+07 1.37945e+07
          1.37945e+07 1.37945e+07 1.37945e+07 1.37945e+07 1.37945e+07 1.37945e+07 1.37945e+07 1.37945e+07 1.37945e+07 1.37945e+07 1.37945e+07 1.37945e+07
          1.37945e+07 1.37945e+07 1.37945e+07 1.37945e+07 1.37945e+07 1.37945e+07 1.37945e+07 1.37945e+07 1.37945e+07 1.37945e+07 1.37945e+07 1.37945e+07
          1.37945e+07 1.37945e+07 1.37945e+07 1.37945e+07 1.37945e+07 1.37945e+07 1.37945e+07 1.37945e+07 1.37945e+07 1.37945e+07 1.37945e+07 1.37945e+07
          1.37945e+07 1.37945e+07 1.37945e+07 1.37945e+07 1.37945e+07 1.37945e+07 1.37945e+07 1.37945e+07 1.37945e+07 1.37945e+07 1.37945e+07 1.37945e+07
          1.37945e+07 1.37945e+07 1.37945e+07 1.37945e+07 1.37945e+07 1.37945e+07 1.37945e+07 1.37945e+07 1.37945e+07 1.37945e+07 1.37945e+07 1.37945e+07
          1.37945e+07 1.37945e+07 1.37945e+07 1.37945e+07 1.37945e+07 1.37945e+07 1.37945e+07 1.37945e+07 1.37945e+07 1.37945e+07 1.37945e+07 1.37945e+07
          1.37945e+07 1.37945e+07 1.37945e+07 1.37945e+07 1.37945e+07 1.37945e+07 1.37945e+07 1.37945e+07 1.37945e+07 1.37945e+07 1.37945e+07 1.37945e+07
          1.37945e+07 1.37945e+07 1.37945e+07 1.37945e+07 1.37945e+07 1.37945e+07 1.37945e+07 1.37945e+07 1.37945e+07 1.37945e+07 1.37945e+07 1.37945e+07
          1.37945e+07 1.37945e+07 1.37945e+07 1.37945e+07 1.37945e+07 1.37945e+07 1.37945e+07 1.37945e+07 1.37945e+07 1.37945e+07 1.37945e+07 1.37945e+07
          1.37945e+07 1.37945e+07 1.37945e+07 1.37945e+07 1.37945e+07 1.37945e+07 1.37945e+07 1.37945e+07 1.37945e+07 1.37945e+07 1.37945e+07 1.37945e+07
          1.37945e+07 1.37945e+07 1.37945e+07 1.37945e+07 1.37945e+07 1.37945e+07 1.37945e+07 1.37945e+07 1.37945e+07 1.37945e+07 1.37945e+07 1.37945e+07
          1.37945e+07 1.37945e+07 1.37945e+07 1.37945e+07 1.37945e+07 1.37945e+07 1.37945e+07 1.37945e+07 1.37945e+07 1.37945e+07 1.37945e+07 1.37945e+07
          1.37945e+07 1.37945e+07 1.37945e+07 1.37945e+07 1.37945e+07 1.37945e+07 1.37945e+07 1.37945e+07 1.37945e+07 1.37945e+07 1.37945e+07 1.37945e+07
          1.37945e+07 1.37945e+07 1.37945e+07 1.37945e+07 1.37945e+07 1.37945e+07 1.37945e+07 1.37945e+07 1.37945e+07 1.37945e+07 1.37945e+07 1.37945e+07
          1.37945e+07 1.37945e+07 1.37945e+07 1.37945e+07 1.37945e+07 1.37945e+07 1.37945e+07 1.37945e+07 1.37945e+07 1.37945e+07 1.37945e+07 1.37945e+07
          1.37945e+07 1.37945e+07 1.37945e+07 1.37945e+07 1.37945e+07 1.37945e+07 1.37945e+07 1.37945e+07 1.37945e+07 1.37945e+07 1.37945e+07 1.37945e+07
          1.37945e+07 1.37945e+07 1.37945e+07 1.37945e+07 1.37945e+07 1.37945e+07 1.37945e+07 1.37945e+07 1.37945e+07 1.37945e+07 1.37945e+07 1.37945e+07
          1.37945e+07 1.37945e+07 1.37945e+07 1.37945e+07 1.37945e+07 1.37945e+07 1.37945e+07 1.37945e+07 1.37945e+07 1.37945e+07 1.37945e+07 1.37945e+07
          1.37945e+07 1.37945e+07 1.37945e+07 1.37945e+07 1.37945e+07 1.37945e+07 1.37945e+07 1.37945e+07 1.37945e+07 1.37945e+07 1.37945e+07 1.37945e+07
          1.37945e+07 1.37945e+07 1.37945e+07 1.37945e+07 1.37945e+07 1.37945e+07 1.37945e+07 1.37945e+07 1.37945e+07 1.37945e+07 1.37945e+07 1.37945e+07
          1.37945e+07 1.37945e+07 1.37945e+07 1.37945e+07 1.37945e+07 1.37945e+07 1.37945e+07 1.37945e+07 1.37945e+07 1.37945e+07 1.37945e+07 1.37945e+07
          1.37945e+07 1.37945e+07 1.37945e+07 1.37945e+07 1.37945e+07 1.37945e+07 1.37945e+07 1.37945e+07 1.37945e+07 1.37945e+07 1.37945e+07 1.37945e+07
          1.37945e+07 1.37945e+07 1.37945e+07 1.37945e+07 1.37945e+07 1.37945e+07 1.37945e+07 1.37945e+07 1.37945e+07 1.37945e+07 1.37945e+07 1.37945e+07
          1.37945e+07 1.37945e+07 1.37945e+07 1.37945e+07 1.37945e+07 1.37945e+07 1.37945e+07 1.37945e+07 1.37945e+07 1.37945e+07 1.37945e+07 1.37945e+07
          1.37945e+07 1.37945e+07 1.37945e+07 1.37945e+07 1.37945e+07 1.37945e+07 1.37945e+07 1.37945e+07 1.37945e+07 1.37945e+07 1.37945e+07 1.37945e+07
          1.37945e+07 1.37945e+07 1.37945e+07 1.37945e+07 1.37945e+07 1.37945e+07 1.37945e+07 1.37945e+07 1.37945e+07 1.37945e+07 1.37945e+07 1.37945e+07
          1.37945e+07 1.37945e+07 1.37945e+07 1.37945e+07 1.37945e+07 1.37945e+07 1.37945e+07 1.37945e+07 1.37945e+07 1.37945e+07 1.37945e+07 1.37945e+07
          1.37945e+07 1.37945e+07 1.37945e+07 1.37945e+07 1.37945e+07 1.37945e+07
        </DataArray>
        <DataArray type="Float32" Name="ReservoirMobility" NumberOfComponents="1" format="ascii">
          2523.62 2523.62 2523.62 2523.62 2523.62 2523.62 2523.62 2523.62 2523.62 2523.62 2523.62 2523.62
          2523.62 2523.62 2523.62 2523.62 2523.62 2523.62 2523.62 2523.62 2523.62 2523.62 2523.62 2523.62
          2523.62 2523.62 2523.62 2523.62 2523.62 2523.62 2523.62 2523.62 2523.62 2523.62 2523.62 2523.62
          2523.62 2523.62 2523.62 2523.62 2523.62 2523.62 2523.62 2523.62 2523.62 2523.62 2523.62 2523.62
          2523.62 2523.62 2523.62 2523.62 2523.62 2523.62 2523.62 2523.62 2523.62 2523.62 2523.62 2523.62
          2523.62 2523.62 2523.62 2523.62 2523.62 2523.62 2523.62 2523.62 2523.62 2523.62 2523.62 2523.62
          2523.62 2523.62 2523.62 2523.62 2523.62 2523.62 2523.62 2523.62 2523.62 2523.62 2523.62 2523.62
          2523.62 2523.62 2523.62 2523.62 2523.62 2523.62 2523.62 2523.62 2523.62 2523.62 2523.62 2523.62
          2523.62 2523.62 2523.62 2523.62 2523.62 2523.62 2523.62 2523.62 2523.62 2523.62 2523.62 2523.62
          2523.62 2523.62 2523.62 2523.62 2523.62 2523.62 2523.62 2523.62 2523.62 2523.62 2523.62 2523.62
          2523.62 2523.62 2523.62 2523.62 2523.62 2523.62 2523.62 2523.62 2523.62 2523.62 2523.62 2523.62
          2523.62 2523.62 2523.62 2523.62 2523.62 2523.62 2523.62 2523.62 2523.62 2523.62 2523.62 2523.62
          2523.62 2523.62 2523.62 2523.62 2523.62 2523.62 2523.62 2523.62 2523.62 2523.62 2523.62 2523.62
          2523.62 2523.62 2523.62 2523.62 2523.62 2523.62 2523.62 2523.62 2523.62 2523.62 2523.62 2523.62
          2523.62 2523.62 2523.62 2523.62 2523.62 2523.62 2523.62 2523.62 2523.62 2523.62 2523.62 2523.62
          2523.62 2523.62 2523.62 2523.62 2523.62 2523.62 2523.62 2523.62 2523.62 2523.62 2523.62 2523.62
          2523.62 2523.62 2523.62 2523.62 2523.62 2523.62 2523.62 2523.62 2523.62 2523.62 2523.62 2523.62
          2523.62 2523.62 2523.62 2523.62 2523.62 2523.62 2523.62 2523.62 2523.62 2523.62 2523.62 2523.62
          2523.62 2523.62 2523.62 2523.62 2523.62 2523.62 2523.62 2523.62 2523.62 2523.62 2523.62 2523.62
          2523.62 2523.62 2523.62 2523.62 2523.62 2523.62 2523.62 2523.62 2523.62 2523.62 2523.62 2523.62
          2523.62 2523.62 2523.62 2523.62 2523.62 2523.62 2523.62 2523.62 2523.62 2523.62 2523.62 2523.62
          2523.62 2523.62 2523.62 2523.62 2523.62 2523.62 2523.62 2523.62 2523.62 2523.62 2523.62 2523.62
          2523.62 2523.62 2523.62 2523.62 2523.62 2523.62 2523.62 2523.62 2523.62 2523.62 2523.62 2523.62
          2523.62 2523.62 2523.62 2523.62 2523.62 2523.62 2523.62 2523.62 2523.62 2523.62 2523.62 2523.62
          2523.62 2523.62 2523.62 2523.62 2523.62 2523.62 2523.62 2523.62 2523.62 2523.62 2523.62 2523.62
          2523.62 2523.62 2523.62 2523.62 2523.62 2523.62 2523.62 2523.62 2523.62 2523.62 2523.62 2523.62
          2523.62 2523.62 2523.62 2523.62 2523.62 2523.62 2523.62 2523.62 2523.62 2523.62 2523.62 2523.62
          2523.62 2523.62 2523.62 2523.62 2523.62 2523.62 2523.62 2523.62 2523.62 2523.62 2523.62 2523.62
          2523.62 2523.62 2523.62 2523.62 2523.62 2523.62
        </DataArray>
        <DataArray type="Float32" Name="WellIndex" NumberOfComponents="1" format="ascii">
          0 0 0 0 0 0 0 0 0 0 0 0
          0 0 0 0 0 0 0 0 0 0 0 0
          0 0 0 0 0 0 0 0 0 0 0 0
          0 0 0 0 0 0 0 0 0 0 0 0
          0 0 0 0 0 0 0 0 0 0 0 0
          0 0 0 0 0 0 0 0 0 0 0 0
          0 0 0 0 0 0 0 0 0 0 0 0
          0 0 0 0 0 0 0 0 0 0 0 0
          0 0 0 0 0 0 0 0 0 0 0 0
          0 0 0 0 0 0 0 0 0 0 0 0
          0 0 0 0 0 0 0 0 0 0 0 0
          0 0 0 0 0 0 0 0 0 0 0 0
          0 0 0 0 0 0 0 0 0 0 0 0
          0 0 0 0 0 0 0 0 0 0 0 0
          0 0 0 0 0 0 0 0 0 0 0 0
          0 0 0 0 0 0 0 0 0 0 0 0
          0 0 0 0 0 0 0 0 0 0 0 0
          0 0 0 0 0 0 0 0 0 0 0 0
          0 0 0 0 0 0 0 0 0 0 0 0
          0 0 0 0 0 0 0 0 0 0 0 0
          0 0 0 0 0 0 0 0 0 0 0 0
          0 0 0 0 0 0 0 0 0 0 0 0
          0 0 0 0 0 0 0 0 0 0 0 0
          0 0 0 0 0 0 0 0 0 0 0 0
          0 0 0 0 0 0 0 0 0 0 0 0
          0 0 0 0 0 0 0 0 0 0 0 0
          0 0 0 0 0 0 0 0 0 0 0 0
          0 0 0 0 0 0 0 0 0 0 0 0
          0 0 0 0 0 0
        </DataArray>
        <DataArray type="Float32" Name="FractureWidth" NumberOfComponents="1" format="ascii">
          0.0001 0.0001 0.0001 0.0001 0.0001 0.0001 0.0001 0.0001 0.0001 0.0001 0.0001 0.0001
          0.0001 0.0001 0.0001 0.0001 0.0001 0.0001 0.0001 0.0001 0.0001 0.0001 0.0001 0.0001
          0.0001 0.0001 0.0001 0.0001 0.0001 0.0001 0.0001 0.0001 0.0001 0.0001 0.0001 0.0001
          0.0001 0.0001 0.0001 0.0001 0.0001 0.0001 0.0001 0.0001 0.0001 0.0001 0.0001 0.0001
          0.0001 0.0001 0.0001 0.0001 0.0001 0.0001 0.0001 0.0001 0.0001 0.0001 0.0001 0.0001
          0.0001 0.0001 0.0001 0.0001 0.0001 0.0001 0.0001 0.0001 0.0001 0.0001 0.0001 0.0001
          0.0001 0.0001 0.0001 0.0001 0.0001 0.0001 0.0001 0.0001 0.0001 0.0001 0.0001 0.0001
          0.0001 0.0001 0.0001 0.0001 0.0001 0.0001 0.0001 0.0001 0.0001 0.0001 0.0001 0.0001
          0.0001 0.0001 0.0001 0.0001 0.0001 0.0001 0.0001 0.0001 0.0001 0.0001 0.0001 0.0001
          0.0001 0.0001 0.0001 0.0001 0.0001 0.0001 0.0001 0.0001 0.0001 0.0001 0.0001 0.0001
          0.0001 0.0001 0.0001 0.0001 0.0001 0.0001 0.0001 0.0001 0.0001 0.0001 0.0001 0.0001
          0.0001 0.0001 0.0001 0.0001 0.0001 0.0001 0.0001 0.0001 0.0001 0.0001 0.0001 0.0001
          0.0001 0.0001 0.0001 0.0001 0.0001 0.0001 0.0001 0.0001 0.0001 0.0001 0.0001 0.0001
          0.0001 0.0001 0.0001 0.0001 0.0001 0.0001 0.0001 0.0001 0.0001 0.0001 0.0001 0.0001
          0.0001 0.0001 0.0001 0.0001 0.0001 0.0001 0.0001 0.0001 0.0001 0.0001 0.0001 0.0001
          0.0001 0.0001 0.0001 0.0001 0.0001 0.0001 0.0001 0.0001 0.0001 0.0001 0.0001 0.0001
          0.0001 0.0001 0.0001 0.0001 0.0001 0.0001 0.0001 0.0001 0.0001 0.0001 0.0001 0.0001
          0.0001 0.0001 0.0001 0.0001 0.0001 0.0001 0.0001 0.0001 0.0001 0.0001 0.0001 0.0001
          0.0001 0.0001 0.0001 0.0001 0.0001 0.0001 0.0001 0.0001 0.0001 0.0001 0.0001 0.0001
          0.0001 0.0001 0.0001 0.0001 0.0001 0.0001 0.0001 0.0001 0.0001 0.0001 0.0001 0.0001
          0.0001 0.0001 0.0001 0.0001 0.0001 0.0001 0.0001 0.0001 0.0001 0.0001 0.0001 0.0001
          0.0001 0.0001 0.0001 0.0001 0.0001 0.0001 0.0001 0.0001 0.0001 0.0001 0.0001 0.0001
          0.0001 0.0001 0.0001 0.0001 0.0001 0.0001 0.0001 0.0001 0.0001 0.0001 0.0001 0.0001
          0.0001 0.0001 0.0001 0.0001 0.0001 0.0001 0.0001 0.0001 0.0001 0.0001 0.0001 0.0001
          0.0001 0.0001 0.0001 0.0001 0.0001 0.0001 0.0001 0.0001 0.0001 0.0001 0.0001 0.0001
          0.0001 0.0001 0.0001 0.0001 0.0001 0.0001 0.0001 0.0001 0.0001 0.0001 0.0001 0.0001
          0.0001 0.0001 0.0001 0.0001 0.0001 0.0001 0.0001 0.0001 0.0001 0.0001 0.0001 0.0001
          0.0001 0.0001 0.0001 0.0001 0.0001 0.0001 0.0001 0.0001 0.0001 0.0001 0.0001 0.0001
          0.0001 0.0001 0.0001 0.0001 0.0001 0.0001
        </DataArray>
        <DataArray type="Float32" Name="FlowWidth" NumberOfComponents="1" format="ascii">
          0.0001 0.0001 0.0001 0.0001 0.0001 0.0001 0.0001 0.0001 0.0001 0.0001 0.0001 0.0001
          0.0001 0.0001 0.0001 0.0001 0.0001 0.0001 0.0001 0.0001 0.0001 0.0001 0.0001 0.0001
          0.0001 0.0001 0.0001 0.0001 0.0001 0.0001 0.0001 0.0001 0.0001 0.0001 0.0001 0.0001
          0.0001 0.0001 0.0001 0.0001 0.0001 0.0001 0.0001 0.0001 0.0001 0.0001 0.0001 0.0001
          0.0001 0.0001 0.0001 0.0001 0.0001 0.0001 0.0001 0.0001 0.0001 0.0001 0.0001 0.0001
          0.0001 0.0001 0.0001 0.0001 0.0001 0.0001 0.0001 0.0001 0.0001 0.0001 0.0001 0.0001
          0.0001 0.0001 0.0001 0.0001 0.0001 0.0001 0.0001 0.0001 0.0001 0.0001 0.0001 0.0001
          0.0001 0.0001 0.0001 0.0001 0.0001 0.0001 0.0001 0.0001 0.0001 0.0001 0.0001 0.0001
          0.0001 0.0001 0.0001 0.0001 0.0001 0.0001 0.0001 0.0001 0.0001 0.0001 0.0001 0.0001
          0.0001 0.0001 0.0001 0.0001 0.0001 0.0001 0.0001 0.0001 0.0001 0.0001 0.0001 0.0001
          0.0001 0.0001 0.0001 0.0001 0.0001 0.0001 0.0001 0.0001 0.0001 0.0001 0.0001 0.0001
          0.0001 0.0001 0.0001 0.0001 0.0001 0.0001 0.0001 0.0001 0.0001 0.0001 0.0001 0.0001
          0.0001 0.0001 0.0001 0.0001 0.0001 0.0001 0.0001 0.0001 0.0001 0.0001 0.0001 0.0001
          0.0001 0.0001 0.0001 0.0001 0.0001 0.0001 0.0001 0.0001 0.0001 0.0001 0.0001 0.0001
          0.0001 0.0001 0.0001 0.0001 0.0001 0.0001 0.0001 0.0001 0.0001 0.0001 0.0001 0.0001
          0.0001 0.0001 0.0001 0.0001 0.0001 0.0001 0.0001 0.0001 0.0001 0.0001 0.0001 0.0001
          0.0001 0.0001 0.0001 0.0001 0.0001 0.0001 0.0001 0.0001 0.0001 0.0001 0.0001 0.0001
          0.0001 0.0001 0.0001 0.0001 0.0001 0.0001 0.0001 0.0001 0.0001 0.0001 0.0001 0.0001
          0.0001 0.0001 0.0001 0.0001 0.0001 0.0001 0.0001 0.0001 0.0001 0.0001 0.0001 0.0001
          0.0001 0.0001 0.0001 0.0001 0.0001 0.0001 0.0001 0.0001 0.0001 0.0001 0.0001 0.0001
          0.0001 0.0001 0.0001 0.0001 0.0001 0.0001 0.0001 0.0001 0.0001 0.0001 0.0001 0.0001
          0.0001 0.0001 0.0001 0.0001 0.0001 0.0001 0.0001 0.0001 0.0001 0.0001 0.0001 0.0001
          0.0001 0.0001 0.0001 0.0001 0.0001 0.0001 0.0001 0.0001 0.0001 0.0001 0.0001 0.0001
          0.0001 0.0001 0.0001 0.0001 0.0001 0.0001 0.0001 0.0001 0.0001 0.0001 0.0001 0.0001
          0.0001 0.0001 0.0001 0.0001 0.0001 0.0001 0.0001 0.0001 0.0001 0.0001 0.0001 0.0001
          0.0001 0.0001 0.0001 0.0001 0.0001 0.0001 0.0001 0.0001 0.0001 0.0001 0.0001 0.0001
          0.0001 0.0001 0.0001 0.0001 0.0001 0.0001 0.0001 0.0001 0.0001 0.0001 0.0001 0.0001
          0.0001 0.0001 0.0001 0.0001 0.0001 0.0001 0.0001 0.0001 0.0001 0.0001 0.0001 0.0001
          0.0001 0.0001 0.0001 0.0001 0.0001 0.0001
        </DataArray>
        <DataArray type="Float32" Name="stressIntensityK1" NumberOfComponents="1" format="ascii">
          nan 1.01463e+06 nan 1.01463e+06 nan 1.01463e+06 nan 1.01463e+06 nan 1.01463e+06 nan 1.01463e+06
          nan 1.01463e+06 nan nan nan nan nan nan nan nan nan 1.01463e+06
          nan nan nan nan nan nan nan nan nan nan 1.01463e+06 1.01463e+06
          nan nan 1.01463e+06 1.01463e+06 nan nan 1.01463e+06 1.01463e+06 nan nan 1.01463e+06 1.01463e+06
          nan nan 1.01463e+06 1.01463e+06 nan nan 1.01463e+06 1.01463e+06 nan nan 1.01463e+06 nan
          nan nan nan nan nan nan nan nan nan nan nan nan
          nan nan nan nan nan nan nan nan nan nan nan nan
          nan nan nan nan nan nan nan nan nan nan nan nan
          nan nan nan nan nan nan nan 1.01463e+06 nan nan 1.01463e+06 1.01463e+06
          nan nan 1.01463e+06 1.01463e+06 nan nan 1.01463e+06 1.01463e+06 nan nan 1.01463e+06 1.01463e+06
          nan nan 1.01463e+06 1.01463e+06 nan nan 1.01463e+06 1.01463e+06 nan nan nan nan
          nan nan nan nan nan nan 1.01463e+06 nan nan nan nan nan
          nan nan nan nan 1.01463e+06 nan 1.01463e+06 nan 1.01463e+06 nan 1.01463e+06 nan
          1.01463e+06 nan 1.01463e+06 nan 1.01463e+06 nan nan nan nan nan nan nan
          nan nan nan nan nan nan nan nan nan nan nan nan
          nan nan nan nan nan nan nan nan nan nan nan nan
          nan nan nan nan nan nan nan nan nan nan nan nan
          nan nan nan nan nan nan nan nan nan nan nan nan
          nan nan nan nan nan nan nan nan nan nan nan nan
          nan nan nan nan nan nan nan nan nan nan nan nan
          nan nan nan nan nan nan nan nan nan nan nan nan
          nan nan nan nan nan nan nan nan nan nan nan nan
          nan nan nan nan nan nan nan nan nan nan nan nan
          nan nan nan nan nan nan nan nan nan nan nan nan
          nan nan nan nan nan nan nan nan nan nan nan nan
          nan nan nan nan nan nan nan nan nan nan nan nan
          nan nan nan nan nan nan nan nan nan nan nan nan
          nan nan nan nan nan nan 1.33533e+06 1.33533e+06 1.33533e+06 1.33533e+06 1.33533e+06 1.33533e+06
          1.33533e+06 1.33533e+06 1.33533e+06 1.33533e+06 1.33533e+06 1.33533e+06
        </DataArray>
      </CellData>
      <Points>
        <DataArray type="Float32" Name="Coordinates" NumberOfComponents="3" format="ascii">
          995.067 995.5 2214.75 994.634 995.5 2215 994.634 995.5 2214.5 994.201 995.5 2214.75
          994.201 995.5 2214.25 993.768 995.5 2214.5 993.768 995.5 2214 993.335 995.5 2214.25
          993.335 995.5 2213.75 992.902 995.5 2214 992.902 995.5 2213.5 992.469 995.5 2213.75
          992.469 995.5 2213.25 992.036 995.5 2213.5 992.036 995.5 2213 991.603 995.5 2213.25
          991.603 995.5 2212.75 995.933 995.5 2214.75 995.5 995.5 2215 995.5 995.5 2214.5
          995.067 995.5 2214.25 992.036 995.5 2212.5 991.603 995.5 2212.25 991.17 995.5 2212.5
          991.17 995.5 2212 996.799 995.5 2214.75 996.366 995.5 2215 996.366 995.5 2214.5
          995.933 995.5 2214.25 995.5 995.5 2214 992.036 995.5 2212 991.603 995.5 2211.75
          991.17 995.5 2211.5 990.737 995.5 2211.75 990.737 995.5 2211.25 997.232 995.5 2214.5
          996.799 995.5 2214.25 991.17 995.5 2211 990.737 995.5 2210.75 997.665 995.5 2214.25
          997.232 995.5 2214 991.17 995.5 2210.5 990.737 995.5 2210.25 998.098 995.5 2214
          997.665 995.5 2213.75 991.17 995.5 2210 990.737 995.5 2209.75 998.531 995.5 2213.75
          998.098 995.5 2213.5 991.17 995.5 2209.5 990.737 995.5 2209.25 998.964 995.5 2213.5
          998.531 995.5 2213.25 991.17 995.5 2209 990.737 995.5 2208.75 999.397 995.5 2213.25
          998.964 995.5 2213 991.17 995.5 2208.5 990.737 995.5 2208.25 999.397 995.5 2212.75
          998.964 995.5 2212.5 995.933 995.5 2210.75 995.5 995.5 2211 995.5 995.5 2210.5
          995.067 995.5 2210.75 995.067 995.5 2210.25 994.634 995.5 2210.5 994.634 995.5 2210
          991.603 995.5 2208.25 991.17 995.5 2208 999.83 995.5 2212.5 999.397 995.5 2212.25
          998.964 995.5 2212 996.366 995.5 2210.5 995.933 995.5 2210.25 995.5 995.5 2210
          995.067 995.5 2209.75 994.634 995.5 2209.5 992.036 995.5 2208 991.603 995.5 2207.75
          991.17 995.5 2207.5 999.83 995.5 2212 999.397 995.5 2211.75 996.366 995.5 2210
          995.933 995.5 2209.75 995.5 995.5 2209.5 995.067 995.5 2209.25 992.036 995.5 2207.5
          991.603 995.5 2207.25 1000.26 995.5 2211.75 999.83 995.5 2211.5 996.366 995.5 2209.5
          995.933 995.5 2209.25 995.5 995.5 2209 992.036 995.5 2207 991.603 995.5 2206.75
          1000.26 995.5 2211.25 999.83 995.5 2211 992.469 995.5 2206.75 992.036 995.5 2206.5
          1000.26 995.5 2210.75 999.83 995.5 2210.5 992.902 995.5 2206.5 992.469 995.5 2206.25
          1000.26 995.5 2210.25 999.83 995.5 2210 993.335 995.5 2206.25 992.902 995.5 2206
          1000.26 995.5 2209.75 999.83 995.5 2209.5 993.768 995.5 2206 993.335 995.5 2205.75
          1000.26 995.5 2209.25 999.83 995.5 2209 994.201 995.5 2205.75 993.768 995.5 2205.5
          1000.26 995.5 2208.75 999.83 995.5 2208.5 994.634 995.5 2205.5 994.201 995.5 2205.25
          1000.26 995.5 2208.25 999.83 995.5 2208 999.397 995.5 2208.25 999.397 995.5 2207.75
          998.964 995.5 2208 998.964 995.5 2207.5 995.933 995.5 2205.75 995.5 995.5 2206
          995.5 995.5 2205.5 995.067 995.5 2205.75 995.067 995.5 2205.25 994.634 995.5 2205
          999.83 995.5 2207.5 999.397 995.5 2207.25 998.964 995.5 2207 996.366 995.5 2205.5
          995.933 995.5 2205.25 995.5 995.5 2205 999.397 995.5 2206.75 998.964 995.5 2206.5
          998.531 995.5 2206.75 998.531 995.5 2206.25 998.098 995.5 2206.5 998.098 995.5 2206
          997.665 995.5 2206.25 997.665 995.5 2205.75 997.232 995.5 2206 997.232 995.5 2205.5
          996.799 995.5 2205.75 996.799 995.5 2205.25 996.366 995.5 2205 994.634 995.5 2213.5
          993.768 995.5 2213 992.902 995.5 2212.5 996.366 995.5 2213.5 995.5 995.5 2213
          994.634 995.5 2212.5 993.768 995.5 2212 992.902 995.5 2211.5 992.036 995.5 2211
          997.232 995.5 2213 996.366 995.5 2212.5 995.5 995.5 2212 994.634 995.5 2211.5
          993.768 995.5 2211 992.902 995.5 2210.5 992.036 995.5 2210 998.098 995.5 2212.5
          997.232 995.5 2212 996.366 995.5 2211.5 993.768 995.5 2210 992.902 995.5 2209.5
          992.036 995.5 2209 998.098 995.5 2211.5 997.232 995.5 2211 993.768 995.5 2209
          992.902 995.5 2208.5 998.964 995.5 2211 998.098 995.5 2210.5 997.232 995.5 2210
          994.634 995.5 2208.5 993.768 995.5 2208 992.902 995.5 2207.5 998.964 995.5 2210
          998.098 995.5 2209.5 997.232 995.5 2209 996.366 995.5 2208.5 995.5 995.5 2208
          994.634 995.5 2207.5 993.768 995.5 2207 998.964 995.5 2209 998.098 995.5 2208.5
          997.232 995.5 2208 996.366 995.5 2207.5 995.5 995.5 2207 994.634 995.5 2206.5
          998.098 995.5 2207.5 997.232 995.5 2207 996.366 995.5 2206.5
        </DataArray>
      </Points>
      <Cells>
        <DataArray type="Int32" Name="connectivity" NumberOfComponents="1" format="ascii">
          0 1 2 1 2 3 2 3 4 3 4 5
          4 5 6 5 6 7 6 7 8 7 8 9
          8 9 10 9 10 11 10 11 12 11 12 13
          12 13 14 13 14 15 14 15 16 17 18 19
          18 19 0 19 0 20 0 20 2 14 21 16
          21 16 22 16 22 23 22 23 24 25 26 27
          26 27 17 27 17 28 17 28 19 28 19 29
          19 29 20 21 30 22 30 22 31 22 31 24
          31 24 32 24 32 33 32 33 34 35 25 36
          25 36 27 32 37 34 37 34 38 39 35 40
          35 40 36 37 41 38 41 38 42 43 39 44
          39 44 40 41 45 42 45 42 46 47 43 48
          43 48 44 45 49 46 49 46 50 51 47 52
          47 52 48 49 53 50 53 50 54 55 51 56
          51 56 52 53 57 54 57 54 58 55 59 56
          59 56 60 61 62 63 62 63 64 63 64 65
          64 65 66 65 66 67 68 57 69 57 69 58
          70 59 71 59 71 60 71 60 72 73 61 74
          61 74 63 74 63 75 63 75 65 75 65 76
          65 76 67 76 67 77 78 68 79 68 79 69
          79 69 80 70 81 71 81 71 82 71 82 72
          73 83 74 83 74 84 74 84 75 84 75 85
          75 85 76 85 76 86 76 86 77 78 87 79
          87 79 88 79 88 80 89 81 90 81 90 82
          83 91 84 91 84 92 84 92 85 92 85 93
          85 93 86 87 94 88 94 88 95 89 96 90
          96 90 97 98 94 99 94 99 95 96 100 97
          100 97 101 102 98 103 98 103 99 100 104 101
          104 101 105 106 102 107 102 107 103 104 108 105
          108 105 109 110 106 111 106 111 107 108 112 109
          112 109 113 114 110 115 110 115 111 112 116 113
          116 113 117 118 114 119 114 119 115 116 120 117
          120 117 121 117 121 122 121 122 123 122 123 124
          123 124 125 126 127 128 127 128 129 128 129 130
          129 130 118 130 118 131 118 131 119 121 132 123
          132 123 133 123 133 125 133 125 134 135 126 136
          126 136 128 136 128 137 128 137 130 133 138 134
          138 134 139 134 139 140 139 140 141 140 141 142
          141 142 143 142 143 144 143 144 145 144 145 146
          145 146 147 146 147 148 147 148 149 148 149 135
          149 135 150 135 150 136 2 20 151 20 29 151
          6 4 151 4 2 151 151 6 152 10 8 152
          8 6 152 152 10 153 14 12 153 12 10 153
          30 21 153 21 14 153 27 36 154 36 40 154
          29 28 154 28 27 154 154 29 155 29 155 151
          155 151 156 151 156 152 156 152 157 152 157 153
          157 153 158 153 158 30 158 30 159 32 31 159
          31 30 159 41 37 159 37 32 159 40 44 160
          44 48 160 40 160 154 160 154 161 154 161 155
          161 155 162 155 162 156 162 156 163 156 163 157
          163 157 164 157 164 158 164 158 165 158 165 159
          165 159 166 159 166 41 49 45 166 45 41 166
          48 52 167 52 56 167 48 167 160 167 160 168
          160 168 161 168 161 169 161 169 162 169 162 62
          162 62 163 62 64 163 64 66 163 163 66 164
          66 164 170 164 170 165 170 165 171 165 171 166
          171 166 172 166 172 49 57 53 172 53 49 172
          56 60 167 60 72 167 72 167 173 167 173 168
          173 168 174 168 174 169 174 169 73 73 61 169
          61 62 169 66 67 170 67 77 170 77 170 175
          170 175 171 175 171 176 171 176 172 176 172 78
          78 68 172 68 57 172 72 82 177 82 90 177
          72 177 173 177 173 178 173 178 174 178 174 179
          174 179 73 91 83 179 83 73 179 77 86 180
          86 93 180 77 180 175 180 175 181 175 181 176
          181 176 182 176 182 78 94 87 182 87 78 182
          90 97 177 97 101 177 101 177 183 177 183 178
          183 178 184 178 184 179 184 179 185 179 185 91
          185 91 186 93 92 186 92 91 186 186 93 187
          93 187 180 187 180 188 180 188 181 188 181 189
          181 189 182 189 182 102 102 98 182 98 94 182
          101 105 183 105 109 183 109 183 190 183 190 184
          190 184 191 184 191 185 191 185 192 185 192 186
          192 186 193 186 193 187 193 187 194 187 194 188
          194 188 195 188 195 189 195 189 110 110 106 189
          106 102 189 109 113 190 113 117 190 117 122 190
          122 124 190 190 124 191 124 191 196 191 196 192
          196 192 197 192 197 193 197 193 198 193 198 194
          198 194 127 194 127 195 127 129 195 129 118 195
          118 114 195 114 110 195 124 125 196 125 134 196
          134 140 196 140 142 196 196 142 197 142 144 197
          144 146 197 197 146 198 146 148 198 148 135 198
          135 126 198 126 127 198 0 1 18 17 18 26
          130 137 131 136 150 137 59 55 70 69 80 58
          81 70 89 88 95 80 16 23 15 24 33 23
          121 120 132 133 132 138
        </DataArray>
        <DataArray type="Int32" Name="offsets" NumberOfComponents="1" format="ascii">
          3 6 9 12 15 18 21 24 27 30 33 36
          39 42 45 48 51 54 57 60 63 66 69 72
          75 78 81 84 87 90 93 96 99 102 105 108
          111 114 117 120 123 126 129 132 135 138 141 144
          147 150 153 156 159 162 165 168 171 174 177 180
          183 186 189 192 195 198 201 204 207 210 213 216
          219 222 225 228 231 234 237 240 243 246 249 252
          255 258 261 264 267 270 273 276 279 282 285 288
          291 294 297 300 303 306 309 312 315 318 321 324
          327 330 333 336 339 342 345 348 351 354 357 360
          363 366 369 372 375 378 381 384 387 390 393 396
          399 402 405 408 411 414 417 420 423 426 429 432
          435 438 441 444 447 450 453 456 459 462 465 468
          471 474 477 480 483 486 489 492 495 498 501 504
          507 510 513 516 519 522 525 528 531 534 537 540
          543 546 549 552 555 558 561 564 567 570 573 576
          579 582 585 588 591 594 597 600 603 606 609 612
          615 618 621 624 627 630 633 636 639 642 645 648
          651 654 657 660 663 666 669 672 675 678 681 684
          687 690 693 696 699 702 705 708 711 714 717 720
          723 726 729 732 735 738 741 744 747 750 753 756
          759 762 765 768 771 774 777 780 783 786 789 792
          795 798 801 804 807 810 813 816 819 822 825 828
          831 834 837 840 843 846 849 852 855 858 861 864
          867 870 873 876 879 882 885 888 891 894 897 900
          903 906 909 912 915 918 921 924 927 930 933 936
          939 942 945 948 951 954 957 960 963 966 969 972
          975 978 981 984 987 990 993 996 999 1002 1005 1008
          1011 1014 1017 1020 1023 1026
        </DataArray>
        <DataArray type="UInt8" Name="types" NumberOfComponents="1" format="ascii">
          5 5 5 5 5 5 5 5 5 5 5 5
          5 5 5 5 5 5 5 5 5 5 5 5
          5 5 5 5 5 5 5 5 5 5 5 5
          5 5 5 5 5 5 5 5 5 5 5 5
          5 5 5 5 5 5 5 5 5 5 5 5
          5 5 5 5 5 5 5 5 5 5 5 5
          5 5 5 5 5 5 5 5 5 5 5 5
          5 5 5 5 5 5 5 5 5 5 5 5
          5 5 5 5 5 5 5 5 5 5 5 5
          5 5 5 5 5 5 5 5 5 5 5 5
          5 5 5 5 5 5 5 5 5 5 5 5
          5 5 5 5 5 5 5 5 5 5 5 5
          5 5 5 5 5 5 5 5 5 5 5 5
          5 5 5 5 5 5 5 5 5 5 5 5
          5 5 5 5 5 5 5 5 5 5 5 5
          5 5 5 5 5 5 5 5 5 5 5 5
          5 5 5 5 5 5 5 5 5 5 5 5
          5 5 5 5 5 5 5 5 5 5 5 5
          5 5 5 5 5 5 5 5 5 5 5 5
          5 5 5 5 5 5 5 5 5 5 5 5
          5 5 5 5 5 5 5 5 5 5 5 5
          5 5 5 5 5 5 5 5 5 5 5 5
          5 5 5 5 5 5 5 5 5 5 5 5
          5 5 5 5 5 5 5 5 5 5 5 5
          5 5 5 5 5 5 5 5 5 5 5 5
          5 5 5 5 5 5 5 5 5 5 5 5
          5 5 5 5 5 5 5 5 5 5 5 5
          5 5 5 5 5 5 5 5 5 5 5 5
          5 5 5 5 5 5
        </DataArray>
      </Cells>
    </Piece>
  </UnstructuredGrid>
</VTKFile>
