<?xml version="1.0"?>
<VTKFile type="UnstructuredGrid" version="0.1" byte_order="LittleEndian">
  <UnstructuredGrid>
    <Piece NumberOfCells="400" NumberOfPoints="235">
      <CellData Scalars="ReservoirCell">
        <DataArray type="Float32" Name="ReservoirCell" NumberOfComponents="1" format="ascii">
          1996 1996 1996 1995 1995 1996 1996 1996 1996 1996 1996 1996
          1995 1996 1996 1996 1996 1996 1996 1996 1996 1996 1996 1875
          1996 1996 1996 1996 1996 1996 1996 1996 1996 1996 1875 1875
          1875 1875 1875 1996 1996 1996 1996 1996 1996 1996 1996 1996
          1996 1875 1875 1875 1875 1875 1875 1875 1875 1875 1996 1996
          1996 1996 1996 1996 1996 1996 1996 1996 1875 1875 1875 1875
          1875 1875 1875 1875 1875 1875 1754 1754 1754 1996 1996 1996
          1996 1996 1996 1996 1996 1996 1996 1875 1875 1875 1875 1875
          1875 1875 1875 1875 1875 1754 1754 1754 1754 1754 1754 1754
          1996 1996 1996 1996 1996 1996 1996 1996 1996 1996 1875 1875
          1875 1875 1875 1875 1875 1875 1875 1875 1754 1754 1754 1754
          1754 1754 1754 1754 1754 1754 1996 1996 1996 1996 1996 1996
          1996 1996 1996 1996 1875 1875 1875 1875 1875 1875 1875 1875
          1875 1875 1754 1754 1754 1754 1754 1754 1754 1754 1754 1754
          1996 1996 1996 1996 1996 1996 1996 1996 1996 1996 1875 1875
          1875 1875 1875 1875 1875 1875 1875 1875 1754 1754 1754 1754
          1754 1754 1754 1754 1754 1754 1996 1996 1996 1996 1996 1996
          1996 1996 1996 1996 1875 1875 1875 1875 1875 1875 1875 1875
          1875 1875 1754 1754 1754 1754 1754 1754 1754 1754 1754 1754
          1996 1996 1996 1996 1996 1996 1996 1996 1996 1996 1875 1875
          1875 1875 1875 1875 1875 1875 1875 1875 1754 1754 1754 1754
          1754 1754 1754 1754 1754 1754 1996 1996 1996 1996 1996 1996
          1996 1996 1996 1996 1875 1875 1875 1875 1875 1875 1875 1875
          1875 1875 1754 1754 1754 1754 1754 1754 1754 1754 1754 1754
          1997 1996 1996 1996 1996 1996 1996 1996 1875 1875 1875 1875
          1875 1875 1875 1875 1875 1875 1754 1754 1754 1754 1754 1754
          1754 1754 1754 1754 1633 1633 1997 1997 1996 1996 1996 1875
          1875 1875 1875 1875 1875 1875 1875 1875 1875 1754 1754 1754
          1754 1754 1754 1754 1754 1754 1754 1633 1633 1875 1875 1875
          1875 1875 1875 1875 1875 1875 1754 1754 1754 1754 1754 1754
          1754 1754 1754 1754 1875 1875 1875 1875 1875 1754 1754 1754
          1754 1754 1754 1754 1754 1754 1754 1875 1754 1754 1754 1754
          1754 1754 1754 1754 1754 1754 1754 1754 1754 1754 1754 1754
          1754 1754 1754 1754
        </DataArray>
        <DataArray type="Float32" Name="ReservoirPerm" NumberOfComponents="1" format="ascii">
          9.86923e-13 9.86923e-13 9.86923e-13 9.86923e-13 9.86923e-13 9.86923e-13 9.86923e-13 9.86923e-13 9.86923e-13 9.86923e-13 9.86923e-13 9.86923e-13
          9.86923e-13 9.86923e-13 9.86923e-13 9.86923e-13 9.86923e-13 9.86923e-13 9.86923e-13 9.86923e-13 9.86923e-13 9.86923e-13 9.86923e-13 9.86923e-13
          9.86923e-13 9.86923e-13 9.86923e-13 9.86923e-13 9.86923e-13 9.86923e-13 9.86923e-13 9.86923e-13 9.86923e-13 9.86923e-13 9.86923e-13 9.86923e-13
          9.86923e-13 9.86923e-13 9.86923e-13 9.86923e-13 9.86923e-13 9.86923e-13 9.86923e-13 9.86923e-13 9.86923e-13 9.86923e-13 9.86923e-13 9.86923e-13
          9.86923e-13 9.86923e-13 9.86923e-13 9.86923e-13 9.86923e-13 9.86923e-13 9.86923e-13 9.86923e-13 9.86923e-13 9.86923e-13 9.86923e-13 9.86923e-13
          9.86923e-13 9.86923e-13 9.86923e-13 9.86923e-13 9.86923e-13 9.86923e-13 9.86923e-13 9.86923e-13 9.86923e-13 9.86923e-13 9.86923e-13 9.86923e-13
          9.86923e-13 9.86923e-13 9.86923e-13 9.86923e-13 9.86923e-13 9.86923e-13 9.86923e-13 9.86923e-13 9.86923e-13 9.86923e-13 9.86923e-13 9.86923e-13
          9.86923e-13 9.86923e-13 9.86923e-13 9.86923e-13 9.86923e-13 9.86923e-13 9.86923e-13 9.86923e-13 9.86923e-13 9.86923e-13 9.86923e-13 9.86923e-13
          9.86923e-13 9.86923e-13 9.86923e-13 9.86923e-13 9.86923e-13 9.86923e-13 9.86923e-13 9.86923e-13 9.86923e-13 9.86923e-13 9.86923e-13 9.86923e-13
          9.86923e-13 9.86923e-13 9.86923e-13 9.86923e-13 9.86923e-13 9.86923e-13 9.86923e-13 9.86923e-13 9.86923e-13 9.86923e-13 9.86923e-13 9.86923e-13
          9.86923e-13 9.86923e-13 9.86923e-13 9.86923e-13 9.86923e-13 9.86923e-13 9.86923e-13 9.86923e-13 9.86923e-13 9.86923e-13 9.86923e-13 9.86923e-13
          9.86923e-13 9.86923e-13 9.86923e-13 9.86923e-13 9.86923e-13 9.86923e-13 9.86923e-13 9.86923e-13 9.86923e-13 9.86923e-13 9.86923e-13 9.86923e-13
          9.86923e-13 9.86923e-13 9.86923e-13 9.86923e-13 9.86923e-13 9.86923e-13 9.86923e-13 9.86923e-13 9.86923e-13 9.86923e-13 9.86923e-13 9.86923e-13
          9.86923e-13 9.86923e-13 9.86923e-13 9.86923e-13 9.86923e-13 9.86923e-13 9.86923e-13 9.86923e-13 9.86923e-13 9.86923e-13 9.86923e-13 9.86923e-13
          9.86923e-13 9.86923e-13 9.86923e-13 9.86923e-13 9.86923e-13 9.86923e-13 9.86923e-13 9.86923e-13 9.86923e-13 9.86923e-13 9.86923e-13 9.86923e-13
          9.86923e-13 9.86923e-13 9.86923e-13 9.86923e-13 9.86923e-13 9.86923e-13 9.86923e-13 9.86923e-13 9.86923e-13 9.86923e-13 9.86923e-13 9.86923e-13
          9.86923e-13 9.86923e-13 9.86923e-13 9.86923e-13 9.86923e-13 9.86923e-13 9.86923e-13 9.86923e-13 9.86923e-13 9.86923e-13 9.86923e-13 9.86923e-13
          9.86923e-13 9.86923e-13 9.86923e-13 9.86923e-13 9.86923e-13 9.86923e-13 9.86923e-13 9.86923e-13 9.86923e-13 9.86923e-13 9.86923e-13 9.86923e-13
          9.86923e-13 9.86923e-13 9.86923e-13 9.86923e-13 9.86923e-13 9.86923e-13 9.86923e-13 9.86923e-13 9.86923e-13 9.86923e-13 9.86923e-13 9.86923e-13
          9.86923e-13 9.86923e-13 9.86923e-13 9.86923e-13 9.86923e-13 9.86923e-13 9.86923e-13 9.86923e-13 9.86923e-13 9.86923e-13 9.86923e-13 9.86923e-13
          9.86923e-13 9.86923e-13 9.86923e-13 9.86923e-13 9.86923e-13 9.86923e-13 9.86923e-13 9.86923e-13 9.86923e-13 9.86923e-13 9.86923e-13 9.86923e-13
          9.86923e-13 9.86923e-13 9.86923e-13 9.86923e-13 9.86923e-13 9.86923e-13 9.86923e-13 9.86923e-13 9.86923e-13 9.86923e-13 9.86923e-13 9.86923e-13
          9.86923e-13 9.86923e-13 9.86923e-13 9.86923e-13 9.86923e-13 9.86923e-13 9.86923e-13 9.86923e-13 9.86923e-13 9.86923e-13 9.86923e-13 9.86923e-13
          9.86923e-13 9.86923e-13 9.86923e-13 9.86923e-13 9.86923e-13 9.86923e-13 9.86923e-13 9.86923e-13 9.86923e-13 9.86923e-13 9.86923e-13 9.86923e-13
          9.86923e-13 9.86923e-13 9.86923e-13 9.86923e-13 9.86923e-13 9.86923e-13 9.86923e-13 9.86923e-13 9.86923e-13 9.86923e-13 9.86923e-13 9.86923e-13
          9.86923e-13 9.86923e-13 9.86923e-13 9.86923e-13 9.86923e-13 9.86923e-13 9.86923e-13 9.86923e-13 9.86923e-13 9.86923e-13 9.86923e-13 9.86923e-13
          9.86923e-13 9.86923e-13 9.86923e-13 9.86923e-13 9.86923e-13 9.86923e-13 9.86923e-13 9.86923e-13 9.86923e-13 9.86923e-13 9.86923e-13 9.86923e-13
          9.86923e-13 9.86923e-13 9.86923e-13 9.86923e-13 9.86923e-13 9.86923e-13 9.86923e-13 9.86923e-13 9.86923e-13 9.86923e-13 9.86923e-13 9.86923e-13
          9.86923e-13 9.86923e-13 9.86923e-13 9.86923e-13 9.86923e-13 9.86923e-13 9.86923e-13 9.86923e-13 9.86923e-13 9.86923e-13 9.86923e-13 9.86923e-13
          9.86923e-13 9.86923e-13 9.86923e-13 9.86923e-13 9.86923e-13 9.86923e-13 9.86923e-13 9.86923e-13 9.86923e-13 9.86923e-13 9.86923e-13 9.86923e-13
          9.86923e-13 9.86923e-13 9.86923e-13 9.86923e-13 9.86923e-13 9.86923e-13 9.86923e-13 9.86923e-13 9.86923e-13 9.86923e-13 9.86923e-13 9.86923e-13
          9.86923e-13 9.86923e-13 9.86923e-13 9.86923e-13 9.86923e-13 9.86923e-13 9.86923e-13 9.86923e-13 9.86923e-13 9.86923e-13 9.86923e-13 9.86923e-13
          9.86923e-13 9.86923e-13 9.86923e-13 9.86923e-13 9.86923e-13 9.86923e-13 9.86923e-13 9.86923e-13 9.86923e-13 9.86923e-13 9.86923e-13 9.86923e-13
          9.86923e-13 9.86923e-13 9.86923e-13 9.86923e-13
        </DataArray>
        <DataArray type="Float32" Name="ReservoirDist" NumberOfComponents="1" format="ascii">
          45.25 45.25 45.25 45.25 45.25 45.25 45.25 45.25 45.25 45.25 45.25 45.25
          45.25 45.25 45.25 45.25 45.25 45.25 45.25 45.25 45.25 45.25 45.25 45.25
          45.25 45.25 45.25 45.25 45.25 45.25 45.25 45.25 45.25 45.25 45.25 45.25
          45.25 45.25 45.25 45.25 45.25 45.25 45.25 45.25 45.25 45.25 45.25 45.25
          45.25 45.25 45.25 45.25 45.25 45.25 45.25 45.25 45.25 45.25 45.25 45.25
          45.25 45.25 45.25 45.25 45.25 45.25 45.25 45.25 45.25 45.25 45.25 45.25
          45.25 45.25 45.25 45.25 45.25 45.25 45.25 45.25 45.25 45.25 45.25 45.25
          45.25 45.25 45.25 45.25 45.25 45.25 45.25 45.25 45.25 45.25 45.25 45.25
          45.25 45.25 45.25 45.25 45.25 45.25 45.25 45.25 45.25 45.25 45.25 45.25
          45.25 45.25 45.25 45.25 45.25 45.25 45.25 45.25 45.25 45.25 45.25 45.25
          45.25 45.25 45.25 45.25 45.25 45.25 45.25 45.25 45.25 45.25 45.25 45.25
          45.25 45.25 45.25 45.25 45.25 45.25 45.25 45.25 45.25 45.25 45.25 45.25
          45.25 45.25 45.25 45.25 45.25 45.25 45.25 45.25 45.25 45.25 45.25 45.25
          45.25 45.25 45.25 45.25 45.25 45.25 45.25 45.25 45.25 45.25 45.25 45.25
          45.25 45.25 45.25 45.25 45.25 45.25 45.25 45.25 45.25 45.25 45.25 45.25
          45.25 45.25 45.25 45.25 45.25 45.25 45.25 45.25 45.25 45.25 45.25 45.25
          45.25 45.25 45.25 45.25 45.25 45.25 45.25 45.25 45.25 45.25 45.25 45.25
          45.25 45.25 45.25 45.25 45.25 45.25 45.25 45.25 45.25 45.25 45.25 45.25
          45.25 45.25 45.25 45.25 45.25 45.25 45.25 45.25 45.25 45.25 45.25 45.25
          45.25 45.25 45.25 45.25 45.25 45.25 45.25 45.25 45.25 45.25 45.25 45.25
          45.25 45.25 45.25 45.25 45.25 45.25 45.25 45.25 45.25 45.25 45.25 45.25
          45.25 45.25 45.25 45.25 45.25 45.25 45.25 45.25 45.25 45.25 45.25 45.25
          45.25 45.25 45.25 45.25 45.25 45.25 45.25 45.25 45.25 45.25 45.25 45.25
          45.25 45.25 45.25 45.25 45.25 45.25 45.25 45.25 45.25 45.25 45.25 45.25
          45.25 45.25 45.25 45.25 45.25 45.25 45.25 45.25 45.25 45.25 45.25 45.25
          45.25 45.25 45.25 45.25 45.25 45.25 45.25 45.25 45.25 45.25 45.25 45.25
          45.25 45.25 45.25 45.25 45.25 45.25 45.25 45.25 45.25 45.25 45.25 45.25
          45.25 45.25 45.25 45.25 45.25 45.25 45.25 45.25 45.25 45.25 45.25 45.25
          45.25 45.25 45.25 45.25 45.25 45.25 45.25 45.25 45.25 45.25 45.25 45.25
          45.25 45.25 45.25 45.25 45.25 45.25 45.25 45.25 45.25 45.25 45.25 45.25
          45.25 45.25 45.25 45.25 45.25 45.25 45.25 45.25 45.25 45.25 45.25 45.25
          45.25 45.25 45.25 45.25 45.25 45.25 45.25 45.25 45.25 45.25 45.25 45.25
          45.25 45.25 45.25 45.25 45.25 45.25 45.25 45.25 45.25 45.25 45.25 45.25
          45.25 45.25 45.25 45.25
        </DataArray>
        <DataArray type="Float32" Name="ReservoirCStres" NumberOfComponents="1" format="ascii">
          5.55e+06 5.55e+06 5.55e+06 5.55e+06 5.55e+06 5.55e+06 5.55e+06 5.55e+06 5.55e+06 5.55e+06 5.55e+06 5.55e+06
          5.55e+06 5.55e+06 5.55e+06 5.55e+06 5.55e+06 5.55e+06 5.55e+06 5.55e+06 5.55e+06 5.55e+06 5.55e+06 5.55e+06
          5.55e+06 5.55e+06 5.55e+06 5.55e+06 5.55e+06 5.55e+06 5.55e+06 5.55e+06 5.55e+06 5.55e+06 5.55e+06 5.55e+06
          5.55e+06 5.55e+06 5.55e+06 5.55e+06 5.55e+06 5.55e+06 5.55e+06 5.55e+06 5.55e+06 5.55e+06 5.55e+06 5.55e+06
          5.55e+06 5.55e+06 5.55e+06 5.55e+06 5.55e+06 5.55e+06 5.55e+06 5.55e+06 5.55e+06 5.55e+06 5.55e+06 5.55e+06
          5.55e+06 5.55e+06 5.55e+06 5.55e+06 5.55e+06 5.55e+06 5.55e+06 5.55e+06 5.55e+06 5.55e+06 5.55e+06 5.55e+06
          5.55e+06 5.55e+06 5.55e+06 5.55e+06 5.55e+06 5.55e+06 5.55e+06 5.55e+06 5.55e+06 5.55e+06 5.55e+06 5.55e+06
          5.55e+06 5.55e+06 5.55e+06 5.55e+06 5.55e+06 5.55e+06 5.55e+06 5.55e+06 5.55e+06 5.55e+06 5.55e+06 5.55e+06
          5.55e+06 5.55e+06 5.55e+06 5.55e+06 5.55e+06 5.55e+06 5.55e+06 5.55e+06 5.55e+06 5.55e+06 5.55e+06 5.55e+06
          5.55e+06 5.55e+06 5.55e+06 5.55e+06 5.55e+06 5.55e+06 5.55e+06 5.55e+06 5.55e+06 5.55e+06 5.55e+06 5.55e+06
          5.55e+06 5.55e+06 5.55e+06 5.55e+06 5.55e+06 5.55e+06 5.55e+06 5.55e+06 5.55e+06 5.55e+06 5.55e+06 5.55e+06
          5.55e+06 5.55e+06 5.55e+06 5.55e+06 5.55e+06 5.55e+06 5.55e+06 5.55e+06 5.55e+06 5.55e+06 5.55e+06 5.55e+06
          5.55e+06 5.55e+06 5.55e+06 5.55e+06 5.55e+06 5.55e+06 5.55e+06 5.55e+06 5.55e+06 5.55e+06 5.55e+06 5.55e+06
          5.55e+06 5.55e+06 5.55e+06 5.55e+06 5.55e+06 5.55e+06 5.55e+06 5.55e+06 5.55e+06 5.55e+06 5.55e+06 5.55e+06
          5.55e+06 5.55e+06 5.55e+06 5.55e+06 5.55e+06 5.55e+06 5.55e+06 5.55e+06 5.55e+06 5.55e+06 5.55e+06 5.55e+06
          5.55e+06 5.55e+06 5.55e+06 5.55e+06 5.55e+06 5.55e+06 5.55e+06 5.55e+06 5.55e+06 5.55e+06 5.55e+06 5.55e+06
          5.55e+06 5.55e+06 5.55e+06 5.55e+06 5.55e+06 5.55e+06 5.55e+06 5.55e+06 5.55e+06 5.55e+06 5.55e+06 5.55e+06
          5.55e+06 5.55e+06 5.55e+06 5.55e+06 5.55e+06 5.55e+06 5.55e+06 5.55e+06 5.55e+06 5.55e+06 5.55e+06 5.55e+06
          5.55e+06 5.55e+06 5.55e+06 5.55e+06 5.55e+06 5.55e+06 5.55e+06 5.55e+06 5.55e+06 5.55e+06 5.55e+06 5.55e+06
          5.55e+06 5.55e+06 5.55e+06 5.55e+06 5.55e+06 5.55e+06 5.55e+06 5.55e+06 5.55e+06 5.55e+06 5.55e+06 5.55e+06
          5.55e+06 5.55e+06 5.55e+06 5.55e+06 5.55e+06 5.55e+06 5.55e+06 5.55e+06 5.55e+06 5.55e+06 5.55e+06 5.55e+06
          5.55e+06 5.55e+06 5.55e+06 5.55e+06 5.55e+06 5.55e+06 5.55e+06 5.55e+06 5.55e+06 5.55e+06 5.55e+06 5.55e+06
          5.55e+06 5.55e+06 5.55e+06 5.55e+06 5.55e+06 5.55e+06 5.55e+06 5.55e+06 5.55e+06 5.55e+06 5.55e+06 5.55e+06
          5.55e+06 5.55e+06 5.55e+06 5.55e+06 5.55e+06 5.55e+06 5.55e+06 5.55e+06 5.55e+06 5.55e+06 5.55e+06 5.55e+06
          5.55e+06 5.55e+06 5.55e+06 5.55e+06 5.55e+06 5.55e+06 5.55e+06 5.55e+06 5.55e+06 5.55e+06 5.55e+06 5.55e+06
          5.55e+06 5.55e+06 5.55e+06 5.55e+06 5.55e+06 5.55e+06 5.55e+06 5.55e+06 5.55e+06 5.55e+06 5.55e+06 5.55e+06
          5.55e+06 5.55e+06 5.55e+06 5.55e+06 5.55e+06 5.55e+06 5.55e+06 5.55e+06 5.55e+06 5.55e+06 5.55e+06 5.55e+06
          5.55e+06 5.55e+06 5.55e+06 5.55e+06 5.55e+06 5.55e+06 5.55e+06 5.55e+06 5.55e+06 5.55e+06 5.55e+06 5.55e+06
          5.55e+06 5.55e+06 5.55e+06 5.55e+06 5.55e+06 5.55e+06 5.55e+06 5.55e+06 5.55e+06 5.55e+06 5.55e+06 5.55e+06
          5.55e+06 5.55e+06 5.55e+06 5.55e+06 5.55e+06 5.55e+06 5.55e+06 5.55e+06 5.55e+06 5.55e+06 5.55e+06 5.55e+06
          5.55e+06 5.55e+06 5.55e+06 5.55e+06 5.55e+06 5.55e+06 5.55e+06 5.55e+06 5.55e+06 5.55e+06 5.55e+06 5.55e+06
          5.55e+06 5.55e+06 5.55e+06 5.55e+06 5.55e+06 5.55e+06 5.55e+06 5.55e+06 5.55e+06 5.55e+06 5.55e+06 5.55e+06
          5.55e+06 5.55e+06 5.55e+06 5.55e+06 5.55e+06 5.55e+06 5.55e+06 5.55e+06 5.55e+06 5.55e+06 5.55e+06 5.55e+06
          5.55e+06 5.55e+06 5.55e+06 5.55e+06
        </DataArray>
        <DataArray type="Float32" Name="FracturePressure" NumberOfComponents="1" format="ascii">
          2.22888e+07 2.22888e+07 2.22888e+07 2.20192e+07 2.19442e+07 2.22888e+07 2.22888e+07 2.22888e+07 2.22888e+07 2.22888e+07 2.22888e+07 2.22888e+07
          2.20192e+07 2.22888e+07 2.22888e+07 2.22888e+07 2.22888e+07 2.22888e+07 2.22888e+07 2.22888e+07 2.22888e+07 2.22888e+07 2.22888e+07 2.22888e+07
          2.22888e+07 2.22888e+07 2.22888e+07 2.22888e+07 2.22888e+07 2.22888e+07 2.22888e+07 2.22888e+07 2.22888e+07 2.22888e+07 2.22888e+07 2.22888e+07
          2.22888e+07 2.22888e+07 2.22888e+07 2.22888e+07 2.22888e+07 2.22888e+07 2.22888e+07 2.22888e+07 2.22888e+07 2.22888e+07 2.22888e+07 2.22888e+07
          2.22888e+07 2.22888e+07 2.22888e+07 2.22888e+07 2.22888e+07 2.22888e+07 2.22888e+07 2.22888e+07 2.22888e+07 2.22888e+07 2.22888e+07 2.22888e+07
          2.22888e+07 2.22888e+07 2.22888e+07 2.22888e+07 2.22888e+07 2.22888e+07 2.22888e+07 2.22888e+07 2.22888e+07 2.22888e+07 2.22888e+07 2.22888e+07
          2.22888e+07 2.22888e+07 2.22888e+07 2.22888e+07 2.22888e+07 2.22888e+07 2.22888e+07 2.22888e+07 2.22888e+07 2.22888e+07 2.22888e+07 2.22888e+07
          2.22888e+07 2.22888e+07 2.22888e+07 2.22888e+07 2.22888e+07 2.22888e+07 2.22888e+07 2.22888e+07 2.22888e+07 2.22888e+07 2.22888e+07 2.22888e+07
          2.22888e+07 2.22888e+07 2.22888e+07 2.22888e+07 2.22888e+07 2.22888e+07 2.22888e+07 2.22888e+07 2.22888e+07 2.22888e+07 2.22888e+07 2.22888e+07
          2.22888e+07 2.22888e+07 2.22888e+07 2.22888e+07 2.22888e+07 2.22888e+07 2.22888e+07 2.22888e+07 2.22888e+07 2.22888e+07 2.22888e+07 2.22888e+07
          2.22888e+07 2.22888e+07 2.22888e+07 2.22888e+07 2.22888e+07 2.22888e+07 2.22888e+07 2.22888e+07 2.22888e+07 2.22888e+07 2.22888e+07 2.22888e+07
          2.22888e+07 2.22888e+07 2.22888e+07 2.22888e+07 2.22888e+07 2.22888e+07 2.22888e+07 2.22888e+07 2.22888e+07 2.22888e+07 2.22888e+07 2.22888e+07
          2.22888e+07 2.22888e+07 2.22888e+07 2.22888e+07 2.22888e+07 2.22888e+07 2.22888e+07 2.22888e+07 2.22888e+07 2.22888e+07 2.22888e+07 2.22888e+07
          2.22888e+07 2.22888e+07 2.22888e+07 2.22888e+07 2.22888e+07 2.22888e+07 2.22888e+07 2.22888e+07 2.22888e+07 2.22888e+07 2.22888e+07 2.22888e+07
          2.22888e+07 2.22888e+07 2.22888e+07 2.22888e+07 2.22888e+07 2.22888e+07 2.22888e+07 2.22888e+07 2.22888e+07 2.22888e+07 2.22888e+07 2.22888e+07
          2.22888e+07 2.22888e+07 2.22888e+07 2.22888e+07 2.22888e+07 2.22888e+07 2.22888e+07 2.22888e+07 2.22888e+07 2.22888e+07 2.22888e+07 2.22888e+07
          2.22888e+07 2.22888e+07 2.22888e+07 2.22888e+07 2.22888e+07 2.22888e+07 2.22888e+07 2.22888e+07 2.22888e+07 2.22888e+07 2.22888e+07 2.22888e+07
          2.22888e+07 2.22888e+07 2.22888e+07 2.22888e+07 2.22888e+07 2.22888e+07 2.22888e+07 2.22888e+07 2.22888e+07 2.22888e+07 2.22888e+07 2.22888e+07
          2.22888e+07 2.22888e+07 2.22888e+07 2.22888e+07 2.22888e+07 2.22888e+07 2.22888e+07 2.22888e+07 2.22888e+07 2.22888e+07 2.22888e+07 2.22888e+07
          2.22888e+07 2.22888e+07 2.22888e+07 2.22888e+07 2.22888e+07 2.22888e+07 2.22888e+07 2.22888e+07 2.22888e+07 2.22888e+07 2.22888e+07 2.22888e+07
          2.22888e+07 2.22888e+07 2.22888e+07 2.22888e+07 2.22888e+07 2.22888e+07 2.22888e+07 2.22888e+07 2.22888e+07 2.22888e+07 2.22888e+07 2.22888e+07
          2.22888e+07 2.22888e+07 2.22888e+07 2.22888e+07 2.22888e+07 2.22888e+07 2.22888e+07 2.22888e+07 2.22888e+07 2.22888e+07 2.22888e+07 2.22888e+07
          2.22888e+07 2.22888e+07 2.22888e+07 2.22888e+07 2.22888e+07 2.22888e+07 2.22888e+07 2.22888e+07 2.22888e+07 2.22888e+07 2.22888e+07 2.22888e+07
          2.22888e+07 2.22888e+07 2.22888e+07 2.22888e+07 2.22888e+07 2.22888e+07 2.22888e+07 2.22888e+07 2.22888e+07 2.22888e+07 2.22888e+07 2.22888e+07
          2.20192e+07 2.22888e+07 2.22888e+07 2.22888e+07 2.22888e+07 2.22888e+07 2.22888e+07 2.22888e+07 2.22888e+07 2.22888e+07 2.22888e+07 2.22888e+07
          2.22888e+07 2.22888e+07 2.22888e+07 2.22888e+07 2.22888e+07 2.22888e+07 2.22888e+07 2.22888e+07 2.22888e+07 2.22888e+07 2.22888e+07 2.22888e+07
          2.22888e+07 2.22888e+07 2.22888e+07 2.22888e+07 2.22888e+07 2.22888e+07 2.19442e+07 2.20192e+07 2.22888e+07 2.22888e+07 2.22888e+07 2.22888e+07
          2.22888e+07 2.22888e+07 2.22888e+07 2.22888e+07 2.22888e+07 2.22888e+07 2.22888e+07 2.22888e+07 2.22888e+07 2.22888e+07 2.22888e+07 2.22888e+07
          2.22888e+07 2.22888e+07 2.22888e+07 2.22888e+07 2.22888e+07 2.22888e+07 2.22888e+07 2.22888e+07 2.22888e+07 2.22888e+07 2.22888e+07 2.22888e+07
          2.22888e+07 2.22888e+07 2.22888e+07 2.22888e+07 2.22888e+07 2.22888e+07 2.22888e+07 2.22888e+07 2.22888e+07 2.22888e+07 2.22888e+07 2.22888e+07
          2.22888e+07 2.22888e+07 2.22888e+07 2.22888e+07 2.22888e+07 2.22888e+07 2.22888e+07 2.22888e+07 2.22888e+07 2.22888e+07 2.22888e+07 2.22888e+07
          2.22888e+07 2.22888e+07 2.22888e+07 2.22888e+07 2.22888e+07 2.22888e+07 2.22888e+07 2.22888e+07 2.22888e+07 2.22888e+07 2.22888e+07 2.22888e+07
          2.22888e+07 2.22888e+07 2.22888e+07 2.22888e+07 2.22888e+07 2.22888e+07 2.22888e+07 2.22888e+07 2.22888e+07 2.22888e+07 2.22888e+07 2.22888e+07
          2.22888e+07 2.22888e+07 2.22888e+07 2.22888e+07
        </DataArray>
        <DataArray type="Float32" Name="FractureHead" NumberOfComponents="1" format="ascii">
          -35938.4 -35939.3 -35939.1 -305513 -380518 -35936.8 -35937.1 -35937.1 -35937.6 -35937.5 -35938 -35937.9
          -305513 -35935.5 -35935.9 -35935.9 -35936.3 -35936.4 -35936.7 -35936.7 -35937.1 -35937.1 -35937.4 -35937.4
          -35934.2 -35934.6 -35934.7 -35935.1 -35935.2 -35935.6 -35935.7 -35936.1 -35936.2 -35936.5 -35936.6 -35936.9
          -35937 -35937.2 -35937.3 -35932.7 -35933.2 -35933.3 -35933.8 -35934 -35934.4 -35934.6 -35935 -35935.1
          -35935.5 -35935.7 -35936 -35936.2 -35936.5 -35936.7 -35936.9 -35937.1 -35937.4 -35937.7 -35931.3 -35931.7
          -35931.8 -35932.3 -35932.4 -35933 -35933.2 -35933.7 -35933.9 -35934.3 -35934.6 -35934.9 -35935.2 -35935.5
          -35935.8 -35936.1 -35936.3 -35936.6 -35936.9 -35937.2 -35937.6 -35938 -35938.8 -35930.8 -35930.8 -35930.6
          -35930.9 -35930.9 -35931.4 -35931.5 -35932.1 -35932.3 -35932.9 -35933.1 -35933.6 -35933.9 -35934.3 -35934.6
          -35935 -35935.2 -35935.6 -35935.9 -35936.2 -35936.6 -35936.9 -35937.4 -35937.8 -35938.6 -35939.2 -35940.6
          -35931.7 -35931.3 -35930.9 -35930.6 -35930.3 -35930.3 -35930.1 -35930.5 -35930.5 -35931.2 -35931.4 -35932
          -35932.3 -35932.9 -35933.2 -35933.7 -35934 -35934.4 -35934.7 -35935.1 -35935.5 -35935.9 -35936.2 -35936.6
          -35937.1 -35937.5 -35938.2 -35938.8 -35940.1 -35941.2 -35933.2 -35932.7 -35932.3 -35931.8 -35931.4 -35930.9
          -35930.5 -35930.1 -35929.7 -35929.7 -35929.4 -35930 -35930.3 -35931 -35931.4 -35932 -35932.4 -35932.9
          -35933.3 -35933.8 -35934.1 -35934.6 -35935 -35935.4 -35935.8 -35936.2 -35936.7 -35937.2 -35937.9 -35938.4
          -35934.6 -35934.2 -35933.8 -35933.3 -35933 -35932.4 -35932.1 -35931.5 -35931.2 -35930.5 -35930 -35929.4
          -35928.5 -35928.5 -35928.7 -35929.8 -35930.4 -35931.1 -35931.6 -35932.2 -35932.6 -35933.1 -35933.6 -35934
          -35934.5 -35934.9 -35935.4 -35935.8 -35936.4 -35936.8 -35935.9 -35935.5 -35935.1 -35934.7 -35934.4 -35934
          -35933.7 -35933.2 -35932.9 -35932.3 -35932 -35931.4 -35931 -35930.3 -35929.8 -35928.7 -35928.7 -35928.7
          -35929.7 -35930.3 -35930.9 -35931.5 -35932 -35932.5 -35933 -35933.5 -35933.9 -35934.4 -35935 -35935.4
          -35937.1 -35936.8 -35936.3 -35935.9 -35935.6 -35935.2 -35935 -35934.6 -35934.3 -35933.9 -35933.6 -35933.1
          -35932.9 -35932.3 -35932 -35931.4 -35931.1 -35930.4 -35930.3 -35929.7 -35930.1 -35930.1 -35930.7 -35931.1
          -35931.6 -35932 -35932.5 -35932.9 -35933.5 -35933.9 -35939.3 -35938.4 -35937.6 -35937.1 -35936.7 -35936.4
          -35936.1 -35935.7 -35935.5 -35935.1 -35934.9 -35934.6 -35934.3 -35933.9 -35933.7 -35933.2 -35932.9 -35932.4
          -35932.2 -35931.6 -35931.5 -35930.9 -35931.1 -35930.7 -35931.1 -35931.1 -35931.6 -35931.8 -35932.4 -35932.6
          -305513 -35939.1 -35938 -35937.5 -35937.1 -35936.7 -35936.5 -35936.2 -35936 -35935.7 -35935.5 -35935.2
          -35935 -35934.6 -35934.4 -35934 -35933.8 -35933.3 -35933.1 -35932.6 -35932.5 -35932 -35932 -35931.6
          -35931.8 -35931.6 -35932.1 -35932.1 -35939.5 -35940 -380518 -305513 -35937.9 -35937.4 -35937.1 -35936.9
          -35936.6 -35936.5 -35936.2 -35936.1 -35935.8 -35935.6 -35935.2 -35935.1 -35934.7 -35934.6 -35934.1 -35934
          -35933.6 -35933.5 -35933 -35932.9 -35932.5 -35932.6 -35932.4 -35940 -35939.5 -35937.4 -35937.2 -35937
          -35936.9 -35936.7 -35936.6 -35936.3 -35936.2 -35935.9 -35935.9 -35935.5 -35935.4 -35935 -35934.9 -35934.5
          -35934.4 -35933.9 -35933.9 -35933.5 -35937.3 -35937.4 -35937.1 -35937.2 -35936.9 -35936.9 -35936.6 -35936.6
          -35936.2 -35936.2 -35935.8 -35935.8 -35935.4 -35935.4 -35935 -35937.7 -35938 -35937.6 -35937.8 -35937.4
          -35937.5 -35937.1 -35937.2 -35936.7 -35936.8 -35936.4 -35938.8 -35939.2 -35938.6 -35938.8 -35938.2 -35938.4
          -35937.9 -35940.6 -35941.2 -35940.1
        </DataArray>
        <DataArray type="Float32" Name="ReservoirPressure" NumberOfComponents="1" format="ascii">
          2.21167e+07 2.21167e+07 2.21167e+07 2.19084e+07 2.19084e+07 2.21167e+07 2.21167e+07 2.21167e+07 2.21167e+07 2.21167e+07 2.21167e+07 2.21167e+07
          2.19084e+07 2.21167e+07 2.21167e+07 2.21167e+07 2.21167e+07 2.21167e+07 2.21167e+07 2.21167e+07 2.21167e+07 2.21167e+07 2.21167e+07 2.19648e+07
          2.21167e+07 2.21167e+07 2.21167e+07 2.21167e+07 2.21167e+07 2.21167e+07 2.21167e+07 2.21167e+07 2.21167e+07 2.21167e+07 2.19648e+07 2.19648e+07
          2.19648e+07 2.19648e+07 2.19648e+07 2.21167e+07 2.21167e+07 2.21167e+07 2.21167e+07 2.21167e+07 2.21167e+07 2.21167e+07 2.21167e+07 2.21167e+07
          2.21167e+07 2.19648e+07 2.19648e+07 2.19648e+07 2.19648e+07 2.19648e+07 2.19648e+07 2.19648e+07 2.19648e+07 2.19648e+07 2.21167e+07 2.21167e+07
          2.21167e+07 2.21167e+07 2.21167e+07 2.21167e+07 2.21167e+07 2.21167e+07 2.21167e+07 2.21167e+07 2.19648e+07 2.19648e+07 2.19648e+07 2.19648e+07
          2.19648e+07 2.19648e+07 2.19648e+07 2.19648e+07 2.19648e+07 2.19648e+07 2.17286e+07 2.17286e+07 2.17286e+07 2.21167e+07 2.21167e+07 2.21167e+07
          2.21167e+07 2.21167e+07 2.21167e+07 2.21167e+07 2.21167e+07 2.21167e+07 2.21167e+07 2.19648e+07 2.19648e+07 2.19648e+07 2.19648e+07 2.19648e+07
          2.19648e+07 2.19648e+07 2.19648e+07 2.19648e+07 2.19648e+07 2.17286e+07 2.17286e+07 2.17286e+07 2.17286e+07 2.17286e+07 2.17286e+07 2.17286e+07
          2.21167e+07 2.21167e+07 2.21167e+07 2.21167e+07 2.21167e+07 2.21167e+07 2.21167e+07 2.21167e+07 2.21167e+07 2.21167e+07 2.19648e+07 2.19648e+07
          2.19648e+07 2.19648e+07 2.19648e+07 2.19648e+07 2.19648e+07 2.19648e+07 2.19648e+07 2.19648e+07 2.17286e+07 2.17286e+07 2.17286e+07 2.17286e+07
          2.17286e+07 2.17286e+07 2.17286e+07 2.17286e+07 2.17286e+07 2.17286e+07 2.21167e+07 2.21167e+07 2.21167e+07 2.21167e+07 2.21167e+07 2.21167e+07
          2.21167e+07 2.21167e+07 2.21167e+07 2.21167e+07 2.19648e+07 2.19648e+07 2.19648e+07 2.19648e+07 2.19648e+07 2.19648e+07 2.19648e+07 2.19648e+07
          2.19648e+07 2.19648e+07 2.17286e+07 2.17286e+07 2.17286e+07 2.17286e+07 2.17286e+07 2.17286e+07 2.17286e+07 2.17286e+07 2.17286e+07 2.17286e+07
          2.21167e+07 2.21167e+07 2.21167e+07 2.21167e+07 2.21167e+07 2.21167e+07 2.21167e+07 2.21167e+07 2.21167e+07 2.21167e+07 2.19648e+07 2.19648e+07
          2.19648e+07 2.19648e+07 2.19648e+07 2.19648e+07 2.19648e+07 2.19648e+07 2.19648e+07 2.19648e+07 2.17286e+07 2.17286e+07 2.17286e+07 2.17286e+07
          2.17286e+07 2.17286e+07 2.17286e+07 2.17286e+07 2.17286e+07 2.17286e+07 2.21167e+07 2.21167e+07 2.21167e+07 2.21167e+07 2.21167e+07 2.21167e+07
          2.21167e+07 2.21167e+07 2.21167e+07 2.21167e+07 2.19648e+07 2.19648e+07 2.19648e+07 2.19648e+07 2.19648e+07 2.19648e+07 2.19648e+07 2.19648e+07
          2.19648e+07 2.19648e+07 2.17286e+07 2.17286e+07 2.17286e+07 2.17286e+07 2.17286e+07 2.17286e+07 2.17286e+07 2.17286e+07 2.17286e+07 2.17286e+07
          2.21167e+07 2.21167e+07 2.21167e+07 2.21167e+07 2.21167e+07 2.21167e+07 2.21167e+07 2.21167e+07 2.21167e+07 2.21167e+07 2.19648e+07 2.19648e+07
          2.19648e+07 2.19648e+07 2.19648e+07 2.19648e+07 2.19648e+07 2.19648e+07 2.19648e+07 2.19648e+07 2.17286e+07 2.17286e+07 2.17286e+07 2.17286e+07
          2.17286e+07 2.17286e+07 2.17286e+07 2.17286e+07 2.17286e+07 2.17286e+07 2.21167e+07 2.21167e+07 2.21167e+07 2.21167e+07 2.21167e+07 2.21167e+07
          2.21167e+07 2.21167e+07 2.21167e+07 2.21167e+07 2.19648e+07 2.19648e+07 2.19648e+07 2.19648e+07 2.19648e+07 2.19648e+07 2.19648e+07 2.19648e+07
          2.19648e+07 2.19648e+07 2.17286e+07 2.17286e+07 2.17286e+07 2.17286e+07 2.17286e+07 2.17286e+07 2.17286e+07 2.17286e+07 2.17286e+07 2.17286e+07
          2.19084e+07 2.21167e+07 2.21167e+07 2.21167e+07 2.21167e+07 2.21167e+07 2.21167e+07 2.21167e+07 2.19648e+07 2.19648e+07 2.19648e+07 2.19648e+07
          2.19648e+07 2.19648e+07 2.19648e+07 2.19648e+07 2.19648e+07 2.19648e+07 2.17286e+07 2.17286e+07 2.17286e+07 2.17286e+07 2.17286e+07 2.17286e+07
          2.17286e+07 2.17286e+07 2.17286e+07 2.17286e+07 2.14203e+07 2.14203e+07 2.19084e+07 2.19084e+07 2.21167e+07 2.21167e+07 2.21167e+07 2.19648e+07
          2.19648e+07 2.19648e+07 2.19648e+07 2.19648e+07 2.19648e+07 2.19648e+07 2.19648e+07 2.19648e+07 2.19648e+07 2.17286e+07 2.17286e+07 2.17286e+07
          2.17286e+07 2.17286e+07 2.17286e+07 2.17286e+07 2.17286e+07 2.17286e+07 2.17286e+07 2.14203e+07 2.14203e+07 2.19648e+07 2.19648e+07 2.19648e+07
          2.19648e+07 2.19648e+07 2.19648e+07 2.19648e+07 2.19648e+07 2.19648e+07 2.17286e+07 2.17286e+07 2.17286e+07 2.17286e+07 2.17286e+07 2.17286e+07
          2.17286e+07 2.17286e+07 2.17286e+07 2.17286e+07 2.19648e+07 2.19648e+07 2.19648e+07 2.19648e+07 2.19648e+07 2.17286e+07 2.17286e+07 2.17286e+07
          2.17286e+07 2.17286e+07 2.17286e+07 2.17286e+07 2.17286e+07 2.17286e+07 2.17286e+07 2.19648e+07 2.17286e+07 2.17286e+07 2.17286e+07 2.17286e+07
          2.17286e+07 2.17286e+07 2.17286e+07 2.17286e+07 2.17286e+07 2.17286e+07 2.17286e+07 2.17286e+07 2.17286e+07 2.17286e+07 2.17286e+07 2.17286e+07
          2.17286e+07 2.17286e+07 2.17286e+07 2.17286e+07
        </DataArray>
        <DataArray type="Float32" Name="LeakofDP" NumberOfComponents="1" format="ascii">
          172104 172103 172103 110827 35822.4 172105 172105 172105 172105 172105 172104 172104
          110828 172107 172106 172106 172106 172106 172105 172105 172105 172105 172105 323981
          172108 172108 172107 172107 172107 172106 172106 172106 172106 172106 323982 323982
          323982 323981 323981 172109 172109 172109 172108 172108 172108 172108 172107 172107
          172107 323983 323983 323982 323982 323982 323982 323981 323981 323981 172111 172110
          172110 172110 172110 172109 172109 172108 172108 172108 323984 323984 323983 323983
          323983 323983 323982 323982 323982 323981 560163 560163 560162 172111 172111 172111
          172111 172111 172111 172111 172110 172110 172109 323985 323985 323985 323984 323984
          323984 323983 323983 323983 323982 560164 560164 560163 560163 560162 560161 560160
          172110 172111 172111 172111 172112 172112 172112 172112 172112 172111 323987 323987
          323986 323986 323985 323985 323985 323984 323984 323984 560165 560165 560164 560164
          560164 560163 560162 560162 560161 560160 172109 172109 172110 172110 172111 172111
          172112 172112 172112 172112 323989 323989 323988 323988 323987 323987 323986 323986
          323985 323985 560167 560166 560166 560165 560165 560164 560164 560164 560163 560162
          172108 172108 172108 172109 172109 172110 172110 172111 172111 172112 323989 323989
          323990 323990 323990 323989 323988 323987 323987 323986 560168 560168 560167 560167
          560166 560166 560165 560165 560164 560164 172106 172107 172107 172107 172108 172108
          172108 172109 172109 172110 323987 323987 323988 323988 323989 323990 323990 323990
          323989 323988 560170 560169 560169 560168 560168 560167 560167 560166 560166 560165
          172105 172105 172106 172106 172106 172107 172107 172108 172108 172108 323985 323985
          323986 323986 323987 323987 323987 323988 323988 323989 560170 560170 560170 560170
          560169 560169 560168 560168 560167 560167 172103 172104 172105 172105 172105 172106
          172106 172106 172107 172107 323984 323984 323984 323985 323985 323985 323986 323986
          323986 323987 560169 560170 560170 560170 560170 560170 560169 560169 560168 560168
          110827 172103 172104 172105 172105 172105 172106 172106 323983 323983 323983 323983
          323984 323984 323984 323985 323985 323985 560168 560168 560168 560169 560169 560169
          560169 560169 560169 560169 868449 868449 35822.4 110828 172104 172105 172105 323982
          323982 323982 323982 323983 323983 323983 323983 323984 323984 560166 560167 560167
          560167 560167 560168 560168 560168 560168 560168 868449 868449 323981 323981 323982
          323982 323982 323982 323982 323982 323983 560165 560165 560165 560166 560166 560166
          560166 560167 560167 560167 323981 323981 323981 323981 323982 560164 560164 560164
          560164 560164 560165 560165 560165 560165 560166 323981 560163 560163 560163 560163
          560163 560164 560164 560164 560164 560164 560162 560161 560162 560162 560162 560162
          560163 560160 560160 560161
        </DataArray>
        <DataArray type="Float32" Name="FilterCakeThickness" NumberOfComponents="1" format="ascii">
          0 0 0 0 0 0 0 0 0 0 0 0
          0 0 0 0 0 0 0 0 0 0 0 0
          0 0 0 0 0 0 0 0 0 0 0 0
          0 0 0 0 0 0 0 0 0 0 0 0
          0 0 0 0 0 0 0 0 0 0 0 0
          0 0 0 0 0 0 0 0 0 0 0 0
          0 0 0 0 0 0 0 0 0 0 0 0
          0 0 0 0 0 0 0 0 0 0 0 0
          0 0 0 0 0 0 0 0 0 0 0 0
          0 0 0 0 0 0 0 0 0 0 0 0
          0 0 0 0 0 0 0 0 0 0 0 0
          0 0 0 0 0 0 0 0 0 0 0 0
          0 0 0 0 0 0 0 0 0 0 0 0
          0 0 0 0 0 0 0 0 0 0 0 0
          0 0 0 0 0 0 0 0 0 0 0 0
          0 0 0 0 0 0 0 0 0 0 0 0
          0 0 0 0 0 0 0 0 0 0 0 0
          0 0 0 0 0 0 0 0 0 0 0 0
          0 0 0 0 0 0 0 0 0 0 0 0
          0 0 0 0 0 0 0 0 0 0 0 0
          0 0 0 0 0 0 0 0 0 0 0 0
          0 0 0 0 0 0 0 0 0 0 0 0
          0 0 0 0 0 0 0 0 0 0 0 0
          0 0 0 0 0 0 0 0 0 0 0 0
          0 0 0 0 0 0 0 0 0 0 0 0
          0 0 0 0 0 0 0 0 0 0 0 0
          0 0 0 0 0 0 0 0 0 0 0 0
          0 0 0 0 0 0 0 0 0 0 0 0
          0 0 0 0 0 0 0 0 0 0 0 0
          0 0 0 0 0 0 0 0 0 0 0 0
          0 0 0 0 0 0 0 0 0 0 0 0
          0 0 0 0 0 0 0 0 0 0 0 0
          0 0 0 0 0 0 0 0 0 0 0 0
          0 0 0 0
        </DataArray>
        <DataArray type="Float32" Name="ReservoirTraction" NumberOfComponents="1" format="ascii">
          1.88649e+07 1.88649e+07 1.88649e+07 3.86587e+07 3.86587e+07 1.88649e+07 1.88649e+07 1.88649e+07 1.88649e+07 1.88649e+07 1.88649e+07 1.88649e+07
          3.86587e+07 1.88649e+07 1.88649e+07 1.88649e+07 1.88649e+07 1.88649e+07 1.88649e+07 1.88649e+07 1.88649e+07 1.88649e+07 1.88649e+07 1.43194e+07
          1.88649e+07 1.88649e+07 1.88649e+07 1.88649e+07 1.88649e+07 1.88649e+07 1.88649e+07 1.88649e+07 1.88649e+07 1.88649e+07 1.43194e+07 1.43194e+07
          1.43194e+07 1.43194e+07 1.43194e+07 1.88649e+07 1.88649e+07 1.88649e+07 1.88649e+07 1.88649e+07 1.88649e+07 1.88649e+07 1.88649e+07 1.88649e+07
          1.88649e+07 1.43194e+07 1.43194e+07 1.43194e+07 1.43194e+07 1.43194e+07 1.43194e+07 1.43194e+07 1.43194e+07 1.43194e+07 1.88649e+07 1.88649e+07
          1.88649e+07 1.88649e+07 1.88649e+07 1.88649e+07 1.88649e+07 1.88649e+07 1.88649e+07 1.88649e+07 1.43194e+07 1.43194e+07 1.43194e+07 1.43194e+07
          1.43194e+07 1.43194e+07 1.43194e+07 1.43194e+07 1.43194e+07 1.43194e+07 1.74378e+07 1.74378e+07 1.74378e+07 1.88649e+07 1.88649e+07 1.88649e+07
          1.88649e+07 1.88649e+07 1.88649e+07 1.88649e+07 1.88649e+07 1.88649e+07 1.88649e+07 1.43194e+07 1.43194e+07 1.43194e+07 1.43194e+07 1.43194e+07
          1.43194e+07 1.43194e+07 1.43194e+07 1.43194e+07 1.43194e+07 1.74378e+07 1.74378e+07 1.74378e+07 1.74378e+07 1.74378e+07 1.74378e+07 1.74378e+07
          1.88649e+07 1.88649e+07 1.88649e+07 1.88649e+07 1.88649e+07 1.88649e+07 1.88649e+07 1.88649e+07 1.88649e+07 1.88649e+07 1.43194e+07 1.43194e+07
          1.43194e+07 1.43194e+07 1.43194e+07 1.43194e+07 1.43194e+07 1.43194e+07 1.43194e+07 1.43194e+07 1.74378e+07 1.74378e+07 1.74378e+07 1.74378e+07
          1.74378e+07 1.74378e+07 1.74378e+07 1.74378e+07 1.74378e+07 1.74378e+07 1.88649e+07 1.88649e+07 1.88649e+07 1.88649e+07 1.88649e+07 1.88649e+07
          1.88649e+07 1.88649e+07 1.88649e+07 1.88649e+07 1.43194e+07 1.43194e+07 1.43194e+07 1.43194e+07 1.43194e+07 1.43194e+07 1.43194e+07 1.43194e+07
          1.43194e+07 1.43194e+07 1.74378e+07 1.74378e+07 1.74378e+07 1.74378e+07 1.74378e+07 1.74378e+07 1.74378e+07 1.74378e+07 1.74378e+07 1.74378e+07
          1.88649e+07 1.88649e+07 1.88649e+07 1.88649e+07 1.88649e+07 1.88649e+07 1.88649e+07 1.88649e+07 1.88649e+07 1.88649e+07 1.43194e+07 1.43194e+07
          1.43194e+07 1.43194e+07 1.43194e+07 1.43194e+07 1.43194e+07 1.43194e+07 1.43194e+07 1.43194e+07 1.74378e+07 1.74378e+07 1.74378e+07 1.74378e+07
          1.74378e+07 1.74378e+07 1.74378e+07 1.74378e+07 1.74378e+07 1.74378e+07 1.88649e+07 1.88649e+07 1.88649e+07 1.88649e+07 1.88649e+07 1.88649e+07
          1.88649e+07 1.88649e+07 1.88649e+07 1.88649e+07 1.43194e+07 1.43194e+07 1.43194e+07 1.43194e+07 1.43194e+07 1.43194e+07 1.43194e+07 1.43194e+07
          1.43194e+07 1.43194e+07 1.74378e+07 1.74378e+07 1.74378e+07 1.74378e+07 1.74378e+07 1.74378e+07 1.74378e+07 1.74378e+07 1.74378e+07 1.74378e+07
          1.88649e+07 1.88649e+07 1.88649e+07 1.88649e+07 1.88649e+07 1.88649e+07 1.88649e+07 1.88649e+07 1.88649e+07 1.88649e+07 1.43194e+07 1.43194e+07
          1.43194e+07 1.43194e+07 1.43194e+07 1.43194e+07 1.43194e+07 1.43194e+07 1.43194e+07 1.43194e+07 1.74378e+07 1.74378e+07 1.74378e+07 1.74378e+07
          1.74378e+07 1.74378e+07 1.74378e+07 1.74378e+07 1.74378e+07 1.74378e+07 1.88649e+07 1.88649e+07 1.88649e+07 1.88649e+07 1.88649e+07 1.88649e+07
          1.88649e+07 1.88649e+07 1.88649e+07 1.88649e+07 1.43194e+07 1.43194e+07 1.43194e+07 1.43194e+07 1.43194e+07 1.43194e+07 1.43194e+07 1.43194e+07
          1.43194e+07 1.43194e+07 1.74378e+07 1.74378e+07 1.74378e+07 1.74378e+07 1.74378e+07 1.74378e+07 1.74378e+07 1.74378e+07 1.74378e+07 1.74378e+07
          3.8658e+07 1.88649e+07 1.88649e+07 1.88649e+07 1.88649e+07 1.88649e+07 1.88649e+07 1.88649e+07 1.43194e+07 1.43194e+07 1.43194e+07 1.43194e+07
          1.43194e+07 1.43194e+07 1.43194e+07 1.43194e+07 1.43194e+07 1.43194e+07 1.74378e+07 1.74378e+07 1.74378e+07 1.74378e+07 1.74378e+07 1.74378e+07
          1.74378e+07 1.74378e+07 1.74378e+07 1.74378e+07 2.83458e+07 2.83458e+07 3.8658e+07 3.8658e+07 1.88649e+07 1.88649e+07 1.88649e+07 1.43194e+07
          1.43194e+07 1.43194e+07 1.43194e+07 1.43194e+07 1.43194e+07 1.43194e+07 1.43194e+07 1.43194e+07 1.43194e+07 1.74378e+07 1.74378e+07 1.74378e+07
          1.74378e+07 1.74378e+07 1.74378e+07 1.74378e+07 1.74378e+07 1.74378e+07 1.74378e+07 2.83458e+07 2.83458e+07 1.43194e+07 1.43194e+07 1.43194e+07
          1.43194e+07 1.43194e+07 1.43194e+07 1.43194e+07 1.43194e+07 1.43194e+07 1.74378e+07 1.74378e+07 1.74378e+07 1.74378e+07 1.74378e+07 1.74378e+07
          1.74378e+07 1.74378e+07 1.74378e+07 1.74378e+07 1.43194e+07 1.43194e+07 1.43194e+07 1.43194e+07 1.43194e+07 1.74378e+07 1.74378e+07 1.74378e+07
          1.74378e+07 1.74378e+07 1.74378e+07 1.74378e+07 1.74378e+07 1.74378e+07 1.74378e+07 1.43194e+07 1.74378e+07 1.74378e+07 1.74378e+07 1.74378e+07
          1.74378e+07 1.74378e+07 1.74378e+07 1.74378e+07 1.74378e+07 1.74378e+07 1.74378e+07 1.74378e+07 1.74378e+07 1.74378e+07 1.74378e+07 1.74378e+07
          1.74378e+07 1.74378e+07 1.74378e+07 1.74378e+07
        </DataArray>
        <DataArray type="Float32" Name="FractureForce" NumberOfComponents="1" format="ascii">
          -3.42387e+06 -3.42387e+06 -3.42387e+06 1.66394e+07 1.67144e+07 -3.42387e+06 -3.42387e+06 -3.42387e+06 -3.42387e+06 -3.42387e+06 -3.42387e+06 -3.42387e+06
          1.66394e+07 -3.42387e+06 -3.42387e+06 -3.42387e+06 -3.42387e+06 -3.42387e+06 -3.42387e+06 -3.42387e+06 -3.42387e+06 -3.42387e+06 -3.42387e+06 -7.96937e+06
          -3.42387e+06 -3.42387e+06 -3.42387e+06 -3.42387e+06 -3.42387e+06 -3.42387e+06 -3.42387e+06 -3.42387e+06 -3.42387e+06 -3.42387e+06 -7.96937e+06 -7.96937e+06
          -7.96937e+06 -7.96937e+06 -7.96937e+06 -3.42387e+06 -3.42387e+06 -3.42387e+06 -3.42387e+06 -3.42387e+06 -3.42387e+06 -3.42387e+06 -3.42387e+06 -3.42387e+06
          -3.42387e+06 -7.96937e+06 -7.96937e+06 -7.96937e+06 -7.96937e+06 -7.96937e+06 -7.96937e+06 -7.96937e+06 -7.96937e+06 -7.96937e+06 -3.42388e+06 -3.42388e+06
          -3.42388e+06 -3.42387e+06 -3.42387e+06 -3.42387e+06 -3.42387e+06 -3.42387e+06 -3.42387e+06 -3.42387e+06 -7.96937e+06 -7.96937e+06 -7.96937e+06 -7.96937e+06
          -7.96937e+06 -7.96937e+06 -7.96937e+06 -7.96937e+06 -7.96937e+06 -7.96937e+06 -4.85097e+06 -4.85097e+06 -4.85097e+06 -3.42388e+06 -3.42388e+06 -3.42388e+06
          -3.42388e+06 -3.42388e+06 -3.42388e+06 -3.42388e+06 -3.42388e+06 -3.42387e+06 -3.42387e+06 -7.96937e+06 -7.96937e+06 -7.96937e+06 -7.96937e+06 -7.96937e+06
          -7.96937e+06 -7.96937e+06 -7.96937e+06 -7.96937e+06 -7.96937e+06 -4.85097e+06 -4.85097e+06 -4.85097e+06 -4.85097e+06 -4.85097e+06 -4.85097e+06 -4.85096e+06
          -3.42388e+06 -3.42388e+06 -3.42388e+06 -3.42388e+06 -3.42388e+06 -3.42388e+06 -3.42388e+06 -3.42388e+06 -3.42388e+06 -3.42388e+06 -7.96937e+06 -7.96937e+06
          -7.96937e+06 -7.96937e+06 -7.96937e+06 -7.96937e+06 -7.96937e+06 -7.96937e+06 -7.96937e+06 -7.96937e+06 -4.85097e+06 -4.85097e+06 -4.85097e+06 -4.85097e+06
          -4.85097e+06 -4.85097e+06 -4.85097e+06 -4.85097e+06 -4.85096e+06 -4.85096e+06 -3.42387e+06 -3.42387e+06 -3.42387e+06 -3.42388e+06 -3.42388e+06 -3.42388e+06
          -3.42388e+06 -3.42388e+06 -3.42388e+06 -3.42388e+06 -7.96937e+06 -7.96937e+06 -7.96937e+06 -7.96937e+06 -7.96937e+06 -7.96937e+06 -7.96937e+06 -7.96937e+06
          -7.96937e+06 -7.96937e+06 -4.85097e+06 -4.85097e+06 -4.85097e+06 -4.85097e+06 -4.85097e+06 -4.85097e+06 -4.85097e+06 -4.85097e+06 -4.85097e+06 -4.85097e+06
          -3.42387e+06 -3.42387e+06 -3.42387e+06 -3.42387e+06 -3.42387e+06 -3.42387e+06 -3.42388e+06 -3.42388e+06 -3.42388e+06 -3.42388e+06 -7.96937e+06 -7.96937e+06
          -7.96938e+06 -7.96938e+06 -7.96938e+06 -7.96937e+06 -7.96937e+06 -7.96937e+06 -7.96937e+06 -7.96937e+06 -4.85097e+06 -4.85097e+06 -4.85097e+06 -4.85097e+06
          -4.85097e+06 -4.85097e+06 -4.85097e+06 -4.85097e+06 -4.85097e+06 -4.85097e+06 -3.42387e+06 -3.42387e+06 -3.42387e+06 -3.42387e+06 -3.42387e+06 -3.42387e+06
          -3.42387e+06 -3.42387e+06 -3.42387e+06 -3.42387e+06 -7.96937e+06 -7.96937e+06 -7.96937e+06 -7.96937e+06 -7.96937e+06 -7.96938e+06 -7.96938e+06 -7.96938e+06
          -7.96937e+06 -7.96937e+06 -4.85097e+06 -4.85097e+06 -4.85097e+06 -4.85097e+06 -4.85097e+06 -4.85097e+06 -4.85097e+06 -4.85097e+06 -4.85097e+06 -4.85097e+06
          -3.42387e+06 -3.42387e+06 -3.42387e+06 -3.42387e+06 -3.42387e+06 -3.42387e+06 -3.42387e+06 -3.42387e+06 -3.42387e+06 -3.42387e+06 -7.96937e+06 -7.96937e+06
          -7.96937e+06 -7.96937e+06 -7.96937e+06 -7.96937e+06 -7.96937e+06 -7.96937e+06 -7.96937e+06 -7.96937e+06 -4.85098e+06 -4.85098e+06 -4.85097e+06 -4.85097e+06
          -4.85097e+06 -4.85097e+06 -4.85097e+06 -4.85097e+06 -4.85097e+06 -4.85097e+06 -3.42387e+06 -3.42387e+06 -3.42387e+06 -3.42387e+06 -3.42387e+06 -3.42387e+06
          -3.42387e+06 -3.42387e+06 -3.42387e+06 -3.42387e+06 -7.96937e+06 -7.96937e+06 -7.96937e+06 -7.96937e+06 -7.96937e+06 -7.96937e+06 -7.96937e+06 -7.96937e+06
          -7.96937e+06 -7.96937e+06 -4.85097e+06 -4.85097e+06 -4.85097e+06 -4.85097e+06 -4.85097e+06 -4.85097e+06 -4.85097e+06 -4.85097e+06 -4.85097e+06 -4.85097e+06
          1.66388e+07 -3.42387e+06 -3.42387e+06 -3.42387e+06 -3.42387e+06 -3.42387e+06 -3.42387e+06 -3.42387e+06 -7.96937e+06 -7.96937e+06 -7.96937e+06 -7.96937e+06
          -7.96937e+06 -7.96937e+06 -7.96937e+06 -7.96937e+06 -7.96937e+06 -7.96937e+06 -4.85097e+06 -4.85097e+06 -4.85097e+06 -4.85097e+06 -4.85097e+06 -4.85097e+06
          -4.85097e+06 -4.85097e+06 -4.85097e+06 -4.85097e+06 6.05701e+06 6.05701e+06 1.67138e+07 1.66388e+07 -3.42387e+06 -3.42387e+06 -3.42387e+06 -7.96937e+06
          -7.96937e+06 -7.96937e+06 -7.96937e+06 -7.96937e+06 -7.96937e+06 -7.96937e+06 -7.96937e+06 -7.96937e+06 -7.96937e+06 -4.85097e+06 -4.85097e+06 -4.85097e+06
          -4.85097e+06 -4.85097e+06 -4.85097e+06 -4.85097e+06 -4.85097e+06 -4.85097e+06 -4.85097e+06 6.05701e+06 6.05701e+06 -7.96937e+06 -7.96937e+06 -7.96937e+06
          -7.96937e+06 -7.96937e+06 -7.96937e+06 -7.96937e+06 -7.96937e+06 -7.96937e+06 -4.85097e+06 -4.85097e+06 -4.85097e+06 -4.85097e+06 -4.85097e+06 -4.85097e+06
          -4.85097e+06 -4.85097e+06 -4.85097e+06 -4.85097e+06 -7.96937e+06 -7.96937e+06 -7.96937e+06 -7.96937e+06 -7.96937e+06 -4.85097e+06 -4.85097e+06 -4.85097e+06
          -4.85097e+06 -4.85097e+06 -4.85097e+06 -4.85097e+06 -4.85097e+06 -4.85097e+06 -4.85097e+06 -7.96937e+06 -4.85097e+06 -4.85097e+06 -4.85097e+06 -4.85097e+06
          -4.85097e+06 -4.85097e+06 -4.85097e+06 -4.85097e+06 -4.85097e+06 -4.85097e+06 -4.85097e+06 -4.85097e+06 -4.85097e+06 -4.85097e+06 -4.85097e+06 -4.85097e+06
          -4.85097e+06 -4.85096e+06 -4.85096e+06 -4.85096e+06
        </DataArray>
        <DataArray type="Float32" Name="ReservoirMobility" NumberOfComponents="1" format="ascii">
          2523.55 2523.55 2523.55 2523.94 2523.94 2523.55 2523.55 2523.55 2523.55 2523.55 2523.55 2523.55
          2523.94 2523.55 2523.55 2523.55 2523.55 2523.55 2523.55 2523.55 2523.55 2523.55 2523.55 2523.84
          2523.55 2523.55 2523.55 2523.55 2523.55 2523.55 2523.55 2523.55 2523.55 2523.55 2523.84 2523.84
          2523.84 2523.84 2523.84 2523.55 2523.55 2523.55 2523.55 2523.55 2523.55 2523.55 2523.55 2523.55
          2523.55 2523.84 2523.84 2523.84 2523.84 2523.84 2523.84 2523.84 2523.84 2523.84 2523.55 2523.55
          2523.55 2523.55 2523.55 2523.55 2523.55 2523.55 2523.55 2523.55 2523.84 2523.84 2523.84 2523.84
          2523.84 2523.84 2523.84 2523.84 2523.84 2523.84 2524.28 2524.28 2524.28 2523.55 2523.55 2523.55
          2523.55 2523.55 2523.55 2523.55 2523.55 2523.55 2523.55 2523.84 2523.84 2523.84 2523.84 2523.84
          2523.84 2523.84 2523.84 2523.84 2523.84 2524.28 2524.28 2524.28 2524.28 2524.28 2524.28 2524.28
          2523.55 2523.55 2523.55 2523.55 2523.55 2523.55 2523.55 2523.55 2523.55 2523.55 2523.84 2523.84
          2523.84 2523.84 2523.84 2523.84 2523.84 2523.84 2523.84 2523.84 2524.28 2524.28 2524.28 2524.28
          2524.28 2524.28 2524.28 2524.28 2524.28 2524.28 2523.55 2523.55 2523.55 2523.55 2523.55 2523.55
          2523.55 2523.55 2523.55 2523.55 2523.84 2523.84 2523.84 2523.84 2523.84 2523.84 2523.84 2523.84
          2523.84 2523.84 2524.28 2524.28 2524.28 2524.28 2524.28 2524.28 2524.28 2524.28 2524.28 2524.28
          2523.55 2523.55 2523.55 2523.55 2523.55 2523.55 2523.55 2523.55 2523.55 2523.55 2523.84 2523.84
          2523.84 2523.84 2523.84 2523.84 2523.84 2523.84 2523.84 2523.84 2524.28 2524.28 2524.28 2524.28
          2524.28 2524.28 2524.28 2524.28 2524.28 2524.28 2523.55 2523.55 2523.55 2523.55 2523.55 2523.55
          2523.55 2523.55 2523.55 2523.55 2523.84 2523.84 2523.84 2523.84 2523.84 2523.84 2523.84 2523.84
          2523.84 2523.84 2524.28 2524.28 2524.28 2524.28 2524.28 2524.28 2524.28 2524.28 2524.28 2524.28
          2523.55 2523.55 2523.55 2523.55 2523.55 2523.55 2523.55 2523.55 2523.55 2523.55 2523.84 2523.84
          2523.84 2523.84 2523.84 2523.84 2523.84 2523.84 2523.84 2523.84 2524.28 2524.28 2524.28 2524.28
          2524.28 2524.28 2524.28 2524.28 2524.28 2524.28 2523.55 2523.55 2523.55 2523.55 2523.55 2523.55
          2523.55 2523.55 2523.55 2523.55 2523.84 2523.84 2523.84 2523.84 2523.84 2523.84 2523.84 2523.84
          2523.84 2523.84 2524.28 2524.28 2524.28 2524.28 2524.28 2524.28 2524.28 2524.28 2524.28 2524.28
          2523.94 2523.55 2523.55 2523.55 2523.55 2523.55 2523.55 2523.55 2523.84 2523.84 2523.84 2523.84
          2523.84 2523.84 2523.84 2523.84 2523.84 2523.84 2524.28 2524.28 2524.28 2524.28 2524.28 2524.28
          2524.28 2524.28 2524.28 2524.28 2524.87 2524.87 2523.94 2523.94 2523.55 2523.55 2523.55 2523.84
          2523.84 2523.84 2523.84 2523.84 2523.84 2523.84 2523.84 2523.84 2523.84 2524.28 2524.28 2524.28
          2524.28 2524.28 2524.28 2524.28 2524.28 2524.28 2524.28 2524.87 2524.87 2523.84 2523.84 2523.84
          2523.84 2523.84 2523.84 2523.84 2523.84 2523.84 2524.28 2524.28 2524.28 2524.28 2524.28 2524.28
          2524.28 2524.28 2524.28 2524.28 2523.84 2523.84 2523.84 2523.84 2523.84 2524.28 2524.28 2524.28
          2524.28 2524.28 2524.28 2524.28 2524.28 2524.28 2524.28 2523.84 2524.28 2524.28 2524.28 2524.28
          2524.28 2524.28 2524.28 2524.28 2524.28 2524.28 2524.28 2524.28 2524.28 2524.28 2524.28 2524.28
          2524.28 2524.28 2524.28 2524.28
        </DataArray>
        <DataArray type="Float32" Name="LeakOfRate" NumberOfComponents="1" format="ascii">
          9.47256e-06 9.47251e-06 9.47252e-06 6.10086e-06 1.97196e-06 9.47265e-06 9.47263e-06 9.47263e-06 9.47261e-06 9.47261e-06 9.47258e-06 9.47259e-06
          6.10088e-06 9.47272e-06 9.4727e-06 9.47269e-06 9.47267e-06 9.47267e-06 9.47265e-06 9.47265e-06 9.47263e-06 9.47263e-06 9.47262e-06 1.78339e-05
          9.47279e-06 9.47277e-06 9.47276e-06 9.47274e-06 9.47273e-06 9.47271e-06 9.47271e-06 9.47269e-06 9.47268e-06 9.47266e-06 1.78339e-05 1.78339e-05
          1.78339e-05 1.78339e-05 1.78339e-05 9.47287e-06 9.47285e-06 9.47284e-06 9.47281e-06 9.4728e-06 9.47278e-06 9.47277e-06 9.47275e-06 9.47274e-06
          9.47272e-06 1.7834e-05 1.7834e-05 1.7834e-05 1.78339e-05 1.78339e-05 1.78339e-05 1.78339e-05 1.78339e-05 1.78339e-05 9.47295e-06 9.47293e-06
          9.47292e-06 9.4729e-06 9.47289e-06 9.47286e-06 9.47285e-06 9.47282e-06 9.47281e-06 9.47278e-06 1.78341e-05 1.7834e-05 1.7834e-05 1.7834e-05
          1.7834e-05 1.7834e-05 1.7834e-05 1.78339e-05 1.78339e-05 1.78339e-05 3.08402e-05 3.08402e-05 3.08402e-05 9.47298e-06 9.47298e-06 9.47299e-06
          9.47297e-06 9.47297e-06 9.47294e-06 9.47294e-06 9.47291e-06 9.47289e-06 9.47286e-06 1.78341e-05 1.78341e-05 1.78341e-05 1.78341e-05 1.7834e-05
          1.7834e-05 1.7834e-05 1.7834e-05 1.7834e-05 1.7834e-05 3.08403e-05 3.08403e-05 3.08402e-05 3.08402e-05 3.08402e-05 3.08401e-05 3.08401e-05
          9.47293e-06 9.47295e-06 9.47297e-06 9.47299e-06 9.473e-06 9.473e-06 9.47301e-06 9.47299e-06 9.47299e-06 9.47296e-06 1.78342e-05 1.78342e-05
          1.78342e-05 1.78341e-05 1.78341e-05 1.78341e-05 1.78341e-05 1.78341e-05 1.7834e-05 1.7834e-05 3.08403e-05 3.08403e-05 3.08403e-05 3.08403e-05
          3.08402e-05 3.08402e-05 3.08402e-05 3.08402e-05 3.08401e-05 3.084e-05 9.47285e-06 9.47287e-06 9.4729e-06 9.47292e-06 9.47294e-06 9.47297e-06
          9.47299e-06 9.47301e-06 9.47304e-06 9.47304e-06 1.78343e-05 1.78343e-05 1.78343e-05 1.78342e-05 1.78342e-05 1.78342e-05 1.78342e-05 1.78341e-05
          1.78341e-05 1.78341e-05 3.08404e-05 3.08404e-05 3.08404e-05 3.08403e-05 3.08403e-05 3.08403e-05 3.08403e-05 3.08402e-05 3.08402e-05 3.08402e-05
          9.47277e-06 9.47279e-06 9.47281e-06 9.47284e-06 9.47286e-06 9.47289e-06 9.47291e-06 9.47294e-06 9.47296e-06 9.47299e-06 1.78343e-05 1.78343e-05
          1.78344e-05 1.78344e-05 1.78344e-05 1.78343e-05 1.78343e-05 1.78342e-05 1.78342e-05 1.78342e-05 3.08405e-05 3.08405e-05 3.08404e-05 3.08404e-05
          3.08404e-05 3.08404e-05 3.08403e-05 3.08403e-05 3.08403e-05 3.08403e-05 9.4727e-06 9.47272e-06 9.47274e-06 9.47276e-06 9.47278e-06 9.4728e-06
          9.47282e-06 9.47285e-06 9.47286e-06 9.47289e-06 1.78342e-05 1.78342e-05 1.78342e-05 1.78343e-05 1.78343e-05 1.78344e-05 1.78344e-05 1.78344e-05
          1.78343e-05 1.78343e-05 3.08406e-05 3.08406e-05 3.08405e-05 3.08405e-05 3.08405e-05 3.08404e-05 3.08404e-05 3.08404e-05 3.08404e-05 3.08403e-05
          9.47263e-06 9.47265e-06 9.47267e-06 9.47269e-06 9.47271e-06 9.47273e-06 9.47275e-06 9.47277e-06 9.47278e-06 9.47281e-06 1.78341e-05 1.78341e-05
          1.78341e-05 1.78342e-05 1.78342e-05 1.78342e-05 1.78342e-05 1.78343e-05 1.78343e-05 1.78343e-05 3.08406e-05 3.08406e-05 3.08406e-05 3.08406e-05
          3.08406e-05 3.08405e-05 3.08405e-05 3.08405e-05 3.08404e-05 3.08404e-05 9.47251e-06 9.47256e-06 9.47261e-06 9.47263e-06 9.47265e-06 9.47267e-06
          9.47269e-06 9.47271e-06 9.47272e-06 9.47274e-06 1.7834e-05 1.78341e-05 1.78341e-05 1.78341e-05 1.78341e-05 1.78341e-05 1.78341e-05 1.78342e-05
          1.78342e-05 1.78342e-05 3.08406e-05 3.08406e-05 3.08406e-05 3.08406e-05 3.08406e-05 3.08406e-05 3.08406e-05 3.08405e-05 3.08405e-05 3.08405e-05
          6.10086e-06 9.47252e-06 9.47258e-06 9.47261e-06 9.47263e-06 9.47265e-06 9.47266e-06 9.47268e-06 1.7834e-05 1.7834e-05 1.7834e-05 1.7834e-05
          1.7834e-05 1.7834e-05 1.78341e-05 1.78341e-05 1.78341e-05 1.78341e-05 3.08405e-05 3.08405e-05 3.08405e-05 3.08405e-05 3.08405e-05 3.08406e-05
          3.08405e-05 3.08406e-05 3.08405e-05 3.08405e-05 4.78242e-05 4.78241e-05 1.97196e-06 6.10088e-06 9.47259e-06 9.47262e-06 9.47263e-06 1.78339e-05
          1.78339e-05 1.78339e-05 1.7834e-05 1.7834e-05 1.7834e-05 1.7834e-05 1.7834e-05 1.7834e-05 1.7834e-05 3.08404e-05 3.08404e-05 3.08404e-05
          3.08404e-05 3.08404e-05 3.08405e-05 3.08405e-05 3.08405e-05 3.08405e-05 3.08405e-05 4.78241e-05 4.78242e-05 1.78339e-05 1.78339e-05 1.78339e-05
          1.78339e-05 1.78339e-05 1.78339e-05 1.7834e-05 1.7834e-05 1.7834e-05 3.08403e-05 3.08403e-05 3.08403e-05 3.08404e-05 3.08404e-05 3.08404e-05
          3.08404e-05 3.08404e-05 3.08404e-05 3.08404e-05 1.78339e-05 1.78339e-05 1.78339e-05 1.78339e-05 1.78339e-05 3.08403e-05 3.08403e-05 3.08403e-05
          3.08403e-05 3.08403e-05 3.08403e-05 3.08403e-05 3.08403e-05 3.08403e-05 3.08404e-05 1.78339e-05 3.08402e-05 3.08402e-05 3.08402e-05 3.08402e-05
          3.08402e-05 3.08402e-05 3.08402e-05 3.08403e-05 3.08403e-05 3.08403e-05 3.08402e-05 3.08401e-05 3.08402e-05 3.08402e-05 3.08402e-05 3.08402e-05
          3.08402e-05 3.08401e-05 3.084e-05 3.08401e-05
        </DataArray>
        <DataArray type="Float32" Name="WellIndex" NumberOfComponents="1" format="ascii">
          6.49699e-11 6.49699e-11 6.49699e-11 3.34596e-13 3.34596e-13 6.49699e-11 6.49699e-11 6.49699e-11 6.49699e-11 6.49699e-11 6.49699e-11 6.49699e-11
          3.34596e-13 6.49699e-11 6.49699e-11 6.49699e-11 6.49699e-11 6.49699e-11 6.49699e-11 6.49699e-11 6.49699e-11 6.49699e-11 6.49699e-11 7.11914e-11
          6.49699e-11 6.49699e-11 6.49699e-11 6.49699e-11 6.49699e-11 6.49699e-11 6.49699e-11 6.49699e-11 6.49699e-11 6.49699e-11 7.11914e-11 7.11914e-11
          7.11914e-11 7.11914e-11 7.11914e-11 6.49699e-11 6.49699e-11 6.49699e-11 6.49699e-11 6.49699e-11 6.49699e-11 6.49699e-11 6.49699e-11 6.49699e-11
          6.49699e-11 7.11914e-11 7.11914e-11 7.11914e-11 7.11914e-11 7.11914e-11 7.11914e-11 7.11914e-11 7.11914e-11 7.11914e-11 6.49699e-11 6.49699e-11
          6.49699e-11 6.49699e-11 6.49699e-11 6.49699e-11 6.49699e-11 6.49699e-11 6.49699e-11 6.49699e-11 7.11914e-11 7.11914e-11 7.11914e-11 7.11914e-11
          7.11914e-11 7.11914e-11 7.11914e-11 7.11914e-11 7.11914e-11 7.11914e-11 7.16549e-11 7.16549e-11 7.16549e-11 6.49699e-11 6.49699e-11 6.49699e-11
          6.49699e-11 6.49699e-11 6.49699e-11 6.49699e-11 6.49699e-11 6.49699e-11 6.49699e-11 7.11914e-11 7.11914e-11 7.11914e-11 7.11914e-11 7.11914e-11
          7.11914e-11 7.11914e-11 7.11914e-11 7.11914e-11 7.11914e-11 7.16549e-11 7.16549e-11 7.16549e-11 7.16549e-11 7.16549e-11 7.16549e-11 7.16549e-11
          6.49699e-11 6.49699e-11 6.49699e-11 6.49699e-11 6.49699e-11 6.49699e-11 6.49699e-11 6.49699e-11 6.49699e-11 6.49699e-11 7.11914e-11 7.11914e-11
          7.11914e-11 7.11914e-11 7.11914e-11 7.11914e-11 7.11914e-11 7.11914e-11 7.11914e-11 7.11914e-11 7.16549e-11 7.16549e-11 7.16549e-11 7.16549e-11
          7.16549e-11 7.16549e-11 7.16549e-11 7.16549e-11 7.16549e-11 7.16549e-11 6.49699e-11 6.49699e-11 6.49699e-11 6.49699e-11 6.49699e-11 6.49699e-11
          6.49699e-11 6.49699e-11 6.49699e-11 6.49699e-11 7.11914e-11 7.11914e-11 7.11914e-11 7.11914e-11 7.11914e-11 7.11914e-11 7.11914e-11 7.11914e-11
          7.11914e-11 7.11914e-11 7.16549e-11 7.16549e-11 7.16549e-11 7.16549e-11 7.16549e-11 7.16549e-11 7.16549e-11 7.16549e-11 7.16549e-11 7.16549e-11
          6.49699e-11 6.49699e-11 6.49699e-11 6.49699e-11 6.49699e-11 6.49699e-11 6.49699e-11 6.49699e-11 6.49699e-11 6.49699e-11 7.11914e-11 7.11914e-11
          7.11914e-11 7.11914e-11 7.11914e-11 7.11914e-11 7.11914e-11 7.11914e-11 7.11914e-11 7.11914e-11 7.16549e-11 7.16549e-11 7.16549e-11 7.16549e-11
          7.16549e-11 7.16549e-11 7.16549e-11 7.16549e-11 7.16549e-11 7.16549e-11 6.49699e-11 6.49699e-11 6.49699e-11 6.49699e-11 6.49699e-11 6.49699e-11
          6.49699e-11 6.49699e-11 6.49699e-11 6.49699e-11 7.11914e-11 7.11914e-11 7.11914e-11 7.11914e-11 7.11914e-11 7.11914e-11 7.11914e-11 7.11914e-11
          7.11914e-11 7.11914e-11 7.16549e-11 7.16549e-11 7.16549e-11 7.16549e-11 7.16549e-11 7.16549e-11 7.16549e-11 7.16549e-11 7.16549e-11 7.16549e-11
          6.49699e-11 6.49699e-11 6.49699e-11 6.49699e-11 6.49699e-11 6.49699e-11 6.49699e-11 6.49699e-11 6.49699e-11 6.49699e-11 7.11914e-11 7.11914e-11
          7.11914e-11 7.11914e-11 7.11914e-11 7.11914e-11 7.11914e-11 7.11914e-11 7.11914e-11 7.11914e-11 7.16549e-11 7.16549e-11 7.16549e-11 7.16549e-11
          7.16549e-11 7.16549e-11 7.16549e-11 7.16549e-11 7.16549e-11 7.16549e-11 6.49699e-11 6.49699e-11 6.49699e-11 6.49699e-11 6.49699e-11 6.49699e-11
          6.49699e-11 6.49699e-11 6.49699e-11 6.49699e-11 7.11914e-11 7.11914e-11 7.11914e-11 7.11914e-11 7.11914e-11 7.11914e-11 7.11914e-11 7.11914e-11
          7.11914e-11 7.11914e-11 7.16549e-11 7.16549e-11 7.16549e-11 7.16549e-11 7.16549e-11 7.16549e-11 7.16549e-11 7.16549e-11 7.16549e-11 7.16549e-11
          3.34596e-13 6.49699e-11 6.49699e-11 6.49699e-11 6.49699e-11 6.49699e-11 6.49699e-11 6.49699e-11 7.11914e-11 7.11914e-11 7.11914e-11 7.11914e-11
          7.11914e-11 7.11914e-11 7.11914e-11 7.11914e-11 7.11914e-11 7.11914e-11 7.16549e-11 7.16549e-11 7.16549e-11 7.16549e-11 7.16549e-11 7.16549e-11
          7.16549e-11 7.16549e-11 7.16549e-11 7.16549e-11 3.24787e-12 3.24787e-12 3.34596e-13 3.34596e-13 6.49699e-11 6.49699e-11 6.49699e-11 7.11914e-11
          7.11914e-11 7.11914e-11 7.11914e-11 7.11914e-11 7.11914e-11 7.11914e-11 7.11914e-11 7.11914e-11 7.11914e-11 7.16549e-11 7.16549e-11 7.16549e-11
          7.16549e-11 7.16549e-11 7.16549e-11 7.16549e-11 7.16549e-11 7.16549e-11 7.16549e-11 3.24787e-12 3.24787e-12 7.11914e-11 7.11914e-11 7.11914e-11
          7.11914e-11 7.11914e-11 7.11914e-11 7.11914e-11 7.11914e-11 7.11914e-11 7.16549e-11 7.16549e-11 7.16549e-11 7.16549e-11 7.16549e-11 7.16549e-11
          7.16549e-11 7.16549e-11 7.16549e-11 7.16549e-11 7.11914e-11 7.11914e-11 7.11914e-11 7.11914e-11 7.11914e-11 7.16549e-11 7.16549e-11 7.16549e-11
          7.16549e-11 7.16549e-11 7.16549e-11 7.16549e-11 7.16549e-11 7.16549e-11 7.16549e-11 7.11914e-11 7.16549e-11 7.16549e-11 7.16549e-11 7.16549e-11
          7.16549e-11 7.16549e-11 7.16549e-11 7.16549e-11 7.16549e-11 7.16549e-11 7.16549e-11 7.16549e-11 7.16549e-11 7.16549e-11 7.16549e-11 7.16549e-11
          7.16549e-11 7.16549e-11 7.16549e-11 7.16549e-11
        </DataArray>
        <DataArray type="Float32" Name="FractureWidth" NumberOfComponents="1" format="ascii">
          0.00999297 0.00838882 0.00926853 0 0 0.0127579 0.0121152 0.0166386 0.0150572 0.0170431 0.0135665 0.0124682
          0 0.0140878 0.0137596 0.019491 0.018758 0.0225941 0.0212484 0.0237543 0.0212931 0.0226172 0.0177661 0.0186201
          0.0147987 0.0146206 0.0209329 0.0205487 0.025148 0.0244849 0.0281136 0.0270142 0.0301928 0.0283803 0.0334022 0.0303141
          0.0303373 0.0245044 0.0204289 0.0151849 0.0150895 0.0217083 0.0215003 0.0264761 0.0261232 0.030251 0.0296887 0.0335661
          0.0326968 0.0387589 0.0374227 0.039162 0.0370816 0.0367232 0.0333594 0.0308979 0.0249327 0.0194074 0.0153742 0.0153321
          0.0221155 0.0220104 0.0271872 0.0269998 0.0313816 0.0310806 0.0352868 0.0348306 0.0413284 0.0406559 0.0429887 0.0420083
          0.0424917 0.0410613 0.0398879 0.0377756 0.0348817 0.0316696 0.0254892 0.0202351 0.0148619 0.0154195 0.0154195 0.0222811
          0.0222488 0.0275337 0.0274509 0.0319725 0.0318206 0.0362022 0.0359602 0.0426759 0.0423173 0.0449205 0.0444089 0.045229
          0.0445139 0.0437599 0.0427694 0.0403979 0.0390295 0.0335162 0.0316204 0.0274842 0.024819 0.0205133 0.0165216 0.0115875
          0.0153321 0.0153742 0.0222488 0.0222811 0.0276149 0.0276149 0.0322137 0.0321667 0.0366505 0.0365427 0.0433842 0.043201
          0.0459522 0.0456778 0.0466663 0.046282 0.0457147 0.0451956 0.0430213 0.0423346 0.0370071 0.0361117 0.0320977 0.0309476
          0.0266094 0.0251658 0.0201839 0.0184201 0.0124947 0.0106042 0.0150895 0.0151849 0.0220104 0.0221155 0.0274509 0.0275337
          0.0321667 0.0322137 0.0367562 0.0367562 0.0436777 0.0436201 0.0464687 0.0463429 0.0474399 0.0472366 0.0467793 0.0464917
          0.044418 0.0440401 0.0387892 0.0383125 0.0343215 0.033736 0.0293022 0.0286079 0.0232635 0.0224845 0.0155899 0.0148904
          0.0146206 0.0147987 0.0215003 0.0217083 0.0269998 0.0271872 0.0318206 0.0319725 0.0365427 0.0366505 0.0436201 0.0436777
          0.0465932 0.0465932 0.0477746 0.0477077 0.0473452 0.0472027 0.0452168 0.0449977 0.0398047 0.0395201 0.0355393 0.0352026
          0.0307073 0.0303278 0.024786 0.0243795 0.0170091 0.0166618 0.0137596 0.0140878 0.0205487 0.0209329 0.0261232 0.0264761
          0.0310806 0.0313816 0.0359602 0.0362022 0.043201 0.0433842 0.0463429 0.0464687 0.0477077 0.0477746 0.0474896 0.0474896
          0.0456035 0.0455227 0.0404357 0.0402624 0.0363433 0.0360975 0.0315765 0.0313154 0.0256538 0.0254057 0.017773 0.0175772
          0.0121152 0.0127579 0.018758 0.019491 0.0244849 0.025148 0.0296887 0.030251 0.0348306 0.0352868 0.0423173 0.0426759
          0.0456778 0.0459522 0.0472366 0.0474399 0.0472027 0.0473452 0.0455227 0.0456035 0.0406199 0.0406199 0.0368641 0.0367474
          0.0324039 0.0321184 0.0264387 0.026131 0.0182915 0.0181328 0.00838882 0.00999297 0.0150572 0.0166386 0.0212484 0.0225941
          0.0270142 0.0281136 0.0326968 0.0335661 0.0406559 0.0413284 0.0444089 0.0449205 0.046282 0.0466663 0.0464917 0.0467793
          0.0449977 0.0452168 0.0402624 0.0404357 0.0367474 0.0368641 0.0327063 0.0327063 0.0274962 0.0272822 0.0200574 0.0190073
          0 0.00926853 0.0135665 0.0170431 0.0212931 0.0237543 0.0283803 0.0301928 0.0374227 0.0387589 0.0420083 0.0429887
          0.0445139 0.045229 0.0451956 0.0457147 0.0440401 0.044418 0.0395201 0.0398047 0.0360975 0.0363433 0.0321184 0.0324039
          0.0272822 0.0274962 0.0206599 0.0206599 0.00640453 0.00619006 0 0 0.0124682 0.0177661 0.0226172 0.0303141
          0.0334022 0.0370816 0.039162 0.0410613 0.0424917 0.0427694 0.0437599 0.0423346 0.0430213 0.0383125 0.0387892 0.0352026
          0.0355393 0.0313154 0.0315765 0.026131 0.0264387 0.0190073 0.0200574 0.00619006 0.00640453 0.0186201 0.0245044 0.0303373
          0.0333594 0.0367232 0.0377756 0.0398879 0.0390295 0.0403979 0.0361117 0.0370071 0.033736 0.0343215 0.0303278 0.0307073
          0.0254057 0.0256538 0.0181328 0.0182915 0.0204289 0.0249327 0.0308979 0.0316696 0.0348817 0.0316204 0.0335162 0.0309476
          0.0320977 0.0286079 0.0293022 0.0243795 0.024786 0.0175772 0.017773 0.0194074 0.0202351 0.0254892 0.024819 0.0274842
          0.0251658 0.0266094 0.0224845 0.0232635 0.0166618 0.0170091 0.0148619 0.0165216 0.0205133 0.0184201 0.0201839 0.0148904
          0.0155899 0.0115875 0.0106042 0.0124947
        </DataArray>
        <DataArray type="Float32" Name="FlowWidth" NumberOfComponents="1" format="ascii">
          0.00999297 0.00838882 0.00926853 0.0001 0.0001 0.0127579 0.0121152 0.0166386 0.0150572 0.0170431 0.0135665 0.0124682
          0.0001 0.0140878 0.0137596 0.019491 0.018758 0.0225941 0.0212484 0.0237543 0.0212931 0.0226172 0.0177661 0.0186201
          0.0147987 0.0146206 0.0209329 0.0205487 0.025148 0.0244849 0.0281136 0.0270142 0.0301928 0.0283803 0.0334022 0.0303141
          0.0303373 0.0245044 0.0204289 0.0151849 0.0150895 0.0217083 0.0215003 0.0264761 0.0261232 0.030251 0.0296887 0.0335661
          0.0326968 0.0387589 0.0374227 0.039162 0.0370816 0.0367232 0.0333594 0.0308979 0.0249327 0.0194074 0.0153742 0.0153321
          0.0221155 0.0220104 0.0271872 0.0269998 0.0313816 0.0310806 0.0352868 0.0348306 0.0413284 0.0406559 0.0429887 0.0420083
          0.0424917 0.0410613 0.0398879 0.0377756 0.0348817 0.0316696 0.0254892 0.0202351 0.0148619 0.0154195 0.0154195 0.0222811
          0.0222488 0.0275337 0.0274509 0.0319725 0.0318206 0.0362022 0.0359602 0.0426759 0.0423173 0.0449205 0.0444089 0.045229
          0.0445139 0.0437599 0.0427694 0.0403979 0.0390295 0.0335162 0.0316204 0.0274842 0.024819 0.0205133 0.0165216 0.0115875
          0.0153321 0.0153742 0.0222488 0.0222811 0.0276149 0.0276149 0.0322137 0.0321667 0.0366505 0.0365427 0.0433842 0.043201
          0.0459522 0.0456778 0.0466663 0.046282 0.0457147 0.0451956 0.0430213 0.0423346 0.0370071 0.0361117 0.0320977 0.0309476
          0.0266094 0.0251658 0.0201839 0.0184201 0.0124947 0.0106042 0.0150895 0.0151849 0.0220104 0.0221155 0.0274509 0.0275337
          0.0321667 0.0322137 0.0367562 0.0367562 0.0436777 0.0436201 0.0464687 0.0463429 0.0474399 0.0472366 0.0467793 0.0464917
          0.044418 0.0440401 0.0387892 0.0383125 0.0343215 0.033736 0.0293022 0.0286079 0.0232635 0.0224845 0.0155899 0.0148904
          0.0146206 0.0147987 0.0215003 0.0217083 0.0269998 0.0271872 0.0318206 0.0319725 0.0365427 0.0366505 0.0436201 0.0436777
          0.0465932 0.0465932 0.0477746 0.0477077 0.0473452 0.0472027 0.0452168 0.0449977 0.0398047 0.0395201 0.0355393 0.0352026
          0.0307073 0.0303278 0.024786 0.0243795 0.0170091 0.0166618 0.0137596 0.0140878 0.0205487 0.0209329 0.0261232 0.0264761
          0.0310806 0.0313816 0.0359602 0.0362022 0.043201 0.0433842 0.0463429 0.0464687 0.0477077 0.0477746 0.0474896 0.0474896
          0.0456035 0.0455227 0.0404357 0.0402624 0.0363433 0.0360975 0.0315765 0.0313154 0.0256538 0.0254057 0.017773 0.0175772
          0.0121152 0.0127579 0.018758 0.019491 0.0244849 0.025148 0.0296887 0.030251 0.0348306 0.0352868 0.0423173 0.0426759
          0.0456778 0.0459522 0.0472366 0.0474399 0.0472027 0.0473452 0.0455227 0.0456035 0.0406199 0.0406199 0.0368641 0.0367474
          0.0324039 0.0321184 0.0264387 0.026131 0.0182915 0.0181328 0.00838882 0.00999297 0.0150572 0.0166386 0.0212484 0.0225941
          0.0270142 0.0281136 0.0326968 0.0335661 0.0406559 0.0413284 0.0444089 0.0449205 0.046282 0.0466663 0.0464917 0.0467793
          0.0449977 0.0452168 0.0402624 0.0404357 0.0367474 0.0368641 0.0327063 0.0327063 0.0274962 0.0272822 0.0200574 0.0190073
          0.0001 0.00926853 0.0135665 0.0170431 0.0212931 0.0237543 0.0283803 0.0301928 0.0374227 0.0387589 0.0420083 0.0429887
          0.0445139 0.045229 0.0451956 0.0457147 0.0440401 0.044418 0.0395201 0.0398047 0.0360975 0.0363433 0.0321184 0.0324039
          0.0272822 0.0274962 0.0206599 0.0206599 0.00640453 0.00619006 0.0001 0.0001 0.0124682 0.0177661 0.0226172 0.0303141
          0.0334022 0.0370816 0.039162 0.0410613 0.0424917 0.0427694 0.0437599 0.0423346 0.0430213 0.0383125 0.0387892 0.0352026
          0.0355393 0.0313154 0.0315765 0.026131 0.0264387 0.0190073 0.0200574 0.00619006 0.00640453 0.0186201 0.0245044 0.0303373
          0.0333594 0.0367232 0.0377756 0.0398879 0.0390295 0.0403979 0.0361117 0.0370071 0.033736 0.0343215 0.0303278 0.0307073
          0.0254057 0.0256538 0.0181328 0.0182915 0.0204289 0.0249327 0.0308979 0.0316696 0.0348817 0.0316204 0.0335162 0.0309476
          0.0320977 0.0286079 0.0293022 0.0243795 0.024786 0.0175772 0.017773 0.0194074 0.0202351 0.0254892 0.024819 0.0274842
          0.0251658 0.0266094 0.0224845 0.0232635 0.0166618 0.0170091 0.0148619 0.0165216 0.0205133 0.0184201 0.0201839 0.0148904
          0.0155899 0.0115875 0.0106042 0.0124947
        </DataArray>
        <DataArray type="Float32" Name="stressIntensityK1" NumberOfComponents="1" format="ascii">
          2.53479e+07 2.12788e+07 nan 0 0 3.23613e+07 3.0731e+07 nan nan nan nan nan
          0 3.57347e+07 3.49023e+07 nan nan nan nan nan nan nan nan 4.72312e+07
          3.7538e+07 3.70862e+07 nan nan nan nan nan nan nan nan nan nan
          nan nan 5.18193e+07 3.85175e+07 3.82755e+07 nan nan nan nan nan nan nan
          nan nan nan nan nan nan nan nan nan 4.92282e+07 3.89978e+07 3.88909e+07
          nan nan nan nan nan nan nan nan nan nan nan nan
          nan nan nan nan nan nan nan nan 3.76982e+07 3.91127e+07 3.91127e+07 nan
          nan nan nan nan nan nan nan nan nan nan nan nan
          nan nan nan nan nan nan nan nan nan nan nan 2.93924e+07
          3.88909e+07 3.89978e+07 nan nan nan nan nan nan nan nan nan nan
          nan nan nan nan nan nan nan nan nan nan nan nan
          nan nan nan nan 3.16936e+07 2.68984e+07 3.82755e+07 3.85175e+07 nan nan nan nan
          nan nan nan nan nan nan nan nan nan nan nan nan
          nan nan nan nan nan nan nan nan nan nan 3.95449e+07 3.77705e+07
          3.70862e+07 3.7538e+07 nan nan nan nan nan nan nan nan nan nan
          nan nan nan nan nan nan nan nan nan nan nan nan
          nan nan nan nan 4.31447e+07 4.22639e+07 3.49023e+07 3.57347e+07 nan nan nan nan
          nan nan nan nan nan nan nan nan nan nan nan nan
          nan nan nan nan nan nan nan nan nan nan 4.50824e+07 4.45858e+07
          3.0731e+07 3.23613e+07 nan nan nan nan nan nan nan nan nan nan
          nan nan nan nan nan nan nan nan nan nan nan nan
          nan nan nan nan 4.63977e+07 4.5995e+07 2.12788e+07 2.53479e+07 nan nan nan nan
          nan nan nan nan nan nan nan nan nan nan nan nan
          nan nan nan nan nan nan nan nan nan nan nan 4.82132e+07
          0 nan nan nan nan nan nan nan nan nan nan nan
          nan nan nan nan nan nan nan nan nan nan nan nan
          nan nan nan nan 1.62455e+07 1.57015e+07 0 0 nan nan nan nan
          nan nan nan nan nan nan nan nan nan nan nan nan
          nan nan nan nan nan 4.82132e+07 nan 1.57015e+07 1.62455e+07 4.72312e+07 nan nan
          nan nan nan nan nan nan nan nan nan nan nan nan
          nan nan 4.5995e+07 4.63977e+07 5.18193e+07 nan nan nan nan nan nan nan
          nan nan nan nan nan 4.45858e+07 4.50824e+07 4.92282e+07 nan nan nan nan
          nan nan nan nan 4.22639e+07 4.31447e+07 3.76982e+07 nan nan nan nan 3.77705e+07
          3.95449e+07 2.93924e+07 2.68984e+07 3.16936e+07
        </DataArray>
      </CellData>
      <Points>
        <DataArray type="Float32" Name="Coordinates" NumberOfComponents="3" format="ascii">
          919.29 995.5 2238 912.362 995.5 2242 912.362 995.5 2234 905.433 995.5 2238
          905.433 995.5 2230 898.505 995.5 2234 898.505 995.5 2226 933.146 995.5 2238
          926.218 995.5 2242 926.218 995.5 2234 919.29 995.5 2230 912.362 995.5 2226
          905.433 995.5 2222 947.003 995.5 2238 940.074 995.5 2242 940.074 995.5 2234
          933.146 995.5 2230 926.218 995.5 2226 919.29 995.5 2222 912.362 995.5 2218
          905.433 995.5 2214 960.859 995.5 2238 953.931 995.5 2242 953.931 995.5 2234
          947.003 995.5 2230 940.074 995.5 2226 933.146 995.5 2222 926.218 995.5 2218
          919.29 995.5 2214 912.362 995.5 2210 905.433 995.5 2206 974.715 995.5 2238
          967.787 995.5 2242 967.787 995.5 2234 960.859 995.5 2230 953.931 995.5 2226
          947.003 995.5 2222 940.074 995.5 2218 933.146 995.5 2214 926.218 995.5 2210
          919.29 995.5 2206 912.362 995.5 2202 905.433 995.5 2198 988.572 995.5 2238
          981.644 995.5 2242 981.644 995.5 2234 974.715 995.5 2230 967.787 995.5 2226
          960.859 995.5 2222 953.931 995.5 2218 947.003 995.5 2214 940.074 995.5 2210
          933.146 995.5 2206 926.218 995.5 2202 919.29 995.5 2198 912.362 995.5 2194
          905.433 995.5 2190 1002.43 995.5 2238 995.5 995.5 2242 995.5 995.5 2234
          988.572 995.5 2230 981.644 995.5 2226 974.715 995.5 2222 967.787 995.5 2218
          960.859 995.5 2214 953.931 995.5 2210 947.003 995.5 2206 940.074 995.5 2202
          933.146 995.5 2198 926.218 995.5 2194 919.29 995.5 2190 912.362 995.5 2186
          905.433 995.5 2182 1016.28 995.5 2238 1009.36 995.5 2242 1009.36 995.5 2234
          1002.43 995.5 2230 995.5 995.5 2226 988.572 995.5 2222 981.644 995.5 2218
          974.715 995.5 2214 967.787 995.5 2210 960.859 995.5 2206 953.931 995.5 2202
          947.003 995.5 2198 940.074 995.5 2194 933.146 995.5 2190 926.218 995.5 2186
          919.29 995.5 2182 912.362 995.5 2178 1030.14 995.5 2238 1023.21 995.5 2242
          1023.21 995.5 2234 1016.28 995.5 2230 1009.36 995.5 2226 1002.43 995.5 2222
          995.5 995.5 2218 988.572 995.5 2214 981.644 995.5 2210 974.715 995.5 2206
          967.787 995.5 2202 960.859 995.5 2198 953.931 995.5 2194 947.003 995.5 2190
          940.074 995.5 2186 933.146 995.5 2182 926.218 995.5 2178 1044 995.5 2238
          1037.07 995.5 2242 1037.07 995.5 2234 1030.14 995.5 2230 1023.21 995.5 2226
          1016.28 995.5 2222 1009.36 995.5 2218 1002.43 995.5 2214 995.5 995.5 2210
          988.572 995.5 2206 981.644 995.5 2202 974.715 995.5 2198 967.787 995.5 2194
          960.859 995.5 2190 953.931 995.5 2186 947.003 995.5 2182 940.074 995.5 2178
          1057.85 995.5 2238 1050.93 995.5 2242 1050.93 995.5 2234 1044 995.5 2230
          1037.07 995.5 2226 1030.14 995.5 2222 1023.21 995.5 2218 1016.28 995.5 2214
          1009.36 995.5 2210 1002.43 995.5 2206 995.5 995.5 2202 988.572 995.5 2198
          981.644 995.5 2194 974.715 995.5 2190 967.787 995.5 2186 960.859 995.5 2182
          953.931 995.5 2178 1071.71 995.5 2238 1064.78 995.5 2242 1064.78 995.5 2234
          1057.85 995.5 2230 1050.93 995.5 2226 1044 995.5 2222 1037.07 995.5 2218
          1030.14 995.5 2214 1023.21 995.5 2210 1016.28 995.5 2206 1009.36 995.5 2202
          1002.43 995.5 2198 995.5 995.5 2194 988.572 995.5 2190 981.644 995.5 2186
          974.715 995.5 2182 967.787 995.5 2178 1085.57 995.5 2238 1078.64 995.5 2242
          1078.64 995.5 2234 1071.71 995.5 2230 1064.78 995.5 2226 1057.85 995.5 2222
          1050.93 995.5 2218 1044 995.5 2214 1037.07 995.5 2210 1030.14 995.5 2206
          1023.21 995.5 2202 1016.28 995.5 2198 1009.36 995.5 2194 1002.43 995.5 2190
          995.5 995.5 2186 988.572 995.5 2182 981.644 995.5 2178 1092.49 995.5 2234
          1085.57 995.5 2230 1078.64 995.5 2226 1071.71 995.5 2222 1064.78 995.5 2218
          1057.85 995.5 2214 1050.93 995.5 2210 1044 995.5 2206 1037.07 995.5 2202
          1030.14 995.5 2198 1023.21 995.5 2194 1016.28 995.5 2190 1009.36 995.5 2186
          1002.43 995.5 2182 995.5 995.5 2178 988.572 995.5 2174 1092.49 995.5 2226
          1085.57 995.5 2222 1078.64 995.5 2218 1071.71 995.5 2214 1064.78 995.5 2210
          1057.85 995.5 2206 1050.93 995.5 2202 1044 995.5 2198 1037.07 995.5 2194
          1030.14 995.5 2190 1023.21 995.5 2186 1016.28 995.5 2182 1009.36 995.5 2178
          1002.43 995.5 2174 1085.57 995.5 2214 1078.64 995.5 2210 1071.71 995.5 2206
          1064.78 995.5 2202 1057.85 995.5 2198 1050.93 995.5 2194 1044 995.5 2190
          1037.07 995.5 2186 1030.14 995.5 2182 1023.21 995.5 2178 1085.57 995.5 2206
          1078.64 995.5 2202 1071.71 995.5 2198 1064.78 995.5 2194 1057.85 995.5 2190
          1050.93 995.5 2186 1044 995.5 2182 1037.07 995.5 2178 1085.57 995.5 2198
          1078.64 995.5 2194 1071.71 995.5 2190 1064.78 995.5 2186 1057.85 995.5 2182
          1050.93 995.5 2178 1085.57 995.5 2190 1078.64 995.5 2186 1071.71 995.5 2182
          1064.78 995.5 2178 1085.57 995.5 2182 1078.64 995.5 2178
        </DataArray>
      </Points>
      <Cells>
        <DataArray type="Int32" Name="connectivity" NumberOfComponents="1" format="ascii">
          0 1 2 1 2 3 2 3 4 3 4 5
          4 5 6 7 8 9 8 9 0 9 0 10
          0 10 2 10 2 11 2 11 4 11 4 12
          4 12 6 13 14 15 14 15 7 15 7 16
          7 16 9 16 9 17 9 17 10 17 10 18
          10 18 11 18 11 19 11 19 12 19 12 20
          21 22 23 22 23 13 23 13 24 13 24 15
          24 15 25 15 25 16 25 16 26 16 26 17
          26 17 27 17 27 18 27 18 28 18 28 19
          28 19 29 19 29 20 29 20 30 31 32 33
          32 33 21 33 21 34 21 34 23 34 23 35
          23 35 24 35 24 36 24 36 25 36 25 37
          25 37 26 37 26 38 26 38 27 38 27 39
          27 39 28 39 28 40 28 40 29 40 29 41
          29 41 30 41 30 42 43 44 45 44 45 31
          45 31 46 31 46 33 46 33 47 33 47 34
          47 34 48 34 48 35 48 35 49 35 49 36
          49 36 50 36 50 37 50 37 51 37 51 38
          51 38 52 38 52 39 52 39 53 39 53 40
          53 40 54 40 54 41 54 41 55 41 55 42
          55 42 56 57 58 59 58 59 43 59 43 60
          43 60 45 60 45 61 45 61 46 61 46 62
          46 62 47 62 47 63 47 63 48 63 48 64
          48 64 49 64 49 65 49 65 50 65 50 66
          50 66 51 66 51 67 51 67 52 67 52 68
          52 68 53 68 53 69 53 69 54 69 54 70
          54 70 55 70 55 71 55 71 56 71 56 72
          73 74 75 74 75 57 75 57 76 57 76 59
          76 59 77 59 77 60 77 60 78 60 78 61
          78 61 79 61 79 62 79 62 80 62 80 63
          80 63 81 63 81 64 81 64 82 64 82 65
          82 65 83 65 83 66 83 66 84 66 84 67
          84 67 85 67 85 68 85 68 86 68 86 69
          86 69 87 69 87 70 87 70 88 70 88 71
          88 71 89 71 89 72 90 91 92 91 92 73
          92 73 93 73 93 75 93 75 94 75 94 76
          94 76 95 76 95 77 95 77 96 77 96 78
          96 78 97 78 97 79 97 79 98 79 98 80
          98 80 99 80 99 81 99 81 100 81 100 82
          100 82 101 82 101 83 101 83 102 83 102 84
          102 84 103 84 103 85 103 85 104 85 104 86
          104 86 105 86 105 87 105 87 106 87 106 88
          107 108 109 108 109 90 109 90 110 90 110 92
          110 92 111 92 111 93 111 93 112 93 112 94
          112 94 113 94 113 95 113 95 114 95 114 96
          114 96 115 96 115 97 115 97 116 97 116 98
          116 98 117 98 117 99 117 99 118 99 118 100
          118 100 119 100 119 101 119 101 120 101 120 102
          120 102 121 102 121 103 121 103 122 103 122 104
          122 104 123 104 123 105 124 125 126 125 126 107
          126 107 127 107 127 109 127 109 128 109 128 110
          128 110 129 110 129 111 129 111 130 111 130 112
          130 112 131 112 131 113 131 113 132 113 132 114
          132 114 133 114 133 115 133 115 134 115 134 116
          134 116 135 116 135 117 135 117 136 117 136 118
          136 118 137 118 137 119 137 119 138 119 138 120
          138 120 139 120 139 121 139 121 140 121 140 122
          141 142 143 142 143 124 143 124 144 124 144 126
          144 126 145 126 145 127 145 127 146 127 146 128
          146 128 147 128 147 129 147 129 148 129 148 130
          148 130 149 130 149 131 149 131 150 131 150 132
          150 132 151 132 151 133 151 133 152 133 152 134
          152 134 153 134 153 135 153 135 154 135 154 136
          154 136 155 136 155 137 155 137 156 137 156 138
          156 138 157 138 157 139 158 159 160 159 160 141
          160 141 161 141 161 143 161 143 162 143 162 144
          162 144 163 144 163 145 163 145 164 145 164 146
          164 146 165 146 165 147 165 147 166 147 166 148
          166 148 167 148 167 149 167 149 168 149 168 150
          168 150 169 150 169 151 169 151 170 151 170 152
          170 152 171 152 171 153 171 153 172 153 172 154
          172 154 173 154 173 155 173 155 174 155 174 156
          175 158 176 158 176 160 176 160 177 160 177 161
          177 161 178 161 178 162 178 162 179 162 179 163
          179 163 180 163 180 164 180 164 181 164 181 165
          181 165 182 165 182 166 182 166 183 166 183 167
          183 167 184 167 184 168 184 168 185 168 185 169
          185 169 186 169 186 170 186 170 187 170 187 171
          187 171 188 171 188 172 188 172 189 172 189 173
          189 173 190 173 190 174 175 191 176 191 176 192
          176 192 177 192 177 193 177 193 178 193 178 194
          178 194 179 194 179 195 179 195 180 195 180 196
          180 196 181 196 181 197 181 197 182 197 182 198
          182 198 183 198 183 199 183 199 184 199 184 200
          184 200 185 200 185 201 185 201 186 201 186 202
          186 202 187 202 187 203 187 203 188 203 188 204
          188 204 189 192 205 193 205 193 206 193 206 194
          206 194 207 194 207 195 207 195 208 195 208 196
          208 196 209 196 209 197 209 197 210 197 210 198
          210 198 211 198 211 199 211 199 212 199 212 200
          212 200 213 200 213 201 213 201 214 201 214 202
          205 215 206 215 206 216 206 216 207 216 207 217
          207 217 208 217 208 218 208 218 209 218 209 219
          209 219 210 219 210 220 210 220 211 220 211 221
          211 221 212 221 212 222 212 222 213 215 223 216
          223 216 224 216 224 217 224 217 225 217 225 218
          225 218 226 218 226 219 226 219 227 219 227 220
          227 220 228 220 228 221 223 229 224 229 224 230
          224 230 225 230 225 231 225 231 226 231 226 232
          226 232 227 229 233 230 233 230 234 230 234 231
        </DataArray>
        <DataArray type="Int32" Name="offsets" NumberOfComponents="1" format="ascii">
          3 6 9 12 15 18 21 24 27 30 33 36
          39 42 45 48 51 54 57 60 63 66 69 72
          75 78 81 84 87 90 93 96 99 102 105 108
          111 114 117 120 123 126 129 132 135 138 141 144
          147 150 153 156 159 162 165 168 171 174 177 180
          183 186 189 192 195 198 201 204 207 210 213 216
          219 222 225 228 231 234 237 240 243 246 249 252
          255 258 261 264 267 270 273 276 279 282 285 288
          291 294 297 300 303 306 309 312 315 318 321 324
          327 330 333 336 339 342 345 348 351 354 357 360
          363 366 369 372 375 378 381 384 387 390 393 396
          399 402 405 408 411 414 417 420 423 426 429 432
          435 438 441 444 447 450 453 456 459 462 465 468
          471 474 477 480 483 486 489 492 495 498 501 504
          507 510 513 516 519 522 525 528 531 534 537 540
          543 546 549 552 555 558 561 564 567 570 573 576
          579 582 585 588 591 594 597 600 603 606 609 612
          615 618 621 624 627 630 633 636 639 642 645 648
          651 654 657 660 663 666 669 672 675 678 681 684
          687 690 693 696 699 702 705 708 711 714 717 720
          723 726 729 732 735 738 741 744 747 750 753 756
          759 762 765 768 771 774 777 780 783 786 789 792
          795 798 801 804 807 810 813 816 819 822 825 828
          831 834 837 840 843 846 849 852 855 858 861 864
          867 870 873 876 879 882 885 888 891 894 897 900
          903 906 909 912 915 918 921 924 927 930 933 936
          939 942 945 948 951 954 957 960 963 966 969 972
          975 978 981 984 987 990 993 996 999 1002 1005 1008
          1011 1014 1017 1020 1023 1026 1029 1032 1035 1038 1041 1044
          1047 1050 1053 1056 1059 1062 1065 1068 1071 1074 1077 1080
          1083 1086 1089 1092 1095 1098 1101 1104 1107 1110 1113 1116
          1119 1122 1125 1128 1131 1134 1137 1140 1143 1146 1149 1152
          1155 1158 1161 1164 1167 1170 1173 1176 1179 1182 1185 1188
          1191 1194 1197 1200
        </DataArray>
        <DataArray type="UInt8" Name="types" NumberOfComponents="1" format="ascii">
          5 5 5 5 5 5 5 5 5 5 5 5
          5 5 5 5 5 5 5 5 5 5 5 5
          5 5 5 5 5 5 5 5 5 5 5 5
          5 5 5 5 5 5 5 5 5 5 5 5
          5 5 5 5 5 5 5 5 5 5 5 5
          5 5 5 5 5 5 5 5 5 5 5 5
          5 5 5 5 5 5 5 5 5 5 5 5
          5 5 5 5 5 5 5 5 5 5 5 5
          5 5 5 5 5 5 5 5 5 5 5 5
          5 5 5 5 5 5 5 5 5 5 5 5
          5 5 5 5 5 5 5 5 5 5 5 5
          5 5 5 5 5 5 5 5 5 5 5 5
          5 5 5 5 5 5 5 5 5 5 5 5
          5 5 5 5 5 5 5 5 5 5 5 5
          5 5 5 5 5 5 5 5 5 5 5 5
          5 5 5 5 5 5 5 5 5 5 5 5
          5 5 5 5 5 5 5 5 5 5 5 5
          5 5 5 5 5 5 5 5 5 5 5 5
          5 5 5 5 5 5 5 5 5 5 5 5
          5 5 5 5 5 5 5 5 5 5 5 5
          5 5 5 5 5 5 5 5 5 5 5 5
          5 5 5 5 5 5 5 5 5 5 5 5
          5 5 5 5 5 5 5 5 5 5 5 5
          5 5 5 5 5 5 5 5 5 5 5 5
          5 5 5 5 5 5 5 5 5 5 5 5
          5 5 5 5 5 5 5 5 5 5 5 5
          5 5 5 5 5 5 5 5 5 5 5 5
          5 5 5 5 5 5 5 5 5 5 5 5
          5 5 5 5 5 5 5 5 5 5 5 5
          5 5 5 5 5 5 5 5 5 5 5 5
          5 5 5 5 5 5 5 5 5 5 5 5
          5 5 5 5 5 5 5 5 5 5 5 5
          5 5 5 5 5 5 5 5 5 5 5 5
          5 5 5 5
        </DataArray>
      </Cells>
    </Piece>
  </UnstructuredGrid>
</VTKFile>
