<?xml version="1.0"?>
<VTKFile type="UnstructuredGrid" version="0.1" byte_order="LittleEndian">
  <UnstructuredGrid>
    <Piece NumberOfCells="448" NumberOfPoints="261">
      <CellData Scalars="ReservoirCell">
        <DataArray type="Float32" Name="ReservoirCell" NumberOfComponents="1" format="ascii">
          2117 2117 2117 1996 1996 1996 1995 1995 2117 2117 1996 1996
          1996 1996 1996 1996 1996 1995 2117 2117 1996 1996 1996 1996
          1996 1996 1996 1996 1996 1996 1875 2117 2117 1996 1996 1996
          1996 1996 1996 1996 1996 1996 1996 1875 1875 1875 1875 1875
          2117 2117 1996 1996 1996 1996 1996 1996 1996 1996 1996 1996
          1875 1875 1875 1875 1875 1875 1875 1875 1875 2117 2117 1996
          1996 1996 1996 1996 1996 1996 1996 1996 1996 1875 1875 1875
          1875 1875 1875 1875 1875 1875 1875 1754 1754 1754 2117 2117
          1996 1996 1996 1996 1996 1996 1996 1996 1996 1996 1875 1875
          1875 1875 1875 1875 1875 1875 1875 1875 1754 1754 1754 1754
          1754 1754 1754 2117 2117 1996 1996 1996 1996 1996 1996 1996
          1996 1996 1996 1875 1875 1875 1875 1875 1875 1875 1875 1875
          1875 1754 1754 1754 1754 1754 1754 1754 1754 1754 1754 1633
          2117 2117 1996 1996 1996 1996 1996 1996 1996 1996 1996 1996
          1875 1875 1875 1875 1875 1875 1875 1875 1875 1875 1754 1754
          1754 1754 1754 1754 1754 1754 1754 1754 1633 1633 2117 2117
          1996 1996 1996 1996 1996 1996 1996 1996 1996 1996 1875 1875
          1875 1875 1875 1875 1875 1875 1875 1875 1754 1754 1754 1754
          1754 1754 1754 1754 1754 1754 1633 1633 2117 2117 1996 1996
          1996 1996 1996 1996 1996 1996 1996 1996 1875 1875 1875 1875
          1875 1875 1875 1875 1875 1875 1754 1754 1754 1754 1754 1754
          1754 1754 1754 1754 1633 1633 2117 2117 1996 1996 1996 1996
          1996 1996 1996 1996 1996 1996 1875 1875 1875 1875 1875 1875
          1875 1875 1875 1875 1754 1754 1754 1754 1754 1754 1754 1754
          1754 1754 1633 1633 2117 1996 1996 1996 1996 1996 1996 1996
          1996 1996 1996 1875 1875 1875 1875 1875 1875 1875 1875 1875
          1875 1754 1754 1754 1754 1754 1754 1754 1754 1754 1754 1633
          1633 1997 1996 1996 1996 1996 1996 1996 1996 1875 1875 1875
          1875 1875 1875 1875 1875 1875 1875 1754 1754 1754 1754 1754
          1754 1754 1754 1754 1754 1633 1633 1997 1997 1996 1996 1996
          1875 1875 1875 1875 1875 1875 1875 1875 1875 1875 1754 1754
          1754 1754 1754 1754 1754 1754 1754 1754 1633 1633 1875 1875
          1875 1875 1875 1875 1875 1875 1875 1754 1754 1754 1754 1754
          1754 1754 1754 1754 1754 1633 1633 1875 1875 1875 1875 1875
          1754 1754 1754 1754 1754 1754 1754 1754 1754 1754 1633 1633
          1875 1754 1754 1754 1754 1754 1754 1754 1754 1754 1754 1633
          1633 1754 1754 1754 1754 1754 1754 1754 1633 1633 1754 1754
          1754 1633 1633 1633
        </DataArray>
        <DataArray type="Float32" Name="ReservoirPerm" NumberOfComponents="1" format="ascii">
          9.86923e-13 9.86923e-13 9.86923e-13 9.86923e-13 9.86923e-13 9.86923e-13 9.86923e-13 9.86923e-13 9.86923e-13 9.86923e-13 9.86923e-13 9.86923e-13
          9.86923e-13 9.86923e-13 9.86923e-13 9.86923e-13 9.86923e-13 9.86923e-13 9.86923e-13 9.86923e-13 9.86923e-13 9.86923e-13 9.86923e-13 9.86923e-13
          9.86923e-13 9.86923e-13 9.86923e-13 9.86923e-13 9.86923e-13 9.86923e-13 9.86923e-13 9.86923e-13 9.86923e-13 9.86923e-13 9.86923e-13 9.86923e-13
          9.86923e-13 9.86923e-13 9.86923e-13 9.86923e-13 9.86923e-13 9.86923e-13 9.86923e-13 9.86923e-13 9.86923e-13 9.86923e-13 9.86923e-13 9.86923e-13
          9.86923e-13 9.86923e-13 9.86923e-13 9.86923e-13 9.86923e-13 9.86923e-13 9.86923e-13 9.86923e-13 9.86923e-13 9.86923e-13 9.86923e-13 9.86923e-13
          9.86923e-13 9.86923e-13 9.86923e-13 9.86923e-13 9.86923e-13 9.86923e-13 9.86923e-13 9.86923e-13 9.86923e-13 9.86923e-13 9.86923e-13 9.86923e-13
          9.86923e-13 9.86923e-13 9.86923e-13 9.86923e-13 9.86923e-13 9.86923e-13 9.86923e-13 9.86923e-13 9.86923e-13 9.86923e-13 9.86923e-13 9.86923e-13
          9.86923e-13 9.86923e-13 9.86923e-13 9.86923e-13 9.86923e-13 9.86923e-13 9.86923e-13 9.86923e-13 9.86923e-13 9.86923e-13 9.86923e-13 9.86923e-13
          9.86923e-13 9.86923e-13 9.86923e-13 9.86923e-13 9.86923e-13 9.86923e-13 9.86923e-13 9.86923e-13 9.86923e-13 9.86923e-13 9.86923e-13 9.86923e-13
          9.86923e-13 9.86923e-13 9.86923e-13 9.86923e-13 9.86923e-13 9.86923e-13 9.86923e-13 9.86923e-13 9.86923e-13 9.86923e-13 9.86923e-13 9.86923e-13
          9.86923e-13 9.86923e-13 9.86923e-13 9.86923e-13 9.86923e-13 9.86923e-13 9.86923e-13 9.86923e-13 9.86923e-13 9.86923e-13 9.86923e-13 9.86923e-13
          9.86923e-13 9.86923e-13 9.86923e-13 9.86923e-13 9.86923e-13 9.86923e-13 9.86923e-13 9.86923e-13 9.86923e-13 9.86923e-13 9.86923e-13 9.86923e-13
          9.86923e-13 9.86923e-13 9.86923e-13 9.86923e-13 9.86923e-13 9.86923e-13 9.86923e-13 9.86923e-13 9.86923e-13 9.86923e-13 9.86923e-13 9.86923e-13
          9.86923e-13 9.86923e-13 9.86923e-13 9.86923e-13 9.86923e-13 9.86923e-13 9.86923e-13 9.86923e-13 9.86923e-13 9.86923e-13 9.86923e-13 9.86923e-13
          9.86923e-13 9.86923e-13 9.86923e-13 9.86923e-13 9.86923e-13 9.86923e-13 9.86923e-13 9.86923e-13 9.86923e-13 9.86923e-13 9.86923e-13 9.86923e-13
          9.86923e-13 9.86923e-13 9.86923e-13 9.86923e-13 9.86923e-13 9.86923e-13 9.86923e-13 9.86923e-13 9.86923e-13 9.86923e-13 9.86923e-13 9.86923e-13
          9.86923e-13 9.86923e-13 9.86923e-13 9.86923e-13 9.86923e-13 9.86923e-13 9.86923e-13 9.86923e-13 9.86923e-13 9.86923e-13 9.86923e-13 9.86923e-13
          9.86923e-13 9.86923e-13 9.86923e-13 9.86923e-13 9.86923e-13 9.86923e-13 9.86923e-13 9.86923e-13 9.86923e-13 9.86923e-13 9.86923e-13 9.86923e-13
          9.86923e-13 9.86923e-13 9.86923e-13 9.86923e-13 9.86923e-13 9.86923e-13 9.86923e-13 9.86923e-13 9.86923e-13 9.86923e-13 9.86923e-13 9.86923e-13
          9.86923e-13 9.86923e-13 9.86923e-13 9.86923e-13 9.86923e-13 9.86923e-13 9.86923e-13 9.86923e-13 9.86923e-13 9.86923e-13 9.86923e-13 9.86923e-13
          9.86923e-13 9.86923e-13 9.86923e-13 9.86923e-13 9.86923e-13 9.86923e-13 9.86923e-13 9.86923e-13 9.86923e-13 9.86923e-13 9.86923e-13 9.86923e-13
          9.86923e-13 9.86923e-13 9.86923e-13 9.86923e-13 9.86923e-13 9.86923e-13 9.86923e-13 9.86923e-13 9.86923e-13 9.86923e-13 9.86923e-13 9.86923e-13
          9.86923e-13 9.86923e-13 9.86923e-13 9.86923e-13 9.86923e-13 9.86923e-13 9.86923e-13 9.86923e-13 9.86923e-13 9.86923e-13 9.86923e-13 9.86923e-13
          9.86923e-13 9.86923e-13 9.86923e-13 9.86923e-13 9.86923e-13 9.86923e-13 9.86923e-13 9.86923e-13 9.86923e-13 9.86923e-13 9.86923e-13 9.86923e-13
          9.86923e-13 9.86923e-13 9.86923e-13 9.86923e-13 9.86923e-13 9.86923e-13 9.86923e-13 9.86923e-13 9.86923e-13 9.86923e-13 9.86923e-13 9.86923e-13
          9.86923e-13 9.86923e-13 9.86923e-13 9.86923e-13 9.86923e-13 9.86923e-13 9.86923e-13 9.86923e-13 9.86923e-13 9.86923e-13 9.86923e-13 9.86923e-13
          9.86923e-13 9.86923e-13 9.86923e-13 9.86923e-13 9.86923e-13 9.86923e-13 9.86923e-13 9.86923e-13 9.86923e-13 9.86923e-13 9.86923e-13 9.86923e-13
          9.86923e-13 9.86923e-13 9.86923e-13 9.86923e-13 9.86923e-13 9.86923e-13 9.86923e-13 9.86923e-13 9.86923e-13 9.86923e-13 9.86923e-13 9.86923e-13
          9.86923e-13 9.86923e-13 9.86923e-13 9.86923e-13 9.86923e-13 9.86923e-13 9.86923e-13 9.86923e-13 9.86923e-13 9.86923e-13 9.86923e-13 9.86923e-13
          9.86923e-13 9.86923e-13 9.86923e-13 9.86923e-13 9.86923e-13 9.86923e-13 9.86923e-13 9.86923e-13 9.86923e-13 9.86923e-13 9.86923e-13 9.86923e-13
          9.86923e-13 9.86923e-13 9.86923e-13 9.86923e-13 9.86923e-13 9.86923e-13 9.86923e-13 9.86923e-13 9.86923e-13 9.86923e-13 9.86923e-13 9.86923e-13
          9.86923e-13 9.86923e-13 9.86923e-13 9.86923e-13 9.86923e-13 9.86923e-13 9.86923e-13 9.86923e-13 9.86923e-13 9.86923e-13 9.86923e-13 9.86923e-13
          9.86923e-13 9.86923e-13 9.86923e-13 9.86923e-13 9.86923e-13 9.86923e-13 9.86923e-13 9.86923e-13 9.86923e-13 9.86923e-13 9.86923e-13 9.86923e-13
          9.86923e-13 9.86923e-13 9.86923e-13 9.86923e-13 9.86923e-13 9.86923e-13 9.86923e-13 9.86923e-13 9.86923e-13 9.86923e-13 9.86923e-13 9.86923e-13
          9.86923e-13 9.86923e-13 9.86923e-13 9.86923e-13 9.86923e-13 9.86923e-13 9.86923e-13 9.86923e-13 9.86923e-13 9.86923e-13 9.86923e-13 9.86923e-13
          9.86923e-13 9.86923e-13 9.86923e-13 9.86923e-13 9.86923e-13 9.86923e-13 9.86923e-13 9.86923e-13 9.86923e-13 9.86923e-13 9.86923e-13 9.86923e-13
          9.86923e-13 9.86923e-13 9.86923e-13 9.86923e-13 9.86923e-13 9.86923e-13 9.86923e-13 9.86923e-13 9.86923e-13 9.86923e-13 9.86923e-13 9.86923e-13
          9.86923e-13 9.86923e-13 9.86923e-13 9.86923e-13
        </DataArray>
        <DataArray type="Float32" Name="ReservoirDist" NumberOfComponents="1" format="ascii">
          45.25 45.25 45.25 45.25 45.25 45.25 45.25 45.25 45.25 45.25 45.25 45.25
          45.25 45.25 45.25 45.25 45.25 45.25 45.25 45.25 45.25 45.25 45.25 45.25
          45.25 45.25 45.25 45.25 45.25 45.25 45.25 45.25 45.25 45.25 45.25 45.25
          45.25 45.25 45.25 45.25 45.25 45.25 45.25 45.25 45.25 45.25 45.25 45.25
          45.25 45.25 45.25 45.25 45.25 45.25 45.25 45.25 45.25 45.25 45.25 45.25
          45.25 45.25 45.25 45.25 45.25 45.25 45.25 45.25 45.25 45.25 45.25 45.25
          45.25 45.25 45.25 45.25 45.25 45.25 45.25 45.25 45.25 45.25 45.25 45.25
          45.25 45.25 45.25 45.25 45.25 45.25 45.25 45.25 45.25 45.25 45.25 45.25
          45.25 45.25 45.25 45.25 45.25 45.25 45.25 45.25 45.25 45.25 45.25 45.25
          45.25 45.25 45.25 45.25 45.25 45.25 45.25 45.25 45.25 45.25 45.25 45.25
          45.25 45.25 45.25 45.25 45.25 45.25 45.25 45.25 45.25 45.25 45.25 45.25
          45.25 45.25 45.25 45.25 45.25 45.25 45.25 45.25 45.25 45.25 45.25 45.25
          45.25 45.25 45.25 45.25 45.25 45.25 45.25 45.25 45.25 45.25 45.25 45.25
          45.25 45.25 45.25 45.25 45.25 45.25 45.25 45.25 45.25 45.25 45.25 45.25
          45.25 45.25 45.25 45.25 45.25 45.25 45.25 45.25 45.25 45.25 45.25 45.25
          45.25 45.25 45.25 45.25 45.25 45.25 45.25 45.25 45.25 45.25 45.25 45.25
          45.25 45.25 45.25 45.25 45.25 45.25 45.25 45.25 45.25 45.25 45.25 45.25
          45.25 45.25 45.25 45.25 45.25 45.25 45.25 45.25 45.25 45.25 45.25 45.25
          45.25 45.25 45.25 45.25 45.25 45.25 45.25 45.25 45.25 45.25 45.25 45.25
          45.25 45.25 45.25 45.25 45.25 45.25 45.25 45.25 45.25 45.25 45.25 45.25
          45.25 45.25 45.25 45.25 45.25 45.25 45.25 45.25 45.25 45.25 45.25 45.25
          45.25 45.25 45.25 45.25 45.25 45.25 45.25 45.25 45.25 45.25 45.25 45.25
          45.25 45.25 45.25 45.25 45.25 45.25 45.25 45.25 45.25 45.25 45.25 45.25
          45.25 45.25 45.25 45.25 45.25 45.25 45.25 45.25 45.25 45.25 45.25 45.25
          45.25 45.25 45.25 45.25 45.25 45.25 45.25 45.25 45.25 45.25 45.25 45.25
          45.25 45.25 45.25 45.25 45.25 45.25 45.25 45.25 45.25 45.25 45.25 45.25
          45.25 45.25 45.25 45.25 45.25 45.25 45.25 45.25 45.25 45.25 45.25 45.25
          45.25 45.25 45.25 45.25 45.25 45.25 45.25 45.25 45.25 45.25 45.25 45.25
          45.25 45.25 45.25 45.25 45.25 45.25 45.25 45.25 45.25 45.25 45.25 45.25
          45.25 45.25 45.25 45.25 45.25 45.25 45.25 45.25 45.25 45.25 45.25 45.25
          45.25 45.25 45.25 45.25 45.25 45.25 45.25 45.25 45.25 45.25 45.25 45.25
          45.25 45.25 45.25 45.25 45.25 45.25 45.25 45.25 45.25 45.25 45.25 45.25
          45.25 45.25 45.25 45.25 45.25 45.25 45.25 45.25 45.25 45.25 45.25 45.25
          45.25 45.25 45.25 45.25 45.25 45.25 45.25 45.25 45.25 45.25 45.25 45.25
          45.25 45.25 45.25 45.25 45.25 45.25 45.25 45.25 45.25 45.25 45.25 45.25
          45.25 45.25 45.25 45.25 45.25 45.25 45.25 45.25 45.25 45.25 45.25 45.25
          45.25 45.25 45.25 45.25 45.25 45.25 45.25 45.25 45.25 45.25 45.25 45.25
          45.25 45.25 45.25 45.25
        </DataArray>
        <DataArray type="Float32" Name="ReservoirCStres" NumberOfComponents="1" format="ascii">
          5.55e+06 5.55e+06 5.55e+06 5.55e+06 5.55e+06 5.55e+06 5.55e+06 5.55e+06 5.55e+06 5.55e+06 5.55e+06 5.55e+06
          5.55e+06 5.55e+06 5.55e+06 5.55e+06 5.55e+06 5.55e+06 5.55e+06 5.55e+06 5.55e+06 5.55e+06 5.55e+06 5.55e+06
          5.55e+06 5.55e+06 5.55e+06 5.55e+06 5.55e+06 5.55e+06 5.55e+06 5.55e+06 5.55e+06 5.55e+06 5.55e+06 5.55e+06
          5.55e+06 5.55e+06 5.55e+06 5.55e+06 5.55e+06 5.55e+06 5.55e+06 5.55e+06 5.55e+06 5.55e+06 5.55e+06 5.55e+06
          5.55e+06 5.55e+06 5.55e+06 5.55e+06 5.55e+06 5.55e+06 5.55e+06 5.55e+06 5.55e+06 5.55e+06 5.55e+06 5.55e+06
          5.55e+06 5.55e+06 5.55e+06 5.55e+06 5.55e+06 5.55e+06 5.55e+06 5.55e+06 5.55e+06 5.55e+06 5.55e+06 5.55e+06
          5.55e+06 5.55e+06 5.55e+06 5.55e+06 5.55e+06 5.55e+06 5.55e+06 5.55e+06 5.55e+06 5.55e+06 5.55e+06 5.55e+06
          5.55e+06 5.55e+06 5.55e+06 5.55e+06 5.55e+06 5.55e+06 5.55e+06 5.55e+06 5.55e+06 5.55e+06 5.55e+06 5.55e+06
          5.55e+06 5.55e+06 5.55e+06 5.55e+06 5.55e+06 5.55e+06 5.55e+06 5.55e+06 5.55e+06 5.55e+06 5.55e+06 5.55e+06
          5.55e+06 5.55e+06 5.55e+06 5.55e+06 5.55e+06 5.55e+06 5.55e+06 5.55e+06 5.55e+06 5.55e+06 5.55e+06 5.55e+06
          5.55e+06 5.55e+06 5.55e+06 5.55e+06 5.55e+06 5.55e+06 5.55e+06 5.55e+06 5.55e+06 5.55e+06 5.55e+06 5.55e+06
          5.55e+06 5.55e+06 5.55e+06 5.55e+06 5.55e+06 5.55e+06 5.55e+06 5.55e+06 5.55e+06 5.55e+06 5.55e+06 5.55e+06
          5.55e+06 5.55e+06 5.55e+06 5.55e+06 5.55e+06 5.55e+06 5.55e+06 5.55e+06 5.55e+06 5.55e+06 5.55e+06 5.55e+06
          5.55e+06 5.55e+06 5.55e+06 5.55e+06 5.55e+06 5.55e+06 5.55e+06 5.55e+06 5.55e+06 5.55e+06 5.55e+06 5.55e+06
          5.55e+06 5.55e+06 5.55e+06 5.55e+06 5.55e+06 5.55e+06 5.55e+06 5.55e+06 5.55e+06 5.55e+06 5.55e+06 5.55e+06
          5.55e+06 5.55e+06 5.55e+06 5.55e+06 5.55e+06 5.55e+06 5.55e+06 5.55e+06 5.55e+06 5.55e+06 5.55e+06 5.55e+06
          5.55e+06 5.55e+06 5.55e+06 5.55e+06 5.55e+06 5.55e+06 5.55e+06 5.55e+06 5.55e+06 5.55e+06 5.55e+06 5.55e+06
          5.55e+06 5.55e+06 5.55e+06 5.55e+06 5.55e+06 5.55e+06 5.55e+06 5.55e+06 5.55e+06 5.55e+06 5.55e+06 5.55e+06
          5.55e+06 5.55e+06 5.55e+06 5.55e+06 5.55e+06 5.55e+06 5.55e+06 5.55e+06 5.55e+06 5.55e+06 5.55e+06 5.55e+06
          5.55e+06 5.55e+06 5.55e+06 5.55e+06 5.55e+06 5.55e+06 5.55e+06 5.55e+06 5.55e+06 5.55e+06 5.55e+06 5.55e+06
          5.55e+06 5.55e+06 5.55e+06 5.55e+06 5.55e+06 5.55e+06 5.55e+06 5.55e+06 5.55e+06 5.55e+06 5.55e+06 5.55e+06
          5.55e+06 5.55e+06 5.55e+06 5.55e+06 5.55e+06 5.55e+06 5.55e+06 5.55e+06 5.55e+06 5.55e+06 5.55e+06 5.55e+06
          5.55e+06 5.55e+06 5.55e+06 5.55e+06 5.55e+06 5.55e+06 5.55e+06 5.55e+06 5.55e+06 5.55e+06 5.55e+06 5.55e+06
          5.55e+06 5.55e+06 5.55e+06 5.55e+06 5.55e+06 5.55e+06 5.55e+06 5.55e+06 5.55e+06 5.55e+06 5.55e+06 5.55e+06
          5.55e+06 5.55e+06 5.55e+06 5.55e+06 5.55e+06 5.55e+06 5.55e+06 5.55e+06 5.55e+06 5.55e+06 5.55e+06 5.55e+06
          5.55e+06 5.55e+06 5.55e+06 5.55e+06 5.55e+06 5.55e+06 5.55e+06 5.55e+06 5.55e+06 5.55e+06 5.55e+06 5.55e+06
          5.55e+06 5.55e+06 5.55e+06 5.55e+06 5.55e+06 5.55e+06 5.55e+06 5.55e+06 5.55e+06 5.55e+06 5.55e+06 5.55e+06
          5.55e+06 5.55e+06 5.55e+06 5.55e+06 5.55e+06 5.55e+06 5.55e+06 5.55e+06 5.55e+06 5.55e+06 5.55e+06 5.55e+06
          5.55e+06 5.55e+06 5.55e+06 5.55e+06 5.55e+06 5.55e+06 5.55e+06 5.55e+06 5.55e+06 5.55e+06 5.55e+06 5.55e+06
          5.55e+06 5.55e+06 5.55e+06 5.55e+06 5.55e+06 5.55e+06 5.55e+06 5.55e+06 5.55e+06 5.55e+06 5.55e+06 5.55e+06
          5.55e+06 5.55e+06 5.55e+06 5.55e+06 5.55e+06 5.55e+06 5.55e+06 5.55e+06 5.55e+06 5.55e+06 5.55e+06 5.55e+06
          5.55e+06 5.55e+06 5.55e+06 5.55e+06 5.55e+06 5.55e+06 5.55e+06 5.55e+06 5.55e+06 5.55e+06 5.55e+06 5.55e+06
          5.55e+06 5.55e+06 5.55e+06 5.55e+06 5.55e+06 5.55e+06 5.55e+06 5.55e+06 5.55e+06 5.55e+06 5.55e+06 5.55e+06
          5.55e+06 5.55e+06 5.55e+06 5.55e+06 5.55e+06 5.55e+06 5.55e+06 5.55e+06 5.55e+06 5.55e+06 5.55e+06 5.55e+06
          5.55e+06 5.55e+06 5.55e+06 5.55e+06 5.55e+06 5.55e+06 5.55e+06 5.55e+06 5.55e+06 5.55e+06 5.55e+06 5.55e+06
          5.55e+06 5.55e+06 5.55e+06 5.55e+06 5.55e+06 5.55e+06 5.55e+06 5.55e+06 5.55e+06 5.55e+06 5.55e+06 5.55e+06
          5.55e+06 5.55e+06 5.55e+06 5.55e+06 5.55e+06 5.55e+06 5.55e+06 5.55e+06 5.55e+06 5.55e+06 5.55e+06 5.55e+06
          5.55e+06 5.55e+06 5.55e+06 5.55e+06
        </DataArray>
        <DataArray type="Float32" Name="FracturePressure" NumberOfComponents="1" format="ascii">
          2.22549e+07 2.28417e+07 2.28417e+07 2.28025e+07 2.28025e+07 2.27633e+07 2.20945e+07 2.19377e+07 2.28418e+07 2.28418e+07 2.28025e+07 2.28025e+07
          2.27633e+07 2.27633e+07 2.27241e+07 2.27241e+07 2.26849e+07 2.20161e+07 2.28418e+07 2.28418e+07 2.28025e+07 2.28025e+07 2.27633e+07 2.27633e+07
          2.27241e+07 2.27241e+07 2.26849e+07 2.26849e+07 2.26456e+07 2.26456e+07 2.26064e+07 2.28418e+07 2.28418e+07 2.28025e+07 2.28025e+07 2.27633e+07
          2.27633e+07 2.27241e+07 2.27241e+07 2.26849e+07 2.26849e+07 2.26456e+07 2.26456e+07 2.26064e+07 2.26064e+07 2.25672e+07 2.25672e+07 2.2528e+07
          2.28418e+07 2.28418e+07 2.28025e+07 2.28025e+07 2.27633e+07 2.27633e+07 2.27241e+07 2.27241e+07 2.26849e+07 2.26849e+07 2.26456e+07 2.26456e+07
          2.26064e+07 2.26064e+07 2.25672e+07 2.25672e+07 2.2528e+07 2.2528e+07 2.24887e+07 2.24887e+07 2.24495e+07 2.28418e+07 2.28418e+07 2.28025e+07
          2.28025e+07 2.27633e+07 2.27633e+07 2.27241e+07 2.27241e+07 2.26849e+07 2.26849e+07 2.26456e+07 2.26456e+07 2.26064e+07 2.26064e+07 2.25672e+07
          2.25672e+07 2.2528e+07 2.2528e+07 2.24887e+07 2.24887e+07 2.24495e+07 2.24495e+07 2.24103e+07 2.24103e+07 2.2371e+07 2.28418e+07 2.28418e+07
          2.28025e+07 2.28025e+07 2.27633e+07 2.27633e+07 2.27241e+07 2.27241e+07 2.26849e+07 2.26849e+07 2.26456e+07 2.26456e+07 2.26064e+07 2.26064e+07
          2.25672e+07 2.25672e+07 2.2528e+07 2.2528e+07 2.24887e+07 2.24887e+07 2.24495e+07 2.24495e+07 2.24103e+07 2.24103e+07 2.2371e+07 2.2371e+07
          2.23318e+07 2.23318e+07 2.22926e+07 2.28418e+07 2.28418e+07 2.28025e+07 2.28025e+07 2.27633e+07 2.27633e+07 2.27241e+07 2.27241e+07 2.26849e+07
          2.26849e+07 2.26456e+07 2.26456e+07 2.26064e+07 2.26064e+07 2.25672e+07 2.25672e+07 2.2528e+07 2.2528e+07 2.24887e+07 2.24887e+07 2.24495e+07
          2.24495e+07 2.24103e+07 2.24103e+07 2.2371e+07 2.2371e+07 2.23318e+07 2.23318e+07 2.22926e+07 2.22926e+07 2.22534e+07 2.22534e+07 2.22128e+07
          2.28418e+07 2.28418e+07 2.28025e+07 2.28025e+07 2.27633e+07 2.27633e+07 2.27241e+07 2.27241e+07 2.26849e+07 2.26849e+07 2.26456e+07 2.26456e+07
          2.26064e+07 2.26064e+07 2.25672e+07 2.25672e+07 2.2528e+07 2.2528e+07 2.24887e+07 2.24887e+07 2.24495e+07 2.24495e+07 2.24103e+07 2.24103e+07
          2.2371e+07 2.2371e+07 2.23318e+07 2.23318e+07 2.22926e+07 2.22926e+07 2.22534e+07 2.22534e+07 2.22141e+07 2.22141e+07 2.28418e+07 2.28418e+07
          2.28025e+07 2.28025e+07 2.27633e+07 2.27633e+07 2.27241e+07 2.27241e+07 2.26849e+07 2.26849e+07 2.26456e+07 2.26456e+07 2.26064e+07 2.26064e+07
          2.25672e+07 2.25672e+07 2.2528e+07 2.2528e+07 2.24887e+07 2.24887e+07 2.24495e+07 2.24495e+07 2.24103e+07 2.24103e+07 2.23710e+07 2.23710e+07
          2.23318e+07 2.23318e+07 2.22926e+07 2.22926e+07 2.22534e+07 2.22534e+07 2.22141e+07 2.22141e+07 2.28418e+07 2.28418e+07 2.28025e+07 2.28025e+07
          2.27633e+07 2.27633e+07 2.27241e+07 2.27241e+07 2.26849e+07 2.26849e+07 2.26456e+07 2.26456e+07 2.26064e+07 2.26064e+07 2.25672e+07 2.25672e+07
          2.2528e+07 2.2528e+07 2.24887e+07 2.24887e+07 2.24495e+07 2.24495e+07 2.24103e+07 2.24103e+07 2.23710e+07 2.23710e+07 2.23318e+07 2.23318e+07
          2.22926e+07 2.22926e+07 2.22534e+07 2.22534e+07 2.22141e+07 2.22141e+07 2.28417e+07 2.28417e+07 2.28025e+07 2.28025e+07 2.27633e+07 2.27633e+07
          2.27241e+07 2.27241e+07 2.26849e+07 2.26849e+07 2.26456e+07 2.26456e+07 2.26064e+07 2.26064e+07 2.25672e+07 2.25672e+07 2.2528e+07 2.2528e+07
          2.24887e+07 2.24887e+07 2.24495e+07 2.24495e+07 2.24103e+07 2.24103e+07 2.23711e+07 2.23711e+07 2.23318e+07 2.23318e+07 2.22926e+07 2.22926e+07
          2.22534e+07 2.22534e+07 2.22141e+07 2.22141e+07 2.22549e+07 2.28025e+07 2.28025e+07 2.27633e+07 2.27633e+07 2.27241e+07 2.27241e+07 2.26849e+07
          2.26849e+07 2.26456e+07 2.26456e+07 2.26064e+07 2.26064e+07 2.25672e+07 2.25672e+07 2.2528e+07 2.2528e+07 2.24887e+07 2.24887e+07 2.24495e+07
          2.24495e+07 2.24103e+07 2.24103e+07 2.23711e+07 2.23711e+07 2.23318e+07 2.23318e+07 2.22926e+07 2.22926e+07 2.22534e+07 2.22534e+07 2.22141e+07
          2.22141e+07 2.20945e+07 2.27633e+07 2.27241e+07 2.27241e+07 2.26849e+07 2.26849e+07 2.26456e+07 2.26456e+07 2.26064e+07 2.26064e+07 2.25672e+07
          2.25672e+07 2.2528e+07 2.2528e+07 2.24887e+07 2.24887e+07 2.24495e+07 2.24495e+07 2.24103e+07 2.24103e+07 2.23710e+07 2.23710e+07 2.23318e+07
          2.23318e+07 2.22926e+07 2.22926e+07 2.22534e+07 2.22534e+07 2.22141e+07 2.22141e+07 2.19377e+07 2.20161e+07 2.26849e+07 2.26456e+07 2.26456e+07
          2.26064e+07 2.26064e+07 2.25672e+07 2.25672e+07 2.2528e+07 2.2528e+07 2.24887e+07 2.24887e+07 2.24495e+07 2.24495e+07 2.24103e+07 2.24103e+07
          2.23710e+07 2.23710e+07 2.23318e+07 2.23318e+07 2.22926e+07 2.22926e+07 2.22534e+07 2.22534e+07 2.22141e+07 2.22141e+07 2.26064e+07 2.25672e+07
          2.25672e+07 2.2528e+07 2.2528e+07 2.24887e+07 2.24887e+07 2.24495e+07 2.24495e+07 2.24103e+07 2.24103e+07 2.2371e+07 2.2371e+07 2.23318e+07
          2.23318e+07 2.22926e+07 2.22926e+07 2.22534e+07 2.22534e+07 2.22141e+07 2.22141e+07 2.2528e+07 2.24887e+07 2.24887e+07 2.24495e+07 2.24495e+07
          2.24103e+07 2.24103e+07 2.2371e+07 2.2371e+07 2.23318e+07 2.23318e+07 2.22926e+07 2.22926e+07 2.22534e+07 2.22534e+07 2.22141e+07 2.22141e+07
          2.24495e+07 2.24103e+07 2.24103e+07 2.2371e+07 2.2371e+07 2.23318e+07 2.23318e+07 2.22926e+07 2.22926e+07 2.22534e+07 2.22534e+07 2.22141e+07
          2.22141e+07 2.2371e+07 2.23318e+07 2.23318e+07 2.22926e+07 2.22926e+07 2.22534e+07 2.22534e+07 2.22141e+07 2.22141e+07 2.22926e+07 2.22534e+07
          2.22534e+07 2.22141e+07 2.22141e+07 2.22128e+07
        </DataArray>
        <DataArray type="Float32" Name="FractureHead" NumberOfComponents="1" format="ascii">
          -717969 -131130 -131143 -131108 -131109 -131109 -799871 -917446 -131111 -131113 -131106 -131107
          -131106 -131107 -131106 -131107 -131107 -799871 -131108 -131108 -131105 -131105 -131105 -131106
          -131105 -131106 -131106 -131106 -131106 -131106 -131106 -131106 -131106 -131104 -131104 -131104
          -131105 -131104 -131105 -131105 -131105 -131105 -131105 -131105 -131105 -131105 -131105 -131105
          -131105 -131105 -131103 -131103 -131103 -131104 -131104 -131104 -131104 -131104 -131104 -131104
          -131104 -131105 -131105 -131105 -131105 -131105 -131105 -131105 -131106 -131104 -131104 -131102
          -131102 -131102 -131102 -131102 -131103 -131103 -131103 -131103 -131104 -131104 -131104 -131104
          -131104 -131104 -131105 -131105 -131105 -131105 -131105 -131106 -131106 -131106 -131104 -131104
          -131102 -131102 -131101 -131102 -131101 -131102 -131102 -131102 -131102 -131103 -131103 -131103
          -131103 -131104 -131104 -131104 -131104 -131104 -131104 -131105 -131105 -131105 -131105 -131106
          -131106 -131107 -131108 -131105 -131105 -131102 -131102 -131102 -131101 -131101 -131101 -131101
          -131101 -131101 -131101 -131102 -131102 -131102 -131102 -131103 -131103 -131103 -131104 -131104
          -131104 -131104 -131104 -131105 -131105 -131105 -131106 -131106 -131107 -131108 -131110 -132406
          -131106 -131106 -131103 -131103 -131102 -131102 -131102 -131101 -131101 -131101 -131100 -131100
          -131100 -131101 -131101 -131101 -131101 -131102 -131102 -131102 -131103 -131103 -131103 -131104
          -131104 -131104 -131104 -131105 -131105 -131105 -131106 -131107 -131118 -131124 -131108 -131108
          -131104 -131104 -131104 -131103 -131103 -131102 -131102 -131102 -131101 -131101 -131101 -131100
          -131100 -131100 -131100 -131100 -131101 -131101 -131102 -131102 -131102 -131103 -131103 -131103
          -131104 -131104 -131104 -131104 -131105 -131105 -131109 -131110 -131113 -131111 -131105 -131105
          -131105 -131104 -131104 -131104 -131103 -131103 -131103 -131102 -131102 -131102 -131101 -131101
          -131100 -131100 -131100 -131100 -131100 -131101 -131101 -131101 -131102 -131102 -131102 -131103
          -131103 -131104 -131104 -131104 -131107 -131107 -131143 -131130 -131107 -131106 -131106 -131105
          -131105 -131104 -131104 -131104 -131104 -131103 -131103 -131103 -131102 -131102 -131102 -131101
          -131101 -131101 -131101 -131100 -131100 -131100 -131101 -131101 -131101 -131102 -131102 -131102
          -131103 -131103 -131105 -131106 -717969 -131109 -131108 -131107 -131106 -131106 -131105 -131105
          -131105 -131104 -131104 -131104 -131104 -131104 -131103 -131103 -131103 -131102 -131102 -131102
          -131102 -131101 -131101 -131101 -131101 -131101 -131101 -131101 -131102 -131102 -131102 -131104
          -131104 -799871 -131109 -131107 -131106 -131106 -131106 -131105 -131105 -131105 -131104 -131104
          -131104 -131104 -131104 -131104 -131103 -131103 -131103 -131103 -131102 -131102 -131102 -131102
          -131101 -131102 -131101 -131102 -131102 -131103 -131103 -917446 -799871 -131107 -131106 -131106
          -131105 -131105 -131105 -131105 -131105 -131104 -131104 -131104 -131104 -131104 -131104 -131103
          -131103 -131103 -131103 -131102 -131102 -131102 -131102 -131102 -131103 -131103 -131106 -131105
          -131105 -131105 -131105 -131105 -131105 -131105 -131104 -131104 -131104 -131104 -131104 -131104
          -131104 -131104 -131103 -131103 -131103 -131104 -131104 -131105 -131105 -131105 -131105 -131105
          -131105 -131105 -131105 -131105 -131105 -131104 -131104 -131104 -131104 -131104 -131106 -131105
          -131106 -131106 -131106 -131106 -131105 -131106 -131105 -131105 -131105 -131105 -131105 -131107
          -131107 -131106 -131107 -131106 -131107 -131106 -131107 -131106 -131110 -131109 -131108 -131110
          -131108 -131124 -131118 -132406
        </DataArray>
        <DataArray type="Float32" Name="ReservoirPressure" NumberOfComponents="1" format="ascii">
          2.21932e+07 2.21932e+07 2.21932e+07 2.20976e+07 2.20976e+07 2.20976e+07 2.19097e+07 2.19097e+07 2.21932e+07 2.21932e+07 2.20976e+07 2.20976e+07
          2.20976e+07 2.20976e+07 2.20976e+07 2.20976e+07 2.20976e+07 2.19097e+07 2.21932e+07 2.21932e+07 2.20976e+07 2.20976e+07 2.20976e+07 2.20976e+07
          2.20976e+07 2.20976e+07 2.20976e+07 2.20976e+07 2.20976e+07 2.20976e+07 2.20898e+07 2.21932e+07 2.21932e+07 2.20976e+07 2.20976e+07 2.20976e+07
          2.20976e+07 2.20976e+07 2.20976e+07 2.20976e+07 2.20976e+07 2.20976e+07 2.20976e+07 2.20898e+07 2.20898e+07 2.20898e+07 2.20898e+07 2.20898e+07
          2.21932e+07 2.21932e+07 2.20976e+07 2.20976e+07 2.20976e+07 2.20976e+07 2.20976e+07 2.20976e+07 2.20976e+07 2.20976e+07 2.20976e+07 2.20976e+07
          2.20898e+07 2.20898e+07 2.20898e+07 2.20898e+07 2.20898e+07 2.20898e+07 2.20898e+07 2.20898e+07 2.20898e+07 2.21932e+07 2.21932e+07 2.20976e+07
          2.20976e+07 2.20976e+07 2.20976e+07 2.20976e+07 2.20976e+07 2.20976e+07 2.20976e+07 2.20976e+07 2.20976e+07 2.20898e+07 2.20898e+07 2.20898e+07
          2.20898e+07 2.20898e+07 2.20898e+07 2.20898e+07 2.20898e+07 2.20898e+07 2.20898e+07 2.17016e+07 2.17016e+07 2.17016e+07 2.21932e+07 2.21932e+07
          2.20976e+07 2.20976e+07 2.20976e+07 2.20976e+07 2.20976e+07 2.20976e+07 2.20976e+07 2.20976e+07 2.20976e+07 2.20976e+07 2.20898e+07 2.20898e+07
          2.20898e+07 2.20898e+07 2.20898e+07 2.20898e+07 2.20898e+07 2.20898e+07 2.20898e+07 2.20898e+07 2.17016e+07 2.17016e+07 2.17016e+07 2.17016e+07
          2.17016e+07 2.17016e+07 2.17016e+07 2.21932e+07 2.21932e+07 2.20976e+07 2.20976e+07 2.20976e+07 2.20976e+07 2.20976e+07 2.20976e+07 2.20976e+07
          2.20976e+07 2.20976e+07 2.20976e+07 2.20898e+07 2.20898e+07 2.20898e+07 2.20898e+07 2.20898e+07 2.20898e+07 2.20898e+07 2.20898e+07 2.20898e+07
          2.20898e+07 2.17016e+07 2.17016e+07 2.17016e+07 2.17016e+07 2.17016e+07 2.17016e+07 2.17016e+07 2.17016e+07 2.17016e+07 2.17016e+07 2.14006e+07
          2.21932e+07 2.21932e+07 2.20976e+07 2.20976e+07 2.20976e+07 2.20976e+07 2.20976e+07 2.20976e+07 2.20976e+07 2.20976e+07 2.20976e+07 2.20976e+07
          2.20898e+07 2.20898e+07 2.20898e+07 2.20898e+07 2.20898e+07 2.20898e+07 2.20898e+07 2.20898e+07 2.20898e+07 2.20898e+07 2.17016e+07 2.17016e+07
          2.17016e+07 2.17016e+07 2.17016e+07 2.17016e+07 2.17016e+07 2.17016e+07 2.17016e+07 2.17016e+07 2.14006e+07 2.14006e+07 2.21932e+07 2.21932e+07
          2.20976e+07 2.20976e+07 2.20976e+07 2.20976e+07 2.20976e+07 2.20976e+07 2.20976e+07 2.20976e+07 2.20976e+07 2.20976e+07 2.20898e+07 2.20898e+07
          2.20898e+07 2.20898e+07 2.20898e+07 2.20898e+07 2.20898e+07 2.20898e+07 2.20898e+07 2.20898e+07 2.17016e+07 2.17016e+07 2.17016e+07 2.17016e+07
          2.17016e+07 2.17016e+07 2.17016e+07 2.17016e+07 2.17016e+07 2.17016e+07 2.14006e+07 2.14006e+07 2.21932e+07 2.21932e+07 2.20976e+07 2.20976e+07
          2.20976e+07 2.20976e+07 2.20976e+07 2.20976e+07 2.20976e+07 2.20976e+07 2.20976e+07 2.20976e+07 2.20898e+07 2.20898e+07 2.20898e+07 2.20898e+07
          2.20898e+07 2.20898e+07 2.20898e+07 2.20898e+07 2.20898e+07 2.20898e+07 2.17016e+07 2.17016e+07 2.17016e+07 2.17016e+07 2.17016e+07 2.17016e+07
          2.17016e+07 2.17016e+07 2.17016e+07 2.17016e+07 2.14006e+07 2.14006e+07 2.21932e+07 2.21932e+07 2.20976e+07 2.20976e+07 2.20976e+07 2.20976e+07
          2.20976e+07 2.20976e+07 2.20976e+07 2.20976e+07 2.20976e+07 2.20976e+07 2.20898e+07 2.20898e+07 2.20898e+07 2.20898e+07 2.20898e+07 2.20898e+07
          2.20898e+07 2.20898e+07 2.20898e+07 2.20898e+07 2.17016e+07 2.17016e+07 2.17016e+07 2.17016e+07 2.17016e+07 2.17016e+07 2.17016e+07 2.17016e+07
          2.17016e+07 2.17016e+07 2.14006e+07 2.14006e+07 2.21932e+07 2.20976e+07 2.20976e+07 2.20976e+07 2.20976e+07 2.20976e+07 2.20976e+07 2.20976e+07
          2.20976e+07 2.20976e+07 2.20976e+07 2.20898e+07 2.20898e+07 2.20898e+07 2.20898e+07 2.20898e+07 2.20898e+07 2.20898e+07 2.20898e+07 2.20898e+07
          2.20898e+07 2.17016e+07 2.17016e+07 2.17016e+07 2.17016e+07 2.17016e+07 2.17016e+07 2.17016e+07 2.17016e+07 2.17016e+07 2.17016e+07 2.14006e+07
          2.14006e+07 2.19097e+07 2.20976e+07 2.20976e+07 2.20976e+07 2.20976e+07 2.20976e+07 2.20976e+07 2.20976e+07 2.20898e+07 2.20898e+07 2.20898e+07
          2.20898e+07 2.20898e+07 2.20898e+07 2.20898e+07 2.20898e+07 2.20898e+07 2.20898e+07 2.17016e+07 2.17016e+07 2.17016e+07 2.17016e+07 2.17016e+07
          2.17016e+07 2.17016e+07 2.17016e+07 2.17016e+07 2.17016e+07 2.14006e+07 2.14006e+07 2.19097e+07 2.19097e+07 2.20976e+07 2.20976e+07 2.20976e+07
          2.20898e+07 2.20898e+07 2.20898e+07 2.20898e+07 2.20898e+07 2.20898e+07 2.20898e+07 2.20898e+07 2.20898e+07 2.20898e+07 2.17016e+07 2.17016e+07
          2.17016e+07 2.17016e+07 2.17016e+07 2.17016e+07 2.17016e+07 2.17016e+07 2.17016e+07 2.17016e+07 2.14006e+07 2.14006e+07 2.20898e+07 2.20898e+07
          2.20898e+07 2.20898e+07 2.20898e+07 2.20898e+07 2.20898e+07 2.20898e+07 2.20898e+07 2.17016e+07 2.17016e+07 2.17016e+07 2.17016e+07 2.17016e+07
          2.17016e+07 2.17016e+07 2.17016e+07 2.17016e+07 2.17016e+07 2.14006e+07 2.14006e+07 2.20898e+07 2.20898e+07 2.20898e+07 2.20898e+07 2.20898e+07
          2.17016e+07 2.17016e+07 2.17016e+07 2.17016e+07 2.17016e+07 2.17016e+07 2.17016e+07 2.17016e+07 2.17016e+07 2.17016e+07 2.14006e+07 2.14006e+07
          2.20898e+07 2.17016e+07 2.17016e+07 2.17016e+07 2.17016e+07 2.17016e+07 2.17016e+07 2.17016e+07 2.17016e+07 2.17016e+07 2.17016e+07 2.14006e+07
          2.14006e+07 2.17016e+07 2.17016e+07 2.17016e+07 2.17016e+07 2.17016e+07 2.17016e+07 2.17016e+07 2.14006e+07 2.14006e+07 2.17016e+07 2.17016e+07
          2.17016e+07 2.14006e+07 2.14006e+07 2.14006e+07
        </DataArray>
        <DataArray type="Float32" Name="LeakofDP" NumberOfComponents="1" format="ascii">
          140147 726986 726973 626486 626485 626486 145651 28076.7 727004 727003 626488 626488
          626488 626488 626488 626488 626488 145651 727008 727007 626490 626489 626489 626489
          626489 626489 626489 626489 626489 626489 438168 727010 727009 626491 626490 626490
          626490 626490 626490 626490 626490 626490 626489 438168 438168 438168 438168 438168
          727011 727011 626492 626491 626491 626491 626491 626491 626491 626490 626490 626490
          438169 438169 438169 438168 438168 438168 438168 438168 438168 727012 727012 626493
          626492 626492 626492 626492 626492 626492 626491 626491 626491 438170 438169 438169
          438169 438169 438169 438169 438168 438168 438168 630228 630227 630227 727012 727012
          626493 626493 626493 626493 626493 626493 626493 626492 626492 626492 438171 438170
          438170 438170 438170 438169 438169 438169 438169 438169 630228 630228 630228 630228
          630227 630226 630225 727011 727011 626492 626493 626493 626493 626494 626494 626494
          626494 626494 626493 438172 438171 438171 438171 438171 438170 438170 438170 438170
          438169 630229 630229 630229 630228 630228 630228 630227 630226 630225 630224 733761
          727009 727010 626491 626492 626492 626492 626493 626493 626494 626494 626494 626494
          438173 438173 438173 438172 438172 438171 438171 438171 438171 438170 630230 630230
          630229 630229 630229 630228 630228 630228 630227 630227 735049 735044 727007 727008
          626490 626491 626491 626491 626492 626492 626492 626493 626493 626494 438173 438173
          438174 438174 438174 438173 438173 438172 438172 438171 630231 630231 630230 630230
          630230 630229 630229 630229 630228 630228 735059 735058 727003 727004 626489 626490
          626490 626490 626491 626491 626491 626492 626492 626492 438171 438172 438172 438173
          438173 438174 438174 438174 438173 438173 630232 630232 630231 630231 630231 630230
          630230 630230 630229 630229 735061 735061 726973 726986 626488 626488 626489 626489
          626490 626490 626490 626491 626491 626491 438170 438171 438171 438171 438171 438172
          438172 438173 438173 438173 630233 630233 630232 630232 630232 630232 630231 630231
          630230 630230 735063 735062 140147 626485 626486 626488 626488 626489 626489 626490
          626490 626490 626490 438169 438170 438170 438170 438170 438171 438171 438171 438171
          438172 630232 630232 630232 630232 630232 630232 630232 630232 630231 630231 735064
          735063 145651 626486 626488 626488 626489 626489 626489 626490 438169 438169 438169
          438169 438169 438170 438170 438170 438170 438171 630231 630231 630231 630231 630232
          630232 630232 630232 630232 630232 735064 735064 28076.7 145651 626488 626489 626489
          438168 438168 438168 438169 438169 438169 438169 438169 438169 438170 630230 630230
          630230 630230 630230 630231 630231 630231 630231 630231 735064 735064 438168 438168
          438168 438168 438168 438168 438169 438169 438169 630229 630229 630229 630229 630229
          630230 630230 630230 630230 630230 735063 735064 438168 438168 438168 438168 438168
          630228 630228 630228 630229 630228 630229 630229 630229 630229 630229 735062 735063
          438168 630227 630228 630228 630228 630228 630228 630228 630228 630228 630228 735061
          735061 630227 630226 630227 630226 630227 630227 630227 735058 735059 630225 630224
          630225 735044 735049 733761
        </DataArray>
        <DataArray type="Float32" Name="FilterCakeThickness" NumberOfComponents="1" format="ascii">
          0 0 0 0 0 0 0 0 0 0 0 0
          0 0 0 0 0 0 0 0 0 0 0 0
          0 0 0 0 0 0 0 0 0 0 0 0
          0 0 0 0 0 0 0 0 0 0 0 0
          0 0 0 0 0 0 0 0 0 0 0 0
          0 0 0 0 0 0 0 0 0 0 0 0
          0 0 0 0 0 0 0 0 0 0 0 0
          0 0 0 0 0 0 0 0 0 0 0 0
          0 0 0 0 0 0 0 0 0 0 0 0
          0 0 0 0 0 0 0 0 0 0 0 0
          0 0 0 0 0 0 0 0 0 0 0 0
          0 0 0 0 0 0 0 0 0 0 0 0
          0 0 0 0 0 0 0 0 0 0 0 0
          0 0 0 0 0 0 0 0 0 0 0 0
          0 0 0 0 0 0 0 0 0 0 0 0
          0 0 0 0 0 0 0 0 0 0 0 0
          0 0 0 0 0 0 0 0 0 0 0 0
          0 0 0 0 0 0 0 0 0 0 0 0
          0 0 0 0 0 0 0 0 0 0 0 0
          0 0 0 0 0 0 0 0 0 0 0 0
          0 0 0 0 0 0 0 0 0 0 0 0
          0 0 0 0 0 0 0 0 0 0 0 0
          0 0 0 0 0 0 0 0 0 0 0 0
          0 0 0 0 0 0 0 0 0 0 0 0
          0 0 0 0 0 0 0 0 0 0 0 0
          0 0 0 0 0 0 0 0 0 0 0 0
          0 0 0 0 0 0 0 0 0 0 0 0
          0 0 0 0 0 0 0 0 0 0 0 0
          0 0 0 0 0 0 0 0 0 0 0 0
          0 0 0 0 0 0 0 0 0 0 0 0
          0 0 0 0 0 0 0 0 0 0 0 0
          0 0 0 0 0 0 0 0 0 0 0 0
          0 0 0 0 0 0 0 0 0 0 0 0
          0 0 0 0 0 0 0 0 0 0 0 0
          0 0 0 0 0 0 0 0 0 0 0 0
          0 0 0 0 0 0 0 0 0 0 0 0
          0 0 0 0 0 0 0 0 0 0 0 0
          0 0 0 0
        </DataArray>
        <DataArray type="Float32" Name="ReservoirTraction" NumberOfComponents="1" format="ascii">
          3.06323e+07 3.06323e+07 3.06323e+07 1.72869e+07 1.72869e+07 1.72869e+07 3.84821e+07 3.84821e+07 3.06323e+07 3.06323e+07 1.72869e+07 1.72869e+07
          1.72869e+07 1.72869e+07 1.72869e+07 1.72869e+07 1.72869e+07 3.84821e+07 3.06323e+07 3.06323e+07 1.72869e+07 1.72869e+07 1.72869e+07 1.72869e+07
          1.72869e+07 1.72869e+07 1.72869e+07 1.72869e+07 1.72869e+07 1.72869e+07 7.47325e+06 3.06323e+07 3.06323e+07 1.72869e+07 1.72869e+07 1.72869e+07
          1.72869e+07 1.72869e+07 1.72869e+07 1.72869e+07 1.72869e+07 1.72869e+07 1.72869e+07 7.47325e+06 7.47325e+06 7.47325e+06 7.47325e+06 7.47325e+06
          3.06323e+07 3.06323e+07 1.72869e+07 1.72869e+07 1.72869e+07 1.72869e+07 1.72869e+07 1.72869e+07 1.72869e+07 1.72869e+07 1.72869e+07 1.72869e+07
          7.47325e+06 7.47325e+06 7.47325e+06 7.47325e+06 7.47325e+06 7.47325e+06 7.47325e+06 7.47325e+06 7.47325e+06 3.06323e+07 3.06323e+07 1.72869e+07
          1.72869e+07 1.72869e+07 1.72869e+07 1.72869e+07 1.72869e+07 1.72869e+07 1.72869e+07 1.72869e+07 1.72869e+07 7.47325e+06 7.47325e+06 7.47325e+06
          7.47325e+06 7.47325e+06 7.47325e+06 7.47325e+06 7.47325e+06 7.47325e+06 7.47325e+06 1.64848e+07 1.64848e+07 1.64848e+07 3.06323e+07 3.06323e+07
          1.72869e+07 1.72869e+07 1.72869e+07 1.72869e+07 1.72869e+07 1.72869e+07 1.72869e+07 1.72869e+07 1.72869e+07 1.72869e+07 7.47325e+06 7.47325e+06
          7.47325e+06 7.47325e+06 7.47325e+06 7.47325e+06 7.47325e+06 7.47325e+06 7.47325e+06 7.47325e+06 1.64848e+07 1.64848e+07 1.64848e+07 1.64848e+07
          1.64848e+07 1.64848e+07 1.64848e+07 3.06323e+07 3.06323e+07 1.72869e+07 1.72869e+07 1.72869e+07 1.72869e+07 1.72869e+07 1.72869e+07 1.72869e+07
          1.72869e+07 1.72869e+07 1.72869e+07 7.47325e+06 7.47325e+06 7.47325e+06 7.47325e+06 7.47325e+06 7.47325e+06 7.47325e+06 7.47325e+06 7.47325e+06
          7.47325e+06 1.64848e+07 1.64848e+07 1.64848e+07 1.64848e+07 1.64848e+07 1.64848e+07 1.64848e+07 1.64848e+07 1.64848e+07 1.64848e+07 2.90136e+07
          3.06323e+07 3.06323e+07 1.72869e+07 1.72869e+07 1.72869e+07 1.72869e+07 1.72869e+07 1.72869e+07 1.72869e+07 1.72869e+07 1.72869e+07 1.72869e+07
          7.47325e+06 7.47325e+06 7.47325e+06 7.47325e+06 7.47325e+06 7.47325e+06 7.47325e+06 7.47325e+06 7.47325e+06 7.47325e+06 1.64848e+07 1.64848e+07
          1.64848e+07 1.64848e+07 1.64848e+07 1.64848e+07 1.64848e+07 1.64848e+07 1.64848e+07 1.64848e+07 2.90136e+07 2.90136e+07 3.06323e+07 3.06323e+07
          1.72869e+07 1.72869e+07 1.72869e+07 1.72869e+07 1.72869e+07 1.72869e+07 1.72869e+07 1.72869e+07 1.72869e+07 1.72869e+07 7.47325e+06 7.47325e+06
          7.47325e+06 7.47325e+06 7.47325e+06 7.47325e+06 7.47325e+06 7.47325e+06 7.47325e+06 7.47325e+06 1.64848e+07 1.64848e+07 1.64848e+07 1.64848e+07
          1.64848e+07 1.64848e+07 1.64848e+07 1.64848e+07 1.64848e+07 1.64848e+07 2.90136e+07 2.90136e+07 3.06323e+07 3.06323e+07 1.72869e+07 1.72869e+07
          1.72869e+07 1.72869e+07 1.72869e+07 1.72869e+07 1.72869e+07 1.72869e+07 1.72869e+07 1.72869e+07 7.47325e+06 7.47325e+06 7.47325e+06 7.47325e+06
          7.47325e+06 7.47325e+06 7.47325e+06 7.47325e+06 7.47325e+06 7.47325e+06 1.64848e+07 1.64848e+07 1.64848e+07 1.64848e+07 1.64848e+07 1.64848e+07
          1.64848e+07 1.64848e+07 1.64848e+07 1.64848e+07 2.90136e+07 2.90136e+07 3.06323e+07 3.06323e+07 1.72869e+07 1.72869e+07 1.72869e+07 1.72869e+07
          1.72869e+07 1.72869e+07 1.72869e+07 1.72869e+07 1.72869e+07 1.72869e+07 7.47325e+06 7.47325e+06 7.47325e+06 7.47325e+06 7.47325e+06 7.47325e+06
          7.47325e+06 7.47325e+06 7.47325e+06 7.47325e+06 1.64848e+07 1.64848e+07 1.64848e+07 1.64848e+07 1.64848e+07 1.64848e+07 1.64848e+07 1.64848e+07
          1.64848e+07 1.64848e+07 2.90136e+07 2.90136e+07 3.06323e+07 1.72869e+07 1.72869e+07 1.72869e+07 1.72869e+07 1.72869e+07 1.72869e+07 1.72869e+07
          1.72869e+07 1.72869e+07 1.72869e+07 7.47325e+06 7.47325e+06 7.47325e+06 7.47325e+06 7.47325e+06 7.47325e+06 7.47325e+06 7.47325e+06 7.47325e+06
          7.47325e+06 1.64848e+07 1.64848e+07 1.64848e+07 1.64848e+07 1.64848e+07 1.64848e+07 1.64848e+07 1.64848e+07 1.64848e+07 1.64848e+07 2.90136e+07
          2.90136e+07 3.84817e+07 1.72869e+07 1.72869e+07 1.72869e+07 1.72869e+07 1.72869e+07 1.72869e+07 1.72869e+07 7.47325e+06 7.47325e+06 7.47325e+06
          7.47325e+06 7.47325e+06 7.47325e+06 7.47325e+06 7.47325e+06 7.47325e+06 7.47325e+06 1.64848e+07 1.64848e+07 1.64848e+07 1.64848e+07 1.64848e+07
          1.64848e+07 1.64848e+07 1.64848e+07 1.64848e+07 1.64848e+07 2.90136e+07 2.90136e+07 3.84817e+07 3.84817e+07 1.72869e+07 1.72869e+07 1.72869e+07
          7.47325e+06 7.47325e+06 7.47325e+06 7.47325e+06 7.47325e+06 7.47325e+06 7.47325e+06 7.47325e+06 7.47325e+06 7.47325e+06 1.64848e+07 1.64848e+07
          1.64848e+07 1.64848e+07 1.64848e+07 1.64848e+07 1.64848e+07 1.64848e+07 1.64848e+07 1.64848e+07 2.90136e+07 2.90136e+07 7.47325e+06 7.47325e+06
          7.47325e+06 7.47325e+06 7.47325e+06 7.47325e+06 7.47325e+06 7.47325e+06 7.47325e+06 1.64848e+07 1.64848e+07 1.64848e+07 1.64848e+07 1.64848e+07
          1.64848e+07 1.64848e+07 1.64848e+07 1.64848e+07 1.64848e+07 2.90136e+07 2.90136e+07 7.47325e+06 7.47325e+06 7.47325e+06 7.47325e+06 7.47325e+06
          1.64848e+07 1.64848e+07 1.64848e+07 1.64848e+07 1.64848e+07 1.64848e+07 1.64848e+07 1.64848e+07 1.64848e+07 1.64848e+07 2.90136e+07 2.90136e+07
          7.47325e+06 1.64848e+07 1.64848e+07 1.64848e+07 1.64848e+07 1.64848e+07 1.64848e+07 1.64848e+07 1.64848e+07 1.64848e+07 1.64848e+07 2.90136e+07
          2.90136e+07 1.64848e+07 1.64848e+07 1.64848e+07 1.64848e+07 1.64848e+07 1.64848e+07 1.64848e+07 2.90136e+07 2.90136e+07 1.64848e+07 1.64848e+07
          1.64848e+07 2.90136e+07 2.90136e+07 2.90136e+07
        </DataArray>
        <DataArray type="Float32" Name="FractureForce" NumberOfComponents="1" format="ascii">
          8.37739e+06 7.79056e+06 7.79057e+06 -5.51561e+06 -5.51560e+06 -5.47638e+06 1.63876e+07 1.65444e+07 7.79054e+06 7.79054e+06 -5.51561e+06 -5.51561e+06
          -5.47638e+06 -5.47638e+06 -5.43716e+06 -5.43715e+06 -5.39793e+06 1.6466e+07 7.79053e+06 7.79053e+06 -5.51561e+06 -5.51561e+06 -5.47638e+06 -5.47638e+06
          -5.43716e+06 -5.43716e+06 -5.39793e+06 -5.39793e+06 -5.3587e+06 -5.3587e+06 -1.51332e+07 7.79053e+06 7.79053e+06 -5.51561e+06 -5.51561e+06 -5.47638e+06
          -5.47638e+06 -5.43716e+06 -5.43716e+06 -5.39793e+06 -5.39793e+06 -5.3587e+06 -5.3587e+06 -1.51332e+07 -1.51332e+07 -1.50939e+07 -1.50939e+07 -1.50547e+07
          7.79053e+06 7.79053e+06 -5.51561e+06 -5.51561e+06 -5.47638e+06 -5.47638e+06 -5.43716e+06 -5.43716e+06 -5.39793e+06 -5.39793e+06 -5.3587e+06 -5.3587e+06
          -1.51332e+07 -1.51332e+07 -1.50939e+07 -1.50939e+07 -1.50547e+07 -1.50547e+07 -1.50155e+07 -1.50155e+07 -1.49763e+07 7.79053e+06 7.79053e+06 -5.51561e+06
          -5.51561e+06 -5.47639e+06 -5.47639e+06 -5.43716e+06 -5.43716e+06 -5.39793e+06 -5.39793e+06 -5.35871e+06 -5.35870e+06 -1.51332e+07 -1.51332e+07 -1.50939e+07
          -1.50939e+07 -1.50547e+07 -1.50547e+07 -1.50155e+07 -1.50155e+07 -1.49763e+07 -1.49763e+07 -5.92551e+06 -5.92551e+06 -5.88628e+06 7.79053e+06 7.79053e+06
          -5.51561e+06 -5.51561e+06 -5.47639e+06 -5.47639e+06 -5.43716e+06 -5.43716e+06 -5.39793e+06 -5.39793e+06 -5.35871e+06 -5.35871e+06 -1.51332e+07 -1.51332e+07
          -1.50939e+07 -1.50939e+07 -1.50547e+07 -1.50547e+07 -1.50155e+07 -1.50155e+07 -1.49763e+07 -1.49763e+07 -5.92551e+06 -5.92551e+06 -5.88628e+06 -5.88628e+06
          -5.84705e+06 -5.84705e+06 -5.80783e+06 7.79053e+06 7.79053e+06 -5.51561e+06 -5.51561e+06 -5.47639e+06 -5.47639e+06 -5.43716e+06 -5.43716e+06 -5.39793e+06
          -5.39793e+06 -5.35871e+06 -5.35871e+06 -1.51332e+07 -1.51332e+07 -1.50939e+07 -1.50939e+07 -1.50547e+07 -1.50547e+07 -1.50155e+07 -1.50155e+07 -1.49763e+07
          -1.49763e+07 -5.92551e+06 -5.92551e+06 -5.88628e+06 -5.88628e+06 -5.84706e+06 -5.84706e+06 -5.80783e+06 -5.80783e+06 -5.7686e+06 -5.7686e+06 6.8008e+06
          7.79053e+06 7.79053e+06 -5.51561e+06 -5.51561e+06 -5.47639e+06 -5.47639e+06 -5.43716e+06 -5.43716e+06 -5.39793e+06 -5.39793e+06 -5.35871e+06 -5.35871e+06
          -1.51332e+07 -1.51332e+07 -1.50939e+07 -1.50939e+07 -1.50547e+07 -1.50547e+07 -1.50155e+07 -1.50155e+07 -1.49763e+07 -1.49763e+07 -5.92551e+06 -5.92551e+06
          -5.88628e+06 -5.88628e+06 -5.84706e+06 -5.84706e+06 -5.80783e+06 -5.80783e+06 -5.7686e+06 -5.7686e+06 6.79951e+06 6.79952e+06 7.79053e+06 7.79053e+06
          -5.51561e+06 -5.51561e+06 -5.47638e+06 -5.47638e+06 -5.43716e+06 -5.43716e+06 -5.39793e+06 -5.39793e+06 -5.35871e+06 -5.35871e+06 -1.51332e+07 -1.51332e+07
          -1.50939e+07 -1.50939e+07 -1.50547e+07 -1.50547e+07 -1.50155e+07 -1.50155e+07 -1.49763e+07 -1.49763e+07 -5.92551e+06 -5.92551e+06 -5.88628e+06 -5.88628e+06
          -5.84706e+06 -5.84706e+06 -5.80783e+06 -5.80783e+06 -5.7686e+06 -5.7686e+06 6.7995e+06 6.7995e+06 7.79054e+06 7.79054e+06 -5.51561e+06 -5.51561e+06
          -5.47638e+06 -5.47638e+06 -5.43716e+06 -5.43716e+06 -5.39793e+06 -5.39793e+06 -5.35871e+06 -5.35871e+06 -1.51332e+07 -1.51332e+07 -1.50939e+07 -1.50939e+07
          -1.50547e+07 -1.50547e+07 -1.50155e+07 -1.50155e+07 -1.49763e+07 -1.49763e+07 -5.92551e+06 -5.92551e+06 -5.88628e+06 -5.88628e+06 -5.84706e+06 -5.84706e+06
          -5.80783e+06 -5.80783e+06 -5.7686e+06 -5.7686e+06 6.7995e+06 6.7995e+06 7.79057e+06 7.79056e+06 -5.51561e+06 -5.51561e+06 -5.47638e+06 -5.47638e+06
          -5.43716e+06 -5.43716e+06 -5.39793e+06 -5.39793e+06 -5.35870e+06 -5.35871e+06 -1.51332e+07 -1.51332e+07 -1.50939e+07 -1.50939e+07 -1.50547e+07 -1.50547e+07
          -1.50155e+07 -1.50155e+07 -1.49763e+07 -1.49763e+07 -5.92551e+06 -5.92551e+06 -5.88629e+06 -5.88629e+06 -5.84706e+06 -5.84706e+06 -5.80783e+06 -5.80783e+06
          -5.7686e+06 -5.7686e+06 6.7995e+06 6.7995e+06 8.37739e+06 -5.51560e+06 -5.51561e+06 -5.47638e+06 -5.47638e+06 -5.43716e+06 -5.43716e+06 -5.39793e+06
          -5.39793e+06 -5.3587e+06 -5.3587e+06 -1.51332e+07 -1.51332e+07 -1.50939e+07 -1.50939e+07 -1.50547e+07 -1.50547e+07 -1.50155e+07 -1.50155e+07 -1.49763e+07
          -1.49763e+07 -5.92551e+06 -5.92551e+06 -5.88629e+06 -5.88629e+06 -5.84706e+06 -5.84706e+06 -5.80783e+06 -5.80783e+06 -5.76861e+06 -5.76861e+06 6.7995e+06
          6.7995e+06 1.63871e+07 -5.47638e+06 -5.43715e+06 -5.43716e+06 -5.39793e+06 -5.39793e+06 -5.3587e+06 -5.3587e+06 -1.51332e+07 -1.51332e+07 -1.50939e+07
          -1.50939e+07 -1.50547e+07 -1.50547e+07 -1.50155e+07 -1.50155e+07 -1.49763e+07 -1.49763e+07 -5.92551e+06 -5.92551e+06 -5.88628e+06 -5.88628e+06 -5.84706e+06
          -5.84706e+06 -5.80783e+06 -5.80783e+06 -5.76861e+06 -5.76861e+06 6.7995e+06 6.7995e+06 1.65439e+07 1.64656e+07 -5.39793e+06 -5.3587e+06 -5.3587e+06
          -1.51332e+07 -1.51332e+07 -1.50939e+07 -1.50939e+07 -1.50547e+07 -1.50547e+07 -1.50155e+07 -1.50155e+07 -1.49763e+07 -1.49763e+07 -5.92551e+06 -5.92551e+06
          -5.88628e+06 -5.88628e+06 -5.84706e+06 -5.84706e+06 -5.80783e+06 -5.80783e+06 -5.76861e+06 -5.76861e+06 6.7995e+06 6.7995e+06 -1.51332e+07 -1.50939e+07
          -1.50939e+07 -1.50547e+07 -1.50547e+07 -1.50155e+07 -1.50155e+07 -1.49763e+07 -1.49763e+07 -5.92551e+06 -5.92551e+06 -5.88628e+06 -5.88628e+06 -5.84706e+06
          -5.84706e+06 -5.80783e+06 -5.80783e+06 -5.7686e+06 -5.7686e+06 6.7995e+06 6.7995e+06 -1.50547e+07 -1.50155e+07 -1.50155e+07 -1.49763e+07 -1.49763e+07
          -5.92551e+06 -5.92551e+06 -5.88628e+06 -5.88628e+06 -5.84706e+06 -5.84706e+06 -5.80783e+06 -5.80783e+06 -5.7686e+06 -5.7686e+06 6.7995e+06 6.7995e+06
          -1.49763e+07 -5.92551e+06 -5.92551e+06 -5.88628e+06 -5.88628e+06 -5.84706e+06 -5.84706e+06 -5.80783e+06 -5.80783e+06 -5.7686e+06 -5.7686e+06 6.7995e+06
          6.7995e+06 -5.88628e+06 -5.84705e+06 -5.84705e+06 -5.80783e+06 -5.80783e+06 -5.7686e+06 -5.7686e+06 6.7995e+06 6.7995e+06 -5.80783e+06 -5.7686e+06
          -5.7686e+06 6.79952e+06 6.79951e+06 6.8008e+06
        </DataArray>
        <DataArray type="Float32" Name="ReservoirMobility" NumberOfComponents="1" format="ascii">
          2523.41 2523.41 2523.41 2523.59 2523.59 2523.59 2523.94 2523.94 2523.41 2523.41 2523.59 2523.59
          2523.59 2523.59 2523.59 2523.59 2523.59 2523.94 2523.41 2523.41 2523.59 2523.59 2523.59 2523.59
          2523.59 2523.59 2523.59 2523.59 2523.59 2523.59 2523.6 2523.41 2523.41 2523.59 2523.59 2523.59
          2523.59 2523.59 2523.59 2523.59 2523.59 2523.59 2523.59 2523.6 2523.6 2523.6 2523.6 2523.6
          2523.41 2523.41 2523.59 2523.59 2523.59 2523.59 2523.59 2523.59 2523.59 2523.59 2523.59 2523.59
          2523.6 2523.6 2523.6 2523.6 2523.6 2523.6 2523.6 2523.6 2523.6 2523.41 2523.41 2523.59
          2523.59 2523.59 2523.59 2523.59 2523.59 2523.59 2523.59 2523.59 2523.59 2523.6 2523.6 2523.6
          2523.6 2523.6 2523.6 2523.6 2523.6 2523.6 2523.6 2524.33 2524.33 2524.33 2523.41 2523.41
          2523.59 2523.59 2523.59 2523.59 2523.59 2523.59 2523.59 2523.59 2523.59 2523.59 2523.6 2523.6
          2523.6 2523.6 2523.6 2523.6 2523.6 2523.6 2523.6 2523.6 2524.33 2524.33 2524.33 2524.33
          2524.33 2524.33 2524.33 2523.41 2523.41 2523.59 2523.59 2523.59 2523.59 2523.59 2523.59 2523.59
          2523.59 2523.59 2523.59 2523.6 2523.6 2523.6 2523.6 2523.6 2523.6 2523.6 2523.6 2523.6
          2523.6 2524.33 2524.33 2524.33 2524.33 2524.33 2524.33 2524.33 2524.33 2524.33 2524.33 2524.9
          2523.41 2523.41 2523.59 2523.59 2523.59 2523.59 2523.59 2523.59 2523.59 2523.59 2523.59 2523.59
          2523.6 2523.6 2523.6 2523.6 2523.6 2523.6 2523.6 2523.6 2523.6 2523.6 2524.33 2524.33
          2524.33 2524.33 2524.33 2524.33 2524.33 2524.33 2524.33 2524.33 2524.9 2524.9 2523.41 2523.41
          2523.59 2523.59 2523.59 2523.59 2523.59 2523.59 2523.59 2523.59 2523.59 2523.59 2523.6 2523.6
          2523.6 2523.6 2523.6 2523.6 2523.6 2523.6 2523.6 2523.6 2524.33 2524.33 2524.33 2524.33
          2524.33 2524.33 2524.33 2524.33 2524.33 2524.33 2524.9 2524.9 2523.41 2523.41 2523.59 2523.59
          2523.59 2523.59 2523.59 2523.59 2523.59 2523.59 2523.59 2523.59 2523.6 2523.6 2523.6 2523.6
          2523.6 2523.6 2523.6 2523.6 2523.6 2523.6 2524.33 2524.33 2524.33 2524.33 2524.33 2524.33
          2524.33 2524.33 2524.33 2524.33 2524.9 2524.9 2523.41 2523.41 2523.59 2523.59 2523.59 2523.59
          2523.59 2523.59 2523.59 2523.59 2523.59 2523.59 2523.6 2523.6 2523.6 2523.6 2523.6 2523.6
          2523.6 2523.6 2523.6 2523.6 2524.33 2524.33 2524.33 2524.33 2524.33 2524.33 2524.33 2524.33
          2524.33 2524.33 2524.9 2524.9 2523.41 2523.59 2523.59 2523.59 2523.59 2523.59 2523.59 2523.59
          2523.59 2523.59 2523.59 2523.6 2523.6 2523.6 2523.6 2523.6 2523.6 2523.6 2523.6 2523.6
          2523.6 2524.33 2524.33 2524.33 2524.33 2524.33 2524.33 2524.33 2524.33 2524.33 2524.33 2524.9
          2524.9 2523.94 2523.59 2523.59 2523.59 2523.59 2523.59 2523.59 2523.59 2523.6 2523.6 2523.6
          2523.6 2523.6 2523.6 2523.6 2523.6 2523.6 2523.6 2524.33 2524.33 2524.33 2524.33 2524.33
          2524.33 2524.33 2524.33 2524.33 2524.33 2524.9 2524.9 2523.94 2523.94 2523.59 2523.59 2523.59
          2523.6 2523.6 2523.6 2523.6 2523.6 2523.6 2523.6 2523.6 2523.6 2523.6 2524.33 2524.33
          2524.33 2524.33 2524.33 2524.33 2524.33 2524.33 2524.33 2524.33 2524.9 2524.9 2523.6 2523.6
          2523.6 2523.6 2523.6 2523.6 2523.6 2523.6 2523.6 2524.33 2524.33 2524.33 2524.33 2524.33
          2524.33 2524.33 2524.33 2524.33 2524.33 2524.9 2524.9 2523.6 2523.6 2523.6 2523.6 2523.6
          2524.33 2524.33 2524.33 2524.33 2524.33 2524.33 2524.33 2524.33 2524.33 2524.33 2524.9 2524.9
          2523.6 2524.33 2524.33 2524.33 2524.33 2524.33 2524.33 2524.33 2524.33 2524.33 2524.33 2524.9
          2524.9 2524.33 2524.33 2524.33 2524.33 2524.33 2524.33 2524.33 2524.9 2524.9 2524.33 2524.33
          2524.33 2524.9 2524.9 2524.9
        </DataArray>
        <DataArray type="Float32" Name="LeakOfRate" NumberOfComponents="1" format="ascii">
          1.54264e-05 8.00218e-05 8.00204e-05 6.89644e-05 6.89643e-05 6.89644e-05 1.60357e-05 3.09115e-06 8.00238e-05 8.00237e-05 6.89646e-05 6.89646e-05
          6.89646e-05 6.89645e-05 6.89646e-05 6.89645e-05 6.89646e-05 1.60357e-05 8.00242e-05 8.00242e-05 6.89647e-05 6.89647e-05 6.89647e-05 6.89647e-05
          6.89647e-05 6.89647e-05 6.89647e-05 6.89647e-05 6.89647e-05 6.89647e-05 4.82343e-05 8.00244e-05 8.00244e-05 6.89649e-05 6.89648e-05 6.89648e-05
          6.89648e-05 6.89648e-05 6.89648e-05 6.89648e-05 6.89647e-05 6.89648e-05 6.89647e-05 4.82344e-05 4.82344e-05 4.82344e-05 4.82343e-05 4.82343e-05
          8.00246e-05 8.00245e-05 6.8965e-05 6.89649e-05 6.89649e-05 6.89649e-05 6.89649e-05 6.89649e-05 6.89649e-05 6.89648e-05 6.89648e-05 6.89648e-05
          4.82344e-05 4.82344e-05 4.82344e-05 4.82344e-05 4.82344e-05 4.82344e-05 4.82344e-05 4.82343e-05 4.82343e-05 8.00247e-05 8.00246e-05 6.89651e-05
          6.8965e-05 6.89651e-05 6.8965e-05 6.8965e-05 6.8965e-05 6.8965e-05 6.89649e-05 6.89649e-05 6.89649e-05 4.82345e-05 4.82345e-05 4.82345e-05
          4.82345e-05 4.82345e-05 4.82344e-05 4.82344e-05 4.82344e-05 4.82344e-05 4.82344e-05 6.93968e-05 6.93967e-05 6.93967e-05 8.00246e-05 8.00247e-05
          6.89651e-05 6.89651e-05 6.89651e-05 6.89651e-05 6.89651e-05 6.89651e-05 6.89651e-05 6.89651e-05 6.89651e-05 6.8965e-05 4.82346e-05 4.82346e-05
          4.82346e-05 4.82346e-05 4.82345e-05 4.82345e-05 4.82345e-05 4.82345e-05 4.82344e-05 4.82344e-05 6.93968e-05 6.93968e-05 6.93968e-05 6.93967e-05
          6.93967e-05 6.93966e-05 6.93965e-05 8.00245e-05 8.00246e-05 6.8965e-05 6.89651e-05 6.89651e-05 6.89651e-05 6.89652e-05 6.89652e-05 6.89652e-05
          6.89652e-05 6.89652e-05 6.89651e-05 4.82348e-05 4.82347e-05 4.82347e-05 4.82347e-05 4.82346e-05 4.82346e-05 4.82346e-05 4.82346e-05 4.82345e-05
          4.82345e-05 6.93969e-05 6.93969e-05 6.93969e-05 6.93968e-05 6.93968e-05 6.93968e-05 6.93967e-05 6.93966e-05 6.93965e-05 6.93963e-05 8.08154e-05
          8.00244e-05 8.00244e-05 6.89649e-05 6.8965e-05 6.8965e-05 6.89651e-05 6.89651e-05 6.89651e-05 6.89652e-05 6.89652e-05 6.89652e-05 6.89652e-05
          4.82349e-05 4.82349e-05 4.82349e-05 4.82348e-05 4.82348e-05 4.82347e-05 4.82347e-05 4.82347e-05 4.82346e-05 4.82346e-05 6.9397e-05 6.9397e-05
          6.9397e-05 6.93969e-05 6.93969e-05 6.93969e-05 6.93968e-05 6.93968e-05 6.93967e-05 6.93967e-05 8.09573e-05 8.09567e-05 8.00242e-05 8.00242e-05
          6.89648e-05 6.89649e-05 6.89649e-05 6.89649e-05 6.8965e-05 6.8965e-05 6.89651e-05 6.89651e-05 6.89651e-05 6.89652e-05 4.82349e-05 4.82349e-05
          4.8235e-05 4.8235e-05 4.8235e-05 4.82349e-05 4.82349e-05 4.82348e-05 4.82348e-05 4.82347e-05 6.93971e-05 6.93971e-05 6.93971e-05 6.9397e-05
          6.9397e-05 6.9397e-05 6.93969e-05 6.93969e-05 6.93968e-05 6.93968e-05 8.09583e-05 8.09582e-05 8.00237e-05 8.00238e-05 6.89647e-05 6.89647e-05
          6.89648e-05 6.89648e-05 6.89649e-05 6.89649e-05 6.89649e-05 6.8965e-05 6.8965e-05 6.89651e-05 4.82347e-05 4.82348e-05 4.82348e-05 4.82349e-05
          4.82349e-05 4.8235e-05 4.8235e-05 4.8235e-05 4.82349e-05 4.82349e-05 6.93973e-05 6.93972e-05 6.93972e-05 6.93971e-05 6.93971e-05 6.93971e-05
          6.9397e-05 6.9397e-05 6.93969e-05 6.93969e-05 8.09586e-05 8.09585e-05 8.00204e-05 8.00218e-05 6.89646e-05 6.89646e-05 6.89647e-05 6.89647e-05
          6.89648e-05 6.89648e-05 6.89648e-05 6.89649e-05 6.89649e-05 6.89649e-05 4.82346e-05 4.82346e-05 4.82347e-05 4.82347e-05 4.82347e-05 4.82348e-05
          4.82348e-05 4.82349e-05 4.82349e-05 4.82349e-05 6.93973e-05 6.93973e-05 6.93973e-05 6.93973e-05 6.93972e-05 6.93972e-05 6.93971e-05 6.93971e-05
          6.93971e-05 6.9397e-05 8.09587e-05 8.09587e-05 1.54264e-05 6.89643e-05 6.89644e-05 6.89645e-05 6.89646e-05 6.89647e-05 6.89647e-05 6.89647e-05
          6.89648e-05 6.89648e-05 6.89648e-05 4.82345e-05 4.82345e-05 4.82346e-05 4.82346e-05 4.82346e-05 4.82346e-05 4.82347e-05 4.82347e-05 4.82347e-05
          4.82348e-05 6.93972e-05 6.93973e-05 6.93973e-05 6.93973e-05 6.93973e-05 6.93973e-05 6.93972e-05 6.93972e-05 6.93972e-05 6.93971e-05 8.09589e-05
          8.09588e-05 1.60357e-05 6.89644e-05 6.89645e-05 6.89646e-05 6.89647e-05 6.89647e-05 6.89647e-05 6.89648e-05 4.82344e-05 4.82344e-05 4.82345e-05
          4.82345e-05 4.82345e-05 4.82345e-05 4.82346e-05 4.82346e-05 4.82346e-05 4.82346e-05 6.93971e-05 6.93971e-05 6.93971e-05 6.93972e-05 6.93972e-05
          6.93972e-05 6.93972e-05 6.93972e-05 6.93972e-05 6.93972e-05 8.09589e-05 8.09589e-05 3.09115e-06 1.60357e-05 6.89646e-05 6.89647e-05 6.89647e-05
          4.82344e-05 4.82344e-05 4.82344e-05 4.82344e-05 4.82344e-05 4.82345e-05 4.82345e-05 4.82345e-05 4.82345e-05 4.82345e-05 6.9397e-05 6.9397e-05
          6.9397e-05 6.93971e-05 6.93971e-05 6.93971e-05 6.93971e-05 6.93971e-05 6.93971e-05 6.93972e-05 8.09589e-05 8.09589e-05 4.82343e-05 4.82343e-05
          4.82344e-05 4.82344e-05 4.82344e-05 4.82344e-05 4.82344e-05 4.82344e-05 4.82344e-05 6.93969e-05 6.93969e-05 6.93969e-05 6.9397e-05 6.9397e-05
          6.9397e-05 6.9397e-05 6.9397e-05 6.9397e-05 6.93971e-05 8.09588e-05 8.09589e-05 4.82343e-05 4.82343e-05 4.82344e-05 4.82344e-05 4.82344e-05
          6.93968e-05 6.93968e-05 6.93968e-05 6.93969e-05 6.93969e-05 6.93969e-05 6.93969e-05 6.93969e-05 6.93969e-05 6.93969e-05 8.09587e-05 8.09587e-05
          4.82343e-05 6.93967e-05 6.93968e-05 6.93967e-05 6.93968e-05 6.93968e-05 6.93968e-05 6.93968e-05 6.93968e-05 6.93968e-05 6.93968e-05 8.09585e-05
          8.09586e-05 6.93967e-05 6.93966e-05 6.93967e-05 6.93966e-05 6.93967e-05 6.93967e-05 6.93967e-05 8.09582e-05 8.09583e-05 6.93965e-05 6.93963e-05
          6.93965e-05 8.09567e-05 8.09573e-05 8.08154e-05
        </DataArray>
        <DataArray type="Float32" Name="WellIndex" NumberOfComponents="1" format="ascii">
          8.32488e-12 8.32488e-12 8.32488e-12 4.38851e-11 4.38851e-11 4.38851e-11 1.36109e-13 1.36109e-13 8.32488e-12 8.32488e-12 4.38851e-11 4.38851e-11
          4.38851e-11 4.38851e-11 4.38851e-11 4.38851e-11 4.38851e-11 1.36109e-13 8.32488e-12 8.32488e-12 4.38851e-11 4.38851e-11 4.38851e-11 4.38851e-11
          4.38851e-11 4.38851e-11 4.38851e-11 4.38851e-11 4.38851e-11 4.38851e-11 1.32026e-10 8.32488e-12 8.32488e-12 4.38851e-11 4.38851e-11 4.38851e-11
          4.38851e-11 4.38851e-11 4.38851e-11 4.38851e-11 4.38851e-11 4.38851e-11 4.38851e-11 1.32026e-10 1.32026e-10 1.32026e-10 1.32026e-10 1.32026e-10
          8.32488e-12 8.32488e-12 4.38851e-11 4.38851e-11 4.38851e-11 4.38851e-11 4.38851e-11 4.38851e-11 4.38851e-11 4.38851e-11 4.38851e-11 4.38851e-11
          1.32026e-10 1.32026e-10 1.32026e-10 1.32026e-10 1.32026e-10 1.32026e-10 1.32026e-10 1.32026e-10 1.32026e-10 8.32488e-12 8.32488e-12 4.38851e-11
          4.38851e-11 4.38851e-11 4.38851e-11 4.38851e-11 4.38851e-11 4.38851e-11 4.38851e-11 4.38851e-11 4.38851e-11 1.32026e-10 1.32026e-10 1.32026e-10
          1.32026e-10 1.32026e-10 1.32026e-10 1.32026e-10 1.32026e-10 1.32026e-10 1.32026e-10 4.39371e-11 4.39371e-11 4.39371e-11 8.32488e-12 8.32488e-12
          4.38851e-11 4.38851e-11 4.38851e-11 4.38851e-11 4.38851e-11 4.38851e-11 4.38851e-11 4.38851e-11 4.38851e-11 4.38851e-11 1.32026e-10 1.32026e-10
          1.32026e-10 1.32026e-10 1.32026e-10 1.32026e-10 1.32026e-10 1.32026e-10 1.32026e-10 1.32026e-10 4.39371e-11 4.39371e-11 4.39371e-11 4.39371e-11
          4.39371e-11 4.39371e-11 4.39371e-11 8.32488e-12 8.32488e-12 4.38851e-11 4.38851e-11 4.38851e-11 4.38851e-11 4.38851e-11 4.38851e-11 4.38851e-11
          4.38851e-11 4.38851e-11 4.38851e-11 1.32026e-10 1.32026e-10 1.32026e-10 1.32026e-10 1.32026e-10 1.32026e-10 1.32026e-10 1.32026e-10 1.32026e-10
          1.32026e-10 4.39371e-11 4.39371e-11 4.39371e-11 4.39371e-11 4.39371e-11 4.39371e-11 4.39371e-11 4.39371e-11 4.39371e-11 4.39371e-11 8.88968e-12
          8.32488e-12 8.32488e-12 4.38851e-11 4.38851e-11 4.38851e-11 4.38851e-11 4.38851e-11 4.38851e-11 4.38851e-11 4.38851e-11 4.38851e-11 4.38851e-11
          1.32026e-10 1.32026e-10 1.32026e-10 1.32026e-10 1.32026e-10 1.32026e-10 1.32026e-10 1.32026e-10 1.32026e-10 1.32026e-10 4.39371e-11 4.39371e-11
          4.39371e-11 4.39371e-11 4.39371e-11 4.39371e-11 4.39371e-11 4.39371e-11 4.39371e-11 4.39371e-11 8.88968e-12 8.88968e-12 8.32488e-12 8.32488e-12
          4.38851e-11 4.38851e-11 4.38851e-11 4.38851e-11 4.38851e-11 4.38851e-11 4.38851e-11 4.38851e-11 4.38851e-11 4.38851e-11 1.32026e-10 1.32026e-10
          1.32026e-10 1.32026e-10 1.32026e-10 1.32026e-10 1.32026e-10 1.32026e-10 1.32026e-10 1.32026e-10 4.39371e-11 4.39371e-11 4.39371e-11 4.39371e-11
          4.39371e-11 4.39371e-11 4.39371e-11 4.39371e-11 4.39371e-11 4.39371e-11 8.88968e-12 8.88968e-12 8.32488e-12 8.32488e-12 4.38851e-11 4.38851e-11
          4.38851e-11 4.38851e-11 4.38851e-11 4.38851e-11 4.38851e-11 4.38851e-11 4.38851e-11 4.38851e-11 1.32026e-10 1.32026e-10 1.32026e-10 1.32026e-10
          1.32026e-10 1.32026e-10 1.32026e-10 1.32026e-10 1.32026e-10 1.32026e-10 4.39371e-11 4.39371e-11 4.39371e-11 4.39371e-11 4.39371e-11 4.39371e-11
          4.39371e-11 4.39371e-11 4.39371e-11 4.39371e-11 8.88968e-12 8.88968e-12 8.32488e-12 8.32488e-12 4.38851e-11 4.38851e-11 4.38851e-11 4.38851e-11
          4.38851e-11 4.38851e-11 4.38851e-11 4.38851e-11 4.38851e-11 4.38851e-11 1.32026e-10 1.32026e-10 1.32026e-10 1.32026e-10 1.32026e-10 1.32026e-10
          1.32026e-10 1.32026e-10 1.32026e-10 1.32026e-10 4.39371e-11 4.39371e-11 4.39371e-11 4.39371e-11 4.39371e-11 4.39371e-11 4.39371e-11 4.39371e-11
          4.39371e-11 4.39371e-11 8.88968e-12 8.88968e-12 8.32488e-12 4.38851e-11 4.38851e-11 4.38851e-11 4.38851e-11 4.38851e-11 4.38851e-11 4.38851e-11
          4.38851e-11 4.38851e-11 4.38851e-11 1.32026e-10 1.32026e-10 1.32026e-10 1.32026e-10 1.32026e-10 1.32026e-10 1.32026e-10 1.32026e-10 1.32026e-10
          1.32026e-10 4.39371e-11 4.39371e-11 4.39371e-11 4.39371e-11 4.39371e-11 4.39371e-11 4.39371e-11 4.39371e-11 4.39371e-11 4.39371e-11 8.88968e-12
          8.88968e-12 1.36109e-13 4.38851e-11 4.38851e-11 4.38851e-11 4.38851e-11 4.38851e-11 4.38851e-11 4.38851e-11 1.32026e-10 1.32026e-10 1.32026e-10
          1.32026e-10 1.32026e-10 1.32026e-10 1.32026e-10 1.32026e-10 1.32026e-10 1.32026e-10 4.39371e-11 4.39371e-11 4.39371e-11 4.39371e-11 4.39371e-11
          4.39371e-11 4.39371e-11 4.39371e-11 4.39371e-11 4.39371e-11 8.88968e-12 8.88968e-12 1.36109e-13 1.36109e-13 4.38851e-11 4.38851e-11 4.38851e-11
          1.32026e-10 1.32026e-10 1.32026e-10 1.32026e-10 1.32026e-10 1.32026e-10 1.32026e-10 1.32026e-10 1.32026e-10 1.32026e-10 4.39371e-11 4.39371e-11
          4.39371e-11 4.39371e-11 4.39371e-11 4.39371e-11 4.39371e-11 4.39371e-11 4.39371e-11 4.39371e-11 8.88968e-12 8.88968e-12 1.32026e-10 1.32026e-10
          1.32026e-10 1.32026e-10 1.32026e-10 1.32026e-10 1.32026e-10 1.32026e-10 1.32026e-10 4.39371e-11 4.39371e-11 4.39371e-11 4.39371e-11 4.39371e-11
          4.39371e-11 4.39371e-11 4.39371e-11 4.39371e-11 4.39371e-11 8.88968e-12 8.88968e-12 1.32026e-10 1.32026e-10 1.32026e-10 1.32026e-10 1.32026e-10
          4.39371e-11 4.39371e-11 4.39371e-11 4.39371e-11 4.39371e-11 4.39371e-11 4.39371e-11 4.39371e-11 4.39371e-11 4.39371e-11 8.88968e-12 8.88968e-12
          1.32026e-10 4.39371e-11 4.39371e-11 4.39371e-11 4.39371e-11 4.39371e-11 4.39371e-11 4.39371e-11 4.39371e-11 4.39371e-11 4.39371e-11 8.88968e-12
          8.88968e-12 4.39371e-11 4.39371e-11 4.39371e-11 4.39371e-11 4.39371e-11 4.39371e-11 4.39371e-11 8.88968e-12 8.88968e-12 4.39371e-11 4.39371e-11
          4.39371e-11 8.88968e-12 8.88968e-12 8.88968e-12
        </DataArray>
        <DataArray type="Float32" Name="FractureWidth" NumberOfComponents="1" format="ascii">
          0 0.00547853 0.00412018 0.018122 0.0146066 0.0158808 0 0 0.00835091 0.00762964 0.0243836 0.0227632
          0.0295774 0.0265012 0.029554 0.0233166 0.0214347 0 0.00993542 0.00953365 0.027607 0.026741 0.0353748 0.0338658
          0.0398911 0.0373259 0.0415412 0.0370697 0.0396573 0.0310037 0.0338512 0.0108239 0.0106001 0.0293775 0.0288976 0.038415
          0.0376027 0.0448528 0.043547 0.0496178 0.0475566 0.0533167 0.0500204 0.060361 0.0548335 0.0550411 0.0446027 0.0370889
          0.0112982 0.0111845 0.0303478 0.0300895 0.040077 0.0396328 0.0474912 0.046785 0.0536789 0.0526027 0.0595308 0.0579162
          0.0700233 0.0675967 0.0707809 0.0670631 0.066118 0.0601668 0.0551432 0.0446648 0.0340047 0.0114924 0.0114575 0.0308214
          0.0307078 0.0409511 0.0407276 0.048913 0.0485378 0.0558529 0.0552736 0.062752 0.061895 0.0747355 0.0734954 0.0776828
          0.075903 0.0763814 0.0738209 0.0709396 0.0672101 0.0607309 0.0551601 0.0406818 0.0318917 0.0222639 0.0114575 0.0114924
          0.0309316 0.0309316 0.0413044 0.0412361 0.0496009 0.0494369 0.0569837 0.0566946 0.0644657 0.0640149 0.0772221 0.0765618
          0.0812084 0.0802737 0.081326 0.0800284 0.077858 0.0760747 0.0704519 0.0680133 0.0545039 0.0511762 0.0428457 0.0382983
          0.0307266 0.0242994 0.016644 0.0111845 0.0112982 0.0307078 0.0308214 0.0412361 0.0413044 0.0497605 0.0497605 0.0574382
          0.0573503 0.0652892 0.0650933 0.0785061 0.0781784 0.0830705 0.0825815 0.083921 0.0832328 0.0813888 0.080453 0.0751816
          0.0739378 0.060762 0.0591382 0.0510212 0.04894 0.0412774 0.0386719 0.0308217 0.0276685 0.0191496 0.0154994 0.00133354
          0.0106001 0.0108239 0.0300895 0.0303478 0.0407276 0.0409511 0.0494369 0.0496009 0.0573503 0.0574382 0.0654798 0.0654798
          0.0790204 0.0789209 0.0839622 0.0837502 0.0852571 0.0849163 0.0832527 0.0827633 0.0776742 0.0770125 0.0639972 0.0631372
          0.0551115 0.0540289 0.0462952 0.0449776 0.0367203 0.0351908 0.0255764 0.0239233 0.00683689 0.00543931 0.00953365 0.00993542
          0.0288976 0.0293775 0.0396328 0.040077 0.0485378 0.048913 0.0566946 0.0569837 0.0650933 0.0652892 0.0789209 0.0790204
          0.0841682 0.0841682 0.0857915 0.0856882 0.084145 0.0839329 0.0789602 0.0786321 0.0657157 0.0652638 0.0572953 0.0567138
          0.0489516 0.0482414 0.0397909 0.038972 0.0288462 0.0279702 0.00976826 0.00903544 0.00762964 0.00835091 0.026741 0.027607
          0.0376027 0.038415 0.046785 0.0474912 0.0552736 0.0558529 0.0640149 0.0644657 0.0781784 0.0785061 0.0837502 0.0839622
          0.0856882 0.0857915 0.0843512 0.0843512 0.0794751 0.0793756 0.066541 0.0663447 0.0584296 0.0581398 0.0503797 0.0500031
          0.0414634 0.0410168 0.0306321 0.0301487 0.0113716 0.0109659 0.00412018 0.00547853 0.0227632 0.0243836 0.0338658 0.0353748
          0.043547 0.0448528 0.0526027 0.0536789 0.061895 0.062752 0.0765618 0.0772221 0.0825815 0.0830705 0.0849163 0.0852571
          0.0839329 0.084145 0.0793756 0.0794751 0.0667319 0.0667319 0.0588852 0.0587971 0.0510699 0.0509055 0.0423413 0.0421169
          0.031608 0.0313484 0.0122668 0.0120416 0 0.0146066 0.018122 0.0265012 0.0295774 0.0373259 0.0398911 0.0475566
          0.0496178 0.0579162 0.0595308 0.0734954 0.0747355 0.0802737 0.0812084 0.0832328 0.083921 0.0827633 0.0832527 0.0786321
          0.0789602 0.0663447 0.066541 0.0587971 0.0588852 0.0512299 0.0512299 0.0426958 0.0426273 0.0320836 0.0319696 0.0127436
          0.0126294 0 0.0158808 0.0233166 0.029554 0.0370697 0.0415412 0.0500204 0.0533167 0.0675967 0.0700233 0.075903
          0.0776828 0.0800284 0.081326 0.080453 0.0813888 0.0770125 0.0776742 0.0652638 0.0657157 0.0581398 0.0584296 0.0509055
          0.0510699 0.0426273 0.0426958 0.0321942 0.0321942 0.0129386 0.0129036 0 0 0.0214347 0.0310037 0.0396573
          0.0548335 0.060361 0.0670631 0.0707809 0.0738209 0.0763814 0.0760747 0.077858 0.0739378 0.0751816 0.0631372 0.0639972
          0.0567138 0.0572953 0.0500031 0.0503797 0.0421169 0.0423413 0.0319696 0.0320836 0.0129036 0.0129386 0.0338512 0.0446027
          0.0550411 0.0601668 0.066118 0.0672101 0.0709396 0.0680133 0.0704519 0.0591382 0.060762 0.0540289 0.0551115 0.0482414
          0.0489516 0.0410168 0.0414634 0.0313484 0.031608 0.0126294 0.0127436 0.0370889 0.0446648 0.0551432 0.0551601 0.0607309
          0.0511762 0.0545039 0.04894 0.0510212 0.0449776 0.0462952 0.038972 0.0397909 0.0301487 0.0306321 0.0120416 0.0122668
          0.0340047 0.0318917 0.0406818 0.0382983 0.0428457 0.0386719 0.0412774 0.0351908 0.0367203 0.0279702 0.0288462 0.0109659
          0.0113716 0.0222639 0.0242994 0.0307266 0.0276685 0.0308217 0.0239233 0.0255764 0.00903544 0.00976826 0.016644 0.0154994
          0.0191496 0.00543931 0.00683689 0.00133354
        </DataArray>
        <DataArray type="Float32" Name="FlowWidth" NumberOfComponents="1" format="ascii">
          0.0001 0.00547853 0.00412018 0.018122 0.0146066 0.0158808 0.0001 0.0001 0.00835091 0.00762964 0.0243836 0.0227632
          0.0295774 0.0265012 0.029554 0.0233166 0.0214347 0.0001 0.00993542 0.00953365 0.027607 0.026741 0.0353748 0.0338658
          0.0398911 0.0373259 0.0415412 0.0370697 0.0396573 0.0310037 0.0338512 0.0108239 0.0106001 0.0293775 0.0288976 0.038415
          0.0376027 0.0448528 0.043547 0.0496178 0.0475566 0.0533167 0.0500204 0.060361 0.0548335 0.0550411 0.0446027 0.0370889
          0.0112982 0.0111845 0.0303478 0.0300895 0.040077 0.0396328 0.0474912 0.046785 0.0536789 0.0526027 0.0595308 0.0579162
          0.0700233 0.0675967 0.0707809 0.0670631 0.066118 0.0601668 0.0551432 0.0446648 0.0340047 0.0114924 0.0114575 0.0308214
          0.0307078 0.0409511 0.0407276 0.048913 0.0485378 0.0558529 0.0552736 0.062752 0.061895 0.0747355 0.0734954 0.0776828
          0.075903 0.0763814 0.0738209 0.0709396 0.0672101 0.0607309 0.0551601 0.0406818 0.0318917 0.0222639 0.0114575 0.0114924
          0.0309316 0.0309316 0.0413044 0.0412361 0.0496009 0.0494369 0.0569837 0.0566946 0.0644657 0.0640149 0.0772221 0.0765618
          0.0812084 0.0802737 0.081326 0.0800284 0.077858 0.0760747 0.0704519 0.0680133 0.0545039 0.0511762 0.0428457 0.0382983
          0.0307266 0.0242994 0.016644 0.0111845 0.0112982 0.0307078 0.0308214 0.0412361 0.0413044 0.0497605 0.0497605 0.0574382
          0.0573503 0.0652892 0.0650933 0.0785061 0.0781784 0.0830705 0.0825815 0.083921 0.0832328 0.0813888 0.080453 0.0751816
          0.0739378 0.060762 0.0591382 0.0510212 0.04894 0.0412774 0.0386719 0.0308217 0.0276685 0.0191496 0.0154994 0.00133354
          0.0106001 0.0108239 0.0300895 0.0303478 0.0407276 0.0409511 0.0494369 0.0496009 0.0573503 0.0574382 0.0654798 0.0654798
          0.0790204 0.0789209 0.0839622 0.0837502 0.0852571 0.0849163 0.0832527 0.0827633 0.0776742 0.0770125 0.0639972 0.0631372
          0.0551115 0.0540289 0.0462952 0.0449776 0.0367203 0.0351908 0.0255764 0.0239233 0.00683689 0.00543931 0.00953365 0.00993542
          0.0288976 0.0293775 0.0396328 0.040077 0.0485378 0.048913 0.0566946 0.0569837 0.0650933 0.0652892 0.0789209 0.0790204
          0.0841682 0.0841682 0.0857915 0.0856882 0.084145 0.0839329 0.0789602 0.0786321 0.0657157 0.0652638 0.0572953 0.0567138
          0.0489516 0.0482414 0.0397909 0.038972 0.0288462 0.0279702 0.00976826 0.00903544 0.00762964 0.00835091 0.026741 0.027607
          0.0376027 0.038415 0.046785 0.0474912 0.0552736 0.0558529 0.0640149 0.0644657 0.0781784 0.0785061 0.0837502 0.0839622
          0.0856882 0.0857915 0.0843512 0.0843512 0.0794751 0.0793756 0.066541 0.0663447 0.0584296 0.0581398 0.0503797 0.0500031
          0.0414634 0.0410168 0.0306321 0.0301487 0.0113716 0.0109659 0.00412018 0.00547853 0.0227632 0.0243836 0.0338658 0.0353748
          0.043547 0.0448528 0.0526027 0.0536789 0.061895 0.062752 0.0765618 0.0772221 0.0825815 0.0830705 0.0849163 0.0852571
          0.0839329 0.084145 0.0793756 0.0794751 0.0667319 0.0667319 0.0588852 0.0587971 0.0510699 0.0509055 0.0423413 0.0421169
          0.031608 0.0313484 0.0122668 0.0120416 0.0001 0.0146066 0.018122 0.0265012 0.0295774 0.0373259 0.0398911 0.0475566
          0.0496178 0.0579162 0.0595308 0.0734954 0.0747355 0.0802737 0.0812084 0.0832328 0.083921 0.0827633 0.0832527 0.0786321
          0.0789602 0.0663447 0.066541 0.0587971 0.0588852 0.0512299 0.0512299 0.0426958 0.0426273 0.0320836 0.0319696 0.0127436
          0.0126294 0.0001 0.0158808 0.0233166 0.029554 0.0370697 0.0415412 0.0500204 0.0533167 0.0675967 0.0700233 0.075903
          0.0776828 0.0800284 0.081326 0.080453 0.0813888 0.0770125 0.0776742 0.0652638 0.0657157 0.0581398 0.0584296 0.0509055
          0.0510699 0.0426273 0.0426958 0.0321942 0.0321942 0.0129386 0.0129036 0.0001 0.0001 0.0214347 0.0310037 0.0396573
          0.0548335 0.060361 0.0670631 0.0707809 0.0738209 0.0763814 0.0760747 0.077858 0.0739378 0.0751816 0.0631372 0.0639972
          0.0567138 0.0572953 0.0500031 0.0503797 0.0421169 0.0423413 0.0319696 0.0320836 0.0129036 0.0129386 0.0338512 0.0446027
          0.0550411 0.0601668 0.066118 0.0672101 0.0709396 0.0680133 0.0704519 0.0591382 0.060762 0.0540289 0.0551115 0.0482414
          0.0489516 0.0410168 0.0414634 0.0313484 0.031608 0.0126294 0.0127436 0.0370889 0.0446648 0.0551432 0.0551601 0.0607309
          0.0511762 0.0545039 0.04894 0.0510212 0.0449776 0.0462952 0.038972 0.0397909 0.0301487 0.0306321 0.0120416 0.0122668
          0.0340047 0.0318917 0.0406818 0.0382983 0.0428457 0.0386719 0.0412774 0.0351908 0.0367203 0.0279702 0.0288462 0.0109659
          0.0113716 0.0222639 0.0242994 0.0307266 0.0276685 0.0308217 0.0239233 0.0255764 0.00903544 0.00976826 0.016644 0.0154994
          0.0191496 0.00543931 0.00683689 0.00133354
        </DataArray>
        <DataArray type="Float32" Name="stressIntensityK1" NumberOfComponents="1" format="ascii">
          0 1.38967e+07 1.04511e+07 nan nan nan 0 0 2.11827e+07 1.93531e+07 nan nan
          nan nan nan nan nan 0 2.52019e+07 2.41828e+07 nan nan nan nan
          nan nan nan nan nan nan 8.58658e+07 2.74556e+07 2.6888e+07 nan nan nan
          nan nan nan nan nan nan nan nan nan nan nan 9.40785e+07
          2.86588e+07 2.83703e+07 nan nan nan nan nan nan nan nan nan nan
          nan nan nan nan nan nan nan nan 8.62552e+07 2.91512e+07 2.90627e+07 nan
          nan nan nan nan nan nan nan nan nan nan nan nan
          nan nan nan nan nan nan nan nan nan 5.64738e+07 2.90627e+07 2.91512e+07
          nan nan nan nan nan nan nan nan nan nan nan nan
          nan nan nan nan nan nan nan nan nan nan nan nan
          nan nan 4.22188e+07 2.83703e+07 2.86588e+07 nan nan nan nan nan nan nan
          nan nan nan nan nan nan nan nan nan nan nan nan
          nan nan nan nan nan nan nan nan nan nan nan 3.38261e+06
          2.6888e+07 2.74556e+07 nan nan nan nan nan nan nan nan nan nan
          nan nan nan nan nan nan nan nan nan nan nan nan
          nan nan nan nan nan nan nan nan 1.73423e+07 1.37972e+07 2.41828e+07 2.52019e+07
          nan nan nan nan nan nan nan nan nan nan nan nan
          nan nan nan nan nan nan nan nan nan nan nan nan
          nan nan nan nan nan nan 2.47779e+07 2.2919e+07 1.93531e+07 2.11827e+07 nan nan
          nan nan nan nan nan nan nan nan nan nan nan nan
          nan nan nan nan nan nan nan nan nan nan nan nan
          nan nan nan nan 2.88448e+07 2.78159e+07 1.04511e+07 1.38967e+07 nan nan nan nan
          nan nan nan nan nan nan nan nan nan nan nan nan
          nan nan nan nan nan nan nan nan nan nan nan nan
          nan nan 3.11156e+07 3.05444e+07 0 nan nan nan nan nan nan nan
          nan nan nan nan nan nan nan nan nan nan nan nan
          nan nan nan nan nan nan nan nan nan nan nan 3.23251e+07
          3.20353e+07 0 nan nan nan nan nan nan nan nan nan nan
          nan nan nan nan nan nan nan nan nan nan nan nan
          nan nan nan nan nan 3.28196e+07 3.27308e+07 0 0 nan nan nan
          nan nan nan nan nan nan nan nan nan nan nan nan
          nan nan nan nan nan nan nan nan 3.27308e+07 3.28196e+07 8.58658e+07 nan
          nan nan nan nan nan nan nan nan nan nan nan nan
          nan nan nan nan nan 3.20353e+07 3.23251e+07 9.40785e+07 nan nan nan nan
          nan nan nan nan nan nan nan nan nan nan 3.05444e+07 3.11156e+07
          8.62552e+07 nan nan nan nan nan nan nan nan nan nan 2.78159e+07
          2.88448e+07 5.64738e+07 nan nan nan nan nan nan 2.2919e+07 2.47779e+07 4.22188e+07 nan
          nan 1.37972e+07 1.73423e+07 3.38261e+06
        </DataArray>
      </CellData>
      <Points>
        <DataArray type="Float32" Name="Coordinates" NumberOfComponents="3" format="ascii">
          912.362 995.5 2242 905.433 995.5 2246 905.433 995.5 2238 926.218 995.5 2242
          919.29 995.5 2246 919.29 995.5 2238 912.362 995.5 2234 905.433 995.5 2230
          898.505 995.5 2234 898.505 995.5 2226 940.074 995.5 2242 933.146 995.5 2246
          933.146 995.5 2238 926.218 995.5 2234 919.29 995.5 2230 912.362 995.5 2226
          905.433 995.5 2222 953.931 995.5 2242 947.003 995.5 2246 947.003 995.5 2238
          940.074 995.5 2234 933.146 995.5 2230 926.218 995.5 2226 919.29 995.5 2222
          912.362 995.5 2218 905.433 995.5 2214 967.787 995.5 2242 960.859 995.5 2246
          960.859 995.5 2238 953.931 995.5 2234 947.003 995.5 2230 940.074 995.5 2226
          933.146 995.5 2222 926.218 995.5 2218 919.29 995.5 2214 912.362 995.5 2210
          905.433 995.5 2206 981.644 995.5 2242 974.715 995.5 2246 974.715 995.5 2238
          967.787 995.5 2234 960.859 995.5 2230 953.931 995.5 2226 947.003 995.5 2222
          940.074 995.5 2218 933.146 995.5 2214 926.218 995.5 2210 919.29 995.5 2206
          912.362 995.5 2202 905.433 995.5 2198 995.5 995.5 2242 988.572 995.5 2246
          988.572 995.5 2238 981.644 995.5 2234 974.715 995.5 2230 967.787 995.5 2226
          960.859 995.5 2222 953.931 995.5 2218 947.003 995.5 2214 940.074 995.5 2210
          933.146 995.5 2206 926.218 995.5 2202 919.29 995.5 2198 912.362 995.5 2194
          905.433 995.5 2190 1009.36 995.5 2242 1002.43 995.5 2246 1002.43 995.5 2238
          995.5 995.5 2234 988.572 995.5 2230 981.644 995.5 2226 974.715 995.5 2222
          967.787 995.5 2218 960.859 995.5 2214 953.931 995.5 2210 947.003 995.5 2206
          940.074 995.5 2202 933.146 995.5 2198 926.218 995.5 2194 919.29 995.5 2190
          912.362 995.5 2186 905.433 995.5 2182 1023.21 995.5 2242 1016.28 995.5 2246
          1016.28 995.5 2238 1009.36 995.5 2234 1002.43 995.5 2230 995.5 995.5 2226
          988.572 995.5 2222 981.644 995.5 2218 974.715 995.5 2214 967.787 995.5 2210
          960.859 995.5 2206 953.931 995.5 2202 947.003 995.5 2198 940.074 995.5 2194
          933.146 995.5 2190 926.218 995.5 2186 919.29 995.5 2182 912.362 995.5 2178
          905.433 995.5 2174 1037.07 995.5 2242 1030.14 995.5 2246 1030.14 995.5 2238
          1023.21 995.5 2234 1016.28 995.5 2230 1009.36 995.5 2226 1002.43 995.5 2222
          995.5 995.5 2218 988.572 995.5 2214 981.644 995.5 2210 974.715 995.5 2206
          967.787 995.5 2202 960.859 995.5 2198 953.931 995.5 2194 947.003 995.5 2190
          940.074 995.5 2186 933.146 995.5 2182 926.218 995.5 2178 919.29 995.5 2174
          1050.93 995.5 2242 1044 995.5 2246 1044 995.5 2238 1037.07 995.5 2234
          1030.14 995.5 2230 1023.21 995.5 2226 1016.28 995.5 2222 1009.36 995.5 2218
          1002.43 995.5 2214 995.5 995.5 2210 988.572 995.5 2206 981.644 995.5 2202
          974.715 995.5 2198 967.787 995.5 2194 960.859 995.5 2190 953.931 995.5 2186
          947.003 995.5 2182 940.074 995.5 2178 933.146 995.5 2174 1064.78 995.5 2242
          1057.85 995.5 2246 1057.85 995.5 2238 1050.93 995.5 2234 1044 995.5 2230
          1037.07 995.5 2226 1030.14 995.5 2222 1023.21 995.5 2218 1016.28 995.5 2214
          1009.36 995.5 2210 1002.43 995.5 2206 995.5 995.5 2202 988.572 995.5 2198
          981.644 995.5 2194 974.715 995.5 2190 967.787 995.5 2186 960.859 995.5 2182
          953.931 995.5 2178 947.003 995.5 2174 1078.64 995.5 2242 1071.71 995.5 2246
          1071.71 995.5 2238 1064.78 995.5 2234 1057.85 995.5 2230 1050.93 995.5 2226
          1044 995.5 2222 1037.07 995.5 2218 1030.14 995.5 2214 1023.21 995.5 2210
          1016.28 995.5 2206 1009.36 995.5 2202 1002.43 995.5 2198 995.5 995.5 2194
          988.572 995.5 2190 981.644 995.5 2186 974.715 995.5 2182 967.787 995.5 2178
          960.859 995.5 2174 1085.57 995.5 2246 1085.57 995.5 2238 1078.64 995.5 2234
          1071.71 995.5 2230 1064.78 995.5 2226 1057.85 995.5 2222 1050.93 995.5 2218
          1044 995.5 2214 1037.07 995.5 2210 1030.14 995.5 2206 1023.21 995.5 2202
          1016.28 995.5 2198 1009.36 995.5 2194 1002.43 995.5 2190 995.5 995.5 2186
          988.572 995.5 2182 981.644 995.5 2178 974.715 995.5 2174 1092.49 995.5 2234
          1085.57 995.5 2230 1078.64 995.5 2226 1071.71 995.5 2222 1064.78 995.5 2218
          1057.85 995.5 2214 1050.93 995.5 2210 1044 995.5 2206 1037.07 995.5 2202
          1030.14 995.5 2198 1023.21 995.5 2194 1016.28 995.5 2190 1009.36 995.5 2186
          1002.43 995.5 2182 995.5 995.5 2178 988.572 995.5 2174 1092.49 995.5 2226
          1085.57 995.5 2222 1078.64 995.5 2218 1071.71 995.5 2214 1064.78 995.5 2210
          1057.85 995.5 2206 1050.93 995.5 2202 1044 995.5 2198 1037.07 995.5 2194
          1030.14 995.5 2190 1023.21 995.5 2186 1016.28 995.5 2182 1009.36 995.5 2178
          1002.43 995.5 2174 1085.57 995.5 2214 1078.64 995.5 2210 1071.71 995.5 2206
          1064.78 995.5 2202 1057.85 995.5 2198 1050.93 995.5 2194 1044 995.5 2190
          1037.07 995.5 2186 1030.14 995.5 2182 1023.21 995.5 2178 1016.28 995.5 2174
          1085.57 995.5 2206 1078.64 995.5 2202 1071.71 995.5 2198 1064.78 995.5 2194
          1057.85 995.5 2190 1050.93 995.5 2186 1044 995.5 2182 1037.07 995.5 2178
          1030.14 995.5 2174 1085.57 995.5 2198 1078.64 995.5 2194 1071.71 995.5 2190
          1064.78 995.5 2186 1057.85 995.5 2182 1050.93 995.5 2178 1044 995.5 2174
          1085.57 995.5 2190 1078.64 995.5 2186 1071.71 995.5 2182 1064.78 995.5 2178
          1057.85 995.5 2174 1085.57 995.5 2182 1078.64 995.5 2178 1071.71 995.5 2174
          1085.57 995.5 2174
        </DataArray>
      </Points>
      <Cells>
        <DataArray type="Int32" Name="connectivity" NumberOfComponents="1" format="ascii">
          0 1 2 3 4 5 4 5 0 5 0 6
          0 6 2 6 2 7 2 7 8 7 8 9
          10 11 12 11 12 3 12 3 13 3 13 5
          13 5 14 5 14 6 14 6 15 6 15 7
          15 7 16 7 16 9 17 18 19 18 19 10
          19 10 20 10 20 12 20 12 21 12 21 13
          21 13 22 13 22 14 22 14 23 14 23 15
          23 15 24 15 24 16 24 16 25 26 27 28
          27 28 17 28 17 29 17 29 19 29 19 30
          19 30 20 30 20 31 20 31 21 31 21 32
          21 32 22 32 22 33 22 33 23 33 23 34
          23 34 24 34 24 35 24 35 25 35 25 36
          37 38 39 38 39 26 39 26 40 26 40 28
          40 28 41 28 41 29 41 29 42 29 42 30
          42 30 43 30 43 31 43 31 44 31 44 32
          44 32 45 32 45 33 45 33 46 33 46 34
          46 34 47 34 47 35 47 35 48 35 48 36
          48 36 49 50 51 52 51 52 37 52 37 53
          37 53 39 53 39 54 39 54 40 54 40 55
          40 55 41 55 41 56 41 56 42 56 42 57
          42 57 43 57 43 58 43 58 44 58 44 59
          44 59 45 59 45 60 45 60 46 60 46 61
          46 61 47 61 47 62 47 62 48 62 48 63
          48 63 49 63 49 64 65 66 67 66 67 50
          67 50 68 50 68 52 68 52 69 52 69 53
          69 53 70 53 70 54 70 54 71 54 71 55
          71 55 72 55 72 56 72 56 73 56 73 57
          73 57 74 57 74 58 74 58 75 58 75 59
          75 59 76 59 76 60 76 60 77 60 77 61
          77 61 78 61 78 62 78 62 79 62 79 63
          79 63 80 63 80 64 80 64 81 82 83 84
          83 84 65 84 65 85 65 85 67 85 67 86
          67 86 68 86 68 87 68 87 69 87 69 88
          69 88 70 88 70 89 70 89 71 89 71 90
          71 90 72 90 72 91 72 91 73 91 73 92
          73 92 74 92 74 93 74 93 75 93 75 94
          75 94 76 94 76 95 76 95 77 95 77 96
          77 96 78 96 78 97 78 97 79 97 79 98
          79 98 80 98 80 99 80 99 81 99 81 100
          101 102 103 102 103 82 103 82 104 82 104 84
          104 84 105 84 105 85 105 85 106 85 106 86
          106 86 107 86 107 87 107 87 108 87 108 88
          108 88 109 88 109 89 109 89 110 89 110 90
          110 90 111 90 111 91 111 91 112 91 112 92
          112 92 113 92 113 93 113 93 114 93 114 94
          114 94 115 94 115 95 115 95 116 95 116 96
          116 96 117 96 117 97 117 97 118 97 118 98
          118 98 119 98 119 99 120 121 122 121 122 101
          122 101 123 101 123 103 123 103 124 103 124 104
          124 104 125 104 125 105 125 105 126 105 126 106
          126 106 127 106 127 107 127 107 128 107 128 108
          128 108 129 108 129 109 129 109 130 109 130 110
          130 110 131 110 131 111 131 111 132 111 132 112
          132 112 133 112 133 113 133 113 134 113 134 114
          134 114 135 114 135 115 135 115 136 115 136 116
          136 116 137 116 137 117 137 117 138 117 138 118
          139 140 141 140 141 120 141 120 142 120 142 122
          142 122 143 122 143 123 143 123 144 123 144 124
          144 124 145 124 145 125 145 125 146 125 146 126
          146 126 147 126 147 127 147 127 148 127 148 128
          148 128 149 128 149 129 149 129 150 129 150 130
          150 130 151 130 151 131 151 131 152 131 152 132
          152 132 153 132 153 133 153 133 154 133 154 134
          154 134 155 134 155 135 155 135 156 135 156 136
          156 136 157 136 157 137 158 159 160 159 160 139
          160 139 161 139 161 141 161 141 162 141 162 142
          162 142 163 142 163 143 163 143 164 143 164 144
          164 144 165 144 165 145 165 145 166 145 166 146
          166 146 167 146 167 147 167 147 168 147 168 148
          168 148 169 148 169 149 169 149 170 149 170 150
          170 150 171 150 171 151 171 151 172 151 172 152
          172 152 173 152 173 153 173 153 174 153 174 154
          174 154 175 154 175 155 175 155 176 155 176 156
          177 178 158 178 158 179 158 179 160 179 160 180
          160 180 161 180 161 181 161 181 162 181 162 182
          162 182 163 182 163 183 163 183 164 183 164 184
          164 184 165 184 165 185 165 185 166 185 166 186
          166 186 167 186 167 187 167 187 168 187 168 188
          168 188 169 188 169 189 169 189 170 189 170 190
          170 190 171 190 171 191 171 191 172 191 172 192
          172 192 173 192 173 193 173 193 174 193 174 194
          174 194 175 195 178 196 178 196 179 196 179 197
          179 197 180 197 180 198 180 198 181 198 181 199
          181 199 182 199 182 200 182 200 183 200 183 201
          183 201 184 201 184 202 184 202 185 202 185 203
          185 203 186 203 186 204 186 204 187 204 187 205
          187 205 188 205 188 206 188 206 189 206 189 207
          189 207 190 207 190 208 190 208 191 208 191 209
          191 209 192 209 192 210 192 210 193 195 211 196
          211 196 212 196 212 197 212 197 213 197 213 198
          213 198 214 198 214 199 214 199 215 199 215 200
          215 200 216 200 216 201 216 201 217 201 217 202
          217 202 218 202 218 203 218 203 219 203 219 204
          219 204 220 204 220 205 220 205 221 205 221 206
          221 206 222 206 222 207 222 207 223 207 223 208
          223 208 224 208 224 209 212 225 213 225 213 226
          213 226 214 226 214 227 214 227 215 227 215 228
          215 228 216 228 216 229 216 229 217 229 217 230
          217 230 218 230 218 231 218 231 219 231 219 232
          219 232 220 232 220 233 220 233 221 233 221 234
          221 234 222 234 222 235 222 235 223 225 236 226
          236 226 237 226 237 227 237 227 238 227 238 228
          238 228 239 228 239 229 239 229 240 229 240 230
          240 230 241 230 241 231 241 231 242 231 242 232
          242 232 243 232 243 233 243 233 244 233 244 234
          236 245 237 245 237 246 237 246 238 246 238 247
          238 247 239 247 239 248 239 248 240 248 240 249
          240 249 241 249 241 250 241 250 242 250 242 251
          242 251 243 245 252 246 252 246 253 246 253 247
          253 247 254 247 254 248 254 248 255 248 255 249
          255 249 256 249 256 250 252 257 253 257 253 258
          253 258 254 258 254 259 254 259 255 257 260 258
        </DataArray>
        <DataArray type="Int32" Name="offsets" NumberOfComponents="1" format="ascii">
          3 6 9 12 15 18 21 24 27 30 33 36
          39 42 45 48 51 54 57 60 63 66 69 72
          75 78 81 84 87 90 93 96 99 102 105 108
          111 114 117 120 123 126 129 132 135 138 141 144
          147 150 153 156 159 162 165 168 171 174 177 180
          183 186 189 192 195 198 201 204 207 210 213 216
          219 222 225 228 231 234 237 240 243 246 249 252
          255 258 261 264 267 270 273 276 279 282 285 288
          291 294 297 300 303 306 309 312 315 318 321 324
          327 330 333 336 339 342 345 348 351 354 357 360
          363 366 369 372 375 378 381 384 387 390 393 396
          399 402 405 408 411 414 417 420 423 426 429 432
          435 438 441 444 447 450 453 456 459 462 465 468
          471 474 477 480 483 486 489 492 495 498 501 504
          507 510 513 516 519 522 525 528 531 534 537 540
          543 546 549 552 555 558 561 564 567 570 573 576
          579 582 585 588 591 594 597 600 603 606 609 612
          615 618 621 624 627 630 633 636 639 642 645 648
          651 654 657 660 663 666 669 672 675 678 681 684
          687 690 693 696 699 702 705 708 711 714 717 720
          723 726 729 732 735 738 741 744 747 750 753 756
          759 762 765 768 771 774 777 780 783 786 789 792
          795 798 801 804 807 810 813 816 819 822 825 828
          831 834 837 840 843 846 849 852 855 858 861 864
          867 870 873 876 879 882 885 888 891 894 897 900
          903 906 909 912 915 918 921 924 927 930 933 936
          939 942 945 948 951 954 957 960 963 966 969 972
          975 978 981 984 987 990 993 996 999 1002 1005 1008
          1011 1014 1017 1020 1023 1026 1029 1032 1035 1038 1041 1044
          1047 1050 1053 1056 1059 1062 1065 1068 1071 1074 1077 1080
          1083 1086 1089 1092 1095 1098 1101 1104 1107 1110 1113 1116
          1119 1122 1125 1128 1131 1134 1137 1140 1143 1146 1149 1152
          1155 1158 1161 1164 1167 1170 1173 1176 1179 1182 1185 1188
          1191 1194 1197 1200 1203 1206 1209 1212 1215 1218 1221 1224
          1227 1230 1233 1236 1239 1242 1245 1248 1251 1254 1257 1260
          1263 1266 1269 1272 1275 1278 1281 1284 1287 1290 1293 1296
          1299 1302 1305 1308 1311 1314 1317 1320 1323 1326 1329 1332
          1335 1338 1341 1344
        </DataArray>
        <DataArray type="UInt8" Name="types" NumberOfComponents="1" format="ascii">
          5 5 5 5 5 5 5 5 5 5 5 5
          5 5 5 5 5 5 5 5 5 5 5 5
          5 5 5 5 5 5 5 5 5 5 5 5
          5 5 5 5 5 5 5 5 5 5 5 5
          5 5 5 5 5 5 5 5 5 5 5 5
          5 5 5 5 5 5 5 5 5 5 5 5
          5 5 5 5 5 5 5 5 5 5 5 5
          5 5 5 5 5 5 5 5 5 5 5 5
          5 5 5 5 5 5 5 5 5 5 5 5
          5 5 5 5 5 5 5 5 5 5 5 5
          5 5 5 5 5 5 5 5 5 5 5 5
          5 5 5 5 5 5 5 5 5 5 5 5
          5 5 5 5 5 5 5 5 5 5 5 5
          5 5 5 5 5 5 5 5 5 5 5 5
          5 5 5 5 5 5 5 5 5 5 5 5
          5 5 5 5 5 5 5 5 5 5 5 5
          5 5 5 5 5 5 5 5 5 5 5 5
          5 5 5 5 5 5 5 5 5 5 5 5
          5 5 5 5 5 5 5 5 5 5 5 5
          5 5 5 5 5 5 5 5 5 5 5 5
          5 5 5 5 5 5 5 5 5 5 5 5
          5 5 5 5 5 5 5 5 5 5 5 5
          5 5 5 5 5 5 5 5 5 5 5 5
          5 5 5 5 5 5 5 5 5 5 5 5
          5 5 5 5 5 5 5 5 5 5 5 5
          5 5 5 5 5 5 5 5 5 5 5 5
          5 5 5 5 5 5 5 5 5 5 5 5
          5 5 5 5 5 5 5 5 5 5 5 5
          5 5 5 5 5 5 5 5 5 5 5 5
          5 5 5 5 5 5 5 5 5 5 5 5
          5 5 5 5 5 5 5 5 5 5 5 5
          5 5 5 5 5 5 5 5 5 5 5 5
          5 5 5 5 5 5 5 5 5 5 5 5
          5 5 5 5 5 5 5 5 5 5 5 5
          5 5 5 5 5 5 5 5 5 5 5 5
          5 5 5 5 5 5 5 5 5 5 5 5
          5 5 5 5 5 5 5 5 5 5 5 5
          5 5 5 5
        </DataArray>
      </Cells>
    </Piece>
  </UnstructuredGrid>
</VTKFile>
