<?xml version="1.0"?>
<VTKFile type="UnstructuredGrid" version="0.1" byte_order="LittleEndian">
  <UnstructuredGrid>
    <Piece NumberOfCells="180" NumberOfPoints="109">
      <CellData Scalars="ReservoirCell">
        <DataArray type="Float32" Name="ReservoirCell" NumberOfComponents="1" format="ascii">
          1875 1875 1875 1875 1875 1875 1875 1875 1875 1875 1875 1875
          1875 1875 1875 1875 1875 1875 1875 1875 1875 1875 1875 1875
          1875 1875 1875 1875 1875 1875 1875 1875 1875 1875 1875 1875
          1875 1875 1875 1875 1875 1875 1875 1875 1875 1875 1875 1875
          1875 1875 1875 1875 1875 1875 1875 1875 1875 1875 1875 1875
          1875 1875 1875 1875 1875 1875 1875 1875 1875 1875 1875 1875
          1875 1875 1875 1875 1875 1875 1875 1875 1875 1875 1875 1875
          1875 1875 1875 1875 1875 1875 1875 1875 1875 1875 1875 1875
          1875 1875 1875 1875 1875 1875 1875 1875 1875 1875 1875 1875
          1875 1875 1875 1875 1875 1875 1875 1875 1875 1875 1875 1875
          1875 1875 1875 1875 1875 1875 1875 1875 1875 1875 1875 1875
          1875 1875 1875 1875 1875 1875 1875 1875 1875 1875 1875 1875
          1875 1875 1875 1875 1875 1875 1875 1875 1875 1875 1875 1875
          1875 1875 1875 1875 1875 1875 1875 1875 1875 1875 1875 1875
          1875 1875 1875 1875 1875 1875 1875 1875 1875 1875 1875 1875
        </DataArray>
        <DataArray type="Float32" Name="ReservoirPerm" NumberOfComponents="1" format="ascii">
          9.86923e-13 9.86923e-13 9.86923e-13 9.86923e-13 9.86923e-13 9.86923e-13 9.86923e-13 9.86923e-13 9.86923e-13 9.86923e-13 9.86923e-13 9.86923e-13
          9.86923e-13 9.86923e-13 9.86923e-13 9.86923e-13 9.86923e-13 9.86923e-13 9.86923e-13 9.86923e-13 9.86923e-13 9.86923e-13 9.86923e-13 9.86923e-13
          9.86923e-13 9.86923e-13 9.86923e-13 9.86923e-13 9.86923e-13 9.86923e-13 9.86923e-13 9.86923e-13 9.86923e-13 9.86923e-13 9.86923e-13 9.86923e-13
          9.86923e-13 9.86923e-13 9.86923e-13 9.86923e-13 9.86923e-13 9.86923e-13 9.86923e-13 9.86923e-13 9.86923e-13 9.86923e-13 9.86923e-13 9.86923e-13
          9.86923e-13 9.86923e-13 9.86923e-13 9.86923e-13 9.86923e-13 9.86923e-13 9.86923e-13 9.86923e-13 9.86923e-13 9.86923e-13 9.86923e-13 9.86923e-13
          9.86923e-13 9.86923e-13 9.86923e-13 9.86923e-13 9.86923e-13 9.86923e-13 9.86923e-13 9.86923e-13 9.86923e-13 9.86923e-13 9.86923e-13 9.86923e-13
          9.86923e-13 9.86923e-13 9.86923e-13 9.86923e-13 9.86923e-13 9.86923e-13 9.86923e-13 9.86923e-13 9.86923e-13 9.86923e-13 9.86923e-13 9.86923e-13
          9.86923e-13 9.86923e-13 9.86923e-13 9.86923e-13 9.86923e-13 9.86923e-13 9.86923e-13 9.86923e-13 9.86923e-13 9.86923e-13 9.86923e-13 9.86923e-13
          9.86923e-13 9.86923e-13 9.86923e-13 9.86923e-13 9.86923e-13 9.86923e-13 9.86923e-13 9.86923e-13 9.86923e-13 9.86923e-13 9.86923e-13 9.86923e-13
          9.86923e-13 9.86923e-13 9.86923e-13 9.86923e-13 9.86923e-13 9.86923e-13 9.86923e-13 9.86923e-13 9.86923e-13 9.86923e-13 9.86923e-13 9.86923e-13
          9.86923e-13 9.86923e-13 9.86923e-13 9.86923e-13 9.86923e-13 9.86923e-13 9.86923e-13 9.86923e-13 9.86923e-13 9.86923e-13 9.86923e-13 9.86923e-13
          9.86923e-13 9.86923e-13 9.86923e-13 9.86923e-13 9.86923e-13 9.86923e-13 9.86923e-13 9.86923e-13 9.86923e-13 9.86923e-13 9.86923e-13 9.86923e-13
          9.86923e-13 9.86923e-13 9.86923e-13 9.86923e-13 9.86923e-13 9.86923e-13 9.86923e-13 9.86923e-13 9.86923e-13 9.86923e-13 9.86923e-13 9.86923e-13
          9.86923e-13 9.86923e-13 9.86923e-13 9.86923e-13 9.86923e-13 9.86923e-13 9.86923e-13 9.86923e-13 9.86923e-13 9.86923e-13 9.86923e-13 9.86923e-13
          9.86923e-13 9.86923e-13 9.86923e-13 9.86923e-13 9.86923e-13 9.86923e-13 9.86923e-13 9.86923e-13 9.86923e-13 9.86923e-13 9.86923e-13 9.86923e-13
        </DataArray>
        <DataArray type="Float32" Name="ReservoirDist" NumberOfComponents="1" format="ascii">
          45.25 45.25 45.25 45.25 45.25 45.25 45.25 45.25 45.25 45.25 45.25 45.25
          45.25 45.25 45.25 45.25 45.25 45.25 45.25 45.25 45.25 45.25 45.25 45.25
          45.25 45.25 45.25 45.25 45.25 45.25 45.25 45.25 45.25 45.25 45.25 45.25
          45.25 45.25 45.25 45.25 45.25 45.25 45.25 45.25 45.25 45.25 45.25 45.25
          45.25 45.25 45.25 45.25 45.25 45.25 45.25 45.25 45.25 45.25 45.25 45.25
          45.25 45.25 45.25 45.25 45.25 45.25 45.25 45.25 45.25 45.25 45.25 45.25
          45.25 45.25 45.25 45.25 45.25 45.25 45.25 45.25 45.25 45.25 45.25 45.25
          45.25 45.25 45.25 45.25 45.25 45.25 45.25 45.25 45.25 45.25 45.25 45.25
          45.25 45.25 45.25 45.25 45.25 45.25 45.25 45.25 45.25 45.25 45.25 45.25
          45.25 45.25 45.25 45.25 45.25 45.25 45.25 45.25 45.25 45.25 45.25 45.25
          45.25 45.25 45.25 45.25 45.25 45.25 45.25 45.25 45.25 45.25 45.25 45.25
          45.25 45.25 45.25 45.25 45.25 45.25 45.25 45.25 45.25 45.25 45.25 45.25
          45.25 45.25 45.25 45.25 45.25 45.25 45.25 45.25 45.25 45.25 45.25 45.25
          45.25 45.25 45.25 45.25 45.25 45.25 45.25 45.25 45.25 45.25 45.25 45.25
          45.25 45.25 45.25 45.25 45.25 45.25 45.25 45.25 45.25 45.25 45.25 45.25
        </DataArray>
        <DataArray type="Float32" Name="ReservoirCStres" NumberOfComponents="1" format="ascii">
          5.55e+06 5.55e+06 5.55e+06 5.55e+06 5.55e+06 5.55e+06 5.55e+06 5.55e+06 5.55e+06 5.55e+06 5.55e+06 5.55e+06
          5.55e+06 5.55e+06 5.55e+06 5.55e+06 5.55e+06 5.55e+06 5.55e+06 5.55e+06 5.55e+06 5.55e+06 5.55e+06 5.55e+06
          5.55e+06 5.55e+06 5.55e+06 5.55e+06 5.55e+06 5.55e+06 5.55e+06 5.55e+06 5.55e+06 5.55e+06 5.55e+06 5.55e+06
          5.55e+06 5.55e+06 5.55e+06 5.55e+06 5.55e+06 5.55e+06 5.55e+06 5.55e+06 5.55e+06 5.55e+06 5.55e+06 5.55e+06
          5.55e+06 5.55e+06 5.55e+06 5.55e+06 5.55e+06 5.55e+06 5.55e+06 5.55e+06 5.55e+06 5.55e+06 5.55e+06 5.55e+06
          5.55e+06 5.55e+06 5.55e+06 5.55e+06 5.55e+06 5.55e+06 5.55e+06 5.55e+06 5.55e+06 5.55e+06 5.55e+06 5.55e+06
          5.55e+06 5.55e+06 5.55e+06 5.55e+06 5.55e+06 5.55e+06 5.55e+06 5.55e+06 5.55e+06 5.55e+06 5.55e+06 5.55e+06
          5.55e+06 5.55e+06 5.55e+06 5.55e+06 5.55e+06 5.55e+06 5.55e+06 5.55e+06 5.55e+06 5.55e+06 5.55e+06 5.55e+06
          5.55e+06 5.55e+06 5.55e+06 5.55e+06 5.55e+06 5.55e+06 5.55e+06 5.55e+06 5.55e+06 5.55e+06 5.55e+06 5.55e+06
          5.55e+06 5.55e+06 5.55e+06 5.55e+06 5.55e+06 5.55e+06 5.55e+06 5.55e+06 5.55e+06 5.55e+06 5.55e+06 5.55e+06
          5.55e+06 5.55e+06 5.55e+06 5.55e+06 5.55e+06 5.55e+06 5.55e+06 5.55e+06 5.55e+06 5.55e+06 5.55e+06 5.55e+06
          5.55e+06 5.55e+06 5.55e+06 5.55e+06 5.55e+06 5.55e+06 5.55e+06 5.55e+06 5.55e+06 5.55e+06 5.55e+06 5.55e+06
          5.55e+06 5.55e+06 5.55e+06 5.55e+06 5.55e+06 5.55e+06 5.55e+06 5.55e+06 5.55e+06 5.55e+06 5.55e+06 5.55e+06
          5.55e+06 5.55e+06 5.55e+06 5.55e+06 5.55e+06 5.55e+06 5.55e+06 5.55e+06 5.55e+06 5.55e+06 5.55e+06 5.55e+06
          5.55e+06 5.55e+06 5.55e+06 5.55e+06 5.55e+06 5.55e+06 5.55e+06 5.55e+06 5.55e+06 5.55e+06 5.55e+06 5.55e+06
        </DataArray>
        <DataArray type="Float32" Name="FracturePressure" NumberOfComponents="1" format="ascii">
          2.23066e+07 2.22956e+07 2.23005e+07 2.22907e+07 2.22968e+07 2.2332e+07 2.2332e+07 2.23527e+07 2.23349e+07 2.2372e+07 2.23374e+07 2.23671e+07
          2.23251e+07 2.2338e+07 2.23124e+07 2.23075e+07 2.22956e+07 2.23066e+07 2.23349e+07 2.23527e+07 2.24202e+07 2.24202e+07 2.2526e+07 2.2476e+07
          2.25761e+07 2.2471e+07 2.25162e+07 2.24055e+07 2.24006e+07 2.23282e+07 2.23055e+07 2.22723e+07 2.22564e+07 2.22907e+07 2.23005e+07 2.23374e+07
          2.2372e+07 2.2476e+07 2.2526e+07 2.27348e+07 2.27348e+07 2.30244e+07 2.28415e+07 2.30195e+07 2.2725e+07 2.27201e+07 2.25064e+07 2.24514e+07
          2.23426e+07 2.23031e+07 2.22613e+07 2.22466e+07 2.22968e+07 2.23251e+07 2.23671e+07 2.2471e+07 2.25761e+07 2.28415e+07 2.30244e+07 2.36163e+07
          2.36163e+07 2.44058e+07 2.36114e+07 2.36065e+07 2.30097e+07 2.28219e+07 2.25516e+07 2.24416e+07 2.23328e+07 2.22859e+07 2.22526e+07 2.23124e+07
          2.2338e+07 2.24055e+07 2.25162e+07 2.2725e+07 2.30195e+07 2.36114e+07 2.44058e+07 2.6291e+07 2.6291e+07 2.62861e+07 2.4396e+07 2.35967e+07
          2.29999e+07 2.27005e+07 2.24868e+07 2.23711e+07 2.22988e+07 2.22683e+07 2.23075e+07 2.23282e+07 2.24006e+07 2.25064e+07 2.27201e+07 2.30097e+07
          2.36065e+07 2.4396e+07 2.62861e+07 2.62812e+07 2.62812e+07 2.43862e+07 2.35918e+07 2.29901e+07 2.26956e+07 2.2477e+07 2.23662e+07 2.2289e+07
          2.22634e+07 2.22723e+07 2.23055e+07 2.23426e+07 2.24514e+07 2.25516e+07 2.28219e+07 2.29999e+07 2.35967e+07 2.35918e+07 2.43862e+07 2.35869e+07
          2.35869e+07 2.29852e+07 2.28023e+07 2.25271e+07 2.2422e+07 2.23083e+07 2.22663e+07 2.22281e+07 2.22564e+07 2.22613e+07 2.23031e+07 2.23328e+07
          2.24416e+07 2.24868e+07 2.27005e+07 2.26956e+07 2.29901e+07 2.28023e+07 2.29852e+07 2.26857e+07 2.26857e+07 2.24672e+07 2.24171e+07 2.23034e+07
          2.22687e+07 2.22221e+07 2.22122e+07 2.22466e+07 2.22526e+07 2.22859e+07 2.22988e+07 2.23711e+07 2.23662e+07 2.2477e+07 2.2422e+07 2.25271e+07
          2.24171e+07 2.24672e+07 2.23515e+07 2.23515e+07 2.22743e+07 2.22565e+07 2.22183e+07 2.22073e+07 2.22683e+07 2.22634e+07 2.2289e+07 2.22663e+07
          2.23083e+07 2.22687e+07 2.23034e+07 2.22565e+07 2.22743e+07 2.22438e+07 2.22438e+07 2.22281e+07 2.22122e+07 2.22221e+07 2.22073e+07 2.22183e+07
        </DataArray>
        <DataArray type="Float32" Name="FractureHead" NumberOfComponents="1" format="ascii">
          -4.0245e+06 -4.03549e+06 -4.02566e+06 -4.03549e+06 -4.0245e+06 -3.99903e+06 -3.99903e+06 -3.97345e+06 -3.99126e+06 -3.94923e+06 -3.98389e+06 -3.94923e+06
          -3.99126e+06 -3.97345e+06 -3.99903e+06 -3.99903e+06 -4.03549e+06 -4.0245e+06 -3.99126e+06 -3.97345e+06 -3.90111e+06 -3.90111e+06 -3.79037e+06 -3.84042e+06
          -3.73532e+06 -3.84042e+06 -3.79037e+06 -3.90111e+06 -3.90111e+06 -3.97345e+06 -3.99126e+06 -4.0245e+06 -4.03549e+06 -4.03549e+06 -4.02566e+06 -3.98389e+06
          -3.94923e+06 -3.84042e+06 -3.79037e+06 -3.57669e+06 -3.57669e+06 -3.28215e+06 -3.46503e+06 -3.28215e+06 -3.57669e+06 -3.57669e+06 -3.79037e+06 -3.84042e+06
          -3.94923e+06 -3.98389e+06 -4.02566e+06 -4.03549e+06 -4.0245e+06 -3.99126e+06 -3.94923e+06 -3.84042e+06 -3.73532e+06 -3.46503e+06 -3.28215e+06 -2.68532e+06
          -2.68532e+06 -1.89099e+06 -2.68532e+06 -2.68532e+06 -3.28215e+06 -3.46503e+06 -3.73532e+06 -3.84042e+06 -3.94923e+06 -3.99126e+06 -4.0245e+06 -3.99903e+06
          -3.97345e+06 -3.90111e+06 -3.79037e+06 -3.57669e+06 -3.28215e+06 -2.68532e+06 -1.89099e+06 -888.37 -888.37 -888.37 -1.89099e+06 -2.68532e+06
          -3.28215e+06 -3.57669e+06 -3.79037e+06 -3.90111e+06 -3.97345e+06 -3.99903e+06 -3.99903e+06 -3.97345e+06 -3.90111e+06 -3.79037e+06 -3.57669e+06 -3.28215e+06
          -2.68532e+06 -1.89099e+06 -888.37 -888.37 -888.37 -1.89099e+06 -2.68532e+06 -3.28215e+06 -3.57669e+06 -3.79037e+06 -3.90111e+06 -3.97345e+06
          -3.99903e+06 -4.0245e+06 -3.99126e+06 -3.94923e+06 -3.84042e+06 -3.73532e+06 -3.46503e+06 -3.28215e+06 -2.68532e+06 -2.68532e+06 -1.89099e+06 -2.68532e+06
          -2.68532e+06 -3.28215e+06 -3.46503e+06 -3.73532e+06 -3.84042e+06 -3.94923e+06 -3.99126e+06 -4.0245e+06 -4.03549e+06 -4.02566e+06 -3.98389e+06 -3.94923e+06
          -3.84042e+06 -3.79037e+06 -3.57669e+06 -3.57669e+06 -3.28215e+06 -3.46503e+06 -3.28215e+06 -3.57669e+06 -3.57669e+06 -3.79037e+06 -3.84042e+06 -3.94923e+06
          -3.98389e+06 -4.02566e+06 -4.03549e+06 -4.03549e+06 -4.0245e+06 -3.99126e+06 -3.97345e+06 -3.90111e+06 -3.90111e+06 -3.79037e+06 -3.84042e+06 -3.73532e+06
          -3.84042e+06 -3.79037e+06 -3.90111e+06 -3.90111e+06 -3.97345e+06 -3.99126e+06 -4.0245e+06 -4.03549e+06 -3.99903e+06 -3.99903e+06 -3.97345e+06 -3.99126e+06
          -3.94923e+06 -3.98389e+06 -3.94923e+06 -3.99126e+06 -3.97345e+06 -3.99903e+06 -3.99903e+06 -4.0245e+06 -4.03549e+06 -4.02566e+06 -4.03549e+06 -4.0245e+06
        </DataArray>
        <DataArray type="Float32" Name="ReservoirPressure" NumberOfComponents="1" format="ascii">
          2.20924e+07 2.20924e+07 2.20924e+07 2.20924e+07 2.20924e+07 2.20924e+07 2.20924e+07 2.20924e+07 2.20924e+07 2.20924e+07 2.20924e+07 2.20924e+07
          2.20924e+07 2.20924e+07 2.20924e+07 2.20924e+07 2.20924e+07 2.20924e+07 2.20924e+07 2.20924e+07 2.20924e+07 2.20924e+07 2.20924e+07 2.20924e+07
          2.20924e+07 2.20924e+07 2.20924e+07 2.20924e+07 2.20924e+07 2.20924e+07 2.20924e+07 2.20924e+07 2.20924e+07 2.20924e+07 2.20924e+07 2.20924e+07
          2.20924e+07 2.20924e+07 2.20924e+07 2.20924e+07 2.20924e+07 2.20924e+07 2.20924e+07 2.20924e+07 2.20924e+07 2.20924e+07 2.20924e+07 2.20924e+07
          2.20924e+07 2.20924e+07 2.20924e+07 2.20924e+07 2.20924e+07 2.20924e+07 2.20924e+07 2.20924e+07 2.20924e+07 2.20924e+07 2.20924e+07 2.20924e+07
          2.20924e+07 2.20924e+07 2.20924e+07 2.20924e+07 2.20924e+07 2.20924e+07 2.20924e+07 2.20924e+07 2.20924e+07 2.20924e+07 2.20924e+07 2.20924e+07
          2.20924e+07 2.20924e+07 2.20924e+07 2.20924e+07 2.20924e+07 2.20924e+07 2.20924e+07 2.20924e+07 2.20924e+07 2.20924e+07 2.20924e+07 2.20924e+07
          2.20924e+07 2.20924e+07 2.20924e+07 2.20924e+07 2.20924e+07 2.20924e+07 2.20924e+07 2.20924e+07 2.20924e+07 2.20924e+07 2.20924e+07 2.20924e+07
          2.20924e+07 2.20924e+07 2.20924e+07 2.20924e+07 2.20924e+07 2.20924e+07 2.20924e+07 2.20924e+07 2.20924e+07 2.20924e+07 2.20924e+07 2.20924e+07
          2.20924e+07 2.20924e+07 2.20924e+07 2.20924e+07 2.20924e+07 2.20924e+07 2.20924e+07 2.20924e+07 2.20924e+07 2.20924e+07 2.20924e+07 2.20924e+07
          2.20924e+07 2.20924e+07 2.20924e+07 2.20924e+07 2.20924e+07 2.20924e+07 2.20924e+07 2.20924e+07 2.20924e+07 2.20924e+07 2.20924e+07 2.20924e+07
          2.20924e+07 2.20924e+07 2.20924e+07 2.20924e+07 2.20924e+07 2.20924e+07 2.20924e+07 2.20924e+07 2.20924e+07 2.20924e+07 2.20924e+07 2.20924e+07
          2.20924e+07 2.20924e+07 2.20924e+07 2.20924e+07 2.20924e+07 2.20924e+07 2.20924e+07 2.20924e+07 2.20924e+07 2.20924e+07 2.20924e+07 2.20924e+07
          2.20924e+07 2.20924e+07 2.20924e+07 2.20924e+07 2.20924e+07 2.20924e+07 2.20924e+07 2.20924e+07 2.20924e+07 2.20924e+07 2.20924e+07 2.20924e+07
          2.20924e+07 2.20924e+07 2.20924e+07 2.20924e+07 2.20924e+07 2.20924e+07 2.20924e+07 2.20924e+07 2.20924e+07 2.20924e+07 2.20924e+07 2.20924e+07
        </DataArray>
        <DataArray type="Float32" Name="LeakofDP" NumberOfComponents="1" format="ascii">
          170062 159076 168906 159076 170062 195530 195530 221117 203304 245337 210670 245337
          203304 221117 195530 195530 159076 170062 203304 221117 293454 293454 404193 354142
          459241 354142 404193 293454 293454 221117 203304 170062 159076 159076 168906 210670
          245337 354142 404193 617877 617877 912418 729536 912418 617877 617877 404193 354142
          245337 210670 168906 159076 170062 203304 245337 354142 459241 729536 912418 1.50924e+06
          1.50924e+06 2.30357e+06 1.50924e+06 1.50924e+06 912418 729536 459241 354142 245337 203304 170062 195530
          221117 293454 404193 617877 912418 1.50924e+06 2.30357e+06 4.19368e+06 4.19368e+06 4.19368e+06 2.30357e+06 1.50924e+06
          912418 617877 404193 293454 221117 195530 195530 221117 293454 404193 617877 912418
          1.50924e+06 2.30357e+06 4.19368e+06 4.19368e+06 4.19368e+06 2.30357e+06 1.50924e+06 912418 617877 404193 293454 221117
          195530 170062 203304 245337 354142 459241 729536 912418 1.50924e+06 1.50924e+06 2.30357e+06 1.50924e+06
          1.50924e+06 912418 729536 459241 354142 245337 203304 170062 159076 168906 210670 245337
          354142 404193 617877 617877 912418 729536 912418 617877 617877 404193 354142 245337
          210670 168906 159076 159076 170062 203304 221117 293454 293454 404193 354142 459241
          354142 404193 293454 293454 221117 203304 170062 159076 195530 195530 221117 203304
          245337 210670 245337 203304 221117 195530 195530 170062 159076 168906 159076 170062
        </DataArray>
        <DataArray type="Float32" Name="FilterCakeThickness" NumberOfComponents="1" format="ascii">
          0 0 0 0 0 0 0 0 0 0 0 0
          0 0 0 0 0 0 0 0 0 0 0 0
          0 0 0 0 0 0 0 0 0 0 0 0
          0 0 0 0 0 0 0 0 0 0 0 0
          0 0 0 0 0 0 0 0 0 0 0 0
          0 0 0 0 0 0 0 0 0 0 0 0
          0 0 0 0 0 0 0 0 0 0 0 0
          0 0 0 0 0 0 0 0 0 0 0 0
          0 0 0 0 0 0 0 0 0 0 0 0
          0 0 0 0 0 0 0 0 0 0 0 0
          0 0 0 0 0 0 0 0 0 0 0 0
          0 0 0 0 0 0 0 0 0 0 0 0
          0 0 0 0 0 0 0 0 0 0 0 0
          0 0 0 0 0 0 0 0 0 0 0 0
          0 0 0 0 0 0 0 0 0 0 0 0
        </DataArray>
        <DataArray type="Float32" Name="ReservoirTraction" NumberOfComponents="1" format="ascii">
          2.97874e+07 2.97874e+07 2.97874e+07 2.97874e+07 2.97874e+07 2.97874e+07 2.97874e+07 2.97874e+07 2.97874e+07 2.97874e+07 2.97874e+07 2.97874e+07
          2.97874e+07 2.97874e+07 2.97874e+07 2.97874e+07 2.97874e+07 2.97874e+07 2.97874e+07 2.97874e+07 2.97874e+07 2.97874e+07 2.97874e+07 2.97874e+07
          2.97874e+07 2.97874e+07 2.97874e+07 2.97874e+07 2.97874e+07 2.97874e+07 2.97874e+07 2.97874e+07 2.97874e+07 2.97874e+07 2.97874e+07 2.97874e+07
          2.97874e+07 2.97874e+07 2.97874e+07 2.97874e+07 2.97874e+07 2.97874e+07 2.97874e+07 2.97874e+07 2.97874e+07 2.97874e+07 2.97874e+07 2.97874e+07
          2.97874e+07 2.97874e+07 2.97874e+07 2.97874e+07 2.97874e+07 2.97874e+07 2.97874e+07 2.97874e+07 2.97874e+07 2.97874e+07 2.97874e+07 2.97874e+07
          2.97874e+07 2.97874e+07 2.97874e+07 2.97874e+07 2.97874e+07 2.97874e+07 2.97874e+07 2.97874e+07 2.97874e+07 2.97874e+07 2.97874e+07 2.97874e+07
          2.97874e+07 2.97874e+07 2.97874e+07 2.97874e+07 2.97874e+07 2.97874e+07 2.97874e+07 2.97874e+07 2.97874e+07 2.97874e+07 2.97874e+07 2.97874e+07
          2.97874e+07 2.97874e+07 2.97874e+07 2.97874e+07 2.97874e+07 2.97874e+07 2.97874e+07 2.97874e+07 2.97874e+07 2.97874e+07 2.97874e+07 2.97874e+07
          2.97874e+07 2.97874e+07 2.97874e+07 2.97874e+07 2.97874e+07 2.97874e+07 2.97874e+07 2.97874e+07 2.97874e+07 2.97874e+07 2.97874e+07 2.97874e+07
          2.97874e+07 2.97874e+07 2.97874e+07 2.97874e+07 2.97874e+07 2.97874e+07 2.97874e+07 2.97874e+07 2.97874e+07 2.97874e+07 2.97874e+07 2.97874e+07
          2.97874e+07 2.97874e+07 2.97874e+07 2.97874e+07 2.97874e+07 2.97874e+07 2.97874e+07 2.97874e+07 2.97874e+07 2.97874e+07 2.97874e+07 2.97874e+07
          2.97874e+07 2.97874e+07 2.97874e+07 2.97874e+07 2.97874e+07 2.97874e+07 2.97874e+07 2.97874e+07 2.97874e+07 2.97874e+07 2.97874e+07 2.97874e+07
          2.97874e+07 2.97874e+07 2.97874e+07 2.97874e+07 2.97874e+07 2.97874e+07 2.97874e+07 2.97874e+07 2.97874e+07 2.97874e+07 2.97874e+07 2.97874e+07
          2.97874e+07 2.97874e+07 2.97874e+07 2.97874e+07 2.97874e+07 2.97874e+07 2.97874e+07 2.97874e+07 2.97874e+07 2.97874e+07 2.97874e+07 2.97874e+07
          2.97874e+07 2.97874e+07 2.97874e+07 2.97874e+07 2.97874e+07 2.97874e+07 2.97874e+07 2.97874e+07 2.97874e+07 2.97874e+07 2.97874e+07 2.97874e+07
        </DataArray>
        <DataArray type="Float32" Name="FractureForce" NumberOfComponents="1" format="ascii">
          7.48079e+06 7.49178e+06 7.48685e+06 7.49668e+06 7.4906e+06 7.45533e+06 7.45533e+06 7.43464e+06 7.45245e+06 7.41532e+06 7.44999e+06 7.42023e+06
          7.46226e+06 7.44935e+06 7.47494e+06 7.47984e+06 7.49178e+06 7.48079e+06 7.45245e+06 7.43464e+06 7.36721e+06 7.36721e+06 7.26137e+06 7.31142e+06
          7.21123e+06 7.31633e+06 7.27118e+06 7.38192e+06 7.38682e+06 7.45916e+06 7.48187e+06 7.51512e+06 7.53101e+06 7.49668e+06 7.48685e+06 7.44999e+06
          7.41532e+06 7.31142e+06 7.26137e+06 7.05259e+06 7.05259e+06 6.76295e+06 6.94584e+06 6.76786e+06 7.0624e+06 7.0673e+06 7.28099e+06 7.33594e+06
          7.44474e+06 7.48431e+06 7.52608e+06 7.54081e+06 7.4906e+06 7.46226e+06 7.42023e+06 7.31633e+06 7.21123e+06 6.94584e+06 6.76295e+06 6.17103e+06
          6.17103e+06 5.38161e+06 6.17594e+06 6.18084e+06 6.77766e+06 6.96545e+06 7.23574e+06 7.34575e+06 7.45455e+06 7.50149e+06 7.53473e+06 7.47494e+06
          7.44935e+06 7.38192e+06 7.27118e+06 7.0624e+06 6.76786e+06 6.17594e+06 5.38161e+06 3.49641e+06 3.49641e+06 3.50131e+06 5.39142e+06 6.19065e+06
          6.78747e+06 7.08692e+06 7.3006e+06 7.41624e+06 7.48858e+06 7.51907e+06 7.47984e+06 7.45916e+06 7.38682e+06 7.28099e+06 7.0673e+06 6.77766e+06
          6.18084e+06 5.39142e+06 3.50131e+06 3.50621e+06 3.50621e+06 5.40122e+06 6.19555e+06 6.79728e+06 7.09182e+06 7.31041e+06 7.42114e+06 7.49838e+06
          7.52397e+06 7.51512e+06 7.48187e+06 7.44474e+06 7.33594e+06 7.23574e+06 6.96545e+06 6.78747e+06 6.19065e+06 6.19555e+06 5.40122e+06 6.20045e+06
          6.20045e+06 6.80218e+06 6.98506e+06 7.26026e+06 7.36536e+06 7.47907e+06 7.5211e+06 7.55925e+06 7.53101e+06 7.52608e+06 7.48431e+06 7.45455e+06
          7.34575e+06 7.3006e+06 7.08692e+06 7.09182e+06 6.79728e+06 6.98506e+06 6.80218e+06 7.10162e+06 7.10162e+06 7.32021e+06 7.37026e+06 7.48397e+06
          7.51864e+06 7.56531e+06 7.57514e+06 7.54081e+06 7.53473e+06 7.50149e+06 7.48858e+06 7.41624e+06 7.42114e+06 7.31041e+06 7.36536e+06 7.26026e+06
          7.37026e+06 7.32021e+06 7.43585e+06 7.43585e+06 7.51309e+06 7.53091e+06 7.56905e+06 7.58004e+06 7.51907e+06 7.52397e+06 7.49838e+06 7.5211e+06
          7.47907e+06 7.51864e+06 7.48397e+06 7.53091e+06 7.51309e+06 7.54359e+06 7.54359e+06 7.55925e+06 7.57514e+06 7.56531e+06 7.58004e+06 7.56905e+06
        </DataArray>
        <DataArray type="Float32" Name="ReservoirMobility" NumberOfComponents="1" format="ascii">
          2523.6 2523.6 2523.6 2523.6 2523.6 2523.6 2523.6 2523.6 2523.6 2523.6 2523.6 2523.6
          2523.6 2523.6 2523.6 2523.6 2523.6 2523.6 2523.6 2523.6 2523.6 2523.6 2523.6 2523.6
          2523.6 2523.6 2523.6 2523.6 2523.6 2523.6 2523.6 2523.6 2523.6 2523.6 2523.6 2523.6
          2523.6 2523.6 2523.6 2523.6 2523.6 2523.6 2523.6 2523.6 2523.6 2523.6 2523.6 2523.6
          2523.6 2523.6 2523.6 2523.6 2523.6 2523.6 2523.6 2523.6 2523.6 2523.6 2523.6 2523.6
          2523.6 2523.6 2523.6 2523.6 2523.6 2523.6 2523.6 2523.6 2523.6 2523.6 2523.6 2523.6
          2523.6 2523.6 2523.6 2523.6 2523.6 2523.6 2523.6 2523.6 2523.6 2523.6 2523.6 2523.6
          2523.6 2523.6 2523.6 2523.6 2523.6 2523.6 2523.6 2523.6 2523.6 2523.6 2523.6 2523.6
          2523.6 2523.6 2523.6 2523.6 2523.6 2523.6 2523.6 2523.6 2523.6 2523.6 2523.6 2523.6
          2523.6 2523.6 2523.6 2523.6 2523.6 2523.6 2523.6 2523.6 2523.6 2523.6 2523.6 2523.6
          2523.6 2523.6 2523.6 2523.6 2523.6 2523.6 2523.6 2523.6 2523.6 2523.6 2523.6 2523.6
          2523.6 2523.6 2523.6 2523.6 2523.6 2523.6 2523.6 2523.6 2523.6 2523.6 2523.6 2523.6
          2523.6 2523.6 2523.6 2523.6 2523.6 2523.6 2523.6 2523.6 2523.6 2523.6 2523.6 2523.6
          2523.6 2523.6 2523.6 2523.6 2523.6 2523.6 2523.6 2523.6 2523.6 2523.6 2523.6 2523.6
          2523.6 2523.6 2523.6 2523.6 2523.6 2523.6 2523.6 2523.6 2523.6 2523.6 2523.6 2523.6
        </DataArray>
        <DataArray type="Float32" Name="LeakOfRate" NumberOfComponents="1" format="ascii">
          1.87208e-05 1.75113e-05 1.85935e-05 1.75113e-05 1.87208e-05 2.15242e-05 2.15242e-05 2.4341e-05 2.238e-05 2.70071e-05 2.3191e-05 2.70071e-05
          2.238e-05 2.4341e-05 2.15242e-05 2.15242e-05 1.75113e-05 1.87208e-05 2.238e-05 2.4341e-05 3.23039e-05 3.23039e-05 4.44943e-05 3.89846e-05
          5.0554e-05 3.89846e-05 4.44943e-05 3.23039e-05 3.23039e-05 2.4341e-05 2.238e-05 1.87208e-05 1.75113e-05 1.75113e-05 1.85935e-05 2.3191e-05
          2.70071e-05 3.89846e-05 4.44943e-05 6.80169e-05 6.80169e-05 0.00010044 8.03085e-05 0.00010044 6.80169e-05 6.80169e-05 4.44943e-05 3.89846e-05
          2.70071e-05 2.3191e-05 1.85935e-05 1.75113e-05 1.87208e-05 2.238e-05 2.70071e-05 3.89846e-05 5.0554e-05 8.03085e-05 0.00010044 0.00016614
          0.00016614 0.000253581 0.00016614 0.00016614 0.00010044 8.03085e-05 5.0554e-05 3.89846e-05 2.70071e-05 2.238e-05 1.87208e-05 2.15242e-05
          2.4341e-05 3.23039e-05 4.44943e-05 6.80169e-05 0.00010044 0.00016614 0.000253581 0.000461647 0.000461647 0.000461647 0.000253581 0.00016614
          0.00010044 6.80169e-05 4.44943e-05 3.23039e-05 2.4341e-05 2.15242e-05 2.15242e-05 2.4341e-05 3.23039e-05 4.44943e-05 6.80169e-05 0.00010044
          0.00016614 0.000253581 0.000461647 0.000461647 0.000461647 0.000253581 0.00016614 0.00010044 6.80169e-05 4.44943e-05 3.23039e-05 2.4341e-05
          2.15242e-05 1.87208e-05 2.238e-05 2.70071e-05 3.89846e-05 5.0554e-05 8.03085e-05 0.00010044 0.00016614 0.00016614 0.000253581 0.00016614
          0.00016614 0.00010044 8.03085e-05 5.0554e-05 3.89846e-05 2.70071e-05 2.238e-05 1.87208e-05 1.75113e-05 1.85935e-05 2.3191e-05 2.70071e-05
          3.89846e-05 4.44943e-05 6.80169e-05 6.80169e-05 0.00010044 8.03085e-05 0.00010044 6.80169e-05 6.80169e-05 4.44943e-05 3.89846e-05 2.70071e-05
          2.3191e-05 1.85935e-05 1.75113e-05 1.75113e-05 1.87208e-05 2.238e-05 2.4341e-05 3.23039e-05 3.23039e-05 4.44943e-05 3.89846e-05 5.0554e-05
          3.89846e-05 4.44943e-05 3.23039e-05 3.23039e-05 2.4341e-05 2.238e-05 1.87208e-05 1.75113e-05 2.15242e-05 2.15242e-05 2.4341e-05 2.238e-05
          2.70071e-05 2.3191e-05 2.70071e-05 2.238e-05 2.4341e-05 2.15242e-05 2.15242e-05 1.87208e-05 1.75113e-05 1.85935e-05 1.75113e-05 1.87208e-05
        </DataArray>
        <DataArray type="Float32" Name="WellIndex" NumberOfComponents="1" format="ascii">
          5.03545e-13 5.03545e-13 5.03545e-13 5.03545e-13 5.03545e-13 5.03545e-13 5.03545e-13 5.03545e-13 5.03545e-13 5.03545e-13 5.03545e-13 5.03545e-13
          5.03545e-13 5.03545e-13 5.03545e-13 5.03545e-13 5.03545e-13 5.03545e-13 5.03545e-13 5.03545e-13 5.03545e-13 5.03545e-13 5.03545e-13 5.03545e-13
          5.03545e-13 5.03545e-13 5.03545e-13 5.03545e-13 5.03545e-13 5.03545e-13 5.03545e-13 5.03545e-13 5.03545e-13 5.03545e-13 5.03545e-13 5.03545e-13
          5.03545e-13 5.03545e-13 5.03545e-13 5.03545e-13 5.03545e-13 5.03545e-13 5.03545e-13 5.03545e-13 5.03545e-13 5.03545e-13 5.03545e-13 5.03545e-13
          5.03545e-13 5.03545e-13 5.03545e-13 5.03545e-13 5.03545e-13 5.03545e-13 5.03545e-13 5.03545e-13 5.03545e-13 5.03545e-13 5.03545e-13 5.03545e-13
          5.03545e-13 5.03545e-13 5.03545e-13 5.03545e-13 5.03545e-13 5.03545e-13 5.03545e-13 5.03545e-13 5.03545e-13 5.03545e-13 5.03545e-13 5.03545e-13
          5.03545e-13 5.03545e-13 5.03545e-13 5.03545e-13 5.03545e-13 5.03545e-13 5.03545e-13 5.03545e-13 5.03545e-13 5.03545e-13 5.03545e-13 5.03545e-13
          5.03545e-13 5.03545e-13 5.03545e-13 5.03545e-13 5.03545e-13 5.03545e-13 5.03545e-13 5.03545e-13 5.03545e-13 5.03545e-13 5.03545e-13 5.03545e-13
          5.03545e-13 5.03545e-13 5.03545e-13 5.03545e-13 5.03545e-13 5.03545e-13 5.03545e-13 5.03545e-13 5.03545e-13 5.03545e-13 5.03545e-13 5.03545e-13
          5.03545e-13 5.03545e-13 5.03545e-13 5.03545e-13 5.03545e-13 5.03545e-13 5.03545e-13 5.03545e-13 5.03545e-13 5.03545e-13 5.03545e-13 5.03545e-13
          5.03545e-13 5.03545e-13 5.03545e-13 5.03545e-13 5.03545e-13 5.03545e-13 5.03545e-13 5.03545e-13 5.03545e-13 5.03545e-13 5.03545e-13 5.03545e-13
          5.03545e-13 5.03545e-13 5.03545e-13 5.03545e-13 5.03545e-13 5.03545e-13 5.03545e-13 5.03545e-13 5.03545e-13 5.03545e-13 5.03545e-13 5.03545e-13
          5.03545e-13 5.03545e-13 5.03545e-13 5.03545e-13 5.03545e-13 5.03545e-13 5.03545e-13 5.03545e-13 5.03545e-13 5.03545e-13 5.03545e-13 5.03545e-13
          5.03545e-13 5.03545e-13 5.03545e-13 5.03545e-13 5.03545e-13 5.03545e-13 5.03545e-13 5.03545e-13 5.03545e-13 5.03545e-13 5.03545e-13 5.03545e-13
          5.03545e-13 5.03545e-13 5.03545e-13 5.03545e-13 5.03545e-13 5.03545e-13 5.03545e-13 5.03545e-13 5.03545e-13 5.03545e-13 5.03545e-13 5.03545e-13
        </DataArray>
        <DataArray type="Float32" Name="FractureWidth" NumberOfComponents="1" format="ascii">
          0 0 0 0 0 0 0 0 0 0 0 0
          0 0 0 0 0 0 0 0 0 0 0 0
          0 0 0 0 0 0 0 0 0 0 0 0
          0 0 0 0 0 0 0 0 0 0 0 0
          0 0 0 0 0 0 0 0 0 0 0 0
          0 0 0 0 0 0 0 0 0 0 0 0
          0 0 0 0 0 0 0 0 0 0 0 0
          0 0 0 0 0 0 0 0 0 0 0 0
          0 0 0 0 0 0 0 0 0 0 0 0
          0 0 0 0 0 0 0 0 0 0 0 0
          0 0 0 0 0 0 0 0 0 0 0 0
          0 0 0 0 0 0 0 0 0 0 0 0
          0 0 0 0 0 0 0 0 0 0 0 0
          0 0 0 0 0 0 0 0 0 0 0 0
          0 0 0 0 0 0 0 0 0 0 0 0
        </DataArray>
        <DataArray type="Float32" Name="FlowWidth" NumberOfComponents="1" format="ascii">
          0.0001 0.0001 0.0001 0.0001 0.0001 0.0001 0.0001 0.0001 0.0001 0.0001 0.0001 0.0001
          0.0001 0.0001 0.0001 0.0001 0.0001 0.0001 0.0001 0.0001 0.0001 0.0001 0.0001 0.0001
          0.0001 0.0001 0.0001 0.0001 0.0001 0.0001 0.0001 0.0001 0.0001 0.0001 0.0001 0.0001
          0.0001 0.0001 0.0001 0.0001 0.0001 0.0001 0.0001 0.0001 0.0001 0.0001 0.0001 0.0001
          0.0001 0.0001 0.0001 0.0001 0.0001 0.0001 0.0001 0.0001 0.0001 0.0001 0.0001 0.0001
          0.0001 0.0001 0.0001 0.0001 0.0001 0.0001 0.0001 0.0001 0.0001 0.0001 0.0001 0.0001
          0.0001 0.0001 0.0001 0.0001 0.0001 0.0001 0.0001 0.0001 0.0001 0.0001 0.0001 0.0001
          0.0001 0.0001 0.0001 0.0001 0.0001 0.0001 0.0001 0.0001 0.0001 0.0001 0.0001 0.0001
          0.0001 0.0001 0.0001 0.0001 0.0001 0.0001 0.0001 0.0001 0.0001 0.0001 0.0001 0.0001
          0.0001 0.0001 0.0001 0.0001 0.0001 0.0001 0.0001 0.0001 0.0001 0.0001 0.0001 0.0001
          0.0001 0.0001 0.0001 0.0001 0.0001 0.0001 0.0001 0.0001 0.0001 0.0001 0.0001 0.0001
          0.0001 0.0001 0.0001 0.0001 0.0001 0.0001 0.0001 0.0001 0.0001 0.0001 0.0001 0.0001
          0.0001 0.0001 0.0001 0.0001 0.0001 0.0001 0.0001 0.0001 0.0001 0.0001 0.0001 0.0001
          0.0001 0.0001 0.0001 0.0001 0.0001 0.0001 0.0001 0.0001 0.0001 0.0001 0.0001 0.0001
          0.0001 0.0001 0.0001 0.0001 0.0001 0.0001 0.0001 0.0001 0.0001 0.0001 0.0001 0.0001
        </DataArray>
        <DataArray type="Float32" Name="stressIntensityK1" NumberOfComponents="1" format="ascii">
          0 0 nan 0 0 0 0 nan nan nan nan nan
          nan nan 0 0 0 0 nan nan nan nan nan nan
          nan nan nan nan nan nan nan 0 0 0 nan nan
          nan nan nan nan nan nan nan nan nan nan nan nan
          nan nan nan 0 0 nan nan nan nan nan nan nan
          nan nan nan nan nan nan nan nan nan nan 0 0
          nan nan nan nan nan nan nan nan nan nan nan nan
          nan nan nan nan nan 0 0 nan nan nan nan nan
          nan nan nan nan nan nan nan nan nan nan nan nan
          0 0 nan nan nan nan nan nan nan nan nan nan
          nan nan nan nan nan nan nan 0 0 nan nan nan
          nan nan nan nan nan nan nan nan nan nan nan nan
          nan nan 0 0 0 nan nan nan nan nan nan nan
          nan nan nan nan nan nan 0 0 0 0 nan nan
          nan nan nan nan nan 0 0 0 0 nan 0 0
        </DataArray>
      </CellData>
      <Points>
        <DataArray type="Float32" Name="Coordinates" NumberOfComponents="3" format="ascii">
          994.634 995.5 2214.5 993.768 995.5 2215 993.768 995.5 2214 992.902 995.5 2214.5
          992.902 995.5 2213.5 992.036 995.5 2214 992.036 995.5 2213 996.366 995.5 2214.5
          995.5 995.5 2215 995.5 995.5 2214 994.634 995.5 2213.5 993.768 995.5 2213
          992.902 995.5 2212.5 992.036 995.5 2212 991.17 995.5 2212.5 991.17 995.5 2211.5
          998.098 995.5 2214.5 997.232 995.5 2215 997.232 995.5 2214 996.366 995.5 2213.5
          995.5 995.5 2213 994.634 995.5 2212.5 993.768 995.5 2212 992.902 995.5 2211.5
          992.036 995.5 2211 991.17 995.5 2210.5 990.304 995.5 2211 990.304 995.5 2210
          998.964 995.5 2214 998.098 995.5 2213.5 997.232 995.5 2213 996.366 995.5 2212.5
          995.5 995.5 2212 994.634 995.5 2211.5 993.768 995.5 2211 992.902 995.5 2210.5
          992.036 995.5 2210 991.17 995.5 2209.5 990.304 995.5 2209 998.964 995.5 2213
          998.098 995.5 2212.5 997.232 995.5 2212 996.366 995.5 2211.5 995.5 995.5 2211
          994.634 995.5 2210.5 993.768 995.5 2210 992.902 995.5 2209.5 992.036 995.5 2209
          991.17 995.5 2208.5 999.83 995.5 2212.5 998.964 995.5 2212 998.098 995.5 2211.5
          997.232 995.5 2211 996.366 995.5 2210.5 995.5 995.5 2210 994.634 995.5 2209.5
          993.768 995.5 2209 992.902 995.5 2208.5 992.036 995.5 2208 991.17 995.5 2207.5
          999.83 995.5 2211.5 998.964 995.5 2211 998.098 995.5 2210.5 997.232 995.5 2210
          996.366 995.5 2209.5 995.5 995.5 2209 994.634 995.5 2208.5 993.768 995.5 2208
          992.902 995.5 2207.5 992.036 995.5 2207 1000.7 995.5 2211 999.83 995.5 2210.5
          998.964 995.5 2210 998.098 995.5 2209.5 997.232 995.5 2209 996.366 995.5 2208.5
          995.5 995.5 2208 994.634 995.5 2207.5 993.768 995.5 2207 992.902 995.5 2206.5
          992.036 995.5 2206 1000.7 995.5 2210 999.83 995.5 2209.5 998.964 995.5 2209
          998.098 995.5 2208.5 997.232 995.5 2208 996.366 995.5 2207.5 995.5 995.5 2207
          994.634 995.5 2206.5 993.768 995.5 2206 992.902 995.5 2205.5 1000.7 995.5 2209
          999.83 995.5 2208.5 998.964 995.5 2208 998.098 995.5 2207.5 997.232 995.5 2207
          996.366 995.5 2206.5 995.5 995.5 2206 994.634 995.5 2205.5 993.768 995.5 2205
          999.83 995.5 2207.5 998.964 995.5 2207 998.098 995.5 2206.5 997.232 995.5 2206
          996.366 995.5 2205.5 995.5 995.5 2205 998.964 995.5 2206 998.098 995.5 2205.5
          997.232 995.5 2205
        </DataArray>
      </Points>
      <Cells>
        <DataArray type="Int32" Name="connectivity" NumberOfComponents="1" format="ascii">
          0 1 2 1 2 3 2 3 4 3 4 5
          4 5 6 7 8 9 8 9 0 9 0 10
          0 10 2 10 2 11 2 11 4 11 4 12
          4 12 6 12 6 13 6 13 14 13 14 15
          16 17 18 17 18 7 18 7 19 7 19 9
          19 9 20 9 20 10 20 10 21 10 21 11
          21 11 22 11 22 12 22 12 23 12 23 13
          23 13 24 13 24 15 24 15 25 15 25 26
          25 26 27 28 16 29 16 29 18 29 18 30
          18 30 19 30 19 31 19 31 20 31 20 32
          20 32 21 32 21 33 21 33 22 33 22 34
          22 34 23 34 23 35 23 35 24 35 24 36
          24 36 25 36 25 37 25 37 27 37 27 38
          28 39 29 39 29 40 29 40 30 40 30 41
          30 41 31 41 31 42 31 42 32 42 32 43
          32 43 33 43 33 44 33 44 34 44 34 45
          34 45 35 45 35 46 35 46 36 46 36 47
          36 47 37 47 37 48 37 48 38 49 39 50
          39 50 40 50 40 51 40 51 41 51 41 52
          41 52 42 52 42 53 42 53 43 53 43 54
          43 54 44 54 44 55 44 55 45 55 45 56
          45 56 46 56 46 57 46 57 47 57 47 58
          47 58 48 58 48 59 49 60 50 60 50 61
          50 61 51 61 51 62 51 62 52 62 52 63
          52 63 53 63 53 64 53 64 54 64 54 65
          54 65 55 65 55 66 55 66 56 66 56 67
          56 67 57 67 57 68 57 68 58 68 58 69
          58 69 59 70 60 71 60 71 61 71 61 72
          61 72 62 72 62 73 62 73 63 73 63 74
          63 74 64 74 64 75 64 75 65 75 65 76
          65 76 66 76 66 77 66 77 67 77 67 78
          67 78 68 78 68 79 68 79 69 79 69 80
          70 81 71 81 71 82 71 82 72 82 72 83
          72 83 73 83 73 84 73 84 74 84 74 85
          74 85 75 85 75 86 75 86 76 86 76 87
          76 87 77 87 77 88 77 88 78 88 78 89
          78 89 79 89 79 90 79 90 80 81 91 82
          91 82 92 82 92 83 92 83 93 83 93 84
          93 84 94 84 94 85 94 85 95 85 95 86
          95 86 96 86 96 87 96 87 97 87 97 88
          97 88 98 88 98 89 98 89 99 89 99 90
          92 100 93 100 93 101 93 101 94 101 94 102
          94 102 95 102 95 103 95 103 96 103 96 104
          96 104 97 104 97 105 97 105 98 101 106 102
          106 102 107 102 107 103 107 103 108 103 108 104
        </DataArray>
        <DataArray type="Int32" Name="offsets" NumberOfComponents="1" format="ascii">
          3 6 9 12 15 18 21 24 27 30 33 36
          39 42 45 48 51 54 57 60 63 66 69 72
          75 78 81 84 87 90 93 96 99 102 105 108
          111 114 117 120 123 126 129 132 135 138 141 144
          147 150 153 156 159 162 165 168 171 174 177 180
          183 186 189 192 195 198 201 204 207 210 213 216
          219 222 225 228 231 234 237 240 243 246 249 252
          255 258 261 264 267 270 273 276 279 282 285 288
          291 294 297 300 303 306 309 312 315 318 321 324
          327 330 333 336 339 342 345 348 351 354 357 360
          363 366 369 372 375 378 381 384 387 390 393 396
          399 402 405 408 411 414 417 420 423 426 429 432
          435 438 441 444 447 450 453 456 459 462 465 468
          471 474 477 480 483 486 489 492 495 498 501 504
          507 510 513 516 519 522 525 528 531 534 537 540
        </DataArray>
        <DataArray type="UInt8" Name="types" NumberOfComponents="1" format="ascii">
          5 5 5 5 5 5 5 5 5 5 5 5
          5 5 5 5 5 5 5 5 5 5 5 5
          5 5 5 5 5 5 5 5 5 5 5 5
          5 5 5 5 5 5 5 5 5 5 5 5
          5 5 5 5 5 5 5 5 5 5 5 5
          5 5 5 5 5 5 5 5 5 5 5 5
          5 5 5 5 5 5 5 5 5 5 5 5
          5 5 5 5 5 5 5 5 5 5 5 5
          5 5 5 5 5 5 5 5 5 5 5 5
          5 5 5 5 5 5 5 5 5 5 5 5
          5 5 5 5 5 5 5 5 5 5 5 5
          5 5 5 5 5 5 5 5 5 5 5 5
          5 5 5 5 5 5 5 5 5 5 5 5
          5 5 5 5 5 5 5 5 5 5 5 5
          5 5 5 5 5 5 5 5 5 5 5 5
        </DataArray>
      </Cells>
    </Piece>
  </UnstructuredGrid>
</VTKFile>
